<svg width="600" height="900" viewBox="0 0 600 900" fill="none" xmlns="http://www.w3.org/2000/svg">
<g id="Floor 2">
<path id="floor" d="M86 182.5H209.5V249H265V146H388.5V249H449V182.5H554V534.5V800.5H435.5V729H388.5V868H249.5V729H192.5V800.5H86V182.5Z" fill="#696560"/>
<g id="floor_2" filter="url(#filter0_d_11_156)">
<path d="M55 155.5H178.5V222H234V119H357.5V222H418V155.5H523V507.5V773.5H404.5V702H357.5V841H218.5V702H161.5V773.5H55V155.5Z" fill="#CBBEAD"/>
<path d="M55 153H52.5V155.5V773.5V776H55H161.5H164V773.5V704.5H216V841V843.5H218.5H357.5H360V841V704.5H402V773.5V776H404.5H523H525.5V773.5V507.5V155.5V153H523H418H415.5V155.5V219.5H360V119V116.5H357.5H234H231.5V119V219.5H181V155.5V153H178.5H55Z" stroke="#B0ADAB" stroke-width="5"/>
</g>
<rect id="room_210" x="219.5" y="702.5" width="138" height="138" fill="#D8E4C2" stroke="#899474"/>
<rect id="room_205" x="55.5" y="471.5" width="233" height="91" fill="#D8E4C2" stroke="#899474"/>
<rect id="room_204" x="55.5" y="321.5" width="233" height="149" fill="#D8E4C2" stroke="#899474"/>
<rect id="room_209" x="404.5" y="641.5" width="118" height="131" fill="#D8E4C2" stroke="#899474"/>
<rect id="room_203" x="55.5" y="157.5" width="122" height="163" fill="#D8E4C2" stroke="#899474"/>
<rect id="room_206" x="55.5" y="563.5" width="233" height="77" fill="#D8E4C2" stroke="#899474"/>
<path id="ladder" d="M135.495 748.565V702.5H161.5V772.5H55.5V702.5H83.5429V748.565V749.065H84.0429H108.5H134.995H135.495V748.565Z" fill="url(#paint0_linear_11_156)" stroke="#7B9199"/>
<rect id="room_208" x="404.5" y="509.5" width="118" height="131" fill="#D8E4C2" stroke="#899474"/>
<rect id="room_207" x="405.5" y="397.5" width="117" height="111" fill="#D8E4C2" stroke="#899474"/>
<rect id="toilet" x="419.5" y="289.5" width="103" height="107" fill="#D8E4C2" stroke="#899474"/>
<rect id="room_202" x="419.5" y="157.5" width="103" height="131" fill="#D8E4C2" stroke="#899474"/>
<rect id="room_201" x="233.5" y="119.5" width="122" height="102" fill="#D8E4C2" stroke="#899474"/>
<g id="floor_name">
<path d="M266.774 92V89.3409L272.987 83.5881C273.516 83.0767 273.959 82.6165 274.317 82.2074C274.68 81.7983 274.956 81.3977 275.143 81.0057C275.331 80.608 275.425 80.179 275.425 79.7188C275.425 79.2074 275.308 78.767 275.075 78.3977C274.842 78.0227 274.524 77.7358 274.121 77.5369C273.717 77.3324 273.26 77.2301 272.749 77.2301C272.214 77.2301 271.749 77.3381 271.351 77.554C270.953 77.7699 270.646 78.0795 270.43 78.483C270.214 78.8864 270.107 79.3665 270.107 79.9233H266.604C266.604 78.7812 266.862 77.7898 267.379 76.9489C267.896 76.108 268.621 75.4574 269.553 74.9972C270.484 74.5369 271.558 74.3068 272.774 74.3068C274.024 74.3068 275.112 74.5284 276.038 74.9716C276.97 75.4091 277.695 76.017 278.212 76.7955C278.729 77.5739 278.987 78.4659 278.987 79.4716C278.987 80.1307 278.857 80.7812 278.595 81.4233C278.339 82.0653 277.882 82.7784 277.223 83.5625C276.564 84.3409 275.635 85.2756 274.436 86.3665L271.888 88.8636V88.983H279.217V92H266.774ZM292.321 81.6193C291.912 81.6193 291.548 81.6989 291.23 81.858C290.912 82.017 290.662 82.2386 290.48 82.5227C290.304 82.8011 290.216 83.1307 290.216 83.5114H286.952C286.952 82.8011 287.088 82.1534 287.361 81.5682C287.634 80.9773 288.014 80.4687 288.503 80.0426C288.991 79.6108 289.56 79.2784 290.207 79.0455C290.861 78.8125 291.565 78.696 292.321 78.696C293.639 78.696 294.747 78.9915 295.645 79.5824C296.548 80.1676 297.23 80.9602 297.69 81.9602C298.156 82.9545 298.389 84.071 298.389 85.3097V85.625C298.389 86.8693 298.159 87.9915 297.699 88.9915C297.239 89.9915 296.557 90.7841 295.653 91.3693C294.756 91.9489 293.645 92.2386 292.321 92.2386C291.264 92.2386 290.332 92.0312 289.526 91.6165C288.719 91.196 288.088 90.6023 287.634 89.8352C287.179 89.0625 286.952 88.1449 286.952 87.0824H290.216C290.216 87.4858 290.301 87.8551 290.472 88.1903C290.642 88.5256 290.884 88.7926 291.196 88.9915C291.514 89.1903 291.889 89.2926 292.321 89.2983C292.997 89.2926 293.523 89.1023 293.898 88.7273C294.278 88.3523 294.543 87.8835 294.69 87.321C294.844 86.7528 294.92 86.1875 294.92 85.625V85.3097C294.92 84.6903 294.841 84.0994 294.682 83.5369C294.528 82.9744 294.261 82.5142 293.881 82.1562C293.506 81.7983 292.986 81.6193 292.321 81.6193ZM295.969 84.3807V86.5284H291.341V84.3807H295.969ZM299.501 81.7642V78.9091H311.365V81.7642H307.146V92H303.686V81.7642H299.501ZM316.83 92.2472C315.995 92.2472 315.251 92.1023 314.597 91.8125C313.944 91.517 313.427 91.0824 313.046 90.5085C312.671 89.929 312.484 89.2074 312.484 88.3438C312.484 87.6165 312.617 87.0057 312.884 86.5114C313.151 86.017 313.515 85.6193 313.975 85.3182C314.435 85.017 314.958 84.7898 315.543 84.6364C316.134 84.483 316.754 84.375 317.401 84.3125C318.163 84.233 318.776 84.1591 319.242 84.0909C319.708 84.017 320.046 83.9091 320.256 83.767C320.467 83.625 320.572 83.4148 320.572 83.1364V83.0852C320.572 82.5455 320.401 82.1278 320.06 81.8324C319.725 81.5369 319.248 81.3892 318.629 81.3892C317.975 81.3892 317.455 81.5341 317.069 81.8239C316.683 82.108 316.427 82.4659 316.302 82.8977L312.944 82.625C313.114 81.8295 313.45 81.142 313.95 80.5625C314.45 79.9773 315.094 79.5284 315.884 79.2159C316.68 78.8977 317.6 78.7386 318.646 78.7386C319.373 78.7386 320.069 78.8239 320.734 78.9943C321.404 79.1648 321.998 79.429 322.515 79.7869C323.038 80.1449 323.45 80.6051 323.751 81.1676C324.052 81.7244 324.202 82.392 324.202 83.1705V92H320.759V90.1847H320.657C320.447 90.5938 320.165 90.9545 319.813 91.267C319.461 91.5739 319.038 91.8153 318.543 91.9915C318.049 92.1619 317.478 92.2472 316.83 92.2472ZM317.87 89.7415C318.404 89.7415 318.876 89.6364 319.285 89.4261C319.694 89.2102 320.015 88.9205 320.248 88.5568C320.481 88.1932 320.597 87.7812 320.597 87.321V85.9318C320.484 86.0057 320.327 86.0739 320.129 86.1364C319.935 86.1932 319.717 86.2472 319.472 86.2983C319.228 86.3437 318.984 86.3864 318.739 86.4261C318.495 86.4602 318.273 86.4915 318.075 86.5199C317.648 86.5824 317.276 86.6818 316.958 86.8182C316.64 86.9545 316.393 87.1392 316.217 87.3722C316.04 87.5994 315.952 87.8835 315.952 88.2244C315.952 88.7188 316.131 89.0966 316.489 89.358C316.853 89.6136 317.313 89.7415 317.87 89.7415ZM326.167 92L330.744 85.1903L326.192 78.9091H330.335L333.735 84.0312H334.298V78.9091H337.928V84.0312H338.474L341.874 78.9091H346.016L341.474 85.1903L346.042 92H341.806L338.44 86.8864H337.928V92H334.298V86.8864H333.786L330.403 92H326.167Z" fill="black"/>
<path d="M265.359 96.7727H346.638V98.4091H265.359V96.7727Z" fill="black"/>
</g>
<path id="name" d="M26.9157 32.4545H28.6486V43.9034H28.7907L36.7452 32.4545H38.4498V47H36.6884V35.5795H36.5463L28.6202 47H26.9157V32.4545ZM49.0481 40.7784V42.3409H43.0254V40.7784H49.0481ZM43.4231 36.0909V47H41.747V36.0909H43.4231ZM50.3265 36.0909V47H48.6504V36.0909H50.3265ZM57.8194 47.2273C56.7967 47.2273 55.916 46.9858 55.1774 46.5028C54.4387 46.0199 53.8706 45.3546 53.4728 44.5071C53.0751 43.6596 52.8762 42.6913 52.8762 41.6023C52.8762 40.4943 53.0798 39.5166 53.487 38.669C53.899 37.8168 54.4719 37.1515 55.2058 36.6733C55.9444 36.1903 56.8062 35.9489 57.791 35.9489C58.5581 35.9489 59.2493 36.0909 59.8649 36.375C60.4804 36.6591 60.9847 37.0568 61.3777 37.5682C61.7707 38.0795 62.0145 38.6761 62.1092 39.358H60.4331C60.3052 38.8608 60.0211 38.4205 59.5808 38.0369C59.1452 37.6487 58.5581 37.4545 57.8194 37.4545C57.166 37.4545 56.5931 37.625 56.1007 37.9659C55.613 38.3021 55.2318 38.7779 54.9572 39.3935C54.6873 40.0043 54.5524 40.7216 54.5524 41.5455C54.5524 42.3883 54.685 43.1222 54.9501 43.7472C55.22 44.3722 55.5988 44.8575 56.0865 45.2031C56.5789 45.5488 57.1565 45.7216 57.8194 45.7216C58.255 45.7216 58.6504 45.6458 59.0055 45.4943C59.3606 45.3428 59.6613 45.125 59.9075 44.8409C60.1537 44.5568 60.3289 44.2159 60.4331 43.8182H62.1092C62.0145 44.4621 61.7801 45.0421 61.4061 45.5582C61.0368 46.0696 60.5467 46.4768 59.9359 46.7798C59.3298 47.0781 58.6243 47.2273 57.8194 47.2273ZM63.7001 37.6534V36.0909H72.5637V37.6534H68.9842V47H67.3081V37.6534H63.7001ZM76.6848 44.5284L81.9405 36.0909H83.8723V47H82.1962V38.5625L76.9689 47H75.0087V36.0909H76.6848V44.5284ZM85.4579 37.6534V36.0909H94.3216V37.6534H90.742V47H89.0659V37.6534H85.4579ZM97.8461 51.0909C97.562 51.0909 97.3087 51.0672 97.0861 51.0199C96.8636 50.9773 96.7097 50.9347 96.6245 50.892L97.0506 49.4148C97.4578 49.5189 97.8176 49.5568 98.1301 49.5284C98.4426 49.5 98.7196 49.3603 98.9611 49.1094C99.2073 48.8632 99.4322 48.4631 99.6358 47.9091L99.9483 47.0568L95.9142 36.0909H97.7324L100.744 44.7841H100.857L103.869 36.0909H105.687L101.056 48.5909C100.848 49.1544 100.59 49.6207 100.282 49.9901C99.9744 50.3641 99.6169 50.6411 99.2097 50.821C98.8072 51.0009 98.3527 51.0909 97.8461 51.0909ZM107.274 37.6534V36.0909H116.138V37.6534H112.558V47H110.882V37.6534H107.274ZM124.435 32.4545H126.537L131.481 44.5284H131.651L136.594 32.4545H138.697V47H137.049V35.9489H136.907L132.361 47H130.77L126.225 35.9489H126.083V47H124.435V32.4545ZM145.211 47.2557C144.52 47.2557 143.892 47.1255 143.329 46.8651C142.766 46.5999 142.318 46.2188 141.987 45.7216C141.655 45.2197 141.49 44.6136 141.49 43.9034C141.49 43.2784 141.613 42.7718 141.859 42.3835C142.105 41.9905 142.434 41.6828 142.846 41.4602C143.258 41.2377 143.713 41.072 144.21 40.9631C144.712 40.8494 145.216 40.7595 145.722 40.6932C146.385 40.608 146.923 40.544 147.335 40.5014C147.751 40.4541 148.054 40.3759 148.244 40.267C148.438 40.1581 148.535 39.9687 148.535 39.6989V39.642C148.535 38.9413 148.343 38.3968 147.96 38.0085C147.581 37.6203 147.006 37.4261 146.234 37.4261C145.434 37.4261 144.806 37.6013 144.352 37.9517C143.897 38.3021 143.578 38.6761 143.393 39.0739L141.802 38.5057C142.086 37.8428 142.465 37.3267 142.938 36.9574C143.417 36.5833 143.937 36.3229 144.501 36.1761C145.069 36.0246 145.628 35.9489 146.177 35.9489C146.527 35.9489 146.93 35.9915 147.384 36.0767C147.844 36.1572 148.286 36.3253 148.713 36.581C149.143 36.8366 149.501 37.2225 149.785 37.7386C150.069 38.2547 150.211 38.946 150.211 39.8125V47H148.535V45.5227H148.45C148.336 45.7595 148.147 46.0128 147.882 46.2827C147.616 46.5526 147.264 46.7822 146.823 46.9716C146.383 47.161 145.846 47.2557 145.211 47.2557ZM145.467 45.75C146.13 45.75 146.688 45.6198 147.143 45.3594C147.602 45.099 147.948 44.7628 148.18 44.3509C148.417 43.9389 148.535 43.5057 148.535 43.0511V41.517C148.464 41.6023 148.308 41.6804 148.066 41.7514C147.829 41.8177 147.555 41.8769 147.242 41.929C146.935 41.9763 146.634 42.0189 146.34 42.0568C146.052 42.09 145.817 42.1184 145.637 42.142C145.202 42.1989 144.794 42.2912 144.416 42.419C144.042 42.5421 143.739 42.7292 143.507 42.9801C143.279 43.2263 143.166 43.5625 143.166 43.9886C143.166 44.571 143.381 45.0114 143.812 45.3097C144.248 45.6032 144.799 45.75 145.467 45.75ZM151.786 37.6534V36.0909H160.65V37.6534H157.07V47H155.394V37.6534H151.786ZM167.102 47.2273C166.051 47.2273 165.144 46.9953 164.382 46.5312C163.624 46.0625 163.04 45.4091 162.628 44.571C162.22 43.7282 162.017 42.7481 162.017 41.6307C162.017 40.5133 162.22 39.5284 162.628 38.6761C163.04 37.8191 163.613 37.1515 164.346 36.6733C165.085 36.1903 165.947 35.9489 166.932 35.9489C167.5 35.9489 168.061 36.0436 168.615 36.233C169.169 36.4223 169.673 36.7301 170.128 37.1562C170.582 37.5777 170.944 38.1364 171.214 38.8324C171.484 39.5284 171.619 40.3854 171.619 41.4034V42.1136H163.21V40.6648H169.915C169.915 40.0492 169.791 39.5 169.545 39.017C169.304 38.5341 168.958 38.1529 168.508 37.8736C168.063 37.5942 167.538 37.4545 166.932 37.4545C166.264 37.4545 165.686 37.6203 165.199 37.9517C164.716 38.2784 164.344 38.7045 164.084 39.2301C163.823 39.7557 163.693 40.3191 163.693 40.9205V41.8864C163.693 42.7102 163.835 43.4086 164.119 43.9815C164.408 44.5497 164.808 44.983 165.319 45.2812C165.831 45.5748 166.425 45.7216 167.102 45.7216C167.542 45.7216 167.94 45.66 168.295 45.5369C168.655 45.4091 168.965 45.2197 169.226 44.9688C169.486 44.7131 169.687 44.3958 169.829 44.017L171.449 44.4716C171.278 45.0208 170.992 45.5038 170.589 45.9205C170.187 46.3324 169.69 46.6544 169.098 46.8864C168.506 47.1136 167.841 47.2273 167.102 47.2273ZM180.135 44.7273L183.942 36.0909H185.532L180.817 47H179.453L174.822 36.0909H176.385L180.135 44.7273ZM175.845 36.0909V47H174.169V36.0909H175.845ZM184.425 47V36.0909H186.101V47H184.425ZM192.379 47.2557C191.688 47.2557 191.06 47.1255 190.497 46.8651C189.934 46.5999 189.486 46.2188 189.155 45.7216C188.823 45.2197 188.657 44.6136 188.657 43.9034C188.657 43.2784 188.781 42.7718 189.027 42.3835C189.273 41.9905 189.602 41.6828 190.014 41.4602C190.426 41.2377 190.881 41.072 191.378 40.9631C191.88 40.8494 192.384 40.7595 192.89 40.6932C193.553 40.608 194.091 40.544 194.503 40.5014C194.919 40.4541 195.222 40.3759 195.412 40.267C195.606 40.1581 195.703 39.9687 195.703 39.6989V39.642C195.703 38.9413 195.511 38.3968 195.128 38.0085C194.749 37.6203 194.174 37.4261 193.402 37.4261C192.602 37.4261 191.974 37.6013 191.52 37.9517C191.065 38.3021 190.746 38.6761 190.561 39.0739L188.97 38.5057C189.254 37.8428 189.633 37.3267 190.106 36.9574C190.585 36.5833 191.105 36.3229 191.669 36.1761C192.237 36.0246 192.796 35.9489 193.345 35.9489C193.695 35.9489 194.098 35.9915 194.552 36.0767C195.012 36.1572 195.454 36.3253 195.881 36.581C196.311 36.8366 196.669 37.2225 196.953 37.7386C197.237 38.2547 197.379 38.946 197.379 39.8125V47H195.703V45.5227H195.618C195.504 45.7595 195.315 46.0128 195.05 46.2827C194.784 46.5526 194.432 46.7822 193.991 46.9716C193.551 47.161 193.014 47.2557 192.379 47.2557ZM192.635 45.75C193.298 45.75 193.856 45.6198 194.311 45.3594C194.77 45.099 195.116 44.7628 195.348 44.3509C195.585 43.9389 195.703 43.5057 195.703 43.0511V41.517C195.632 41.6023 195.476 41.6804 195.234 41.7514C194.997 41.8177 194.723 41.8769 194.41 41.929C194.103 41.9763 193.802 42.0189 193.508 42.0568C193.22 42.09 192.985 42.1184 192.805 42.142C192.37 42.1989 191.962 42.2912 191.584 42.419C191.21 42.5421 190.907 42.7292 190.675 42.9801C190.447 43.2263 190.334 43.5625 190.334 43.9886C190.334 44.571 190.549 45.0114 190.98 45.3097C191.416 45.6032 191.967 45.75 192.635 45.75ZM198.954 37.6534V36.0909H207.818V37.6534H204.238V47H202.562V37.6534H198.954ZM211.939 44.5284L217.194 36.0909H219.126V47H217.45V38.5625L212.223 47H210.263V36.0909H211.939V44.5284ZM222.196 47V36.0909H223.872V40.8352H224.98L228.901 36.0909H231.06L226.656 41.3466L231.117 47H228.958L225.378 42.3977H223.872V47H222.196ZM234.615 44.5284L239.87 36.0909H241.802V47H240.126V38.5625L234.899 47H232.938V36.0909H234.615V44.5284ZM247.372 45.0114L247.258 45.7784C247.178 46.3182 247.055 46.8958 246.889 47.5114C246.728 48.1269 246.56 48.7069 246.385 49.2514C246.21 49.7959 246.065 50.2292 245.952 50.5511H244.673C244.735 50.2481 244.815 49.848 244.915 49.3509C245.014 48.8537 245.113 48.2973 245.213 47.6818C245.317 47.071 245.402 46.446 245.469 45.8068L245.554 45.0114H247.372ZM256.33 32.4545H258.432L263.375 44.5284H263.546L268.489 32.4545H270.591V47H268.943V35.9489H268.801L264.256 47H262.665L258.119 35.9489H257.977V47H256.33V32.4545ZM278.469 47.2273C277.418 47.2273 276.511 46.9953 275.749 46.5312C274.992 46.0625 274.407 45.4091 273.995 44.571C273.588 43.7282 273.384 42.7481 273.384 41.6307C273.384 40.5133 273.588 39.5284 273.995 38.6761C274.407 37.8191 274.98 37.1515 275.714 36.6733C276.452 36.1903 277.314 35.9489 278.299 35.9489C278.867 35.9489 279.428 36.0436 279.982 36.233C280.536 36.4223 281.04 36.7301 281.495 37.1562C281.949 37.5777 282.312 38.1364 282.581 38.8324C282.851 39.5284 282.986 40.3854 282.986 41.4034V42.1136H274.577V40.6648H281.282C281.282 40.0492 281.159 39.5 280.912 39.017C280.671 38.5341 280.325 38.1529 279.876 37.8736C279.43 37.5942 278.905 37.4545 278.299 37.4545C277.631 37.4545 277.054 37.6203 276.566 37.9517C276.083 38.2784 275.711 38.7045 275.451 39.2301C275.19 39.7557 275.06 40.3191 275.06 40.9205V41.8864C275.06 42.7102 275.202 43.4086 275.486 43.9815C275.775 44.5497 276.175 44.983 276.687 45.2812C277.198 45.5748 277.792 45.7216 278.469 45.7216C278.91 45.7216 279.307 45.66 279.662 45.5369C280.022 45.4091 280.332 45.2197 280.593 44.9688C280.853 44.7131 281.055 44.3958 281.197 44.017L282.816 44.4716C282.645 45.0208 282.359 45.5038 281.956 45.9205C281.554 46.3324 281.057 46.6544 280.465 46.8864C279.873 47.1136 279.208 47.2273 278.469 47.2273ZM286.493 36.0909L289.107 40.5511L291.72 36.0909H293.652L290.129 41.5455L293.652 47H291.72L289.107 42.767L286.493 47H284.561L288.027 41.5455L284.561 36.0909H286.493ZM299.254 47.2557C298.563 47.2557 297.935 47.1255 297.372 46.8651C296.809 46.5999 296.361 46.2188 296.03 45.7216C295.698 45.2197 295.532 44.6136 295.532 43.9034C295.532 43.2784 295.656 42.7718 295.902 42.3835C296.148 41.9905 296.477 41.6828 296.889 41.4602C297.301 41.2377 297.756 41.072 298.253 40.9631C298.755 40.8494 299.259 40.7595 299.765 40.6932C300.428 40.608 300.966 40.544 301.378 40.5014C301.794 40.4541 302.097 40.3759 302.287 40.267C302.481 40.1581 302.578 39.9687 302.578 39.6989V39.642C302.578 38.9413 302.386 38.3968 302.003 38.0085C301.624 37.6203 301.049 37.4261 300.277 37.4261C299.477 37.4261 298.849 37.6013 298.395 37.9517C297.94 38.3021 297.621 38.6761 297.436 39.0739L295.845 38.5057C296.129 37.8428 296.508 37.3267 296.981 36.9574C297.46 36.5833 297.98 36.3229 298.544 36.1761C299.112 36.0246 299.671 35.9489 300.22 35.9489C300.57 35.9489 300.973 35.9915 301.427 36.0767C301.887 36.1572 302.329 36.3253 302.756 36.581C303.186 36.8366 303.544 37.2225 303.828 37.7386C304.112 38.2547 304.254 38.946 304.254 39.8125V47H302.578V45.5227H302.493C302.379 45.7595 302.19 46.0128 301.925 46.2827C301.659 46.5526 301.307 46.7822 300.866 46.9716C300.426 47.161 299.889 47.2557 299.254 47.2557ZM299.51 45.75C300.173 45.75 300.731 45.6198 301.186 45.3594C301.645 45.099 301.991 44.7628 302.223 44.3509C302.46 43.9389 302.578 43.5057 302.578 43.0511V41.517C302.507 41.6023 302.351 41.6804 302.109 41.7514C301.872 41.8177 301.598 41.8769 301.285 41.929C300.978 41.9763 300.677 42.0189 300.383 42.0568C300.095 42.09 299.86 42.1184 299.68 42.142C299.245 42.1989 298.837 42.2912 298.459 42.419C298.085 42.5421 297.782 42.7292 297.55 42.9801C297.322 43.2263 297.209 43.5625 297.209 43.9886C297.209 44.571 297.424 45.0114 297.855 45.3097C298.291 45.6032 298.842 45.75 299.51 45.75ZM314.615 40.7784V42.3409H308.592V40.7784H314.615ZM308.99 36.0909V47H307.313V36.0909H308.99ZM315.893 36.0909V47H314.217V36.0909H315.893ZM320.63 44.5284L325.886 36.0909H327.818V47H326.142V38.5625L320.914 47H318.954V36.0909H320.63V44.5284ZM330.888 47V36.0909H332.564V40.8352H333.672L337.592 36.0909H339.751L335.348 41.3466L339.808 47H337.649L334.069 42.3977H332.564V47H330.888ZM343.306 44.5284L348.562 36.0909H350.493V47H348.817V38.5625L343.59 47H341.63V36.0909H343.306V44.5284ZM360.865 44.5284L366.12 36.0909H368.052V47H366.376V38.5625L361.149 47H359.188V36.0909H360.865V44.5284ZM385.525 47L380.525 40.3239H378.736V47H376.974V32.4545H378.736V38.7614H379.503L385.327 32.4545H387.429L381.548 38.8466L387.628 47H385.525ZM393.308 47.2273C392.323 47.2273 391.459 46.9929 390.715 46.5241C389.977 46.0554 389.399 45.3996 388.982 44.5568C388.57 43.714 388.365 42.7292 388.365 41.6023C388.365 40.4659 388.57 39.474 388.982 38.6264C389.399 37.7789 389.977 37.1207 390.715 36.652C391.459 36.1832 392.323 35.9489 393.308 35.9489C394.293 35.9489 395.154 36.1832 395.893 36.652C396.636 37.1207 397.214 37.7789 397.626 38.6264C398.043 39.474 398.251 40.4659 398.251 41.6023C398.251 42.7292 398.043 43.714 397.626 44.5568C397.214 45.3996 396.636 46.0554 395.893 46.5241C395.154 46.9929 394.293 47.2273 393.308 47.2273ZM393.308 45.7216C394.056 45.7216 394.671 45.5298 395.154 45.1463C395.637 44.7628 395.995 44.2585 396.227 43.6335C396.459 43.0085 396.575 42.3314 396.575 41.6023C396.575 40.8731 396.459 40.1937 396.227 39.5639C395.995 38.9342 395.637 38.4252 395.154 38.0369C394.671 37.6487 394.056 37.4545 393.308 37.4545C392.56 37.4545 391.944 37.6487 391.461 38.0369C390.978 38.4252 390.621 38.9342 390.389 39.5639C390.157 40.1937 390.041 40.8731 390.041 41.6023C390.041 42.3314 390.157 43.0085 390.389 43.6335C390.621 44.2585 390.978 44.7628 391.461 45.1463C391.944 45.5298 392.56 45.7216 393.308 45.7216ZM406.775 44.7273L410.582 36.0909H412.173L407.457 47H406.094L401.463 36.0909H403.025L406.775 44.7273ZM402.486 36.0909V47H400.809V36.0909H402.486ZM411.065 47V36.0909H412.741V47H411.065ZM415.809 47V36.0909H424.389V47H422.713V37.6534H417.486V47H415.809ZM428.899 40.0398H432.024C433.302 40.0398 434.28 40.3641 434.957 41.0128C435.634 41.6615 435.973 42.483 435.973 43.4773C435.973 44.1307 435.821 44.7249 435.518 45.2599C435.215 45.7902 434.77 46.214 434.183 46.5312C433.596 46.8438 432.876 47 432.024 47H427.45V36.0909H429.126V45.4375H432.024C432.687 45.4375 433.231 45.2623 433.657 44.9119C434.084 44.5616 434.297 44.1117 434.297 43.5625C434.297 42.9848 434.084 42.5137 433.657 42.1491C433.231 41.7846 432.687 41.6023 432.024 41.6023H428.899V40.0398ZM443.752 40.8636V42.4261H437.985V40.8636H443.752ZM439.405 36.0909V47H437.729V36.0909H439.405ZM447.104 47.2273C446.119 47.2273 445.255 46.9929 444.512 46.5241C443.773 46.0554 443.195 45.3996 442.779 44.5568C442.367 43.714 442.161 42.7292 442.161 41.6023C442.161 40.4659 442.367 39.474 442.779 38.6264C443.195 37.7789 443.773 37.1207 444.512 36.652C445.255 36.1832 446.119 35.9489 447.104 35.9489C448.089 35.9489 448.95 36.1832 449.689 36.652C450.432 37.1207 451.01 37.7789 451.422 38.6264C451.839 39.474 452.047 40.4659 452.047 41.6023C452.047 42.7292 451.839 43.714 451.422 44.5568C451.01 45.3996 450.432 46.0554 449.689 46.5241C448.95 46.9929 448.089 47.2273 447.104 47.2273ZM447.104 45.7216C447.852 45.7216 448.468 45.5298 448.95 45.1463C449.433 44.7628 449.791 44.2585 450.023 43.6335C450.255 43.0085 450.371 42.3314 450.371 41.6023C450.371 40.8731 450.255 40.1937 450.023 39.5639C449.791 38.9342 449.433 38.4252 448.95 38.0369C448.468 37.6487 447.852 37.4545 447.104 37.4545C446.356 37.4545 445.74 37.6487 445.257 38.0369C444.774 38.4252 444.417 38.9342 444.185 39.5639C443.953 40.1937 443.837 40.8731 443.837 41.6023C443.837 42.3314 443.953 43.0085 444.185 43.6335C444.417 44.2585 444.774 44.7628 445.257 45.1463C445.74 45.5298 446.356 45.7216 447.104 45.7216ZM453.349 37.6534V36.0909H462.212V37.6534H458.633V47H456.956V37.6534H453.349ZM468.665 47.2273C467.613 47.2273 466.707 46.9953 465.944 46.5312C465.187 46.0625 464.602 45.4091 464.19 44.571C463.783 43.7282 463.579 42.7481 463.579 41.6307C463.579 40.5133 463.783 39.5284 464.19 38.6761C464.602 37.8191 465.175 37.1515 465.909 36.6733C466.648 36.1903 467.509 35.9489 468.494 35.9489C469.062 35.9489 469.623 36.0436 470.177 36.233C470.731 36.4223 471.236 36.7301 471.69 37.1562C472.145 37.5777 472.507 38.1364 472.777 38.8324C473.047 39.5284 473.182 40.3854 473.182 41.4034V42.1136H464.773V40.6648H471.477C471.477 40.0492 471.354 39.5 471.108 39.017C470.866 38.5341 470.521 38.1529 470.071 37.8736C469.626 37.5942 469.1 37.4545 468.494 37.4545C467.827 37.4545 467.249 37.6203 466.761 37.9517C466.278 38.2784 465.907 38.7045 465.646 39.2301C465.386 39.7557 465.256 40.3191 465.256 40.9205V41.8864C465.256 42.7102 465.398 43.4086 465.682 43.9815C465.97 44.5497 466.371 44.983 466.882 45.2812C467.393 45.5748 467.988 45.7216 468.665 45.7216C469.105 45.7216 469.503 45.66 469.858 45.5369C470.218 45.4091 470.528 45.2197 470.788 44.9688C471.049 44.7131 471.25 44.3958 471.392 44.017L473.011 44.4716C472.841 45.0208 472.554 45.5038 472.152 45.9205C471.749 46.3324 471.252 46.6544 470.66 46.8864C470.068 47.1136 469.403 47.2273 468.665 47.2273ZM475.731 51.0909V36.0909H477.351V37.8239H477.55C477.673 37.6345 477.843 37.393 478.061 37.0994C478.283 36.8011 478.601 36.536 479.013 36.304C479.429 36.0672 479.993 35.9489 480.703 35.9489C481.622 35.9489 482.431 36.1785 483.132 36.6378C483.833 37.0971 484.38 37.7481 484.773 38.5909C485.166 39.4337 485.362 40.428 485.362 41.5739C485.362 42.7292 485.166 43.7306 484.773 44.5781C484.38 45.4209 483.835 46.0743 483.139 46.5384C482.443 46.9976 481.64 47.2273 480.731 47.2273C480.031 47.2273 479.47 47.1113 479.048 46.8793C478.627 46.6425 478.302 46.375 478.075 46.0767C477.848 45.7737 477.673 45.5227 477.55 45.3239H477.407V51.0909H475.731ZM477.379 41.5455C477.379 42.3693 477.5 43.0961 477.741 43.7259C477.983 44.3509 478.336 44.8409 478.8 45.196C479.264 45.5464 479.832 45.7216 480.504 45.7216C481.205 45.7216 481.79 45.5369 482.258 45.1676C482.732 44.7936 483.087 44.2917 483.324 43.6619C483.565 43.0275 483.686 42.322 483.686 41.5455C483.686 40.7784 483.568 40.0871 483.331 39.4716C483.099 38.8513 482.746 38.3613 482.273 38.0014C481.804 37.6368 481.214 37.4545 480.504 37.4545C479.822 37.4545 479.249 37.6274 478.785 37.973C478.321 38.3139 477.971 38.7921 477.734 39.4077C477.497 40.0185 477.379 40.7311 477.379 41.5455ZM495.22 40.7784V42.3409H489.197V40.7784H495.22ZM489.595 36.0909V47H487.919V36.0909H489.595ZM496.498 36.0909V47H494.822V36.0909H496.498ZM501.008 40.0398H504.133C505.412 40.0398 506.39 40.3641 507.067 41.0128C507.744 41.6615 508.082 42.483 508.082 43.4773C508.082 44.1307 507.931 44.7249 507.628 45.2599C507.325 45.7902 506.88 46.214 506.292 46.5312C505.705 46.8438 504.986 47 504.133 47H499.559V36.0909H501.236V45.4375H504.133C504.796 45.4375 505.341 45.2623 505.767 44.9119C506.193 44.5616 506.406 44.1117 506.406 43.5625C506.406 42.9848 506.193 42.5137 505.767 42.1491C505.341 41.7846 504.796 41.6023 504.133 41.6023H501.008V40.0398ZM509.815 47V36.0909H511.491V47H509.815ZM515.809 36.0909L518.423 40.5511L521.037 36.0909H522.969L519.446 41.5455L522.969 47H521.037L518.423 42.767L515.809 47H513.878L517.344 41.5455L513.878 36.0909H515.809ZM538.286 40.7784V42.3409H532.264V40.7784H538.286ZM532.661 36.0909V47H530.985V36.0909H532.661ZM539.565 36.0909V47H537.889V36.0909H539.565ZM545.836 47.2557C545.145 47.2557 544.517 47.1255 543.954 46.8651C543.391 46.5999 542.943 46.2188 542.612 45.7216C542.28 45.2197 542.115 44.6136 542.115 43.9034C542.115 43.2784 542.238 42.7718 542.484 42.3835C542.73 41.9905 543.059 41.6828 543.471 41.4602C543.883 41.2377 544.338 41.072 544.835 40.9631C545.337 40.8494 545.841 40.7595 546.347 40.6932C547.01 40.608 547.548 40.544 547.96 40.5014C548.376 40.4541 548.679 40.3759 548.869 40.267C549.063 40.1581 549.16 39.9687 549.16 39.6989V39.642C549.16 38.9413 548.968 38.3968 548.585 38.0085C548.206 37.6203 547.631 37.4261 546.859 37.4261C546.059 37.4261 545.431 37.6013 544.977 37.9517C544.522 38.3021 544.203 38.6761 544.018 39.0739L542.427 38.5057C542.711 37.8428 543.09 37.3267 543.563 36.9574C544.042 36.5833 544.562 36.3229 545.126 36.1761C545.694 36.0246 546.253 35.9489 546.802 35.9489C547.152 35.9489 547.555 35.9915 548.009 36.0767C548.469 36.1572 548.911 36.3253 549.338 36.581C549.768 36.8366 550.126 37.2225 550.41 37.7386C550.694 38.2547 550.836 38.946 550.836 39.8125V47H549.16V45.5227H549.075C548.961 45.7595 548.772 46.0128 548.507 46.2827C548.241 46.5526 547.889 46.7822 547.448 46.9716C547.008 47.161 546.471 47.2557 545.836 47.2557ZM546.092 45.75C546.755 45.75 547.313 45.6198 547.768 45.3594C548.227 45.099 548.573 44.7628 548.805 44.3509C549.042 43.9389 549.16 43.5057 549.16 43.0511V41.517C549.089 41.6023 548.933 41.6804 548.691 41.7514C548.454 41.8177 548.18 41.8769 547.867 41.929C547.56 41.9763 547.259 42.0189 546.965 42.0568C546.677 42.09 546.442 42.1184 546.262 42.142C545.827 42.1989 545.419 42.2912 545.041 42.419C544.667 42.5421 544.364 42.7292 544.132 42.9801C543.904 43.2263 543.791 43.5625 543.791 43.9886C543.791 44.571 544.006 45.0114 544.437 45.3097C544.873 45.6032 545.424 45.75 546.092 45.75ZM554.584 51.0909C554.3 51.0909 554.047 51.0672 553.824 51.0199C553.602 50.9773 553.448 50.9347 553.363 50.892L553.789 49.4148C554.196 49.5189 554.556 49.5568 554.868 49.5284C555.181 49.5 555.458 49.3603 555.699 49.1094C555.946 48.8632 556.171 48.4631 556.374 47.9091L556.687 47.0568L552.653 36.0909H554.471L557.482 44.7841H557.596L560.607 36.0909H562.425L557.795 48.5909C557.586 49.1544 557.328 49.6207 557.02 49.9901C556.713 50.3641 556.355 50.6411 555.948 50.821C555.546 51.0009 555.091 51.0909 554.584 51.0909ZM564.638 47V36.0909H566.314V40.8352H567.422L571.342 36.0909H573.501L569.098 41.3466L573.558 47H571.399L567.819 42.3977H566.314V47H564.638Z" fill="black"/>
<g id="text">
<path id="text_room_210" d="M261.136 778H259.659L263.932 766.364H265.386L269.659 778H268.182L264.705 768.205H264.614L261.136 778ZM261.682 773.455H267.636V774.705H261.682V773.455ZM271.06 781.273C270.832 781.273 270.63 781.254 270.452 781.216C270.274 781.182 270.151 781.148 270.082 781.114L270.423 779.932C270.749 780.015 271.037 780.045 271.287 780.023C271.537 780 271.759 779.888 271.952 779.688C272.149 779.491 272.329 779.17 272.491 778.727L272.741 778.045L269.514 769.273H270.969L273.378 776.227H273.469L275.878 769.273H277.332L273.628 779.273C273.461 779.723 273.255 780.097 273.009 780.392C272.762 780.691 272.476 780.913 272.151 781.057C271.829 781.201 271.465 781.273 271.06 781.273ZM277.436 780.5V776.75H278.163C278.341 776.564 278.495 776.364 278.624 776.148C278.752 775.932 278.864 775.676 278.959 775.381C279.057 775.081 279.141 774.718 279.209 774.29C279.277 773.858 279.338 773.337 279.391 772.727L279.686 769.273H285.232V776.75H286.572V780.5H285.232V778H278.777V780.5H277.436ZM279.686 776.75H283.891V770.523H280.936L280.709 772.727C280.614 773.64 280.497 774.437 280.357 775.119C280.216 775.801 279.993 776.345 279.686 776.75ZM292.83 778V776.977L296.67 772.773C297.121 772.28 297.492 771.852 297.784 771.489C298.076 771.121 298.292 770.777 298.432 770.455C298.576 770.129 298.648 769.788 298.648 769.432C298.648 769.023 298.549 768.669 298.352 768.369C298.159 768.07 297.894 767.839 297.557 767.676C297.22 767.513 296.841 767.432 296.42 767.432C295.973 767.432 295.583 767.525 295.25 767.71C294.92 767.892 294.665 768.148 294.483 768.477C294.305 768.807 294.216 769.193 294.216 769.636H292.875C292.875 768.955 293.032 768.356 293.347 767.841C293.661 767.326 294.089 766.924 294.631 766.636C295.176 766.348 295.788 766.205 296.466 766.205C297.148 766.205 297.752 766.348 298.278 766.636C298.805 766.924 299.218 767.312 299.517 767.801C299.816 768.29 299.966 768.833 299.966 769.432C299.966 769.86 299.888 770.278 299.733 770.688C299.581 771.093 299.316 771.545 298.938 772.045C298.562 772.542 298.042 773.148 297.375 773.864L294.761 776.659V776.75H300.17V778H292.83ZM306.608 766.364V778H305.199V767.841H305.131L302.29 769.727V768.295L305.199 766.364H306.608ZM313.75 778.159C312.894 778.159 312.165 777.926 311.562 777.46C310.96 776.991 310.5 776.311 310.182 775.42C309.864 774.527 309.705 773.447 309.705 772.182C309.705 770.924 309.864 769.85 310.182 768.96C310.504 768.066 310.966 767.384 311.568 766.915C312.174 766.441 312.902 766.205 313.75 766.205C314.598 766.205 315.324 766.441 315.926 766.915C316.532 767.384 316.994 768.066 317.312 768.96C317.634 769.85 317.795 770.924 317.795 772.182C317.795 773.447 317.636 774.527 317.318 775.42C317 776.311 316.54 776.991 315.938 777.46C315.335 777.926 314.606 778.159 313.75 778.159ZM313.75 776.909C314.598 776.909 315.258 776.5 315.727 775.682C316.197 774.864 316.432 773.697 316.432 772.182C316.432 771.174 316.324 770.316 316.108 769.608C315.896 768.9 315.589 768.36 315.188 767.989C314.79 767.617 314.311 767.432 313.75 767.432C312.909 767.432 312.252 767.847 311.778 768.676C311.305 769.502 311.068 770.67 311.068 772.182C311.068 773.189 311.174 774.045 311.386 774.75C311.598 775.455 311.903 775.991 312.301 776.358C312.703 776.725 313.186 776.909 313.75 776.909Z" fill="black"/>
<path id="text_room_205" d="M141.988 522H140.511L144.783 510.364H146.238L150.511 522H149.033L145.556 512.205H145.465L141.988 522ZM142.533 517.455H148.488V518.705H142.533V517.455ZM151.911 525.273C151.684 525.273 151.481 525.254 151.303 525.216C151.125 525.182 151.002 525.148 150.934 525.114L151.275 523.932C151.601 524.015 151.888 524.045 152.138 524.023C152.388 524 152.61 523.888 152.803 523.688C153 523.491 153.18 523.17 153.343 522.727L153.593 522.045L150.366 513.273H151.82L154.229 520.227H154.32L156.729 513.273H158.184L154.479 523.273C154.313 523.723 154.106 524.097 153.86 524.392C153.614 524.691 153.328 524.913 153.002 525.057C152.68 525.201 152.317 525.273 151.911 525.273ZM158.288 524.5V520.75H159.015C159.193 520.564 159.346 520.364 159.475 520.148C159.604 519.932 159.716 519.676 159.81 519.381C159.909 519.081 159.992 518.718 160.06 518.29C160.129 517.858 160.189 517.337 160.242 516.727L160.538 513.273H166.083V520.75H167.424V524.5H166.083V522H159.629V524.5H158.288ZM160.538 520.75H164.742V514.523H161.788L161.56 516.727C161.466 517.64 161.348 518.437 161.208 519.119C161.068 519.801 160.844 520.345 160.538 520.75ZM173.681 522V520.977L177.522 516.773C177.973 516.28 178.344 515.852 178.636 515.489C178.927 515.121 179.143 514.777 179.283 514.455C179.427 514.129 179.499 513.788 179.499 513.432C179.499 513.023 179.401 512.669 179.204 512.369C179.011 512.07 178.746 511.839 178.408 511.676C178.071 511.513 177.692 511.432 177.272 511.432C176.825 511.432 176.435 511.525 176.102 511.71C175.772 511.892 175.516 512.148 175.335 512.477C175.156 512.807 175.067 513.193 175.067 513.636H173.727C173.727 512.955 173.884 512.356 174.198 511.841C174.513 511.326 174.941 510.924 175.482 510.636C176.028 510.348 176.639 510.205 177.317 510.205C177.999 510.205 178.603 510.348 179.13 510.636C179.656 510.924 180.069 511.312 180.369 511.801C180.668 512.29 180.817 512.833 180.817 513.432C180.817 513.86 180.74 514.278 180.585 514.688C180.433 515.093 180.168 515.545 179.789 516.045C179.414 516.542 178.893 517.148 178.227 517.864L175.613 520.659V520.75H181.022V522H173.681ZM187.164 522.159C186.308 522.159 185.579 521.926 184.977 521.46C184.374 520.991 183.914 520.311 183.596 519.42C183.278 518.527 183.119 517.447 183.119 516.182C183.119 514.924 183.278 513.85 183.596 512.96C183.918 512.066 184.38 511.384 184.982 510.915C185.588 510.441 186.316 510.205 187.164 510.205C188.013 510.205 188.738 510.441 189.34 510.915C189.946 511.384 190.408 512.066 190.727 512.96C191.049 513.85 191.21 514.924 191.21 516.182C191.21 517.447 191.05 518.527 190.732 519.42C190.414 520.311 189.954 520.991 189.352 521.46C188.749 521.926 188.02 522.159 187.164 522.159ZM187.164 520.909C188.013 520.909 188.672 520.5 189.141 519.682C189.611 518.864 189.846 517.697 189.846 516.182C189.846 515.174 189.738 514.316 189.522 513.608C189.31 512.9 189.003 512.36 188.602 511.989C188.204 511.617 187.725 511.432 187.164 511.432C186.323 511.432 185.666 511.847 185.192 512.676C184.719 513.502 184.482 514.67 184.482 516.182C184.482 517.189 184.588 518.045 184.8 518.75C185.013 519.455 185.317 519.991 185.715 520.358C186.117 520.725 186.6 520.909 187.164 520.909ZM197.005 522.159C196.338 522.159 195.738 522.027 195.204 521.761C194.67 521.496 194.242 521.133 193.92 520.67C193.598 520.208 193.422 519.682 193.391 519.091H194.755C194.808 519.617 195.047 520.053 195.471 520.398C195.899 520.739 196.41 520.909 197.005 520.909C197.482 520.909 197.906 520.797 198.278 520.574C198.653 520.35 198.946 520.044 199.158 519.653C199.374 519.259 199.482 518.814 199.482 518.318C199.482 517.811 199.371 517.358 199.147 516.96C198.927 516.559 198.624 516.242 198.238 516.011C197.852 515.78 197.41 515.663 196.914 515.659C196.558 515.655 196.192 515.71 195.817 515.824C195.442 515.934 195.134 516.076 194.891 516.25L193.573 516.091L194.278 510.364H200.323V511.614H195.46L195.05 515.045H195.119C195.357 514.856 195.656 514.699 196.016 514.574C196.376 514.449 196.751 514.386 197.141 514.386C197.853 514.386 198.488 514.557 199.045 514.898C199.605 515.235 200.045 515.697 200.363 516.284C200.685 516.871 200.846 517.542 200.846 518.295C200.846 519.038 200.679 519.701 200.346 520.284C200.016 520.864 199.562 521.322 198.982 521.659C198.403 521.992 197.744 522.159 197.005 522.159Z" fill="black"/>
<path id="text_room_204" d="M142.222 402H140.745L145.018 390.364H146.472L150.745 402H149.268L145.79 392.205H145.7L142.222 402ZM142.768 397.455H148.722V398.705H142.768V397.455ZM152.146 405.273C151.918 405.273 151.716 405.254 151.538 405.216C151.36 405.182 151.237 405.148 151.168 405.114L151.509 403.932C151.835 404.015 152.123 404.045 152.373 404.023C152.623 404 152.844 403.888 153.038 403.688C153.235 403.491 153.415 403.17 153.577 402.727L153.827 402.045L150.6 393.273H152.055L154.464 400.227H154.555L156.964 393.273H158.418L154.714 403.273C154.547 403.723 154.341 404.097 154.094 404.392C153.848 404.691 153.562 404.913 153.237 405.057C152.915 405.201 152.551 405.273 152.146 405.273ZM158.522 404.5V400.75H159.249C159.427 400.564 159.581 400.364 159.71 400.148C159.838 399.932 159.95 399.676 160.045 399.381C160.143 399.081 160.227 398.718 160.295 398.29C160.363 397.858 160.424 397.337 160.477 396.727L160.772 393.273H166.317V400.75H167.658V404.5H166.317V402H159.863V404.5H158.522ZM160.772 400.75H164.977V394.523H162.022L161.795 396.727C161.7 397.64 161.583 398.437 161.442 399.119C161.302 399.801 161.079 400.345 160.772 400.75ZM173.915 402V400.977L177.756 396.773C178.207 396.28 178.578 395.852 178.87 395.489C179.162 395.121 179.378 394.777 179.518 394.455C179.662 394.129 179.734 393.788 179.734 393.432C179.734 393.023 179.635 392.669 179.438 392.369C179.245 392.07 178.98 391.839 178.643 391.676C178.306 391.513 177.927 391.432 177.506 391.432C177.059 391.432 176.669 391.525 176.336 391.71C176.006 391.892 175.751 392.148 175.569 392.477C175.391 392.807 175.302 393.193 175.302 393.636H173.961C173.961 392.955 174.118 392.356 174.433 391.841C174.747 391.326 175.175 390.924 175.717 390.636C176.262 390.348 176.874 390.205 177.552 390.205C178.234 390.205 178.838 390.348 179.364 390.636C179.891 390.924 180.304 391.312 180.603 391.801C180.902 392.29 181.052 392.833 181.052 393.432C181.052 393.86 180.974 394.278 180.819 394.688C180.667 395.093 180.402 395.545 180.023 396.045C179.648 396.542 179.128 397.148 178.461 397.864L175.847 400.659V400.75H181.256V402H173.915ZM187.398 402.159C186.542 402.159 185.813 401.926 185.211 401.46C184.609 400.991 184.148 400.311 183.83 399.42C183.512 398.527 183.353 397.447 183.353 396.182C183.353 394.924 183.512 393.85 183.83 392.96C184.152 392.066 184.614 391.384 185.217 390.915C185.823 390.441 186.55 390.205 187.398 390.205C188.247 390.205 188.972 390.441 189.575 390.915C190.181 391.384 190.643 392.066 190.961 392.96C191.283 393.85 191.444 394.924 191.444 396.182C191.444 397.447 191.285 398.527 190.967 399.42C190.648 400.311 190.188 400.991 189.586 401.46C188.984 401.926 188.254 402.159 187.398 402.159ZM187.398 400.909C188.247 400.909 188.906 400.5 189.376 399.682C189.845 398.864 190.08 397.697 190.08 396.182C190.08 395.174 189.972 394.316 189.756 393.608C189.544 392.9 189.237 392.36 188.836 391.989C188.438 391.617 187.959 391.432 187.398 391.432C186.558 391.432 185.9 391.847 185.427 392.676C184.953 393.502 184.717 394.67 184.717 396.182C184.717 397.189 184.823 398.045 185.035 398.75C185.247 399.455 185.552 399.991 185.95 400.358C186.351 400.725 186.834 400.909 187.398 400.909ZM193.33 399.614V398.455L198.444 390.364H199.285V392.159H198.717L194.853 398.273V398.364H201.739V399.614H193.33ZM198.808 402V399.261V398.722V390.364H200.148V402H198.808Z" fill="black"/>
<path id="text_room_209" d="M434.363 714H432.886L437.158 702.364H438.613L442.886 714H441.408L437.931 704.205H437.84L434.363 714ZM434.908 709.455H440.863V710.705H434.908V709.455ZM444.286 717.273C444.059 717.273 443.856 717.254 443.678 717.216C443.5 717.182 443.377 717.148 443.309 717.114L443.65 715.932C443.976 716.015 444.263 716.045 444.513 716.023C444.763 716 444.985 715.888 445.178 715.688C445.375 715.491 445.555 715.17 445.718 714.727L445.968 714.045L442.741 705.273H444.195L446.604 712.227H446.695L449.104 705.273H450.559L446.854 715.273C446.688 715.723 446.481 716.097 446.235 716.392C445.989 716.691 445.703 716.913 445.377 717.057C445.055 717.201 444.692 717.273 444.286 717.273ZM450.663 716.5V712.75H451.39C451.568 712.564 451.721 712.364 451.85 712.148C451.979 711.932 452.091 711.676 452.185 711.381C452.284 711.081 452.367 710.718 452.435 710.29C452.504 709.858 452.564 709.337 452.617 708.727L452.913 705.273H458.458V712.75H459.799V716.5H458.458V714H452.004V716.5H450.663ZM452.913 712.75H457.117V706.523H454.163L453.935 708.727C453.841 709.64 453.723 710.437 453.583 711.119C453.443 711.801 453.219 712.345 452.913 712.75ZM466.056 714V712.977L469.897 708.773C470.348 708.28 470.719 707.852 471.011 707.489C471.302 707.121 471.518 706.777 471.658 706.455C471.802 706.129 471.874 705.788 471.874 705.432C471.874 705.023 471.776 704.669 471.579 704.369C471.386 704.07 471.121 703.839 470.783 703.676C470.446 703.513 470.067 703.432 469.647 703.432C469.2 703.432 468.81 703.525 468.477 703.71C468.147 703.892 467.891 704.148 467.71 704.477C467.531 704.807 467.442 705.193 467.442 705.636H466.102C466.102 704.955 466.259 704.356 466.573 703.841C466.888 703.326 467.316 702.924 467.857 702.636C468.403 702.348 469.014 702.205 469.692 702.205C470.374 702.205 470.978 702.348 471.505 702.636C472.031 702.924 472.444 703.312 472.744 703.801C473.043 704.29 473.192 704.833 473.192 705.432C473.192 705.86 473.115 706.278 472.96 706.688C472.808 707.093 472.543 707.545 472.164 708.045C471.789 708.542 471.268 709.148 470.602 709.864L467.988 712.659V712.75H473.397V714H466.056ZM479.539 714.159C478.683 714.159 477.954 713.926 477.352 713.46C476.749 712.991 476.289 712.311 475.971 711.42C475.653 710.527 475.494 709.447 475.494 708.182C475.494 706.924 475.653 705.85 475.971 704.96C476.293 704.066 476.755 703.384 477.357 702.915C477.963 702.441 478.691 702.205 479.539 702.205C480.388 702.205 481.113 702.441 481.715 702.915C482.321 703.384 482.783 704.066 483.102 704.96C483.424 705.85 483.585 706.924 483.585 708.182C483.585 709.447 483.425 710.527 483.107 711.42C482.789 712.311 482.329 712.991 481.727 713.46C481.124 713.926 480.395 714.159 479.539 714.159ZM479.539 712.909C480.388 712.909 481.047 712.5 481.516 711.682C481.986 710.864 482.221 709.697 482.221 708.182C482.221 707.174 482.113 706.316 481.897 705.608C481.685 704.9 481.378 704.36 480.977 703.989C480.579 703.617 480.1 703.432 479.539 703.432C478.698 703.432 478.041 703.847 477.567 704.676C477.094 705.502 476.857 706.67 476.857 708.182C476.857 709.189 476.963 710.045 477.175 710.75C477.388 711.455 477.692 711.991 478.09 712.358C478.492 712.725 478.975 712.909 479.539 712.909ZM489.448 702.205C489.925 702.208 490.403 702.299 490.88 702.477C491.357 702.655 491.793 702.951 492.187 703.364C492.581 703.773 492.897 704.331 493.136 705.04C493.374 705.748 493.494 706.636 493.494 707.705C493.494 708.739 493.395 709.657 493.198 710.46C493.005 711.259 492.725 711.934 492.357 712.483C491.994 713.032 491.55 713.449 491.028 713.733C490.509 714.017 489.922 714.159 489.266 714.159C488.615 714.159 488.033 714.03 487.522 713.773C487.014 713.511 486.598 713.15 486.272 712.688C485.95 712.222 485.744 711.682 485.653 711.068H487.039C487.164 711.602 487.412 712.044 487.783 712.392C488.158 712.737 488.653 712.909 489.266 712.909C490.164 712.909 490.872 712.517 491.391 711.733C491.914 710.949 492.175 709.841 492.175 708.409H492.085C491.872 708.727 491.621 709.002 491.329 709.233C491.037 709.464 490.713 709.642 490.357 709.767C490.001 709.892 489.622 709.955 489.221 709.955C488.554 709.955 487.942 709.79 487.386 709.46C486.833 709.127 486.389 708.67 486.056 708.091C485.727 707.508 485.562 706.841 485.562 706.091C485.562 705.379 485.721 704.727 486.039 704.136C486.361 703.542 486.812 703.068 487.391 702.716C487.975 702.364 488.66 702.193 489.448 702.205ZM489.448 703.455C488.971 703.455 488.541 703.574 488.158 703.812C487.78 704.047 487.478 704.366 487.255 704.767C487.035 705.165 486.925 705.606 486.925 706.091C486.925 706.576 487.031 707.017 487.244 707.415C487.46 707.809 487.753 708.123 488.124 708.358C488.499 708.589 488.925 708.705 489.403 708.705C489.763 708.705 490.098 708.634 490.408 708.494C490.719 708.35 490.99 708.155 491.221 707.909C491.456 707.659 491.639 707.377 491.772 707.062C491.905 706.744 491.971 706.413 491.971 706.068C491.971 705.614 491.861 705.187 491.641 704.79C491.425 704.392 491.126 704.07 490.744 703.824C490.365 703.578 489.933 703.455 489.448 703.455Z" fill="black"/>
<path id="text_room_203" d="M88.2614 244H86.7841L91.0568 232.364H92.5114L96.7841 244H95.3068L91.8295 234.205H91.7386L88.2614 244ZM88.8068 239.455H94.7614V240.705H88.8068V239.455ZM98.1847 247.273C97.9574 247.273 97.7547 247.254 97.5767 247.216C97.3987 247.182 97.2756 247.148 97.2074 247.114L97.5483 245.932C97.8741 246.015 98.1619 246.045 98.4119 246.023C98.6619 246 98.8835 245.888 99.0767 245.688C99.2737 245.491 99.4536 245.17 99.6165 244.727L99.8665 244.045L96.6392 235.273H98.0938L100.503 242.227H100.594L103.003 235.273H104.457L100.753 245.273C100.586 245.723 100.38 246.097 100.134 246.392C99.8873 246.691 99.6013 246.913 99.2756 247.057C98.9536 247.201 98.59 247.273 98.1847 247.273ZM104.561 246.5V242.75H105.288C105.466 242.564 105.62 242.364 105.749 242.148C105.877 241.932 105.989 241.676 106.084 241.381C106.182 241.081 106.266 240.718 106.334 240.29C106.402 239.858 106.463 239.337 106.516 238.727L106.811 235.273H112.357V242.75H113.697V246.5H112.357V244H105.902V246.5H104.561ZM106.811 242.75H111.016V236.523H108.061L107.834 238.727C107.739 239.64 107.622 240.437 107.482 241.119C107.341 241.801 107.118 242.345 106.811 242.75ZM119.955 244V242.977L123.795 238.773C124.246 238.28 124.617 237.852 124.909 237.489C125.201 237.121 125.417 236.777 125.557 236.455C125.701 236.129 125.773 235.788 125.773 235.432C125.773 235.023 125.674 234.669 125.477 234.369C125.284 234.07 125.019 233.839 124.682 233.676C124.345 233.513 123.966 233.432 123.545 233.432C123.098 233.432 122.708 233.525 122.375 233.71C122.045 233.892 121.79 234.148 121.608 234.477C121.43 234.807 121.341 235.193 121.341 235.636H120C120 234.955 120.157 234.356 120.472 233.841C120.786 233.326 121.214 232.924 121.756 232.636C122.301 232.348 122.913 232.205 123.591 232.205C124.273 232.205 124.877 232.348 125.403 232.636C125.93 232.924 126.343 233.312 126.642 233.801C126.941 234.29 127.091 234.833 127.091 235.432C127.091 235.86 127.013 236.278 126.858 236.688C126.706 237.093 126.441 237.545 126.062 238.045C125.688 238.542 125.167 239.148 124.5 239.864L121.886 242.659V242.75H127.295V244H119.955ZM133.438 244.159C132.581 244.159 131.852 243.926 131.25 243.46C130.648 242.991 130.188 242.311 129.869 241.42C129.551 240.527 129.392 239.447 129.392 238.182C129.392 236.924 129.551 235.85 129.869 234.96C130.191 234.066 130.653 233.384 131.256 232.915C131.862 232.441 132.589 232.205 133.438 232.205C134.286 232.205 135.011 232.441 135.614 232.915C136.22 233.384 136.682 234.066 137 234.96C137.322 235.85 137.483 236.924 137.483 238.182C137.483 239.447 137.324 240.527 137.006 241.42C136.688 242.311 136.227 242.991 135.625 243.46C135.023 243.926 134.294 244.159 133.438 244.159ZM133.438 242.909C134.286 242.909 134.945 242.5 135.415 241.682C135.884 240.864 136.119 239.697 136.119 238.182C136.119 237.174 136.011 236.316 135.795 235.608C135.583 234.9 135.277 234.36 134.875 233.989C134.477 233.617 133.998 233.432 133.438 233.432C132.597 233.432 131.939 233.847 131.466 234.676C130.992 235.502 130.756 236.67 130.756 238.182C130.756 239.189 130.862 240.045 131.074 240.75C131.286 241.455 131.591 241.991 131.989 242.358C132.39 242.725 132.873 242.909 133.438 242.909ZM143.574 244.159C142.824 244.159 142.155 244.03 141.568 243.773C140.985 243.515 140.521 243.157 140.176 242.699C139.835 242.237 139.65 241.701 139.619 241.091H141.051C141.081 241.466 141.21 241.79 141.438 242.062C141.665 242.331 141.962 242.54 142.33 242.688C142.697 242.835 143.104 242.909 143.551 242.909C144.051 242.909 144.494 242.822 144.881 242.648C145.267 242.473 145.57 242.231 145.79 241.92C146.009 241.61 146.119 241.25 146.119 240.841C146.119 240.413 146.013 240.036 145.801 239.71C145.589 239.381 145.278 239.123 144.869 238.938C144.46 238.752 143.96 238.659 143.369 238.659H142.438V237.409H143.369C143.831 237.409 144.237 237.326 144.585 237.159C144.938 236.992 145.212 236.758 145.409 236.455C145.61 236.152 145.71 235.795 145.71 235.386C145.71 234.992 145.623 234.65 145.449 234.358C145.275 234.066 145.028 233.839 144.71 233.676C144.396 233.513 144.025 233.432 143.597 233.432C143.195 233.432 142.816 233.506 142.46 233.653C142.108 233.797 141.82 234.008 141.597 234.284C141.373 234.557 141.252 234.886 141.233 235.273H139.869C139.892 234.663 140.076 234.129 140.42 233.67C140.765 233.208 141.216 232.848 141.773 232.591C142.333 232.333 142.949 232.205 143.619 232.205C144.339 232.205 144.956 232.35 145.472 232.642C145.987 232.93 146.383 233.311 146.659 233.784C146.936 234.258 147.074 234.769 147.074 235.318C147.074 235.973 146.902 236.532 146.557 236.994C146.216 237.456 145.752 237.777 145.165 237.955V238.045C145.9 238.167 146.473 238.479 146.886 238.983C147.299 239.483 147.506 240.102 147.506 240.841C147.506 241.473 147.333 242.042 146.989 242.545C146.648 243.045 146.182 243.439 145.591 243.727C145 244.015 144.328 244.159 143.574 244.159Z" fill="black"/>
<path id="text_room_206" d="M142.363 602H140.886L145.158 590.364H146.613L150.886 602H149.408L145.931 592.205H145.84L142.363 602ZM142.908 597.455H148.863V598.705H142.908V597.455ZM152.286 605.273C152.059 605.273 151.856 605.254 151.678 605.216C151.5 605.182 151.377 605.148 151.309 605.114L151.65 603.932C151.976 604.015 152.263 604.045 152.513 604.023C152.763 604 152.985 603.888 153.178 603.688C153.375 603.491 153.555 603.17 153.718 602.727L153.968 602.045L150.741 593.273H152.195L154.604 600.227H154.695L157.104 593.273H158.559L154.854 603.273C154.688 603.723 154.481 604.097 154.235 604.392C153.989 604.691 153.703 604.913 153.377 605.057C153.055 605.201 152.692 605.273 152.286 605.273ZM158.663 604.5V600.75H159.39C159.568 600.564 159.721 600.364 159.85 600.148C159.979 599.932 160.091 599.676 160.185 599.381C160.284 599.081 160.367 598.718 160.435 598.29C160.504 597.858 160.564 597.337 160.617 596.727L160.913 593.273H166.458V600.75H167.799V604.5H166.458V602H160.004V604.5H158.663ZM160.913 600.75H165.117V594.523H162.163L161.935 596.727C161.841 597.64 161.723 598.437 161.583 599.119C161.443 599.801 161.219 600.345 160.913 600.75ZM174.056 602V600.977L177.897 596.773C178.348 596.28 178.719 595.852 179.011 595.489C179.302 595.121 179.518 594.777 179.658 594.455C179.802 594.129 179.874 593.788 179.874 593.432C179.874 593.023 179.776 592.669 179.579 592.369C179.386 592.07 179.121 591.839 178.783 591.676C178.446 591.513 178.067 591.432 177.647 591.432C177.2 591.432 176.81 591.525 176.477 591.71C176.147 591.892 175.891 592.148 175.71 592.477C175.531 592.807 175.442 593.193 175.442 593.636H174.102C174.102 592.955 174.259 592.356 174.573 591.841C174.888 591.326 175.316 590.924 175.857 590.636C176.403 590.348 177.014 590.205 177.692 590.205C178.374 590.205 178.978 590.348 179.505 590.636C180.031 590.924 180.444 591.312 180.744 591.801C181.043 592.29 181.192 592.833 181.192 593.432C181.192 593.86 181.115 594.278 180.96 594.688C180.808 595.093 180.543 595.545 180.164 596.045C179.789 596.542 179.268 597.148 178.602 597.864L175.988 600.659V600.75H181.397V602H174.056ZM187.539 602.159C186.683 602.159 185.954 601.926 185.352 601.46C184.749 600.991 184.289 600.311 183.971 599.42C183.653 598.527 183.494 597.447 183.494 596.182C183.494 594.924 183.653 593.85 183.971 592.96C184.293 592.066 184.755 591.384 185.357 590.915C185.963 590.441 186.691 590.205 187.539 590.205C188.388 590.205 189.113 590.441 189.715 590.915C190.321 591.384 190.783 592.066 191.102 592.96C191.424 593.85 191.585 594.924 191.585 596.182C191.585 597.447 191.425 598.527 191.107 599.42C190.789 600.311 190.329 600.991 189.727 601.46C189.124 601.926 188.395 602.159 187.539 602.159ZM187.539 600.909C188.388 600.909 189.047 600.5 189.516 599.682C189.986 598.864 190.221 597.697 190.221 596.182C190.221 595.174 190.113 594.316 189.897 593.608C189.685 592.9 189.378 592.36 188.977 591.989C188.579 591.617 188.1 591.432 187.539 591.432C186.698 591.432 186.041 591.847 185.567 592.676C185.094 593.502 184.857 594.67 184.857 596.182C184.857 597.189 184.963 598.045 185.175 598.75C185.388 599.455 185.692 599.991 186.09 600.358C186.492 600.725 186.975 600.909 187.539 600.909ZM197.607 602.159C197.13 602.152 196.653 602.061 196.175 601.886C195.698 601.712 195.263 601.419 194.869 601.006C194.475 600.589 194.158 600.027 193.92 599.318C193.681 598.606 193.562 597.712 193.562 596.636C193.562 595.606 193.658 594.693 193.852 593.898C194.045 593.098 194.325 592.426 194.692 591.881C195.06 591.331 195.503 590.915 196.022 590.631C196.545 590.347 197.134 590.205 197.789 590.205C198.441 590.205 199.02 590.335 199.528 590.597C200.039 590.854 200.456 591.214 200.778 591.676C201.1 592.138 201.308 592.67 201.403 593.273H200.016C199.888 592.75 199.638 592.316 199.266 591.972C198.895 591.627 198.403 591.455 197.789 591.455C196.888 591.455 196.177 591.847 195.658 592.631C195.143 593.415 194.884 594.515 194.88 595.932H194.971C195.183 595.61 195.435 595.335 195.727 595.108C196.022 594.877 196.348 594.699 196.704 594.574C197.06 594.449 197.437 594.386 197.835 594.386C198.501 594.386 199.111 594.553 199.664 594.886C200.217 595.216 200.66 595.672 200.994 596.256C201.327 596.835 201.494 597.5 201.494 598.25C201.494 598.97 201.333 599.629 201.011 600.227C200.689 600.822 200.236 601.295 199.653 601.648C199.073 601.996 198.391 602.167 197.607 602.159ZM197.607 600.909C198.085 600.909 198.513 600.79 198.891 600.551C199.274 600.312 199.575 599.992 199.795 599.591C200.018 599.189 200.13 598.742 200.13 598.25C200.13 597.769 200.022 597.331 199.806 596.938C199.594 596.54 199.3 596.223 198.925 595.989C198.554 595.754 198.13 595.636 197.653 595.636C197.293 595.636 196.958 595.708 196.647 595.852C196.336 595.992 196.064 596.186 195.829 596.432C195.598 596.678 195.416 596.96 195.283 597.278C195.151 597.593 195.085 597.924 195.085 598.273C195.085 598.735 195.192 599.167 195.408 599.568C195.628 599.97 195.927 600.294 196.306 600.54C196.689 600.786 197.122 600.909 197.607 600.909Z" fill="black"/>
<path id="text_ladder" d="M70.9155 768V766.75H71.2337C71.495 766.75 71.7128 766.699 71.8871 766.597C72.0613 766.491 72.2015 766.307 72.3075 766.045C72.4174 765.78 72.5007 765.413 72.5575 764.943C72.6181 764.47 72.6617 763.867 72.6882 763.136L72.8473 759.273H78.6655V768H77.3246V760.523H74.12L73.9837 763.636C73.9534 764.352 73.889 764.983 73.7905 765.528C73.6958 766.07 73.55 766.525 73.353 766.892C73.1598 767.259 72.9022 767.536 72.5803 767.722C72.2583 767.907 71.8549 768 71.37 768H70.9155ZM84.7848 768.182C83.9439 768.182 83.2185 767.996 82.6087 767.625C82.0026 767.25 81.5348 766.727 81.2053 766.057C80.8795 765.383 80.7166 764.598 80.7166 763.705C80.7166 762.811 80.8795 762.023 81.2053 761.341C81.5348 760.655 81.9931 760.121 82.5803 759.739C83.1712 759.352 83.8606 759.159 84.6484 759.159C85.103 759.159 85.5518 759.235 85.995 759.386C86.4382 759.538 86.8416 759.784 87.2053 760.125C87.5689 760.462 87.8587 760.909 88.0746 761.466C88.2905 762.023 88.3984 762.708 88.3984 763.523V764.091H81.6712V762.932H87.0348C87.0348 762.439 86.9363 762 86.7393 761.614C86.5462 761.227 86.2696 760.922 85.9098 760.699C85.5537 760.475 85.1333 760.364 84.6484 760.364C84.1143 760.364 83.6522 760.496 83.2621 760.761C82.8757 761.023 82.5784 761.364 82.37 761.784C82.1617 762.205 82.0575 762.655 82.0575 763.136V763.909C82.0575 764.568 82.1712 765.127 82.3984 765.585C82.6295 766.04 82.9496 766.386 83.3587 766.625C83.7678 766.86 84.2431 766.977 84.7848 766.977C85.1371 766.977 85.4553 766.928 85.7393 766.83C86.0272 766.727 86.2753 766.576 86.4837 766.375C86.692 766.17 86.853 765.917 86.9666 765.614L88.2621 765.977C88.1257 766.417 87.8965 766.803 87.5746 767.136C87.2526 767.466 86.8549 767.723 86.3814 767.909C85.9079 768.091 85.3757 768.182 84.7848 768.182ZM93.9837 768.182C93.1655 768.182 92.4609 767.989 91.87 767.602C91.2791 767.216 90.8246 766.684 90.5064 766.006C90.1882 765.328 90.0291 764.553 90.0291 763.682C90.0291 762.795 90.192 762.013 90.5178 761.335C90.8473 760.653 91.3056 760.121 91.8928 759.739C92.4837 759.352 93.1731 759.159 93.9609 759.159C94.5746 759.159 95.1276 759.273 95.62 759.5C96.1125 759.727 96.5159 760.045 96.8303 760.455C97.1446 760.864 97.3397 761.341 97.4155 761.886H96.0746C95.9723 761.489 95.745 761.136 95.3928 760.83C95.0443 760.519 94.5746 760.364 93.9837 760.364C93.4609 760.364 93.0026 760.5 92.6087 760.773C92.2185 761.042 91.9136 761.422 91.6939 761.915C91.478 762.403 91.37 762.977 91.37 763.636C91.37 764.311 91.4761 764.898 91.6882 765.398C91.9041 765.898 92.2071 766.286 92.5973 766.562C92.9912 766.839 93.4534 766.977 93.9837 766.977C94.3321 766.977 94.6484 766.917 94.9325 766.795C95.2166 766.674 95.4571 766.5 95.6541 766.273C95.8511 766.045 95.9912 765.773 96.0746 765.455H97.4155C97.3397 765.97 97.1522 766.434 96.853 766.847C96.5575 767.256 96.1655 767.581 95.6768 767.824C95.192 768.062 94.6276 768.182 93.9837 768.182ZM98.6882 760.523V759.273H105.779V760.523H102.915V768H101.575V760.523H98.6882ZM113.576 763.023V764.273H108.758V763.023H113.576ZM109.076 759.273V768H107.735V759.273H109.076ZM114.599 759.273V768H113.258V759.273H114.599ZM118.388 766.023L122.593 759.273H124.138V768H122.798V761.25L118.616 768H117.048V759.273H118.388V766.023ZM133.458 759.273V766.75H134.685V770.818H133.344V768H126.594V759.273H127.935V766.75H132.117V759.273H133.458ZM139.319 768.205C138.766 768.205 138.264 768.1 137.813 767.892C137.362 767.68 137.004 767.375 136.739 766.977C136.474 766.576 136.342 766.091 136.342 765.523C136.342 765.023 136.44 764.617 136.637 764.307C136.834 763.992 137.097 763.746 137.427 763.568C137.756 763.39 138.12 763.258 138.518 763.17C138.919 763.08 139.323 763.008 139.728 762.955C140.258 762.886 140.688 762.835 141.018 762.801C141.351 762.763 141.594 762.701 141.745 762.614C141.9 762.527 141.978 762.375 141.978 762.159V762.114C141.978 761.553 141.825 761.117 141.518 760.807C141.215 760.496 140.754 760.341 140.137 760.341C139.497 760.341 138.995 760.481 138.631 760.761C138.268 761.042 138.012 761.341 137.864 761.659L136.592 761.205C136.819 760.674 137.122 760.261 137.501 759.966C137.883 759.667 138.3 759.458 138.751 759.341C139.205 759.22 139.652 759.159 140.092 759.159C140.372 759.159 140.694 759.193 141.058 759.261C141.425 759.326 141.779 759.46 142.12 759.665C142.465 759.869 142.751 760.178 142.978 760.591C143.205 761.004 143.319 761.557 143.319 762.25V768H141.978V766.818H141.91C141.819 767.008 141.667 767.21 141.455 767.426C141.243 767.642 140.961 767.826 140.609 767.977C140.256 768.129 139.826 768.205 139.319 768.205ZM139.523 767C140.054 767 140.501 766.896 140.864 766.688C141.232 766.479 141.508 766.21 141.694 765.881C141.883 765.551 141.978 765.205 141.978 764.841V763.614C141.921 763.682 141.796 763.744 141.603 763.801C141.414 763.854 141.194 763.902 140.944 763.943C140.698 763.981 140.457 764.015 140.222 764.045C139.991 764.072 139.804 764.095 139.66 764.114C139.311 764.159 138.986 764.233 138.683 764.335C138.383 764.434 138.141 764.583 137.955 764.784C137.773 764.981 137.683 765.25 137.683 765.591C137.683 766.057 137.855 766.409 138.2 766.648C138.548 766.883 138.989 767 139.523 767Z" fill="white"/>
<path id="text_room_208" d="M433.925 580H432.448L436.721 568.364H438.175L442.448 580H440.971L437.494 570.205H437.403L433.925 580ZM434.471 575.455H440.425V576.705H434.471V575.455ZM443.849 583.273C443.621 583.273 443.419 583.254 443.241 583.216C443.063 583.182 442.94 583.148 442.871 583.114L443.212 581.932C443.538 582.015 443.826 582.045 444.076 582.023C444.326 582 444.548 581.888 444.741 581.688C444.938 581.491 445.118 581.17 445.281 580.727L445.531 580.045L442.303 571.273H443.758L446.167 578.227H446.258L448.667 571.273H450.121L446.417 581.273C446.25 581.723 446.044 582.097 445.798 582.392C445.551 582.691 445.265 582.913 444.94 583.057C444.618 583.201 444.254 583.273 443.849 583.273ZM450.225 582.5V578.75H450.952C451.13 578.564 451.284 578.364 451.413 578.148C451.541 577.932 451.653 577.676 451.748 577.381C451.846 577.081 451.93 576.718 451.998 576.29C452.066 575.858 452.127 575.337 452.18 574.727L452.475 571.273H458.021V578.75H459.362V582.5H458.021V580H451.566V582.5H450.225ZM452.475 578.75H456.68V572.523H453.725L453.498 574.727C453.403 575.64 453.286 576.437 453.146 577.119C453.005 577.801 452.782 578.345 452.475 578.75ZM465.619 580V578.977L469.46 574.773C469.91 574.28 470.281 573.852 470.573 573.489C470.865 573.121 471.081 572.777 471.221 572.455C471.365 572.129 471.437 571.788 471.437 571.432C471.437 571.023 471.338 570.669 471.141 570.369C470.948 570.07 470.683 569.839 470.346 569.676C470.009 569.513 469.63 569.432 469.21 569.432C468.763 569.432 468.372 569.525 468.039 569.71C467.71 569.892 467.454 570.148 467.272 570.477C467.094 570.807 467.005 571.193 467.005 571.636H465.664C465.664 570.955 465.821 570.356 466.136 569.841C466.45 569.326 466.878 568.924 467.42 568.636C467.965 568.348 468.577 568.205 469.255 568.205C469.937 568.205 470.541 568.348 471.067 568.636C471.594 568.924 472.007 569.312 472.306 569.801C472.605 570.29 472.755 570.833 472.755 571.432C472.755 571.86 472.677 572.278 472.522 572.688C472.371 573.093 472.105 573.545 471.727 574.045C471.352 574.542 470.831 575.148 470.164 575.864L467.55 578.659V578.75H472.96V580H465.619ZM479.102 580.159C478.246 580.159 477.516 579.926 476.914 579.46C476.312 578.991 475.852 578.311 475.533 577.42C475.215 576.527 475.056 575.447 475.056 574.182C475.056 572.924 475.215 571.85 475.533 570.96C475.855 570.066 476.317 569.384 476.92 568.915C477.526 568.441 478.253 568.205 479.102 568.205C479.95 568.205 480.675 568.441 481.278 568.915C481.884 569.384 482.346 570.066 482.664 570.96C482.986 571.85 483.147 572.924 483.147 574.182C483.147 575.447 482.988 576.527 482.67 577.42C482.352 578.311 481.891 578.991 481.289 579.46C480.687 579.926 479.958 580.159 479.102 580.159ZM479.102 578.909C479.95 578.909 480.609 578.5 481.079 577.682C481.549 576.864 481.783 575.697 481.783 574.182C481.783 573.174 481.675 572.316 481.46 571.608C481.247 570.9 480.941 570.36 480.539 569.989C480.141 569.617 479.662 569.432 479.102 569.432C478.261 569.432 477.603 569.847 477.13 570.676C476.656 571.502 476.42 572.67 476.42 574.182C476.42 575.189 476.526 576.045 476.738 576.75C476.95 577.455 477.255 577.991 477.653 578.358C478.054 578.725 478.537 578.909 479.102 578.909ZM489.033 580.159C488.253 580.159 487.564 580.021 486.965 579.744C486.371 579.464 485.906 579.08 485.573 578.591C485.24 578.098 485.075 577.538 485.079 576.909C485.075 576.417 485.172 575.962 485.369 575.545C485.566 575.125 485.835 574.775 486.175 574.494C486.52 574.21 486.905 574.03 487.329 573.955V573.886C486.772 573.742 486.329 573.43 485.999 572.949C485.67 572.464 485.507 571.913 485.511 571.295C485.507 570.705 485.656 570.176 485.96 569.71C486.263 569.244 486.679 568.877 487.21 568.608C487.744 568.339 488.352 568.205 489.033 568.205C489.708 568.205 490.31 568.339 490.84 568.608C491.371 568.877 491.787 569.244 492.09 569.71C492.397 570.176 492.552 570.705 492.556 571.295C492.552 571.913 492.384 572.464 492.05 572.949C491.721 573.43 491.283 573.742 490.738 573.886V573.955C491.158 574.03 491.537 574.21 491.874 574.494C492.211 574.775 492.48 575.125 492.681 575.545C492.882 575.962 492.984 576.417 492.988 576.909C492.984 577.538 492.814 578.098 492.477 578.591C492.143 579.08 491.679 579.464 491.085 579.744C490.494 580.021 489.81 580.159 489.033 580.159ZM489.033 578.909C489.56 578.909 490.014 578.824 490.397 578.653C490.78 578.483 491.075 578.242 491.283 577.932C491.492 577.621 491.598 577.258 491.602 576.841C491.598 576.402 491.484 576.013 491.261 575.676C491.037 575.339 490.732 575.074 490.346 574.881C489.963 574.687 489.526 574.591 489.033 574.591C488.537 574.591 488.094 574.687 487.704 574.881C487.317 575.074 487.013 575.339 486.789 575.676C486.569 576.013 486.461 576.402 486.465 576.841C486.461 577.258 486.562 577.621 486.766 577.932C486.975 578.242 487.272 578.483 487.658 578.653C488.045 578.824 488.503 578.909 489.033 578.909ZM489.033 573.386C489.45 573.386 489.819 573.303 490.141 573.136C490.467 572.97 490.723 572.737 490.908 572.438C491.094 572.138 491.189 571.788 491.192 571.386C491.189 570.992 491.096 570.65 490.914 570.358C490.732 570.062 490.48 569.835 490.158 569.676C489.836 569.513 489.461 569.432 489.033 569.432C488.598 569.432 488.217 569.513 487.891 569.676C487.566 569.835 487.314 570.062 487.136 570.358C486.958 570.65 486.871 570.992 486.874 571.386C486.871 571.788 486.96 572.138 487.141 572.438C487.327 572.737 487.583 572.97 487.908 573.136C488.234 573.303 488.609 573.386 489.033 573.386Z" fill="black"/>
<path id="text_room_207" d="M438.941 458H437.464L441.737 446.364H443.191L447.464 458H445.987L442.509 448.205H442.418L438.941 458ZM439.487 453.455H445.441V454.705H439.487V453.455ZM448.864 461.273C448.637 461.273 448.434 461.254 448.256 461.216C448.078 461.182 447.955 461.148 447.887 461.114L448.228 459.932C448.554 460.015 448.842 460.045 449.092 460.023C449.342 460 449.563 459.888 449.756 459.688C449.953 459.491 450.133 459.17 450.296 458.727L450.546 458.045L447.319 449.273H448.773L451.183 456.227H451.273L453.683 449.273H455.137L451.433 459.273C451.266 459.723 451.059 460.097 450.813 460.392C450.567 460.691 450.281 460.913 449.955 461.057C449.633 461.201 449.27 461.273 448.864 461.273ZM455.241 460.5V456.75H455.968C456.146 456.564 456.299 456.364 456.428 456.148C456.557 455.932 456.669 455.676 456.763 455.381C456.862 455.081 456.945 454.718 457.013 454.29C457.082 453.858 457.142 453.337 457.195 452.727L457.491 449.273H463.036V456.75H464.377V460.5H463.036V458H456.582V460.5H455.241ZM457.491 456.75H461.695V450.523H458.741L458.513 452.727C458.419 453.64 458.301 454.437 458.161 455.119C458.021 455.801 457.798 456.345 457.491 456.75ZM470.634 458V456.977L474.475 452.773C474.926 452.28 475.297 451.852 475.589 451.489C475.88 451.121 476.096 450.777 476.237 450.455C476.38 450.129 476.452 449.788 476.452 449.432C476.452 449.023 476.354 448.669 476.157 448.369C475.964 448.07 475.699 447.839 475.362 447.676C475.024 447.513 474.646 447.432 474.225 447.432C473.778 447.432 473.388 447.525 473.055 447.71C472.725 447.892 472.469 448.148 472.288 448.477C472.11 448.807 472.021 449.193 472.021 449.636H470.68C470.68 448.955 470.837 448.356 471.151 447.841C471.466 447.326 471.894 446.924 472.435 446.636C472.981 446.348 473.593 446.205 474.271 446.205C474.952 446.205 475.557 446.348 476.083 446.636C476.61 446.924 477.022 447.312 477.322 447.801C477.621 448.29 477.771 448.833 477.771 449.432C477.771 449.86 477.693 450.278 477.538 450.688C477.386 451.093 477.121 451.545 476.742 452.045C476.367 452.542 475.846 453.148 475.18 453.864L472.566 456.659V456.75H477.975V458H470.634ZM484.117 458.159C483.261 458.159 482.532 457.926 481.93 457.46C481.327 456.991 480.867 456.311 480.549 455.42C480.231 454.527 480.072 453.447 480.072 452.182C480.072 450.924 480.231 449.85 480.549 448.96C480.871 448.066 481.333 447.384 481.935 446.915C482.541 446.441 483.269 446.205 484.117 446.205C484.966 446.205 485.691 446.441 486.293 446.915C486.899 447.384 487.362 448.066 487.68 448.96C488.002 449.85 488.163 450.924 488.163 452.182C488.163 453.447 488.004 454.527 487.685 455.42C487.367 456.311 486.907 456.991 486.305 457.46C485.702 457.926 484.973 458.159 484.117 458.159ZM484.117 456.909C484.966 456.909 485.625 456.5 486.094 455.682C486.564 454.864 486.799 453.697 486.799 452.182C486.799 451.174 486.691 450.316 486.475 449.608C486.263 448.9 485.956 448.36 485.555 447.989C485.157 447.617 484.678 447.432 484.117 447.432C483.276 447.432 482.619 447.847 482.146 448.676C481.672 449.502 481.435 450.67 481.435 452.182C481.435 453.189 481.541 454.045 481.754 454.75C481.966 455.455 482.271 455.991 482.668 456.358C483.07 456.725 483.553 456.909 484.117 456.909ZM490.373 458L495.577 447.705V447.614H489.577V446.364H497.032V447.682L491.85 458H490.373Z" fill="black"/>
<path id="text_room_toilet" d="M444.82 337.614V336.364H453.547V337.614H449.888V348H448.479V337.614H444.82ZM455.403 351.273C455.176 351.273 454.973 351.254 454.795 351.216C454.617 351.182 454.494 351.148 454.426 351.114L454.767 349.932C455.093 350.015 455.381 350.045 455.631 350.023C455.881 350 456.102 349.888 456.295 349.688C456.492 349.491 456.672 349.17 456.835 348.727L457.085 348.045L453.858 339.273H455.312L457.722 346.227H457.812L460.222 339.273H461.676L457.972 349.273C457.805 349.723 457.598 350.097 457.352 350.392C457.106 350.691 456.82 350.913 456.494 351.057C456.172 351.201 455.809 351.273 455.403 351.273ZM465.749 348.205C465.196 348.205 464.694 348.1 464.243 347.892C463.792 347.68 463.434 347.375 463.169 346.977C462.904 346.576 462.771 346.091 462.771 345.523C462.771 345.023 462.87 344.617 463.067 344.307C463.264 343.992 463.527 343.746 463.857 343.568C464.186 343.39 464.55 343.258 464.947 343.17C465.349 343.08 465.752 343.008 466.158 342.955C466.688 342.886 467.118 342.835 467.447 342.801C467.781 342.763 468.023 342.701 468.175 342.614C468.33 342.527 468.408 342.375 468.408 342.159V342.114C468.408 341.553 468.254 341.117 467.947 340.807C467.644 340.496 467.184 340.341 466.567 340.341C465.927 340.341 465.425 340.481 465.061 340.761C464.697 341.042 464.442 341.341 464.294 341.659L463.021 341.205C463.249 340.674 463.552 340.261 463.93 339.966C464.313 339.667 464.73 339.458 465.18 339.341C465.635 339.22 466.082 339.159 466.521 339.159C466.802 339.159 467.124 339.193 467.487 339.261C467.855 339.326 468.209 339.46 468.55 339.665C468.894 339.869 469.18 340.178 469.408 340.591C469.635 341.004 469.749 341.557 469.749 342.25V348H468.408V346.818H468.339C468.249 347.008 468.097 347.21 467.885 347.426C467.673 347.642 467.391 347.826 467.038 347.977C466.686 348.129 466.256 348.205 465.749 348.205ZM465.953 347C466.483 347 466.93 346.896 467.294 346.688C467.661 346.479 467.938 346.21 468.124 345.881C468.313 345.551 468.408 345.205 468.408 344.841V343.614C468.351 343.682 468.226 343.744 468.033 343.801C467.843 343.854 467.624 343.902 467.374 343.943C467.127 343.981 466.887 344.015 466.652 344.045C466.421 344.072 466.233 344.095 466.089 344.114C465.741 344.159 465.415 344.233 465.112 344.335C464.813 344.434 464.571 344.583 464.385 344.784C464.203 344.981 464.112 345.25 464.112 345.591C464.112 346.057 464.285 346.409 464.629 346.648C464.978 346.883 465.419 347 465.953 347ZM471.423 348V346.75H471.741C472.003 346.75 472.221 346.699 472.395 346.597C472.569 346.491 472.709 346.307 472.815 346.045C472.925 345.78 473.009 345.413 473.065 344.943C473.126 344.47 473.17 343.867 473.196 343.136L473.355 339.273H479.173V348H477.832V340.523H474.628L474.491 343.636C474.461 344.352 474.397 344.983 474.298 345.528C474.204 346.07 474.058 346.525 473.861 346.892C473.668 347.259 473.41 347.536 473.088 347.722C472.766 347.907 472.363 348 471.878 348H471.423ZM485.293 348.182C484.452 348.182 483.726 347.996 483.116 347.625C482.51 347.25 482.043 346.727 481.713 346.057C481.387 345.383 481.224 344.598 481.224 343.705C481.224 342.811 481.387 342.023 481.713 341.341C482.043 340.655 482.501 340.121 483.088 339.739C483.679 339.352 484.368 339.159 485.156 339.159C485.611 339.159 486.06 339.235 486.503 339.386C486.946 339.538 487.349 339.784 487.713 340.125C488.077 340.462 488.366 340.909 488.582 341.466C488.798 342.023 488.906 342.708 488.906 343.523V344.091H482.179V342.932H487.543C487.543 342.439 487.444 342 487.247 341.614C487.054 341.227 486.777 340.922 486.418 340.699C486.062 340.475 485.641 340.364 485.156 340.364C484.622 340.364 484.16 340.496 483.77 340.761C483.384 341.023 483.086 341.364 482.878 341.784C482.67 342.205 482.565 342.655 482.565 343.136V343.909C482.565 344.568 482.679 345.127 482.906 345.585C483.137 346.04 483.457 346.386 483.866 346.625C484.276 346.86 484.751 346.977 485.293 346.977C485.645 346.977 485.963 346.928 486.247 346.83C486.535 346.727 486.783 346.576 486.991 346.375C487.2 346.17 487.361 345.917 487.474 345.614L488.77 345.977C488.634 346.417 488.404 346.803 488.082 347.136C487.76 347.466 487.363 347.723 486.889 347.909C486.416 348.091 485.884 348.182 485.293 348.182ZM490.134 340.523V339.273H497.224V340.523H494.361V348H493.02V340.523H490.134Z" fill="black"/>
<path id="text_room_202" d="M442.011 228H440.534L444.807 216.364H446.261L450.534 228H449.057L445.58 218.205H445.489L442.011 228ZM442.557 223.455H448.511V224.705H442.557V223.455ZM451.935 231.273C451.707 231.273 451.505 231.254 451.327 231.216C451.149 231.182 451.026 231.148 450.957 231.114L451.298 229.932C451.624 230.015 451.912 230.045 452.162 230.023C452.412 230 452.634 229.888 452.827 229.688C453.024 229.491 453.204 229.17 453.366 228.727L453.616 228.045L450.389 219.273H451.844L454.253 226.227H454.344L456.753 219.273H458.207L454.503 229.273C454.336 229.723 454.13 230.097 453.884 230.392C453.637 230.691 453.351 230.913 453.026 231.057C452.704 231.201 452.34 231.273 451.935 231.273ZM458.311 230.5V226.75H459.038C459.216 226.564 459.37 226.364 459.499 226.148C459.627 225.932 459.739 225.676 459.834 225.381C459.932 225.081 460.016 224.718 460.084 224.29C460.152 223.858 460.213 223.337 460.266 222.727L460.561 219.273H466.107V226.75H467.447V230.5H466.107V228H459.652V230.5H458.311ZM460.561 226.75H464.766V220.523H461.811L461.584 222.727C461.489 223.64 461.372 224.437 461.232 225.119C461.091 225.801 460.868 226.345 460.561 226.75ZM473.705 228V226.977L477.545 222.773C477.996 222.28 478.367 221.852 478.659 221.489C478.951 221.121 479.167 220.777 479.307 220.455C479.451 220.129 479.523 219.788 479.523 219.432C479.523 219.023 479.424 218.669 479.227 218.369C479.034 218.07 478.769 217.839 478.432 217.676C478.095 217.513 477.716 217.432 477.295 217.432C476.848 217.432 476.458 217.525 476.125 217.71C475.795 217.892 475.54 218.148 475.358 218.477C475.18 218.807 475.091 219.193 475.091 219.636H473.75C473.75 218.955 473.907 218.356 474.222 217.841C474.536 217.326 474.964 216.924 475.506 216.636C476.051 216.348 476.663 216.205 477.341 216.205C478.023 216.205 478.627 216.348 479.153 216.636C479.68 216.924 480.093 217.312 480.392 217.801C480.691 218.29 480.841 218.833 480.841 219.432C480.841 219.86 480.763 220.278 480.608 220.688C480.456 221.093 480.191 221.545 479.812 222.045C479.438 222.542 478.917 223.148 478.25 223.864L475.636 226.659V226.75H481.045V228H473.705ZM487.188 228.159C486.331 228.159 485.602 227.926 485 227.46C484.398 226.991 483.938 226.311 483.619 225.42C483.301 224.527 483.142 223.447 483.142 222.182C483.142 220.924 483.301 219.85 483.619 218.96C483.941 218.066 484.403 217.384 485.006 216.915C485.612 216.441 486.339 216.205 487.188 216.205C488.036 216.205 488.761 216.441 489.364 216.915C489.97 217.384 490.432 218.066 490.75 218.96C491.072 219.85 491.233 220.924 491.233 222.182C491.233 223.447 491.074 224.527 490.756 225.42C490.438 226.311 489.977 226.991 489.375 227.46C488.773 227.926 488.044 228.159 487.188 228.159ZM487.188 226.909C488.036 226.909 488.695 226.5 489.165 225.682C489.634 224.864 489.869 223.697 489.869 222.182C489.869 221.174 489.761 220.316 489.545 219.608C489.333 218.9 489.027 218.36 488.625 217.989C488.227 217.617 487.748 217.432 487.188 217.432C486.347 217.432 485.689 217.847 485.216 218.676C484.742 219.502 484.506 220.67 484.506 222.182C484.506 223.189 484.612 224.045 484.824 224.75C485.036 225.455 485.341 225.991 485.739 226.358C486.14 226.725 486.623 226.909 487.188 226.909ZM493.392 228V226.977L497.233 222.773C497.684 222.28 498.055 221.852 498.347 221.489C498.638 221.121 498.854 220.777 498.994 220.455C499.138 220.129 499.21 219.788 499.21 219.432C499.21 219.023 499.112 218.669 498.915 218.369C498.722 218.07 498.456 217.839 498.119 217.676C497.782 217.513 497.403 217.432 496.983 217.432C496.536 217.432 496.146 217.525 495.812 217.71C495.483 217.892 495.227 218.148 495.045 218.477C494.867 218.807 494.778 219.193 494.778 219.636H493.438C493.438 218.955 493.595 218.356 493.909 217.841C494.223 217.326 494.652 216.924 495.193 216.636C495.739 216.348 496.35 216.205 497.028 216.205C497.71 216.205 498.314 216.348 498.841 216.636C499.367 216.924 499.78 217.312 500.08 217.801C500.379 218.29 500.528 218.833 500.528 219.432C500.528 219.86 500.451 220.278 500.295 220.688C500.144 221.093 499.879 221.545 499.5 222.045C499.125 222.542 498.604 223.148 497.938 223.864L495.324 226.659V226.75H500.733V228H493.392Z" fill="black"/>
<path id="text_room_201" d="M267.136 172H265.659L269.932 160.364H271.386L275.659 172H274.182L270.705 162.205H270.614L267.136 172ZM267.682 167.455H273.636V168.705H267.682V167.455ZM277.06 175.273C276.832 175.273 276.63 175.254 276.452 175.216C276.274 175.182 276.151 175.148 276.082 175.114L276.423 173.932C276.749 174.015 277.037 174.045 277.287 174.023C277.537 174 277.759 173.888 277.952 173.688C278.149 173.491 278.329 173.17 278.491 172.727L278.741 172.045L275.514 163.273H276.969L279.378 170.227H279.469L281.878 163.273H283.332L279.628 173.273C279.461 173.723 279.255 174.097 279.009 174.392C278.762 174.691 278.476 174.913 278.151 175.057C277.829 175.201 277.465 175.273 277.06 175.273ZM283.436 174.5V170.75H284.163C284.341 170.564 284.495 170.364 284.624 170.148C284.752 169.932 284.864 169.676 284.959 169.381C285.057 169.081 285.141 168.718 285.209 168.29C285.277 167.858 285.338 167.337 285.391 166.727L285.686 163.273H291.232V170.75H292.572V174.5H291.232V172H284.777V174.5H283.436ZM285.686 170.75H289.891V164.523H286.936L286.709 166.727C286.614 167.64 286.497 168.437 286.357 169.119C286.216 169.801 285.993 170.345 285.686 170.75ZM298.83 172V170.977L302.67 166.773C303.121 166.28 303.492 165.852 303.784 165.489C304.076 165.121 304.292 164.777 304.432 164.455C304.576 164.129 304.648 163.788 304.648 163.432C304.648 163.023 304.549 162.669 304.352 162.369C304.159 162.07 303.894 161.839 303.557 161.676C303.22 161.513 302.841 161.432 302.42 161.432C301.973 161.432 301.583 161.525 301.25 161.71C300.92 161.892 300.665 162.148 300.483 162.477C300.305 162.807 300.216 163.193 300.216 163.636H298.875C298.875 162.955 299.032 162.356 299.347 161.841C299.661 161.326 300.089 160.924 300.631 160.636C301.176 160.348 301.788 160.205 302.466 160.205C303.148 160.205 303.752 160.348 304.278 160.636C304.805 160.924 305.218 161.312 305.517 161.801C305.816 162.29 305.966 162.833 305.966 163.432C305.966 163.86 305.888 164.278 305.733 164.688C305.581 165.093 305.316 165.545 304.938 166.045C304.562 166.542 304.042 167.148 303.375 167.864L300.761 170.659V170.75H306.17V172H298.83ZM312.312 172.159C311.456 172.159 310.727 171.926 310.125 171.46C309.523 170.991 309.063 170.311 308.744 169.42C308.426 168.527 308.267 167.447 308.267 166.182C308.267 164.924 308.426 163.85 308.744 162.96C309.066 162.066 309.528 161.384 310.131 160.915C310.737 160.441 311.464 160.205 312.312 160.205C313.161 160.205 313.886 160.441 314.489 160.915C315.095 161.384 315.557 162.066 315.875 162.96C316.197 163.85 316.358 164.924 316.358 166.182C316.358 167.447 316.199 168.527 315.881 169.42C315.562 170.311 315.102 170.991 314.5 171.46C313.898 171.926 313.169 172.159 312.312 172.159ZM312.312 170.909C313.161 170.909 313.82 170.5 314.29 169.682C314.759 168.864 314.994 167.697 314.994 166.182C314.994 165.174 314.886 164.316 314.67 163.608C314.458 162.9 314.152 162.36 313.75 161.989C313.352 161.617 312.873 161.432 312.312 161.432C311.472 161.432 310.814 161.847 310.341 162.676C309.867 163.502 309.631 164.67 309.631 166.182C309.631 167.189 309.737 168.045 309.949 168.75C310.161 169.455 310.466 169.991 310.864 170.358C311.265 170.725 311.748 170.909 312.312 170.909ZM322.608 160.364V172H321.199V161.841H321.131L318.29 163.727V162.295L321.199 160.364H322.608Z" fill="black"/>
</g>
</g>
<defs>
<filter id="filter0_d_11_156" x="50" y="114" width="488" height="742" filterUnits="userSpaceOnUse" color-interpolation-filters="sRGB">
<feFlood flood-opacity="0" result="BackgroundImageFix"/>
<feColorMatrix in="SourceAlpha" type="matrix" values="0 0 0 0 0 0 0 0 0 0 0 0 0 0 0 0 0 0 127 0" result="hardAlpha"/>
<feOffset dx="6" dy="6"/>
<feGaussianBlur stdDeviation="2"/>
<feComposite in2="hardAlpha" operator="out"/>
<feColorMatrix type="matrix" values="0 0 0 0 0.295 0 0 0 0 0.278529 0 0 0 0 0.278529 0 0 0 1 0"/>
<feBlend mode="normal" in2="BackgroundImageFix" result="effect1_dropShadow_11_156"/>
<feBlend mode="normal" in="SourceGraphic" in2="effect1_dropShadow_11_156" result="shape"/>
</filter>
<linearGradient id="paint0_linear_11_156" x1="61.6238" y1="715.37" x2="151.284" y2="718.185" gradientUnits="userSpaceOnUse">
<stop stop-color="#C5DCE4"/>
<stop offset="1" stop-color="#29363B"/>
</linearGradient>
</defs>
</svg>
