<svg width="600" height="900" viewBox="0 0 600 900" fill="none" xmlns="http://www.w3.org/2000/svg">
<g id="Floor 3">
<path id="floor" d="M106 202.5H229.5V269H285V166H408.5V269H469V202.5H574V554.5V820.5H455.5V749H408.5V888H269.5V749H212.5V820.5H106V202.5Z" fill="#353433" fill-opacity="0.54"/>
<path id="floor_2" d="M83 182.5H206.5V249H262V146H385.5V249H446V182.5H551V534.5V800.5H432.5V729H385.5V868H246.5V729H189.5V800.5H83V182.5Z" fill="#696560"/>
<g id="floor_3" filter="url(#filter0_d_11_158)">
<path d="M52 155.5H175.5V222H231V119H354.5V222H415V155.5H520V507.5V773.5H401.5V702H354.5V841H215.5V702H158.5V773.5H52V155.5Z" fill="#CBBEAD"/>
<path d="M52 153H49.5V155.5V773.5V776H52H158.5H161V773.5V704.5H213V841V843.5H215.5H354.5H357V841V704.5H399V773.5V776H401.5H520H522.5V773.5V507.5V155.5V153H520H415H412.5V155.5V219.5H357V119V116.5H354.5H231H228.5V119V219.5H178V155.5V153H175.5H52Z" stroke="#B0ADAB" stroke-width="5"/>
</g>
<rect id="room_310" x="216.5" y="702.5" width="138" height="138" fill="#D8E4C2" stroke="#899474"/>
<rect id="room_305" x="52.5" y="471.5" width="233" height="91" fill="#D8E4C2" stroke="#899474"/>
<rect id="room_304" x="52.5" y="321.5" width="233" height="149" fill="#D8E4C2" stroke="#899474"/>
<rect id="room_309" x="401.5" y="641.5" width="118" height="131" fill="#D8E4C2" stroke="#899474"/>
<rect id="room_303" x="52.5" y="157.5" width="122" height="163" fill="#D8E4C2" stroke="#899474"/>
<rect id="room_306" x="52.5" y="563.5" width="233" height="77" fill="#D8E4C2" stroke="#899474"/>
<path id="ladder" d="M132.495 748.565V702.5H158.5V772.5H52.5V702.5H80.5429V748.565V749.065H81.0429H105.5H131.995H132.495V748.565Z" fill="url(#paint0_linear_11_158)" stroke="#7B9199"/>
<rect id="room_308" x="401.5" y="509.5" width="118" height="131" fill="#D8E4C2" stroke="#899474"/>
<rect id="room_307" x="403.5" y="397.5" width="117" height="111" fill="#D8E4C2" stroke="#899474"/>
<rect id="toilet" x="416.5" y="289.5" width="103" height="107" fill="#D8E4C2" stroke="#899474"/>
<rect id="room_302" x="416.5" y="157.5" width="103" height="131" fill="#D8E4C2" stroke="#899474"/>
<rect id="room_301" x="230.5" y="119.5" width="122" height="102" fill="#D8E4C2" stroke="#899474"/>
<g id="floor_name">
<path d="M272.874 92.2386C271.602 92.2386 270.468 92.0199 269.474 91.5824C268.485 91.1392 267.704 90.5312 267.13 89.7585C266.562 88.9801 266.269 88.0824 266.252 87.0653H269.968C269.991 87.4915 270.13 87.8665 270.386 88.1903C270.647 88.5085 270.994 88.7557 271.425 88.9318C271.857 89.108 272.343 89.196 272.883 89.196C273.445 89.196 273.942 89.0966 274.374 88.8977C274.806 88.6989 275.144 88.4233 275.388 88.071C275.633 87.7187 275.755 87.3125 275.755 86.8523C275.755 86.3864 275.624 85.9744 275.363 85.6165C275.107 85.2528 274.738 84.9687 274.255 84.7642C273.778 84.5597 273.21 84.4574 272.55 84.4574H270.923V81.7472H272.55C273.107 81.7472 273.599 81.6506 274.025 81.4574C274.457 81.2642 274.792 80.9972 275.031 80.6562C275.269 80.3097 275.388 79.9062 275.388 79.446C275.388 79.0085 275.283 78.625 275.073 78.2955C274.869 77.9602 274.579 77.6989 274.204 77.5114C273.835 77.3239 273.403 77.2301 272.908 77.2301C272.408 77.2301 271.951 77.321 271.536 77.5028C271.121 77.679 270.789 77.9318 270.539 78.2614C270.289 78.5909 270.156 78.9773 270.138 79.4205H266.602C266.619 78.4148 266.906 77.5284 267.462 76.7614C268.019 75.9943 268.769 75.3949 269.712 74.9631C270.661 74.5256 271.732 74.3068 272.925 74.3068C274.13 74.3068 275.184 74.5256 276.087 74.9631C276.991 75.4006 277.692 75.9915 278.192 76.7358C278.698 77.4744 278.948 78.304 278.942 79.2244C278.948 80.2017 278.644 81.017 278.031 81.6705C277.423 82.3239 276.63 82.7386 275.653 82.9148V83.0511C276.937 83.2159 277.914 83.6619 278.585 84.3892C279.261 85.1108 279.596 86.0142 279.59 87.0994C279.596 88.0938 279.309 88.9773 278.729 89.75C278.156 90.5227 277.363 91.1307 276.352 91.5739C275.34 92.017 274.181 92.2386 272.874 92.2386ZM292.673 81.6193C292.263 81.6193 291.9 81.6989 291.582 81.858C291.263 82.017 291.013 82.2386 290.832 82.5227C290.656 82.8011 290.567 83.1307 290.567 83.5114H287.303C287.303 82.8011 287.44 82.1534 287.712 81.5682C287.985 80.9773 288.366 80.4687 288.854 80.0426C289.343 79.6108 289.911 79.2784 290.559 79.0455C291.212 78.8125 291.917 78.696 292.673 78.696C293.991 78.696 295.099 78.9915 295.996 79.5824C296.9 80.1676 297.582 80.9602 298.042 81.9602C298.508 82.9545 298.741 84.071 298.741 85.3097V85.625C298.741 86.8693 298.511 87.9915 298.05 88.9915C297.59 89.9915 296.908 90.7841 296.005 91.3693C295.107 91.9489 293.996 92.2386 292.673 92.2386C291.616 92.2386 290.684 92.0312 289.877 91.6165C289.07 91.196 288.44 90.6023 287.985 89.8352C287.531 89.0625 287.303 88.1449 287.303 87.0824H290.567C290.567 87.4858 290.653 87.8551 290.823 88.1903C290.994 88.5256 291.235 88.7926 291.548 88.9915C291.866 89.1903 292.241 89.2926 292.673 89.2983C293.349 89.2926 293.874 89.1023 294.249 88.7273C294.63 88.3523 294.894 87.8835 295.042 87.321C295.195 86.7528 295.272 86.1875 295.272 85.625V85.3097C295.272 84.6903 295.192 84.0994 295.033 83.5369C294.88 82.9744 294.613 82.5142 294.232 82.1562C293.857 81.7983 293.337 81.6193 292.673 81.6193ZM296.32 84.3807V86.5284H291.692V84.3807H296.32ZM299.853 81.7642V78.9091H311.717V81.7642H307.498V92H304.038V81.7642H299.853ZM317.182 92.2472C316.347 92.2472 315.602 92.1023 314.949 91.8125C314.295 91.517 313.778 91.0824 313.398 90.5085C313.023 89.929 312.835 89.2074 312.835 88.3438C312.835 87.6165 312.969 87.0057 313.236 86.5114C313.503 86.017 313.866 85.6193 314.327 85.3182C314.787 85.017 315.31 84.7898 315.895 84.6364C316.486 84.483 317.105 84.375 317.753 84.3125C318.514 84.233 319.128 84.1591 319.594 84.0909C320.06 84.017 320.398 83.9091 320.608 83.767C320.818 83.625 320.923 83.4148 320.923 83.1364V83.0852C320.923 82.5455 320.753 82.1278 320.412 81.8324C320.077 81.5369 319.599 81.3892 318.98 81.3892C318.327 81.3892 317.807 81.5341 317.42 81.8239C317.034 82.108 316.778 82.4659 316.653 82.8977L313.295 82.625C313.466 81.8295 313.801 81.142 314.301 80.5625C314.801 79.9773 315.446 79.5284 316.236 79.2159C317.031 78.8977 317.952 78.7386 318.997 78.7386C319.724 78.7386 320.42 78.8239 321.085 78.9943C321.756 79.1648 322.349 79.429 322.866 79.7869C323.389 80.1449 323.801 80.6051 324.102 81.1676C324.403 81.7244 324.554 82.392 324.554 83.1705V92H321.111V90.1847H321.009C320.798 90.5938 320.517 90.9545 320.165 91.267C319.812 91.5739 319.389 91.8153 318.895 91.9915C318.401 92.1619 317.83 92.2472 317.182 92.2472ZM318.222 89.7415C318.756 89.7415 319.227 89.6364 319.636 89.4261C320.045 89.2102 320.366 88.9205 320.599 88.5568C320.832 88.1932 320.949 87.7812 320.949 87.321V85.9318C320.835 86.0057 320.679 86.0739 320.48 86.1364C320.287 86.1932 320.068 86.2472 319.824 86.2983C319.58 86.3437 319.335 86.3864 319.091 86.4261C318.847 86.4602 318.625 86.4915 318.426 86.5199C318 86.5824 317.628 86.6818 317.31 86.8182C316.991 86.9545 316.744 87.1392 316.568 87.3722C316.392 87.5994 316.304 87.8835 316.304 88.2244C316.304 88.7188 316.483 89.0966 316.841 89.358C317.205 89.6136 317.665 89.7415 318.222 89.7415ZM326.518 92L331.095 85.1903L326.544 78.9091H330.686L334.087 84.0312H334.649V78.9091H338.28V84.0312H338.825L342.226 78.9091H346.368L341.825 85.1903L346.393 92H342.158L338.791 86.8864H338.28V92H334.649V86.8864H334.138L330.754 92H326.518Z" fill="black"/>
<path d="M265.008 96.7727H346.99V98.4091H265.008V96.7727Z" fill="black"/>
</g>
<path id="name" d="M26.9157 32.4545H28.6486V43.9034H28.7907L36.7452 32.4545H38.4498V47H36.6884V35.5795H36.5463L28.6202 47H26.9157V32.4545ZM49.0481 40.7784V42.3409H43.0254V40.7784H49.0481ZM43.4231 36.0909V47H41.747V36.0909H43.4231ZM50.3265 36.0909V47H48.6504V36.0909H50.3265ZM57.8194 47.2273C56.7967 47.2273 55.916 46.9858 55.1774 46.5028C54.4387 46.0199 53.8706 45.3546 53.4728 44.5071C53.0751 43.6596 52.8762 42.6913 52.8762 41.6023C52.8762 40.4943 53.0798 39.5166 53.487 38.669C53.899 37.8168 54.4719 37.1515 55.2058 36.6733C55.9444 36.1903 56.8062 35.9489 57.791 35.9489C58.5581 35.9489 59.2493 36.0909 59.8649 36.375C60.4804 36.6591 60.9847 37.0568 61.3777 37.5682C61.7707 38.0795 62.0145 38.6761 62.1092 39.358H60.4331C60.3052 38.8608 60.0211 38.4205 59.5808 38.0369C59.1452 37.6487 58.5581 37.4545 57.8194 37.4545C57.166 37.4545 56.5931 37.625 56.1007 37.9659C55.613 38.3021 55.2318 38.7779 54.9572 39.3935C54.6873 40.0043 54.5524 40.7216 54.5524 41.5455C54.5524 42.3883 54.685 43.1222 54.9501 43.7472C55.22 44.3722 55.5988 44.8575 56.0865 45.2031C56.5789 45.5488 57.1565 45.7216 57.8194 45.7216C58.255 45.7216 58.6504 45.6458 59.0055 45.4943C59.3606 45.3428 59.6613 45.125 59.9075 44.8409C60.1537 44.5568 60.3289 44.2159 60.4331 43.8182H62.1092C62.0145 44.4621 61.7801 45.0421 61.4061 45.5582C61.0368 46.0696 60.5467 46.4768 59.9359 46.7798C59.3298 47.0781 58.6243 47.2273 57.8194 47.2273ZM63.7001 37.6534V36.0909H72.5637V37.6534H68.9842V47H67.3081V37.6534H63.7001ZM76.6848 44.5284L81.9405 36.0909H83.8723V47H82.1962V38.5625L76.9689 47H75.0087V36.0909H76.6848V44.5284ZM85.4579 37.6534V36.0909H94.3216V37.6534H90.742V47H89.0659V37.6534H85.4579ZM97.8461 51.0909C97.562 51.0909 97.3087 51.0672 97.0861 51.0199C96.8636 50.9773 96.7097 50.9347 96.6245 50.892L97.0506 49.4148C97.4578 49.5189 97.8176 49.5568 98.1301 49.5284C98.4426 49.5 98.7196 49.3603 98.9611 49.1094C99.2073 48.8632 99.4322 48.4631 99.6358 47.9091L99.9483 47.0568L95.9142 36.0909H97.7324L100.744 44.7841H100.857L103.869 36.0909H105.687L101.056 48.5909C100.848 49.1544 100.59 49.6207 100.282 49.9901C99.9744 50.3641 99.6169 50.6411 99.2097 50.821C98.8072 51.0009 98.3527 51.0909 97.8461 51.0909ZM107.274 37.6534V36.0909H116.138V37.6534H112.558V47H110.882V37.6534H107.274ZM124.435 32.4545H126.537L131.481 44.5284H131.651L136.594 32.4545H138.697V47H137.049V35.9489H136.907L132.361 47H130.77L126.225 35.9489H126.083V47H124.435V32.4545ZM145.211 47.2557C144.52 47.2557 143.892 47.1255 143.329 46.8651C142.766 46.5999 142.318 46.2188 141.987 45.7216C141.655 45.2197 141.49 44.6136 141.49 43.9034C141.49 43.2784 141.613 42.7718 141.859 42.3835C142.105 41.9905 142.434 41.6828 142.846 41.4602C143.258 41.2377 143.713 41.072 144.21 40.9631C144.712 40.8494 145.216 40.7595 145.722 40.6932C146.385 40.608 146.923 40.544 147.335 40.5014C147.751 40.4541 148.054 40.3759 148.244 40.267C148.438 40.1581 148.535 39.9687 148.535 39.6989V39.642C148.535 38.9413 148.343 38.3968 147.96 38.0085C147.581 37.6203 147.006 37.4261 146.234 37.4261C145.434 37.4261 144.806 37.6013 144.352 37.9517C143.897 38.3021 143.578 38.6761 143.393 39.0739L141.802 38.5057C142.086 37.8428 142.465 37.3267 142.938 36.9574C143.417 36.5833 143.937 36.3229 144.501 36.1761C145.069 36.0246 145.628 35.9489 146.177 35.9489C146.527 35.9489 146.93 35.9915 147.384 36.0767C147.844 36.1572 148.286 36.3253 148.713 36.581C149.143 36.8366 149.501 37.2225 149.785 37.7386C150.069 38.2547 150.211 38.946 150.211 39.8125V47H148.535V45.5227H148.45C148.336 45.7595 148.147 46.0128 147.882 46.2827C147.616 46.5526 147.264 46.7822 146.823 46.9716C146.383 47.161 145.846 47.2557 145.211 47.2557ZM145.467 45.75C146.13 45.75 146.688 45.6198 147.143 45.3594C147.602 45.099 147.948 44.7628 148.18 44.3509C148.417 43.9389 148.535 43.5057 148.535 43.0511V41.517C148.464 41.6023 148.308 41.6804 148.066 41.7514C147.829 41.8177 147.555 41.8769 147.242 41.929C146.935 41.9763 146.634 42.0189 146.34 42.0568C146.052 42.09 145.817 42.1184 145.637 42.142C145.202 42.1989 144.794 42.2912 144.416 42.419C144.042 42.5421 143.739 42.7292 143.507 42.9801C143.279 43.2263 143.166 43.5625 143.166 43.9886C143.166 44.571 143.381 45.0114 143.812 45.3097C144.248 45.6032 144.799 45.75 145.467 45.75ZM151.786 37.6534V36.0909H160.65V37.6534H157.07V47H155.394V37.6534H151.786ZM167.102 47.2273C166.051 47.2273 165.144 46.9953 164.382 46.5312C163.624 46.0625 163.04 45.4091 162.628 44.571C162.22 43.7282 162.017 42.7481 162.017 41.6307C162.017 40.5133 162.22 39.5284 162.628 38.6761C163.04 37.8191 163.613 37.1515 164.346 36.6733C165.085 36.1903 165.947 35.9489 166.932 35.9489C167.5 35.9489 168.061 36.0436 168.615 36.233C169.169 36.4223 169.673 36.7301 170.128 37.1562C170.582 37.5777 170.944 38.1364 171.214 38.8324C171.484 39.5284 171.619 40.3854 171.619 41.4034V42.1136H163.21V40.6648H169.915C169.915 40.0492 169.791 39.5 169.545 39.017C169.304 38.5341 168.958 38.1529 168.508 37.8736C168.063 37.5942 167.538 37.4545 166.932 37.4545C166.264 37.4545 165.686 37.6203 165.199 37.9517C164.716 38.2784 164.344 38.7045 164.084 39.2301C163.823 39.7557 163.693 40.3191 163.693 40.9205V41.8864C163.693 42.7102 163.835 43.4086 164.119 43.9815C164.408 44.5497 164.808 44.983 165.319 45.2812C165.831 45.5748 166.425 45.7216 167.102 45.7216C167.542 45.7216 167.94 45.66 168.295 45.5369C168.655 45.4091 168.965 45.2197 169.226 44.9688C169.486 44.7131 169.687 44.3958 169.829 44.017L171.449 44.4716C171.278 45.0208 170.992 45.5038 170.589 45.9205C170.187 46.3324 169.69 46.6544 169.098 46.8864C168.506 47.1136 167.841 47.2273 167.102 47.2273ZM180.135 44.7273L183.942 36.0909H185.532L180.817 47H179.453L174.822 36.0909H176.385L180.135 44.7273ZM175.845 36.0909V47H174.169V36.0909H175.845ZM184.425 47V36.0909H186.101V47H184.425ZM192.379 47.2557C191.688 47.2557 191.06 47.1255 190.497 46.8651C189.934 46.5999 189.486 46.2188 189.155 45.7216C188.823 45.2197 188.657 44.6136 188.657 43.9034C188.657 43.2784 188.781 42.7718 189.027 42.3835C189.273 41.9905 189.602 41.6828 190.014 41.4602C190.426 41.2377 190.881 41.072 191.378 40.9631C191.88 40.8494 192.384 40.7595 192.89 40.6932C193.553 40.608 194.091 40.544 194.503 40.5014C194.919 40.4541 195.222 40.3759 195.412 40.267C195.606 40.1581 195.703 39.9687 195.703 39.6989V39.642C195.703 38.9413 195.511 38.3968 195.128 38.0085C194.749 37.6203 194.174 37.4261 193.402 37.4261C192.602 37.4261 191.974 37.6013 191.52 37.9517C191.065 38.3021 190.746 38.6761 190.561 39.0739L188.97 38.5057C189.254 37.8428 189.633 37.3267 190.106 36.9574C190.585 36.5833 191.105 36.3229 191.669 36.1761C192.237 36.0246 192.796 35.9489 193.345 35.9489C193.695 35.9489 194.098 35.9915 194.552 36.0767C195.012 36.1572 195.454 36.3253 195.881 36.581C196.311 36.8366 196.669 37.2225 196.953 37.7386C197.237 38.2547 197.379 38.946 197.379 39.8125V47H195.703V45.5227H195.618C195.504 45.7595 195.315 46.0128 195.05 46.2827C194.784 46.5526 194.432 46.7822 193.991 46.9716C193.551 47.161 193.014 47.2557 192.379 47.2557ZM192.635 45.75C193.298 45.75 193.856 45.6198 194.311 45.3594C194.77 45.099 195.116 44.7628 195.348 44.3509C195.585 43.9389 195.703 43.5057 195.703 43.0511V41.517C195.632 41.6023 195.476 41.6804 195.234 41.7514C194.997 41.8177 194.723 41.8769 194.41 41.929C194.103 41.9763 193.802 42.0189 193.508 42.0568C193.22 42.09 192.985 42.1184 192.805 42.142C192.37 42.1989 191.962 42.2912 191.584 42.419C191.21 42.5421 190.907 42.7292 190.675 42.9801C190.447 43.2263 190.334 43.5625 190.334 43.9886C190.334 44.571 190.549 45.0114 190.98 45.3097C191.416 45.6032 191.967 45.75 192.635 45.75ZM198.954 37.6534V36.0909H207.818V37.6534H204.238V47H202.562V37.6534H198.954ZM211.939 44.5284L217.194 36.0909H219.126V47H217.45V38.5625L212.223 47H210.263V36.0909H211.939V44.5284ZM222.196 47V36.0909H223.872V40.8352H224.98L228.901 36.0909H231.06L226.656 41.3466L231.117 47H228.958L225.378 42.3977H223.872V47H222.196ZM234.615 44.5284L239.87 36.0909H241.802V47H240.126V38.5625L234.899 47H232.938V36.0909H234.615V44.5284ZM247.372 45.0114L247.258 45.7784C247.178 46.3182 247.055 46.8958 246.889 47.5114C246.728 48.1269 246.56 48.7069 246.385 49.2514C246.21 49.7959 246.065 50.2292 245.952 50.5511H244.673C244.735 50.2481 244.815 49.848 244.915 49.3509C245.014 48.8537 245.113 48.2973 245.213 47.6818C245.317 47.071 245.402 46.446 245.469 45.8068L245.554 45.0114H247.372ZM256.33 32.4545H258.432L263.375 44.5284H263.546L268.489 32.4545H270.591V47H268.943V35.9489H268.801L264.256 47H262.665L258.119 35.9489H257.977V47H256.33V32.4545ZM278.469 47.2273C277.418 47.2273 276.511 46.9953 275.749 46.5312C274.992 46.0625 274.407 45.4091 273.995 44.571C273.588 43.7282 273.384 42.7481 273.384 41.6307C273.384 40.5133 273.588 39.5284 273.995 38.6761C274.407 37.8191 274.98 37.1515 275.714 36.6733C276.452 36.1903 277.314 35.9489 278.299 35.9489C278.867 35.9489 279.428 36.0436 279.982 36.233C280.536 36.4223 281.04 36.7301 281.495 37.1562C281.949 37.5777 282.312 38.1364 282.581 38.8324C282.851 39.5284 282.986 40.3854 282.986 41.4034V42.1136H274.577V40.6648H281.282C281.282 40.0492 281.159 39.5 280.912 39.017C280.671 38.5341 280.325 38.1529 279.876 37.8736C279.43 37.5942 278.905 37.4545 278.299 37.4545C277.631 37.4545 277.054 37.6203 276.566 37.9517C276.083 38.2784 275.711 38.7045 275.451 39.2301C275.19 39.7557 275.06 40.3191 275.06 40.9205V41.8864C275.06 42.7102 275.202 43.4086 275.486 43.9815C275.775 44.5497 276.175 44.983 276.687 45.2812C277.198 45.5748 277.792 45.7216 278.469 45.7216C278.91 45.7216 279.307 45.66 279.662 45.5369C280.022 45.4091 280.332 45.2197 280.593 44.9688C280.853 44.7131 281.055 44.3958 281.197 44.017L282.816 44.4716C282.645 45.0208 282.359 45.5038 281.956 45.9205C281.554 46.3324 281.057 46.6544 280.465 46.8864C279.873 47.1136 279.208 47.2273 278.469 47.2273ZM286.493 36.0909L289.107 40.5511L291.72 36.0909H293.652L290.129 41.5455L293.652 47H291.72L289.107 42.767L286.493 47H284.561L288.027 41.5455L284.561 36.0909H286.493ZM299.254 47.2557C298.563 47.2557 297.935 47.1255 297.372 46.8651C296.809 46.5999 296.361 46.2188 296.03 45.7216C295.698 45.2197 295.532 44.6136 295.532 43.9034C295.532 43.2784 295.656 42.7718 295.902 42.3835C296.148 41.9905 296.477 41.6828 296.889 41.4602C297.301 41.2377 297.756 41.072 298.253 40.9631C298.755 40.8494 299.259 40.7595 299.765 40.6932C300.428 40.608 300.966 40.544 301.378 40.5014C301.794 40.4541 302.097 40.3759 302.287 40.267C302.481 40.1581 302.578 39.9687 302.578 39.6989V39.642C302.578 38.9413 302.386 38.3968 302.003 38.0085C301.624 37.6203 301.049 37.4261 300.277 37.4261C299.477 37.4261 298.849 37.6013 298.395 37.9517C297.94 38.3021 297.621 38.6761 297.436 39.0739L295.845 38.5057C296.129 37.8428 296.508 37.3267 296.981 36.9574C297.46 36.5833 297.98 36.3229 298.544 36.1761C299.112 36.0246 299.671 35.9489 300.22 35.9489C300.57 35.9489 300.973 35.9915 301.427 36.0767C301.887 36.1572 302.329 36.3253 302.756 36.581C303.186 36.8366 303.544 37.2225 303.828 37.7386C304.112 38.2547 304.254 38.946 304.254 39.8125V47H302.578V45.5227H302.493C302.379 45.7595 302.19 46.0128 301.925 46.2827C301.659 46.5526 301.307 46.7822 300.866 46.9716C300.426 47.161 299.889 47.2557 299.254 47.2557ZM299.51 45.75C300.173 45.75 300.731 45.6198 301.186 45.3594C301.645 45.099 301.991 44.7628 302.223 44.3509C302.46 43.9389 302.578 43.5057 302.578 43.0511V41.517C302.507 41.6023 302.351 41.6804 302.109 41.7514C301.872 41.8177 301.598 41.8769 301.285 41.929C300.978 41.9763 300.677 42.0189 300.383 42.0568C300.095 42.09 299.86 42.1184 299.68 42.142C299.245 42.1989 298.837 42.2912 298.459 42.419C298.085 42.5421 297.782 42.7292 297.55 42.9801C297.322 43.2263 297.209 43.5625 297.209 43.9886C297.209 44.571 297.424 45.0114 297.855 45.3097C298.291 45.6032 298.842 45.75 299.51 45.75ZM314.615 40.7784V42.3409H308.592V40.7784H314.615ZM308.99 36.0909V47H307.313V36.0909H308.99ZM315.893 36.0909V47H314.217V36.0909H315.893ZM320.63 44.5284L325.886 36.0909H327.818V47H326.142V38.5625L320.914 47H318.954V36.0909H320.63V44.5284ZM330.888 47V36.0909H332.564V40.8352H333.672L337.592 36.0909H339.751L335.348 41.3466L339.808 47H337.649L334.069 42.3977H332.564V47H330.888ZM343.306 44.5284L348.562 36.0909H350.493V47H348.817V38.5625L343.59 47H341.63V36.0909H343.306V44.5284ZM360.865 44.5284L366.12 36.0909H368.052V47H366.376V38.5625L361.149 47H359.188V36.0909H360.865V44.5284ZM385.525 47L380.525 40.3239H378.736V47H376.974V32.4545H378.736V38.7614H379.503L385.327 32.4545H387.429L381.548 38.8466L387.628 47H385.525ZM393.308 47.2273C392.323 47.2273 391.459 46.9929 390.715 46.5241C389.977 46.0554 389.399 45.3996 388.982 44.5568C388.57 43.714 388.365 42.7292 388.365 41.6023C388.365 40.4659 388.57 39.474 388.982 38.6264C389.399 37.7789 389.977 37.1207 390.715 36.652C391.459 36.1832 392.323 35.9489 393.308 35.9489C394.293 35.9489 395.154 36.1832 395.893 36.652C396.636 37.1207 397.214 37.7789 397.626 38.6264C398.043 39.474 398.251 40.4659 398.251 41.6023C398.251 42.7292 398.043 43.714 397.626 44.5568C397.214 45.3996 396.636 46.0554 395.893 46.5241C395.154 46.9929 394.293 47.2273 393.308 47.2273ZM393.308 45.7216C394.056 45.7216 394.671 45.5298 395.154 45.1463C395.637 44.7628 395.995 44.2585 396.227 43.6335C396.459 43.0085 396.575 42.3314 396.575 41.6023C396.575 40.8731 396.459 40.1937 396.227 39.5639C395.995 38.9342 395.637 38.4252 395.154 38.0369C394.671 37.6487 394.056 37.4545 393.308 37.4545C392.56 37.4545 391.944 37.6487 391.461 38.0369C390.978 38.4252 390.621 38.9342 390.389 39.5639C390.157 40.1937 390.041 40.8731 390.041 41.6023C390.041 42.3314 390.157 43.0085 390.389 43.6335C390.621 44.2585 390.978 44.7628 391.461 45.1463C391.944 45.5298 392.56 45.7216 393.308 45.7216ZM406.775 44.7273L410.582 36.0909H412.173L407.457 47H406.094L401.463 36.0909H403.025L406.775 44.7273ZM402.486 36.0909V47H400.809V36.0909H402.486ZM411.065 47V36.0909H412.741V47H411.065ZM415.809 47V36.0909H424.389V47H422.713V37.6534H417.486V47H415.809ZM428.899 40.0398H432.024C433.302 40.0398 434.28 40.3641 434.957 41.0128C435.634 41.6615 435.973 42.483 435.973 43.4773C435.973 44.1307 435.821 44.7249 435.518 45.2599C435.215 45.7902 434.77 46.214 434.183 46.5312C433.596 46.8438 432.876 47 432.024 47H427.45V36.0909H429.126V45.4375H432.024C432.687 45.4375 433.231 45.2623 433.657 44.9119C434.084 44.5616 434.297 44.1117 434.297 43.5625C434.297 42.9848 434.084 42.5137 433.657 42.1491C433.231 41.7846 432.687 41.6023 432.024 41.6023H428.899V40.0398ZM443.752 40.8636V42.4261H437.985V40.8636H443.752ZM439.405 36.0909V47H437.729V36.0909H439.405ZM447.104 47.2273C446.119 47.2273 445.255 46.9929 444.512 46.5241C443.773 46.0554 443.195 45.3996 442.779 44.5568C442.367 43.714 442.161 42.7292 442.161 41.6023C442.161 40.4659 442.367 39.474 442.779 38.6264C443.195 37.7789 443.773 37.1207 444.512 36.652C445.255 36.1832 446.119 35.9489 447.104 35.9489C448.089 35.9489 448.95 36.1832 449.689 36.652C450.432 37.1207 451.01 37.7789 451.422 38.6264C451.839 39.474 452.047 40.4659 452.047 41.6023C452.047 42.7292 451.839 43.714 451.422 44.5568C451.01 45.3996 450.432 46.0554 449.689 46.5241C448.95 46.9929 448.089 47.2273 447.104 47.2273ZM447.104 45.7216C447.852 45.7216 448.468 45.5298 448.95 45.1463C449.433 44.7628 449.791 44.2585 450.023 43.6335C450.255 43.0085 450.371 42.3314 450.371 41.6023C450.371 40.8731 450.255 40.1937 450.023 39.5639C449.791 38.9342 449.433 38.4252 448.95 38.0369C448.468 37.6487 447.852 37.4545 447.104 37.4545C446.356 37.4545 445.74 37.6487 445.257 38.0369C444.774 38.4252 444.417 38.9342 444.185 39.5639C443.953 40.1937 443.837 40.8731 443.837 41.6023C443.837 42.3314 443.953 43.0085 444.185 43.6335C444.417 44.2585 444.774 44.7628 445.257 45.1463C445.74 45.5298 446.356 45.7216 447.104 45.7216ZM453.349 37.6534V36.0909H462.212V37.6534H458.633V47H456.956V37.6534H453.349ZM468.665 47.2273C467.613 47.2273 466.707 46.9953 465.944 46.5312C465.187 46.0625 464.602 45.4091 464.19 44.571C463.783 43.7282 463.579 42.7481 463.579 41.6307C463.579 40.5133 463.783 39.5284 464.19 38.6761C464.602 37.8191 465.175 37.1515 465.909 36.6733C466.648 36.1903 467.509 35.9489 468.494 35.9489C469.062 35.9489 469.623 36.0436 470.177 36.233C470.731 36.4223 471.236 36.7301 471.69 37.1562C472.145 37.5777 472.507 38.1364 472.777 38.8324C473.047 39.5284 473.182 40.3854 473.182 41.4034V42.1136H464.773V40.6648H471.477C471.477 40.0492 471.354 39.5 471.108 39.017C470.866 38.5341 470.521 38.1529 470.071 37.8736C469.626 37.5942 469.1 37.4545 468.494 37.4545C467.827 37.4545 467.249 37.6203 466.761 37.9517C466.278 38.2784 465.907 38.7045 465.646 39.2301C465.386 39.7557 465.256 40.3191 465.256 40.9205V41.8864C465.256 42.7102 465.398 43.4086 465.682 43.9815C465.97 44.5497 466.371 44.983 466.882 45.2812C467.393 45.5748 467.988 45.7216 468.665 45.7216C469.105 45.7216 469.503 45.66 469.858 45.5369C470.218 45.4091 470.528 45.2197 470.788 44.9688C471.049 44.7131 471.25 44.3958 471.392 44.017L473.011 44.4716C472.841 45.0208 472.554 45.5038 472.152 45.9205C471.749 46.3324 471.252 46.6544 470.66 46.8864C470.068 47.1136 469.403 47.2273 468.665 47.2273ZM475.731 51.0909V36.0909H477.351V37.8239H477.55C477.673 37.6345 477.843 37.393 478.061 37.0994C478.283 36.8011 478.601 36.536 479.013 36.304C479.429 36.0672 479.993 35.9489 480.703 35.9489C481.622 35.9489 482.431 36.1785 483.132 36.6378C483.833 37.0971 484.38 37.7481 484.773 38.5909C485.166 39.4337 485.362 40.428 485.362 41.5739C485.362 42.7292 485.166 43.7306 484.773 44.5781C484.38 45.4209 483.835 46.0743 483.139 46.5384C482.443 46.9976 481.64 47.2273 480.731 47.2273C480.031 47.2273 479.47 47.1113 479.048 46.8793C478.627 46.6425 478.302 46.375 478.075 46.0767C477.848 45.7737 477.673 45.5227 477.55 45.3239H477.407V51.0909H475.731ZM477.379 41.5455C477.379 42.3693 477.5 43.0961 477.741 43.7259C477.983 44.3509 478.336 44.8409 478.8 45.196C479.264 45.5464 479.832 45.7216 480.504 45.7216C481.205 45.7216 481.79 45.5369 482.258 45.1676C482.732 44.7936 483.087 44.2917 483.324 43.6619C483.565 43.0275 483.686 42.322 483.686 41.5455C483.686 40.7784 483.568 40.0871 483.331 39.4716C483.099 38.8513 482.746 38.3613 482.273 38.0014C481.804 37.6368 481.214 37.4545 480.504 37.4545C479.822 37.4545 479.249 37.6274 478.785 37.973C478.321 38.3139 477.971 38.7921 477.734 39.4077C477.497 40.0185 477.379 40.7311 477.379 41.5455ZM495.22 40.7784V42.3409H489.197V40.7784H495.22ZM489.595 36.0909V47H487.919V36.0909H489.595ZM496.498 36.0909V47H494.822V36.0909H496.498ZM501.008 40.0398H504.133C505.412 40.0398 506.39 40.3641 507.067 41.0128C507.744 41.6615 508.082 42.483 508.082 43.4773C508.082 44.1307 507.931 44.7249 507.628 45.2599C507.325 45.7902 506.88 46.214 506.292 46.5312C505.705 46.8438 504.986 47 504.133 47H499.559V36.0909H501.236V45.4375H504.133C504.796 45.4375 505.341 45.2623 505.767 44.9119C506.193 44.5616 506.406 44.1117 506.406 43.5625C506.406 42.9848 506.193 42.5137 505.767 42.1491C505.341 41.7846 504.796 41.6023 504.133 41.6023H501.008V40.0398ZM509.815 47V36.0909H511.491V47H509.815ZM515.809 36.0909L518.423 40.5511L521.037 36.0909H522.969L519.446 41.5455L522.969 47H521.037L518.423 42.767L515.809 47H513.878L517.344 41.5455L513.878 36.0909H515.809ZM538.286 40.7784V42.3409H532.264V40.7784H538.286ZM532.661 36.0909V47H530.985V36.0909H532.661ZM539.565 36.0909V47H537.889V36.0909H539.565ZM545.836 47.2557C545.145 47.2557 544.517 47.1255 543.954 46.8651C543.391 46.5999 542.943 46.2188 542.612 45.7216C542.28 45.2197 542.115 44.6136 542.115 43.9034C542.115 43.2784 542.238 42.7718 542.484 42.3835C542.73 41.9905 543.059 41.6828 543.471 41.4602C543.883 41.2377 544.338 41.072 544.835 40.9631C545.337 40.8494 545.841 40.7595 546.347 40.6932C547.01 40.608 547.548 40.544 547.96 40.5014C548.376 40.4541 548.679 40.3759 548.869 40.267C549.063 40.1581 549.16 39.9687 549.16 39.6989V39.642C549.16 38.9413 548.968 38.3968 548.585 38.0085C548.206 37.6203 547.631 37.4261 546.859 37.4261C546.059 37.4261 545.431 37.6013 544.977 37.9517C544.522 38.3021 544.203 38.6761 544.018 39.0739L542.427 38.5057C542.711 37.8428 543.09 37.3267 543.563 36.9574C544.042 36.5833 544.562 36.3229 545.126 36.1761C545.694 36.0246 546.253 35.9489 546.802 35.9489C547.152 35.9489 547.555 35.9915 548.009 36.0767C548.469 36.1572 548.911 36.3253 549.338 36.581C549.768 36.8366 550.126 37.2225 550.41 37.7386C550.694 38.2547 550.836 38.946 550.836 39.8125V47H549.16V45.5227H549.075C548.961 45.7595 548.772 46.0128 548.507 46.2827C548.241 46.5526 547.889 46.7822 547.448 46.9716C547.008 47.161 546.471 47.2557 545.836 47.2557ZM546.092 45.75C546.755 45.75 547.313 45.6198 547.768 45.3594C548.227 45.099 548.573 44.7628 548.805 44.3509C549.042 43.9389 549.16 43.5057 549.16 43.0511V41.517C549.089 41.6023 548.933 41.6804 548.691 41.7514C548.454 41.8177 548.18 41.8769 547.867 41.929C547.56 41.9763 547.259 42.0189 546.965 42.0568C546.677 42.09 546.442 42.1184 546.262 42.142C545.827 42.1989 545.419 42.2912 545.041 42.419C544.667 42.5421 544.364 42.7292 544.132 42.9801C543.904 43.2263 543.791 43.5625 543.791 43.9886C543.791 44.571 544.006 45.0114 544.437 45.3097C544.873 45.6032 545.424 45.75 546.092 45.75ZM554.584 51.0909C554.3 51.0909 554.047 51.0672 553.824 51.0199C553.602 50.9773 553.448 50.9347 553.363 50.892L553.789 49.4148C554.196 49.5189 554.556 49.5568 554.868 49.5284C555.181 49.5 555.458 49.3603 555.699 49.1094C555.946 48.8632 556.171 48.4631 556.374 47.9091L556.687 47.0568L552.653 36.0909H554.471L557.482 44.7841H557.596L560.607 36.0909H562.425L557.795 48.5909C557.586 49.1544 557.328 49.6207 557.02 49.9901C556.713 50.3641 556.355 50.6411 555.948 50.821C555.546 51.0009 555.091 51.0909 554.584 51.0909ZM564.638 47V36.0909H566.314V40.8352H567.422L571.342 36.0909H573.501L569.098 41.3466L573.558 47H571.399L567.819 42.3977H566.314V47H564.638Z" fill="black"/>
<g id="text">
<path id="text_room_310" d="M257.886 778H256.409L260.682 766.364H262.136L266.409 778H264.932L261.455 768.205H261.364L257.886 778ZM258.432 773.455H264.386V774.705H258.432V773.455ZM267.81 781.273C267.582 781.273 267.38 781.254 267.202 781.216C267.024 781.182 266.901 781.148 266.832 781.114L267.173 779.932C267.499 780.015 267.787 780.045 268.037 780.023C268.287 780 268.509 779.888 268.702 779.688C268.899 779.491 269.079 779.17 269.241 778.727L269.491 778.045L266.264 769.273H267.719L270.128 776.227H270.219L272.628 769.273H274.082L270.378 779.273C270.211 779.723 270.005 780.097 269.759 780.392C269.512 780.691 269.226 780.913 268.901 781.057C268.579 781.201 268.215 781.273 267.81 781.273ZM274.186 780.5V776.75H274.913C275.091 776.564 275.245 776.364 275.374 776.148C275.502 775.932 275.614 775.676 275.709 775.381C275.807 775.081 275.891 774.718 275.959 774.29C276.027 773.858 276.088 773.337 276.141 772.727L276.436 769.273H281.982V776.75H283.322V780.5H281.982V778H275.527V780.5H274.186ZM276.436 776.75H280.641V770.523H277.686L277.459 772.727C277.364 773.64 277.247 774.437 277.107 775.119C276.966 775.801 276.743 776.345 276.436 776.75ZM293.511 778.159C292.761 778.159 292.093 778.03 291.506 777.773C290.922 777.515 290.458 777.157 290.114 776.699C289.773 776.237 289.587 775.701 289.557 775.091H290.989C291.019 775.466 291.148 775.79 291.375 776.062C291.602 776.331 291.9 776.54 292.267 776.688C292.634 776.835 293.042 776.909 293.489 776.909C293.989 776.909 294.432 776.822 294.818 776.648C295.205 776.473 295.508 776.231 295.727 775.92C295.947 775.61 296.057 775.25 296.057 774.841C296.057 774.413 295.951 774.036 295.739 773.71C295.527 773.381 295.216 773.123 294.807 772.938C294.398 772.752 293.898 772.659 293.307 772.659H292.375V771.409H293.307C293.769 771.409 294.174 771.326 294.523 771.159C294.875 770.992 295.15 770.758 295.347 770.455C295.547 770.152 295.648 769.795 295.648 769.386C295.648 768.992 295.561 768.65 295.386 768.358C295.212 768.066 294.966 767.839 294.648 767.676C294.333 767.513 293.962 767.432 293.534 767.432C293.133 767.432 292.754 767.506 292.398 767.653C292.045 767.797 291.758 768.008 291.534 768.284C291.311 768.557 291.189 768.886 291.17 769.273H289.807C289.83 768.663 290.013 768.129 290.358 767.67C290.703 767.208 291.153 766.848 291.71 766.591C292.271 766.333 292.886 766.205 293.557 766.205C294.277 766.205 294.894 766.35 295.409 766.642C295.924 766.93 296.32 767.311 296.597 767.784C296.873 768.258 297.011 768.769 297.011 769.318C297.011 769.973 296.839 770.532 296.494 770.994C296.153 771.456 295.689 771.777 295.102 771.955V772.045C295.837 772.167 296.411 772.479 296.824 772.983C297.237 773.483 297.443 774.102 297.443 774.841C297.443 775.473 297.271 776.042 296.926 776.545C296.585 777.045 296.119 777.439 295.528 777.727C294.938 778.015 294.265 778.159 293.511 778.159ZM303.858 766.364V778H302.449V767.841H302.381L299.54 769.727V768.295L302.449 766.364H303.858ZM311 778.159C310.144 778.159 309.415 777.926 308.812 777.46C308.21 776.991 307.75 776.311 307.432 775.42C307.114 774.527 306.955 773.447 306.955 772.182C306.955 770.924 307.114 769.85 307.432 768.96C307.754 768.066 308.216 767.384 308.818 766.915C309.424 766.441 310.152 766.205 311 766.205C311.848 766.205 312.574 766.441 313.176 766.915C313.782 767.384 314.244 768.066 314.562 768.96C314.884 769.85 315.045 770.924 315.045 772.182C315.045 773.447 314.886 774.527 314.568 775.42C314.25 776.311 313.79 776.991 313.188 777.46C312.585 777.926 311.856 778.159 311 778.159ZM311 776.909C311.848 776.909 312.508 776.5 312.977 775.682C313.447 774.864 313.682 773.697 313.682 772.182C313.682 771.174 313.574 770.316 313.358 769.608C313.146 768.9 312.839 768.36 312.438 767.989C312.04 767.617 311.561 767.432 311 767.432C310.159 767.432 309.502 767.847 309.028 768.676C308.555 769.502 308.318 770.67 308.318 772.182C308.318 773.189 308.424 774.045 308.636 774.75C308.848 775.455 309.153 775.991 309.551 776.358C309.953 776.725 310.436 776.909 311 776.909Z" fill="black"/>
<path id="text_room_305" d="M139.238 522H137.761L142.033 510.364H143.488L147.761 522H146.283L142.806 512.205H142.715L139.238 522ZM139.783 517.455H145.738V518.705H139.783V517.455ZM149.161 525.273C148.934 525.273 148.731 525.254 148.553 525.216C148.375 525.182 148.252 525.148 148.184 525.114L148.525 523.932C148.851 524.015 149.138 524.045 149.388 524.023C149.638 524 149.86 523.888 150.053 523.688C150.25 523.491 150.43 523.17 150.593 522.727L150.843 522.045L147.616 513.273H149.07L151.479 520.227H151.57L153.979 513.273H155.434L151.729 523.273C151.563 523.723 151.356 524.097 151.11 524.392C150.864 524.691 150.578 524.913 150.252 525.057C149.93 525.201 149.567 525.273 149.161 525.273ZM155.538 524.5V520.75H156.265C156.443 520.564 156.596 520.364 156.725 520.148C156.854 519.932 156.966 519.676 157.06 519.381C157.159 519.081 157.242 518.718 157.31 518.29C157.379 517.858 157.439 517.337 157.492 516.727L157.788 513.273H163.333V520.75H164.674V524.5H163.333V522H156.879V524.5H155.538ZM157.788 520.75H161.992V514.523H159.038L158.81 516.727C158.716 517.64 158.598 518.437 158.458 519.119C158.318 519.801 158.094 520.345 157.788 520.75ZM174.863 522.159C174.113 522.159 173.444 522.03 172.857 521.773C172.274 521.515 171.81 521.157 171.465 520.699C171.124 520.237 170.939 519.701 170.908 519.091H172.34C172.371 519.466 172.499 519.79 172.727 520.062C172.954 520.331 173.251 520.54 173.619 520.688C173.986 520.835 174.393 520.909 174.84 520.909C175.34 520.909 175.783 520.822 176.17 520.648C176.556 520.473 176.859 520.231 177.079 519.92C177.299 519.61 177.408 519.25 177.408 518.841C177.408 518.413 177.302 518.036 177.09 517.71C176.878 517.381 176.567 517.123 176.158 516.938C175.749 516.752 175.249 516.659 174.658 516.659H173.727V515.409H174.658C175.121 515.409 175.526 515.326 175.874 515.159C176.227 514.992 176.501 514.758 176.698 514.455C176.899 514.152 176.999 513.795 176.999 513.386C176.999 512.992 176.912 512.65 176.738 512.358C176.564 512.066 176.317 511.839 175.999 511.676C175.685 511.513 175.314 511.432 174.886 511.432C174.484 511.432 174.105 511.506 173.749 511.653C173.397 511.797 173.109 512.008 172.886 512.284C172.662 512.557 172.541 512.886 172.522 513.273H171.158C171.181 512.663 171.365 512.129 171.71 511.67C172.054 511.208 172.505 510.848 173.062 510.591C173.622 510.333 174.238 510.205 174.908 510.205C175.628 510.205 176.246 510.35 176.761 510.642C177.276 510.93 177.672 511.311 177.948 511.784C178.225 512.258 178.363 512.769 178.363 513.318C178.363 513.973 178.191 514.532 177.846 514.994C177.505 515.456 177.041 515.777 176.454 515.955V516.045C177.189 516.167 177.763 516.479 178.175 516.983C178.588 517.483 178.795 518.102 178.795 518.841C178.795 519.473 178.622 520.042 178.278 520.545C177.937 521.045 177.471 521.439 176.88 521.727C176.289 522.015 175.617 522.159 174.863 522.159ZM184.914 522.159C184.058 522.159 183.329 521.926 182.727 521.46C182.124 520.991 181.664 520.311 181.346 519.42C181.028 518.527 180.869 517.447 180.869 516.182C180.869 514.924 181.028 513.85 181.346 512.96C181.668 512.066 182.13 511.384 182.732 510.915C183.338 510.441 184.066 510.205 184.914 510.205C185.763 510.205 186.488 510.441 187.09 510.915C187.696 511.384 188.158 512.066 188.477 512.96C188.799 513.85 188.96 514.924 188.96 516.182C188.96 517.447 188.8 518.527 188.482 519.42C188.164 520.311 187.704 520.991 187.102 521.46C186.499 521.926 185.77 522.159 184.914 522.159ZM184.914 520.909C185.763 520.909 186.422 520.5 186.891 519.682C187.361 518.864 187.596 517.697 187.596 516.182C187.596 515.174 187.488 514.316 187.272 513.608C187.06 512.9 186.753 512.36 186.352 511.989C185.954 511.617 185.475 511.432 184.914 511.432C184.073 511.432 183.416 511.847 182.942 512.676C182.469 513.502 182.232 514.67 182.232 516.182C182.232 517.189 182.338 518.045 182.55 518.75C182.763 519.455 183.067 519.991 183.465 520.358C183.867 520.725 184.35 520.909 184.914 520.909ZM194.755 522.159C194.088 522.159 193.488 522.027 192.954 521.761C192.42 521.496 191.992 521.133 191.67 520.67C191.348 520.208 191.172 519.682 191.141 519.091H192.505C192.558 519.617 192.797 520.053 193.221 520.398C193.649 520.739 194.16 520.909 194.755 520.909C195.232 520.909 195.656 520.797 196.028 520.574C196.403 520.35 196.696 520.044 196.908 519.653C197.124 519.259 197.232 518.814 197.232 518.318C197.232 517.811 197.121 517.358 196.897 516.96C196.677 516.559 196.374 516.242 195.988 516.011C195.602 515.78 195.16 515.663 194.664 515.659C194.308 515.655 193.942 515.71 193.567 515.824C193.192 515.934 192.884 516.076 192.641 516.25L191.323 516.091L192.028 510.364H198.073V511.614H193.21L192.8 515.045H192.869C193.107 514.856 193.406 514.699 193.766 514.574C194.126 514.449 194.501 514.386 194.891 514.386C195.603 514.386 196.238 514.557 196.795 514.898C197.355 515.235 197.795 515.697 198.113 516.284C198.435 516.871 198.596 517.542 198.596 518.295C198.596 519.038 198.429 519.701 198.096 520.284C197.766 520.864 197.312 521.322 196.732 521.659C196.153 521.992 195.494 522.159 194.755 522.159Z" fill="black"/>
<path id="text_room_304" d="M138.972 402H137.495L141.768 390.364H143.222L147.495 402H146.018L142.54 392.205H142.45L138.972 402ZM139.518 397.455H145.472V398.705H139.518V397.455ZM148.896 405.273C148.668 405.273 148.466 405.254 148.288 405.216C148.11 405.182 147.987 405.148 147.918 405.114L148.259 403.932C148.585 404.015 148.873 404.045 149.123 404.023C149.373 404 149.594 403.888 149.788 403.688C149.985 403.491 150.165 403.17 150.327 402.727L150.577 402.045L147.35 393.273H148.805L151.214 400.227H151.305L153.714 393.273H155.168L151.464 403.273C151.297 403.723 151.091 404.097 150.844 404.392C150.598 404.691 150.312 404.913 149.987 405.057C149.665 405.201 149.301 405.273 148.896 405.273ZM155.272 404.5V400.75H155.999C156.177 400.564 156.331 400.364 156.46 400.148C156.588 399.932 156.7 399.676 156.795 399.381C156.893 399.081 156.977 398.718 157.045 398.29C157.113 397.858 157.174 397.337 157.227 396.727L157.522 393.273H163.067V400.75H164.408V404.5H163.067V402H156.613V404.5H155.272ZM157.522 400.75H161.727V394.523H158.772L158.545 396.727C158.45 397.64 158.333 398.437 158.192 399.119C158.052 399.801 157.829 400.345 157.522 400.75ZM174.597 402.159C173.847 402.159 173.179 402.03 172.592 401.773C172.008 401.515 171.544 401.157 171.2 400.699C170.859 400.237 170.673 399.701 170.643 399.091H172.075C172.105 399.466 172.234 399.79 172.461 400.062C172.688 400.331 172.986 400.54 173.353 400.688C173.72 400.835 174.128 400.909 174.575 400.909C175.075 400.909 175.518 400.822 175.904 400.648C176.29 400.473 176.594 400.231 176.813 399.92C177.033 399.61 177.143 399.25 177.143 398.841C177.143 398.413 177.037 398.036 176.825 397.71C176.612 397.381 176.302 397.123 175.893 396.938C175.484 396.752 174.984 396.659 174.393 396.659H173.461V395.409H174.393C174.855 395.409 175.26 395.326 175.609 395.159C175.961 394.992 176.236 394.758 176.433 394.455C176.633 394.152 176.734 393.795 176.734 393.386C176.734 392.992 176.647 392.65 176.472 392.358C176.298 392.066 176.052 391.839 175.734 391.676C175.419 391.513 175.048 391.432 174.62 391.432C174.219 391.432 173.84 391.506 173.484 391.653C173.131 391.797 172.844 392.008 172.62 392.284C172.397 392.557 172.275 392.886 172.256 393.273H170.893C170.915 392.663 171.099 392.129 171.444 391.67C171.789 391.208 172.239 390.848 172.796 390.591C173.357 390.333 173.972 390.205 174.643 390.205C175.362 390.205 175.98 390.35 176.495 390.642C177.01 390.93 177.406 391.311 177.683 391.784C177.959 392.258 178.097 392.769 178.097 393.318C178.097 393.973 177.925 394.532 177.58 394.994C177.239 395.456 176.775 395.777 176.188 395.955V396.045C176.923 396.167 177.497 396.479 177.91 396.983C178.323 397.483 178.529 398.102 178.529 398.841C178.529 399.473 178.357 400.042 178.012 400.545C177.671 401.045 177.205 401.439 176.614 401.727C176.023 402.015 175.351 402.159 174.597 402.159ZM184.648 402.159C183.792 402.159 183.063 401.926 182.461 401.46C181.859 400.991 181.398 400.311 181.08 399.42C180.762 398.527 180.603 397.447 180.603 396.182C180.603 394.924 180.762 393.85 181.08 392.96C181.402 392.066 181.864 391.384 182.467 390.915C183.073 390.441 183.8 390.205 184.648 390.205C185.497 390.205 186.222 390.441 186.825 390.915C187.431 391.384 187.893 392.066 188.211 392.96C188.533 393.85 188.694 394.924 188.694 396.182C188.694 397.447 188.535 398.527 188.217 399.42C187.898 400.311 187.438 400.991 186.836 401.46C186.234 401.926 185.504 402.159 184.648 402.159ZM184.648 400.909C185.497 400.909 186.156 400.5 186.626 399.682C187.095 398.864 187.33 397.697 187.33 396.182C187.33 395.174 187.222 394.316 187.006 393.608C186.794 392.9 186.487 392.36 186.086 391.989C185.688 391.617 185.209 391.432 184.648 391.432C183.808 391.432 183.15 391.847 182.677 392.676C182.203 393.502 181.967 394.67 181.967 396.182C181.967 397.189 182.073 398.045 182.285 398.75C182.497 399.455 182.802 399.991 183.2 400.358C183.601 400.725 184.084 400.909 184.648 400.909ZM190.58 399.614V398.455L195.694 390.364H196.535V392.159H195.967L192.103 398.273V398.364H198.989V399.614H190.58ZM196.058 402V399.261V398.722V390.364H197.398V402H196.058Z" fill="black"/>
<path id="text_room_309" d="M431.113 714H429.636L433.908 702.364H435.363L439.636 714H438.158L434.681 704.205H434.59L431.113 714ZM431.658 709.455H437.613V710.705H431.658V709.455ZM441.036 717.273C440.809 717.273 440.606 717.254 440.428 717.216C440.25 717.182 440.127 717.148 440.059 717.114L440.4 715.932C440.726 716.015 441.013 716.045 441.263 716.023C441.513 716 441.735 715.888 441.928 715.688C442.125 715.491 442.305 715.17 442.468 714.727L442.718 714.045L439.491 705.273H440.945L443.354 712.227H443.445L445.854 705.273H447.309L443.604 715.273C443.438 715.723 443.231 716.097 442.985 716.392C442.739 716.691 442.453 716.913 442.127 717.057C441.805 717.201 441.442 717.273 441.036 717.273ZM447.413 716.5V712.75H448.14C448.318 712.564 448.471 712.364 448.6 712.148C448.729 711.932 448.841 711.676 448.935 711.381C449.034 711.081 449.117 710.718 449.185 710.29C449.254 709.858 449.314 709.337 449.367 708.727L449.663 705.273H455.208V712.75H456.549V716.5H455.208V714H448.754V716.5H447.413ZM449.663 712.75H453.867V706.523H450.913L450.685 708.727C450.591 709.64 450.473 710.437 450.333 711.119C450.193 711.801 449.969 712.345 449.663 712.75ZM466.738 714.159C465.988 714.159 465.319 714.03 464.732 713.773C464.149 713.515 463.685 713.157 463.34 712.699C462.999 712.237 462.814 711.701 462.783 711.091H464.215C464.246 711.466 464.374 711.79 464.602 712.062C464.829 712.331 465.126 712.54 465.494 712.688C465.861 712.835 466.268 712.909 466.715 712.909C467.215 712.909 467.658 712.822 468.045 712.648C468.431 712.473 468.734 712.231 468.954 711.92C469.174 711.61 469.283 711.25 469.283 710.841C469.283 710.413 469.177 710.036 468.965 709.71C468.753 709.381 468.442 709.123 468.033 708.938C467.624 708.752 467.124 708.659 466.533 708.659H465.602V707.409H466.533C466.996 707.409 467.401 707.326 467.749 707.159C468.102 706.992 468.376 706.758 468.573 706.455C468.774 706.152 468.874 705.795 468.874 705.386C468.874 704.992 468.787 704.65 468.613 704.358C468.439 704.066 468.192 703.839 467.874 703.676C467.56 703.513 467.189 703.432 466.761 703.432C466.359 703.432 465.98 703.506 465.624 703.653C465.272 703.797 464.984 704.008 464.761 704.284C464.537 704.557 464.416 704.886 464.397 705.273H463.033C463.056 704.663 463.24 704.129 463.585 703.67C463.929 703.208 464.38 702.848 464.937 702.591C465.497 702.333 466.113 702.205 466.783 702.205C467.503 702.205 468.121 702.35 468.636 702.642C469.151 702.93 469.547 703.311 469.823 703.784C470.1 704.258 470.238 704.769 470.238 705.318C470.238 705.973 470.066 706.532 469.721 706.994C469.38 707.456 468.916 707.777 468.329 707.955V708.045C469.064 708.167 469.638 708.479 470.05 708.983C470.463 709.483 470.67 710.102 470.67 710.841C470.67 711.473 470.497 712.042 470.153 712.545C469.812 713.045 469.346 713.439 468.755 713.727C468.164 714.015 467.492 714.159 466.738 714.159ZM476.789 714.159C475.933 714.159 475.204 713.926 474.602 713.46C473.999 712.991 473.539 712.311 473.221 711.42C472.903 710.527 472.744 709.447 472.744 708.182C472.744 706.924 472.903 705.85 473.221 704.96C473.543 704.066 474.005 703.384 474.607 702.915C475.213 702.441 475.941 702.205 476.789 702.205C477.638 702.205 478.363 702.441 478.965 702.915C479.571 703.384 480.033 704.066 480.352 704.96C480.674 705.85 480.835 706.924 480.835 708.182C480.835 709.447 480.675 710.527 480.357 711.42C480.039 712.311 479.579 712.991 478.977 713.46C478.374 713.926 477.645 714.159 476.789 714.159ZM476.789 712.909C477.638 712.909 478.297 712.5 478.766 711.682C479.236 710.864 479.471 709.697 479.471 708.182C479.471 707.174 479.363 706.316 479.147 705.608C478.935 704.9 478.628 704.36 478.227 703.989C477.829 703.617 477.35 703.432 476.789 703.432C475.948 703.432 475.291 703.847 474.817 704.676C474.344 705.502 474.107 706.67 474.107 708.182C474.107 709.189 474.213 710.045 474.425 710.75C474.638 711.455 474.942 711.991 475.34 712.358C475.742 712.725 476.225 712.909 476.789 712.909ZM486.698 702.205C487.175 702.208 487.653 702.299 488.13 702.477C488.607 702.655 489.043 702.951 489.437 703.364C489.831 703.773 490.147 704.331 490.386 705.04C490.624 705.748 490.744 706.636 490.744 707.705C490.744 708.739 490.645 709.657 490.448 710.46C490.255 711.259 489.975 711.934 489.607 712.483C489.244 713.032 488.8 713.449 488.278 713.733C487.759 714.017 487.172 714.159 486.516 714.159C485.865 714.159 485.283 714.03 484.772 713.773C484.264 713.511 483.848 713.15 483.522 712.688C483.2 712.222 482.994 711.682 482.903 711.068H484.289C484.414 711.602 484.662 712.044 485.033 712.392C485.408 712.737 485.903 712.909 486.516 712.909C487.414 712.909 488.122 712.517 488.641 711.733C489.164 710.949 489.425 709.841 489.425 708.409H489.335C489.122 708.727 488.871 709.002 488.579 709.233C488.287 709.464 487.963 709.642 487.607 709.767C487.251 709.892 486.872 709.955 486.471 709.955C485.804 709.955 485.192 709.79 484.636 709.46C484.083 709.127 483.639 708.67 483.306 708.091C482.977 707.508 482.812 706.841 482.812 706.091C482.812 705.379 482.971 704.727 483.289 704.136C483.611 703.542 484.062 703.068 484.641 702.716C485.225 702.364 485.91 702.193 486.698 702.205ZM486.698 703.455C486.221 703.455 485.791 703.574 485.408 703.812C485.03 704.047 484.728 704.366 484.505 704.767C484.285 705.165 484.175 705.606 484.175 706.091C484.175 706.576 484.281 707.017 484.494 707.415C484.71 707.809 485.003 708.123 485.374 708.358C485.749 708.589 486.175 708.705 486.653 708.705C487.013 708.705 487.348 708.634 487.658 708.494C487.969 708.35 488.24 708.155 488.471 707.909C488.706 707.659 488.889 707.377 489.022 707.062C489.155 706.744 489.221 706.413 489.221 706.068C489.221 705.614 489.111 705.187 488.891 704.79C488.675 704.392 488.376 704.07 487.994 703.824C487.615 703.578 487.183 703.455 486.698 703.455Z" fill="black"/>
<path id="text_room_303" d="M86.0114 244H84.5341L88.8068 232.364H90.2614L94.5341 244H93.0568L89.5795 234.205H89.4886L86.0114 244ZM86.5568 239.455H92.5114V240.705H86.5568V239.455ZM95.9347 247.273C95.7074 247.273 95.5047 247.254 95.3267 247.216C95.1487 247.182 95.0256 247.148 94.9574 247.114L95.2983 245.932C95.6241 246.015 95.9119 246.045 96.1619 246.023C96.4119 246 96.6335 245.888 96.8267 245.688C97.0237 245.491 97.2036 245.17 97.3665 244.727L97.6165 244.045L94.3892 235.273H95.8438L98.2528 242.227H98.3438L100.753 235.273H102.207L98.5028 245.273C98.3362 245.723 98.1297 246.097 97.8835 246.392C97.6373 246.691 97.3513 246.913 97.0256 247.057C96.7036 247.201 96.34 247.273 95.9347 247.273ZM102.311 246.5V242.75H103.038C103.216 242.564 103.37 242.364 103.499 242.148C103.627 241.932 103.739 241.676 103.834 241.381C103.932 241.081 104.016 240.718 104.084 240.29C104.152 239.858 104.213 239.337 104.266 238.727L104.561 235.273H110.107V242.75H111.447V246.5H110.107V244H103.652V246.5H102.311ZM104.561 242.75H108.766V236.523H105.811L105.584 238.727C105.489 239.64 105.372 240.437 105.232 241.119C105.091 241.801 104.868 242.345 104.561 242.75ZM121.636 244.159C120.886 244.159 120.218 244.03 119.631 243.773C119.047 243.515 118.583 243.157 118.239 242.699C117.898 242.237 117.712 241.701 117.682 241.091H119.114C119.144 241.466 119.273 241.79 119.5 242.062C119.727 242.331 120.025 242.54 120.392 242.688C120.759 242.835 121.167 242.909 121.614 242.909C122.114 242.909 122.557 242.822 122.943 242.648C123.33 242.473 123.633 242.231 123.852 241.92C124.072 241.61 124.182 241.25 124.182 240.841C124.182 240.413 124.076 240.036 123.864 239.71C123.652 239.381 123.341 239.123 122.932 238.938C122.523 238.752 122.023 238.659 121.432 238.659H120.5V237.409H121.432C121.894 237.409 122.299 237.326 122.648 237.159C123 236.992 123.275 236.758 123.472 236.455C123.672 236.152 123.773 235.795 123.773 235.386C123.773 234.992 123.686 234.65 123.511 234.358C123.337 234.066 123.091 233.839 122.773 233.676C122.458 233.513 122.087 233.432 121.659 233.432C121.258 233.432 120.879 233.506 120.523 233.653C120.17 233.797 119.883 234.008 119.659 234.284C119.436 234.557 119.314 234.886 119.295 235.273H117.932C117.955 234.663 118.138 234.129 118.483 233.67C118.828 233.208 119.278 232.848 119.835 232.591C120.396 232.333 121.011 232.205 121.682 232.205C122.402 232.205 123.019 232.35 123.534 232.642C124.049 232.93 124.445 233.311 124.722 233.784C124.998 234.258 125.136 234.769 125.136 235.318C125.136 235.973 124.964 236.532 124.619 236.994C124.278 237.456 123.814 237.777 123.227 237.955V238.045C123.962 238.167 124.536 238.479 124.949 238.983C125.362 239.483 125.568 240.102 125.568 240.841C125.568 241.473 125.396 242.042 125.051 242.545C124.71 243.045 124.244 243.439 123.653 243.727C123.063 244.015 122.39 244.159 121.636 244.159ZM131.688 244.159C130.831 244.159 130.102 243.926 129.5 243.46C128.898 242.991 128.438 242.311 128.119 241.42C127.801 240.527 127.642 239.447 127.642 238.182C127.642 236.924 127.801 235.85 128.119 234.96C128.441 234.066 128.903 233.384 129.506 232.915C130.112 232.441 130.839 232.205 131.688 232.205C132.536 232.205 133.261 232.441 133.864 232.915C134.47 233.384 134.932 234.066 135.25 234.96C135.572 235.85 135.733 236.924 135.733 238.182C135.733 239.447 135.574 240.527 135.256 241.42C134.938 242.311 134.477 242.991 133.875 243.46C133.273 243.926 132.544 244.159 131.688 244.159ZM131.688 242.909C132.536 242.909 133.195 242.5 133.665 241.682C134.134 240.864 134.369 239.697 134.369 238.182C134.369 237.174 134.261 236.316 134.045 235.608C133.833 234.9 133.527 234.36 133.125 233.989C132.727 233.617 132.248 233.432 131.688 233.432C130.847 233.432 130.189 233.847 129.716 234.676C129.242 235.502 129.006 236.67 129.006 238.182C129.006 239.189 129.112 240.045 129.324 240.75C129.536 241.455 129.841 241.991 130.239 242.358C130.64 242.725 131.123 242.909 131.688 242.909ZM141.824 244.159C141.074 244.159 140.405 244.03 139.818 243.773C139.235 243.515 138.771 243.157 138.426 242.699C138.085 242.237 137.9 241.701 137.869 241.091H139.301C139.331 241.466 139.46 241.79 139.688 242.062C139.915 242.331 140.212 242.54 140.58 242.688C140.947 242.835 141.354 242.909 141.801 242.909C142.301 242.909 142.744 242.822 143.131 242.648C143.517 242.473 143.82 242.231 144.04 241.92C144.259 241.61 144.369 241.25 144.369 240.841C144.369 240.413 144.263 240.036 144.051 239.71C143.839 239.381 143.528 239.123 143.119 238.938C142.71 238.752 142.21 238.659 141.619 238.659H140.688V237.409H141.619C142.081 237.409 142.487 237.326 142.835 237.159C143.188 236.992 143.462 236.758 143.659 236.455C143.86 236.152 143.96 235.795 143.96 235.386C143.96 234.992 143.873 234.65 143.699 234.358C143.525 234.066 143.278 233.839 142.96 233.676C142.646 233.513 142.275 233.432 141.847 233.432C141.445 233.432 141.066 233.506 140.71 233.653C140.358 233.797 140.07 234.008 139.847 234.284C139.623 234.557 139.502 234.886 139.483 235.273H138.119C138.142 234.663 138.326 234.129 138.67 233.67C139.015 233.208 139.466 232.848 140.023 232.591C140.583 232.333 141.199 232.205 141.869 232.205C142.589 232.205 143.206 232.35 143.722 232.642C144.237 232.93 144.633 233.311 144.909 233.784C145.186 234.258 145.324 234.769 145.324 235.318C145.324 235.973 145.152 236.532 144.807 236.994C144.466 237.456 144.002 237.777 143.415 237.955V238.045C144.15 238.167 144.723 238.479 145.136 238.983C145.549 239.483 145.756 240.102 145.756 240.841C145.756 241.473 145.583 242.042 145.239 242.545C144.898 243.045 144.432 243.439 143.841 243.727C143.25 244.015 142.578 244.159 141.824 244.159Z" fill="black"/>
<path id="text_room_306" d="M139.113 602H137.636L141.908 590.364H143.363L147.636 602H146.158L142.681 592.205H142.59L139.113 602ZM139.658 597.455H145.613V598.705H139.658V597.455ZM149.036 605.273C148.809 605.273 148.606 605.254 148.428 605.216C148.25 605.182 148.127 605.148 148.059 605.114L148.4 603.932C148.726 604.015 149.013 604.045 149.263 604.023C149.513 604 149.735 603.888 149.928 603.688C150.125 603.491 150.305 603.17 150.468 602.727L150.718 602.045L147.491 593.273H148.945L151.354 600.227H151.445L153.854 593.273H155.309L151.604 603.273C151.438 603.723 151.231 604.097 150.985 604.392C150.739 604.691 150.453 604.913 150.127 605.057C149.805 605.201 149.442 605.273 149.036 605.273ZM155.413 604.5V600.75H156.14C156.318 600.564 156.471 600.364 156.6 600.148C156.729 599.932 156.841 599.676 156.935 599.381C157.034 599.081 157.117 598.718 157.185 598.29C157.254 597.858 157.314 597.337 157.367 596.727L157.663 593.273H163.208V600.75H164.549V604.5H163.208V602H156.754V604.5H155.413ZM157.663 600.75H161.867V594.523H158.913L158.685 596.727C158.591 597.64 158.473 598.437 158.333 599.119C158.193 599.801 157.969 600.345 157.663 600.75ZM174.738 602.159C173.988 602.159 173.319 602.03 172.732 601.773C172.149 601.515 171.685 601.157 171.34 600.699C170.999 600.237 170.814 599.701 170.783 599.091H172.215C172.246 599.466 172.374 599.79 172.602 600.062C172.829 600.331 173.126 600.54 173.494 600.688C173.861 600.835 174.268 600.909 174.715 600.909C175.215 600.909 175.658 600.822 176.045 600.648C176.431 600.473 176.734 600.231 176.954 599.92C177.174 599.61 177.283 599.25 177.283 598.841C177.283 598.413 177.177 598.036 176.965 597.71C176.753 597.381 176.442 597.123 176.033 596.938C175.624 596.752 175.124 596.659 174.533 596.659H173.602V595.409H174.533C174.996 595.409 175.401 595.326 175.749 595.159C176.102 594.992 176.376 594.758 176.573 594.455C176.774 594.152 176.874 593.795 176.874 593.386C176.874 592.992 176.787 592.65 176.613 592.358C176.439 592.066 176.192 591.839 175.874 591.676C175.56 591.513 175.189 591.432 174.761 591.432C174.359 591.432 173.98 591.506 173.624 591.653C173.272 591.797 172.984 592.008 172.761 592.284C172.537 592.557 172.416 592.886 172.397 593.273H171.033C171.056 592.663 171.24 592.129 171.585 591.67C171.929 591.208 172.38 590.848 172.937 590.591C173.497 590.333 174.113 590.205 174.783 590.205C175.503 590.205 176.121 590.35 176.636 590.642C177.151 590.93 177.547 591.311 177.823 591.784C178.1 592.258 178.238 592.769 178.238 593.318C178.238 593.973 178.066 594.532 177.721 594.994C177.38 595.456 176.916 595.777 176.329 595.955V596.045C177.064 596.167 177.638 596.479 178.05 596.983C178.463 597.483 178.67 598.102 178.67 598.841C178.67 599.473 178.497 600.042 178.153 600.545C177.812 601.045 177.346 601.439 176.755 601.727C176.164 602.015 175.492 602.159 174.738 602.159ZM184.789 602.159C183.933 602.159 183.204 601.926 182.602 601.46C181.999 600.991 181.539 600.311 181.221 599.42C180.903 598.527 180.744 597.447 180.744 596.182C180.744 594.924 180.903 593.85 181.221 592.96C181.543 592.066 182.005 591.384 182.607 590.915C183.213 590.441 183.941 590.205 184.789 590.205C185.638 590.205 186.363 590.441 186.965 590.915C187.571 591.384 188.033 592.066 188.352 592.96C188.674 593.85 188.835 594.924 188.835 596.182C188.835 597.447 188.675 598.527 188.357 599.42C188.039 600.311 187.579 600.991 186.977 601.46C186.374 601.926 185.645 602.159 184.789 602.159ZM184.789 600.909C185.638 600.909 186.297 600.5 186.766 599.682C187.236 598.864 187.471 597.697 187.471 596.182C187.471 595.174 187.363 594.316 187.147 593.608C186.935 592.9 186.628 592.36 186.227 591.989C185.829 591.617 185.35 591.432 184.789 591.432C183.948 591.432 183.291 591.847 182.817 592.676C182.344 593.502 182.107 594.67 182.107 596.182C182.107 597.189 182.213 598.045 182.425 598.75C182.638 599.455 182.942 599.991 183.34 600.358C183.742 600.725 184.225 600.909 184.789 600.909ZM194.857 602.159C194.38 602.152 193.903 602.061 193.425 601.886C192.948 601.712 192.513 601.419 192.119 601.006C191.725 600.589 191.408 600.027 191.17 599.318C190.931 598.606 190.812 597.712 190.812 596.636C190.812 595.606 190.908 594.693 191.102 593.898C191.295 593.098 191.575 592.426 191.942 591.881C192.31 591.331 192.753 590.915 193.272 590.631C193.795 590.347 194.384 590.205 195.039 590.205C195.691 590.205 196.27 590.335 196.778 590.597C197.289 590.854 197.706 591.214 198.028 591.676C198.35 592.138 198.558 592.67 198.653 593.273H197.266C197.138 592.75 196.888 592.316 196.516 591.972C196.145 591.627 195.653 591.455 195.039 591.455C194.138 591.455 193.427 591.847 192.908 592.631C192.393 593.415 192.134 594.515 192.13 595.932H192.221C192.433 595.61 192.685 595.335 192.977 595.108C193.272 594.877 193.598 594.699 193.954 594.574C194.31 594.449 194.687 594.386 195.085 594.386C195.751 594.386 196.361 594.553 196.914 594.886C197.467 595.216 197.91 595.672 198.244 596.256C198.577 596.835 198.744 597.5 198.744 598.25C198.744 598.97 198.583 599.629 198.261 600.227C197.939 600.822 197.486 601.295 196.903 601.648C196.323 601.996 195.641 602.167 194.857 602.159ZM194.857 600.909C195.335 600.909 195.763 600.79 196.141 600.551C196.524 600.312 196.825 599.992 197.045 599.591C197.268 599.189 197.38 598.742 197.38 598.25C197.38 597.769 197.272 597.331 197.056 596.938C196.844 596.54 196.55 596.223 196.175 595.989C195.804 595.754 195.38 595.636 194.903 595.636C194.543 595.636 194.208 595.708 193.897 595.852C193.586 595.992 193.314 596.186 193.079 596.432C192.848 596.678 192.666 596.96 192.533 597.278C192.401 597.593 192.335 597.924 192.335 598.273C192.335 598.735 192.442 599.167 192.658 599.568C192.878 599.97 193.177 600.294 193.556 600.54C193.939 600.786 194.372 600.909 194.857 600.909Z" fill="black"/>
<path id="text_ladder" d="M67.9155 768V766.75H68.2337C68.495 766.75 68.7128 766.699 68.8871 766.597C69.0613 766.491 69.2015 766.307 69.3075 766.045C69.4174 765.78 69.5007 765.413 69.5575 764.943C69.6181 764.47 69.6617 763.867 69.6882 763.136L69.8473 759.273H75.6655V768H74.3246V760.523H71.12L70.9837 763.636C70.9534 764.352 70.889 764.983 70.7905 765.528C70.6958 766.07 70.55 766.525 70.353 766.892C70.1598 767.259 69.9022 767.536 69.5803 767.722C69.2583 767.907 68.8549 768 68.37 768H67.9155ZM81.7848 768.182C80.9439 768.182 80.2185 767.996 79.6087 767.625C79.0026 767.25 78.5348 766.727 78.2053 766.057C77.8795 765.383 77.7166 764.598 77.7166 763.705C77.7166 762.811 77.8795 762.023 78.2053 761.341C78.5348 760.655 78.9931 760.121 79.5803 759.739C80.1712 759.352 80.8606 759.159 81.6484 759.159C82.103 759.159 82.5518 759.235 82.995 759.386C83.4382 759.538 83.8416 759.784 84.2053 760.125C84.5689 760.462 84.8587 760.909 85.0746 761.466C85.2905 762.023 85.3984 762.708 85.3984 763.523V764.091H78.6712V762.932H84.0348C84.0348 762.439 83.9363 762 83.7393 761.614C83.5462 761.227 83.2696 760.922 82.9098 760.699C82.5537 760.475 82.1333 760.364 81.6484 760.364C81.1143 760.364 80.6522 760.496 80.2621 760.761C79.8757 761.023 79.5784 761.364 79.37 761.784C79.1617 762.205 79.0575 762.655 79.0575 763.136V763.909C79.0575 764.568 79.1712 765.127 79.3984 765.585C79.6295 766.04 79.9496 766.386 80.3587 766.625C80.7678 766.86 81.2431 766.977 81.7848 766.977C82.1371 766.977 82.4553 766.928 82.7393 766.83C83.0272 766.727 83.2753 766.576 83.4837 766.375C83.692 766.17 83.853 765.917 83.9666 765.614L85.2621 765.977C85.1257 766.417 84.8965 766.803 84.5746 767.136C84.2526 767.466 83.8549 767.723 83.3814 767.909C82.9079 768.091 82.3757 768.182 81.7848 768.182ZM90.9837 768.182C90.1655 768.182 89.4609 767.989 88.87 767.602C88.2791 767.216 87.8246 766.684 87.5064 766.006C87.1882 765.328 87.0291 764.553 87.0291 763.682C87.0291 762.795 87.192 762.013 87.5178 761.335C87.8473 760.653 88.3056 760.121 88.8928 759.739C89.4837 759.352 90.1731 759.159 90.9609 759.159C91.5746 759.159 92.1276 759.273 92.62 759.5C93.1125 759.727 93.5159 760.045 93.8303 760.455C94.1446 760.864 94.3397 761.341 94.4155 761.886H93.0746C92.9723 761.489 92.745 761.136 92.3928 760.83C92.0443 760.519 91.5746 760.364 90.9837 760.364C90.4609 760.364 90.0026 760.5 89.6087 760.773C89.2185 761.042 88.9136 761.422 88.6939 761.915C88.478 762.403 88.37 762.977 88.37 763.636C88.37 764.311 88.4761 764.898 88.6882 765.398C88.9041 765.898 89.2071 766.286 89.5973 766.562C89.9912 766.839 90.4534 766.977 90.9837 766.977C91.3321 766.977 91.6484 766.917 91.9325 766.795C92.2166 766.674 92.4571 766.5 92.6541 766.273C92.8511 766.045 92.9912 765.773 93.0746 765.455H94.4155C94.3397 765.97 94.1522 766.434 93.853 766.847C93.5575 767.256 93.1655 767.581 92.6768 767.824C92.192 768.062 91.6276 768.182 90.9837 768.182ZM95.6882 760.523V759.273H102.779V760.523H99.9155V768H98.5746V760.523H95.6882ZM110.576 763.023V764.273H105.758V763.023H110.576ZM106.076 759.273V768H104.735V759.273H106.076ZM111.599 759.273V768H110.258V759.273H111.599ZM115.388 766.023L119.593 759.273H121.138V768H119.798V761.25L115.616 768H114.048V759.273H115.388V766.023ZM130.458 759.273V766.75H131.685V770.818H130.344V768H123.594V759.273H124.935V766.75H129.117V759.273H130.458ZM136.319 768.205C135.766 768.205 135.264 768.1 134.813 767.892C134.362 767.68 134.004 767.375 133.739 766.977C133.474 766.576 133.342 766.091 133.342 765.523C133.342 765.023 133.44 764.617 133.637 764.307C133.834 763.992 134.097 763.746 134.427 763.568C134.756 763.39 135.12 763.258 135.518 763.17C135.919 763.08 136.323 763.008 136.728 762.955C137.258 762.886 137.688 762.835 138.018 762.801C138.351 762.763 138.594 762.701 138.745 762.614C138.9 762.527 138.978 762.375 138.978 762.159V762.114C138.978 761.553 138.825 761.117 138.518 760.807C138.215 760.496 137.754 760.341 137.137 760.341C136.497 760.341 135.995 760.481 135.631 760.761C135.268 761.042 135.012 761.341 134.864 761.659L133.592 761.205C133.819 760.674 134.122 760.261 134.501 759.966C134.883 759.667 135.3 759.458 135.751 759.341C136.205 759.22 136.652 759.159 137.092 759.159C137.372 759.159 137.694 759.193 138.058 759.261C138.425 759.326 138.779 759.46 139.12 759.665C139.465 759.869 139.751 760.178 139.978 760.591C140.205 761.004 140.319 761.557 140.319 762.25V768H138.978V766.818H138.91C138.819 767.008 138.667 767.21 138.455 767.426C138.243 767.642 137.961 767.826 137.609 767.977C137.256 768.129 136.826 768.205 136.319 768.205ZM136.523 767C137.054 767 137.501 766.896 137.864 766.688C138.232 766.479 138.508 766.21 138.694 765.881C138.883 765.551 138.978 765.205 138.978 764.841V763.614C138.921 763.682 138.796 763.744 138.603 763.801C138.414 763.854 138.194 763.902 137.944 763.943C137.698 763.981 137.457 764.015 137.222 764.045C136.991 764.072 136.804 764.095 136.66 764.114C136.311 764.159 135.986 764.233 135.683 764.335C135.383 764.434 135.141 764.583 134.955 764.784C134.773 764.981 134.683 765.25 134.683 765.591C134.683 766.057 134.855 766.409 135.2 766.648C135.548 766.883 135.989 767 136.523 767Z" fill="white"/>
<path id="text_room_308" d="M431.175 580H429.698L433.971 568.364H435.425L439.698 580H438.221L434.744 570.205H434.653L431.175 580ZM431.721 575.455H437.675V576.705H431.721V575.455ZM441.099 583.273C440.871 583.273 440.669 583.254 440.491 583.216C440.313 583.182 440.19 583.148 440.121 583.114L440.462 581.932C440.788 582.015 441.076 582.045 441.326 582.023C441.576 582 441.798 581.888 441.991 581.688C442.188 581.491 442.368 581.17 442.531 580.727L442.781 580.045L439.553 571.273H441.008L443.417 578.227H443.508L445.917 571.273H447.371L443.667 581.273C443.5 581.723 443.294 582.097 443.048 582.392C442.801 582.691 442.515 582.913 442.19 583.057C441.868 583.201 441.504 583.273 441.099 583.273ZM447.475 582.5V578.75H448.202C448.38 578.564 448.534 578.364 448.663 578.148C448.791 577.932 448.903 577.676 448.998 577.381C449.096 577.081 449.18 576.718 449.248 576.29C449.316 575.858 449.377 575.337 449.43 574.727L449.725 571.273H455.271V578.75H456.612V582.5H455.271V580H448.816V582.5H447.475ZM449.725 578.75H453.93V572.523H450.975L450.748 574.727C450.653 575.64 450.536 576.437 450.396 577.119C450.255 577.801 450.032 578.345 449.725 578.75ZM466.8 580.159C466.05 580.159 465.382 580.03 464.795 579.773C464.211 579.515 463.747 579.157 463.403 578.699C463.062 578.237 462.876 577.701 462.846 577.091H464.278C464.308 577.466 464.437 577.79 464.664 578.062C464.891 578.331 465.189 578.54 465.556 578.688C465.924 578.835 466.331 578.909 466.778 578.909C467.278 578.909 467.721 578.822 468.107 578.648C468.494 578.473 468.797 578.231 469.016 577.92C469.236 577.61 469.346 577.25 469.346 576.841C469.346 576.413 469.24 576.036 469.028 575.71C468.816 575.381 468.505 575.123 468.096 574.938C467.687 574.752 467.187 574.659 466.596 574.659H465.664V573.409H466.596C467.058 573.409 467.463 573.326 467.812 573.159C468.164 572.992 468.439 572.758 468.636 572.455C468.836 572.152 468.937 571.795 468.937 571.386C468.937 570.992 468.85 570.65 468.675 570.358C468.501 570.066 468.255 569.839 467.937 569.676C467.622 569.513 467.251 569.432 466.823 569.432C466.422 569.432 466.043 569.506 465.687 569.653C465.335 569.797 465.047 570.008 464.823 570.284C464.6 570.557 464.478 570.886 464.46 571.273H463.096C463.119 570.663 463.302 570.129 463.647 569.67C463.992 569.208 464.442 568.848 464.999 568.591C465.56 568.333 466.175 568.205 466.846 568.205C467.566 568.205 468.183 568.35 468.698 568.642C469.213 568.93 469.609 569.311 469.886 569.784C470.162 570.258 470.3 570.769 470.3 571.318C470.3 571.973 470.128 572.532 469.783 572.994C469.442 573.456 468.978 573.777 468.391 573.955V574.045C469.126 574.167 469.7 574.479 470.113 574.983C470.526 575.483 470.732 576.102 470.732 576.841C470.732 577.473 470.56 578.042 470.215 578.545C469.874 579.045 469.408 579.439 468.817 579.727C468.227 580.015 467.554 580.159 466.8 580.159ZM476.852 580.159C475.996 580.159 475.266 579.926 474.664 579.46C474.062 578.991 473.602 578.311 473.283 577.42C472.965 576.527 472.806 575.447 472.806 574.182C472.806 572.924 472.965 571.85 473.283 570.96C473.605 570.066 474.067 569.384 474.67 568.915C475.276 568.441 476.003 568.205 476.852 568.205C477.7 568.205 478.425 568.441 479.028 568.915C479.634 569.384 480.096 570.066 480.414 570.96C480.736 571.85 480.897 572.924 480.897 574.182C480.897 575.447 480.738 576.527 480.42 577.42C480.102 578.311 479.641 578.991 479.039 579.46C478.437 579.926 477.708 580.159 476.852 580.159ZM476.852 578.909C477.7 578.909 478.359 578.5 478.829 577.682C479.299 576.864 479.533 575.697 479.533 574.182C479.533 573.174 479.425 572.316 479.21 571.608C478.997 570.9 478.691 570.36 478.289 569.989C477.891 569.617 477.412 569.432 476.852 569.432C476.011 569.432 475.353 569.847 474.88 570.676C474.406 571.502 474.17 572.67 474.17 574.182C474.17 575.189 474.276 576.045 474.488 576.75C474.7 577.455 475.005 577.991 475.403 578.358C475.804 578.725 476.287 578.909 476.852 578.909ZM486.783 580.159C486.003 580.159 485.314 580.021 484.715 579.744C484.121 579.464 483.656 579.08 483.323 578.591C482.99 578.098 482.825 577.538 482.829 576.909C482.825 576.417 482.922 575.962 483.119 575.545C483.316 575.125 483.585 574.775 483.925 574.494C484.27 574.21 484.655 574.03 485.079 573.955V573.886C484.522 573.742 484.079 573.43 483.749 572.949C483.42 572.464 483.257 571.913 483.261 571.295C483.257 570.705 483.406 570.176 483.71 569.71C484.013 569.244 484.429 568.877 484.96 568.608C485.494 568.339 486.102 568.205 486.783 568.205C487.458 568.205 488.06 568.339 488.59 568.608C489.121 568.877 489.537 569.244 489.84 569.71C490.147 570.176 490.302 570.705 490.306 571.295C490.302 571.913 490.134 572.464 489.8 572.949C489.471 573.43 489.033 573.742 488.488 573.886V573.955C488.908 574.03 489.287 574.21 489.624 574.494C489.961 574.775 490.23 575.125 490.431 575.545C490.632 575.962 490.734 576.417 490.738 576.909C490.734 577.538 490.564 578.098 490.227 578.591C489.893 579.08 489.429 579.464 488.835 579.744C488.244 580.021 487.56 580.159 486.783 580.159ZM486.783 578.909C487.31 578.909 487.764 578.824 488.147 578.653C488.53 578.483 488.825 578.242 489.033 577.932C489.242 577.621 489.348 577.258 489.352 576.841C489.348 576.402 489.234 576.013 489.011 575.676C488.787 575.339 488.482 575.074 488.096 574.881C487.713 574.687 487.276 574.591 486.783 574.591C486.287 574.591 485.844 574.687 485.454 574.881C485.067 575.074 484.763 575.339 484.539 575.676C484.319 576.013 484.211 576.402 484.215 576.841C484.211 577.258 484.312 577.621 484.516 577.932C484.725 578.242 485.022 578.483 485.408 578.653C485.795 578.824 486.253 578.909 486.783 578.909ZM486.783 573.386C487.2 573.386 487.569 573.303 487.891 573.136C488.217 572.97 488.473 572.737 488.658 572.438C488.844 572.138 488.939 571.788 488.942 571.386C488.939 570.992 488.846 570.65 488.664 570.358C488.482 570.062 488.23 569.835 487.908 569.676C487.586 569.513 487.211 569.432 486.783 569.432C486.348 569.432 485.967 569.513 485.641 569.676C485.316 569.835 485.064 570.062 484.886 570.358C484.708 570.65 484.621 570.992 484.624 571.386C484.621 571.788 484.71 572.138 484.891 572.438C485.077 572.737 485.333 572.97 485.658 573.136C485.984 573.303 486.359 573.386 486.783 573.386Z" fill="black"/>
<path id="text_room_307" d="M435.191 458H433.714L437.987 446.364H439.441L443.714 458H442.237L438.759 448.205H438.668L435.191 458ZM435.737 453.455H441.691V454.705H435.737V453.455ZM445.114 461.273C444.887 461.273 444.684 461.254 444.506 461.216C444.328 461.182 444.205 461.148 444.137 461.114L444.478 459.932C444.804 460.015 445.092 460.045 445.342 460.023C445.592 460 445.813 459.888 446.006 459.688C446.203 459.491 446.383 459.17 446.546 458.727L446.796 458.045L443.569 449.273H445.023L447.433 456.227H447.523L449.933 449.273H451.387L447.683 459.273C447.516 459.723 447.309 460.097 447.063 460.392C446.817 460.691 446.531 460.913 446.205 461.057C445.883 461.201 445.52 461.273 445.114 461.273ZM451.491 460.5V456.75H452.218C452.396 456.564 452.549 456.364 452.678 456.148C452.807 455.932 452.919 455.676 453.013 455.381C453.112 455.081 453.195 454.718 453.263 454.29C453.332 453.858 453.392 453.337 453.445 452.727L453.741 449.273H459.286V456.75H460.627V460.5H459.286V458H452.832V460.5H451.491ZM453.741 456.75H457.945V450.523H454.991L454.763 452.727C454.669 453.64 454.551 454.437 454.411 455.119C454.271 455.801 454.048 456.345 453.741 456.75ZM470.816 458.159C470.066 458.159 469.397 458.03 468.81 457.773C468.227 457.515 467.763 457.157 467.418 456.699C467.077 456.237 466.892 455.701 466.862 455.091H468.293C468.324 455.466 468.452 455.79 468.68 456.062C468.907 456.331 469.204 456.54 469.572 456.688C469.939 456.835 470.346 456.909 470.793 456.909C471.293 456.909 471.737 456.822 472.123 456.648C472.509 456.473 472.812 456.231 473.032 455.92C473.252 455.61 473.362 455.25 473.362 454.841C473.362 454.413 473.255 454.036 473.043 453.71C472.831 453.381 472.521 453.123 472.112 452.938C471.702 452.752 471.202 452.659 470.612 452.659H469.68V451.409H470.612C471.074 451.409 471.479 451.326 471.827 451.159C472.18 450.992 472.454 450.758 472.651 450.455C472.852 450.152 472.952 449.795 472.952 449.386C472.952 448.992 472.865 448.65 472.691 448.358C472.517 448.066 472.271 447.839 471.952 447.676C471.638 447.513 471.267 447.432 470.839 447.432C470.437 447.432 470.058 447.506 469.702 447.653C469.35 447.797 469.062 448.008 468.839 448.284C468.615 448.557 468.494 448.886 468.475 449.273H467.112C467.134 448.663 467.318 448.129 467.663 447.67C468.007 447.208 468.458 446.848 469.015 446.591C469.576 446.333 470.191 446.205 470.862 446.205C471.581 446.205 472.199 446.35 472.714 446.642C473.229 446.93 473.625 447.311 473.901 447.784C474.178 448.258 474.316 448.769 474.316 449.318C474.316 449.973 474.144 450.532 473.799 450.994C473.458 451.456 472.994 451.777 472.407 451.955V452.045C473.142 452.167 473.716 452.479 474.129 452.983C474.541 453.483 474.748 454.102 474.748 454.841C474.748 455.473 474.576 456.042 474.231 456.545C473.89 457.045 473.424 457.439 472.833 457.727C472.242 458.015 471.57 458.159 470.816 458.159ZM480.867 458.159C480.011 458.159 479.282 457.926 478.68 457.46C478.077 456.991 477.617 456.311 477.299 455.42C476.981 454.527 476.822 453.447 476.822 452.182C476.822 450.924 476.981 449.85 477.299 448.96C477.621 448.066 478.083 447.384 478.685 446.915C479.291 446.441 480.019 446.205 480.867 446.205C481.716 446.205 482.441 446.441 483.043 446.915C483.649 447.384 484.112 448.066 484.43 448.96C484.752 449.85 484.913 450.924 484.913 452.182C484.913 453.447 484.754 454.527 484.435 455.42C484.117 456.311 483.657 456.991 483.055 457.46C482.452 457.926 481.723 458.159 480.867 458.159ZM480.867 456.909C481.716 456.909 482.375 456.5 482.844 455.682C483.314 454.864 483.549 453.697 483.549 452.182C483.549 451.174 483.441 450.316 483.225 449.608C483.013 448.9 482.706 448.36 482.305 447.989C481.907 447.617 481.428 447.432 480.867 447.432C480.026 447.432 479.369 447.847 478.896 448.676C478.422 449.502 478.185 450.67 478.185 452.182C478.185 453.189 478.291 454.045 478.504 454.75C478.716 455.455 479.021 455.991 479.418 456.358C479.82 456.725 480.303 456.909 480.867 456.909ZM487.123 458L492.327 447.705V447.614H486.327V446.364H493.782V447.682L488.6 458H487.123Z" fill="black"/>
<path id="text_room_toilet" d="M441.82 337.614V336.364H450.547V337.614H446.888V348H445.479V337.614H441.82ZM452.403 351.273C452.176 351.273 451.973 351.254 451.795 351.216C451.617 351.182 451.494 351.148 451.426 351.114L451.767 349.932C452.093 350.015 452.381 350.045 452.631 350.023C452.881 350 453.102 349.888 453.295 349.688C453.492 349.491 453.672 349.17 453.835 348.727L454.085 348.045L450.858 339.273H452.312L454.722 346.227H454.812L457.222 339.273H458.676L454.972 349.273C454.805 349.723 454.598 350.097 454.352 350.392C454.106 350.691 453.82 350.913 453.494 351.057C453.172 351.201 452.809 351.273 452.403 351.273ZM462.749 348.205C462.196 348.205 461.694 348.1 461.243 347.892C460.792 347.68 460.434 347.375 460.169 346.977C459.904 346.576 459.771 346.091 459.771 345.523C459.771 345.023 459.87 344.617 460.067 344.307C460.264 343.992 460.527 343.746 460.857 343.568C461.186 343.39 461.55 343.258 461.947 343.17C462.349 343.08 462.752 343.008 463.158 342.955C463.688 342.886 464.118 342.835 464.447 342.801C464.781 342.763 465.023 342.701 465.175 342.614C465.33 342.527 465.408 342.375 465.408 342.159V342.114C465.408 341.553 465.254 341.117 464.947 340.807C464.644 340.496 464.184 340.341 463.567 340.341C462.927 340.341 462.425 340.481 462.061 340.761C461.697 341.042 461.442 341.341 461.294 341.659L460.021 341.205C460.249 340.674 460.552 340.261 460.93 339.966C461.313 339.667 461.73 339.458 462.18 339.341C462.635 339.22 463.082 339.159 463.521 339.159C463.802 339.159 464.124 339.193 464.487 339.261C464.855 339.326 465.209 339.46 465.55 339.665C465.894 339.869 466.18 340.178 466.408 340.591C466.635 341.004 466.749 341.557 466.749 342.25V348H465.408V346.818H465.339C465.249 347.008 465.097 347.21 464.885 347.426C464.673 347.642 464.391 347.826 464.038 347.977C463.686 348.129 463.256 348.205 462.749 348.205ZM462.953 347C463.483 347 463.93 346.896 464.294 346.688C464.661 346.479 464.938 346.21 465.124 345.881C465.313 345.551 465.408 345.205 465.408 344.841V343.614C465.351 343.682 465.226 343.744 465.033 343.801C464.843 343.854 464.624 343.902 464.374 343.943C464.127 343.981 463.887 344.015 463.652 344.045C463.421 344.072 463.233 344.095 463.089 344.114C462.741 344.159 462.415 344.233 462.112 344.335C461.813 344.434 461.571 344.583 461.385 344.784C461.203 344.981 461.112 345.25 461.112 345.591C461.112 346.057 461.285 346.409 461.629 346.648C461.978 346.883 462.419 347 462.953 347ZM468.423 348V346.75H468.741C469.003 346.75 469.221 346.699 469.395 346.597C469.569 346.491 469.709 346.307 469.815 346.045C469.925 345.78 470.009 345.413 470.065 344.943C470.126 344.47 470.17 343.867 470.196 343.136L470.355 339.273H476.173V348H474.832V340.523H471.628L471.491 343.636C471.461 344.352 471.397 344.983 471.298 345.528C471.204 346.07 471.058 346.525 470.861 346.892C470.668 347.259 470.41 347.536 470.088 347.722C469.766 347.907 469.363 348 468.878 348H468.423ZM482.293 348.182C481.452 348.182 480.726 347.996 480.116 347.625C479.51 347.25 479.043 346.727 478.713 346.057C478.387 345.383 478.224 344.598 478.224 343.705C478.224 342.811 478.387 342.023 478.713 341.341C479.043 340.655 479.501 340.121 480.088 339.739C480.679 339.352 481.368 339.159 482.156 339.159C482.611 339.159 483.06 339.235 483.503 339.386C483.946 339.538 484.349 339.784 484.713 340.125C485.077 340.462 485.366 340.909 485.582 341.466C485.798 342.023 485.906 342.708 485.906 343.523V344.091H479.179V342.932H484.543C484.543 342.439 484.444 342 484.247 341.614C484.054 341.227 483.777 340.922 483.418 340.699C483.062 340.475 482.641 340.364 482.156 340.364C481.622 340.364 481.16 340.496 480.77 340.761C480.384 341.023 480.086 341.364 479.878 341.784C479.67 342.205 479.565 342.655 479.565 343.136V343.909C479.565 344.568 479.679 345.127 479.906 345.585C480.137 346.04 480.457 346.386 480.866 346.625C481.276 346.86 481.751 346.977 482.293 346.977C482.645 346.977 482.963 346.928 483.247 346.83C483.535 346.727 483.783 346.576 483.991 346.375C484.2 346.17 484.361 345.917 484.474 345.614L485.77 345.977C485.634 346.417 485.404 346.803 485.082 347.136C484.76 347.466 484.363 347.723 483.889 347.909C483.416 348.091 482.884 348.182 482.293 348.182ZM487.134 340.523V339.273H494.224V340.523H491.361V348H490.02V340.523H487.134Z" fill="black"/>
<path id="text_room_302" d="M439.261 228H437.784L442.057 216.364H443.511L447.784 228H446.307L442.83 218.205H442.739L439.261 228ZM439.807 223.455H445.761V224.705H439.807V223.455ZM449.185 231.273C448.957 231.273 448.755 231.254 448.577 231.216C448.399 231.182 448.276 231.148 448.207 231.114L448.548 229.932C448.874 230.015 449.162 230.045 449.412 230.023C449.662 230 449.884 229.888 450.077 229.688C450.274 229.491 450.454 229.17 450.616 228.727L450.866 228.045L447.639 219.273H449.094L451.503 226.227H451.594L454.003 219.273H455.457L451.753 229.273C451.586 229.723 451.38 230.097 451.134 230.392C450.887 230.691 450.601 230.913 450.276 231.057C449.954 231.201 449.59 231.273 449.185 231.273ZM455.561 230.5V226.75H456.288C456.466 226.564 456.62 226.364 456.749 226.148C456.877 225.932 456.989 225.676 457.084 225.381C457.182 225.081 457.266 224.718 457.334 224.29C457.402 223.858 457.463 223.337 457.516 222.727L457.811 219.273H463.357V226.75H464.697V230.5H463.357V228H456.902V230.5H455.561ZM457.811 226.75H462.016V220.523H459.061L458.834 222.727C458.739 223.64 458.622 224.437 458.482 225.119C458.341 225.801 458.118 226.345 457.811 226.75ZM474.886 228.159C474.136 228.159 473.468 228.03 472.881 227.773C472.297 227.515 471.833 227.157 471.489 226.699C471.148 226.237 470.962 225.701 470.932 225.091H472.364C472.394 225.466 472.523 225.79 472.75 226.062C472.977 226.331 473.275 226.54 473.642 226.688C474.009 226.835 474.417 226.909 474.864 226.909C475.364 226.909 475.807 226.822 476.193 226.648C476.58 226.473 476.883 226.231 477.102 225.92C477.322 225.61 477.432 225.25 477.432 224.841C477.432 224.413 477.326 224.036 477.114 223.71C476.902 223.381 476.591 223.123 476.182 222.938C475.773 222.752 475.273 222.659 474.682 222.659H473.75V221.409H474.682C475.144 221.409 475.549 221.326 475.898 221.159C476.25 220.992 476.525 220.758 476.722 220.455C476.922 220.152 477.023 219.795 477.023 219.386C477.023 218.992 476.936 218.65 476.761 218.358C476.587 218.066 476.341 217.839 476.023 217.676C475.708 217.513 475.337 217.432 474.909 217.432C474.508 217.432 474.129 217.506 473.773 217.653C473.42 217.797 473.133 218.008 472.909 218.284C472.686 218.557 472.564 218.886 472.545 219.273H471.182C471.205 218.663 471.388 218.129 471.733 217.67C472.078 217.208 472.528 216.848 473.085 216.591C473.646 216.333 474.261 216.205 474.932 216.205C475.652 216.205 476.269 216.35 476.784 216.642C477.299 216.93 477.695 217.311 477.972 217.784C478.248 218.258 478.386 218.769 478.386 219.318C478.386 219.973 478.214 220.532 477.869 220.994C477.528 221.456 477.064 221.777 476.477 221.955V222.045C477.212 222.167 477.786 222.479 478.199 222.983C478.612 223.483 478.818 224.102 478.818 224.841C478.818 225.473 478.646 226.042 478.301 226.545C477.96 227.045 477.494 227.439 476.903 227.727C476.313 228.015 475.64 228.159 474.886 228.159ZM484.938 228.159C484.081 228.159 483.352 227.926 482.75 227.46C482.148 226.991 481.688 226.311 481.369 225.42C481.051 224.527 480.892 223.447 480.892 222.182C480.892 220.924 481.051 219.85 481.369 218.96C481.691 218.066 482.153 217.384 482.756 216.915C483.362 216.441 484.089 216.205 484.938 216.205C485.786 216.205 486.511 216.441 487.114 216.915C487.72 217.384 488.182 218.066 488.5 218.96C488.822 219.85 488.983 220.924 488.983 222.182C488.983 223.447 488.824 224.527 488.506 225.42C488.188 226.311 487.727 226.991 487.125 227.46C486.523 227.926 485.794 228.159 484.938 228.159ZM484.938 226.909C485.786 226.909 486.445 226.5 486.915 225.682C487.384 224.864 487.619 223.697 487.619 222.182C487.619 221.174 487.511 220.316 487.295 219.608C487.083 218.9 486.777 218.36 486.375 217.989C485.977 217.617 485.498 217.432 484.938 217.432C484.097 217.432 483.439 217.847 482.966 218.676C482.492 219.502 482.256 220.67 482.256 222.182C482.256 223.189 482.362 224.045 482.574 224.75C482.786 225.455 483.091 225.991 483.489 226.358C483.89 226.725 484.373 226.909 484.938 226.909ZM491.142 228V226.977L494.983 222.773C495.434 222.28 495.805 221.852 496.097 221.489C496.388 221.121 496.604 220.777 496.744 220.455C496.888 220.129 496.96 219.788 496.96 219.432C496.96 219.023 496.862 218.669 496.665 218.369C496.472 218.07 496.206 217.839 495.869 217.676C495.532 217.513 495.153 217.432 494.733 217.432C494.286 217.432 493.896 217.525 493.562 217.71C493.233 217.892 492.977 218.148 492.795 218.477C492.617 218.807 492.528 219.193 492.528 219.636H491.188C491.188 218.955 491.345 218.356 491.659 217.841C491.973 217.326 492.402 216.924 492.943 216.636C493.489 216.348 494.1 216.205 494.778 216.205C495.46 216.205 496.064 216.348 496.591 216.636C497.117 216.924 497.53 217.312 497.83 217.801C498.129 218.29 498.278 218.833 498.278 219.432C498.278 219.86 498.201 220.278 498.045 220.688C497.894 221.093 497.629 221.545 497.25 222.045C496.875 222.542 496.354 223.148 495.688 223.864L493.074 226.659V226.75H498.483V228H491.142Z" fill="black"/>
<path id="text_room_301" d="M263.886 172H262.409L266.682 160.364H268.136L272.409 172H270.932L267.455 162.205H267.364L263.886 172ZM264.432 167.455H270.386V168.705H264.432V167.455ZM273.81 175.273C273.582 175.273 273.38 175.254 273.202 175.216C273.024 175.182 272.901 175.148 272.832 175.114L273.173 173.932C273.499 174.015 273.787 174.045 274.037 174.023C274.287 174 274.509 173.888 274.702 173.688C274.899 173.491 275.079 173.17 275.241 172.727L275.491 172.045L272.264 163.273H273.719L276.128 170.227H276.219L278.628 163.273H280.082L276.378 173.273C276.211 173.723 276.005 174.097 275.759 174.392C275.512 174.691 275.226 174.913 274.901 175.057C274.579 175.201 274.215 175.273 273.81 175.273ZM280.186 174.5V170.75H280.913C281.091 170.564 281.245 170.364 281.374 170.148C281.502 169.932 281.614 169.676 281.709 169.381C281.807 169.081 281.891 168.718 281.959 168.29C282.027 167.858 282.088 167.337 282.141 166.727L282.436 163.273H287.982V170.75H289.322V174.5H287.982V172H281.527V174.5H280.186ZM282.436 170.75H286.641V164.523H283.686L283.459 166.727C283.364 167.64 283.247 168.437 283.107 169.119C282.966 169.801 282.743 170.345 282.436 170.75ZM299.511 172.159C298.761 172.159 298.093 172.03 297.506 171.773C296.922 171.515 296.458 171.157 296.114 170.699C295.773 170.237 295.587 169.701 295.557 169.091H296.989C297.019 169.466 297.148 169.79 297.375 170.062C297.602 170.331 297.9 170.54 298.267 170.688C298.634 170.835 299.042 170.909 299.489 170.909C299.989 170.909 300.432 170.822 300.818 170.648C301.205 170.473 301.508 170.231 301.727 169.92C301.947 169.61 302.057 169.25 302.057 168.841C302.057 168.413 301.951 168.036 301.739 167.71C301.527 167.381 301.216 167.123 300.807 166.938C300.398 166.752 299.898 166.659 299.307 166.659H298.375V165.409H299.307C299.769 165.409 300.174 165.326 300.523 165.159C300.875 164.992 301.15 164.758 301.347 164.455C301.547 164.152 301.648 163.795 301.648 163.386C301.648 162.992 301.561 162.65 301.386 162.358C301.212 162.066 300.966 161.839 300.648 161.676C300.333 161.513 299.962 161.432 299.534 161.432C299.133 161.432 298.754 161.506 298.398 161.653C298.045 161.797 297.758 162.008 297.534 162.284C297.311 162.557 297.189 162.886 297.17 163.273H295.807C295.83 162.663 296.013 162.129 296.358 161.67C296.703 161.208 297.153 160.848 297.71 160.591C298.271 160.333 298.886 160.205 299.557 160.205C300.277 160.205 300.894 160.35 301.409 160.642C301.924 160.93 302.32 161.311 302.597 161.784C302.873 162.258 303.011 162.769 303.011 163.318C303.011 163.973 302.839 164.532 302.494 164.994C302.153 165.456 301.689 165.777 301.102 165.955V166.045C301.837 166.167 302.411 166.479 302.824 166.983C303.237 167.483 303.443 168.102 303.443 168.841C303.443 169.473 303.271 170.042 302.926 170.545C302.585 171.045 302.119 171.439 301.528 171.727C300.938 172.015 300.265 172.159 299.511 172.159ZM309.562 172.159C308.706 172.159 307.977 171.926 307.375 171.46C306.773 170.991 306.313 170.311 305.994 169.42C305.676 168.527 305.517 167.447 305.517 166.182C305.517 164.924 305.676 163.85 305.994 162.96C306.316 162.066 306.778 161.384 307.381 160.915C307.987 160.441 308.714 160.205 309.562 160.205C310.411 160.205 311.136 160.441 311.739 160.915C312.345 161.384 312.807 162.066 313.125 162.96C313.447 163.85 313.608 164.924 313.608 166.182C313.608 167.447 313.449 168.527 313.131 169.42C312.812 170.311 312.352 170.991 311.75 171.46C311.148 171.926 310.419 172.159 309.562 172.159ZM309.562 170.909C310.411 170.909 311.07 170.5 311.54 169.682C312.009 168.864 312.244 167.697 312.244 166.182C312.244 165.174 312.136 164.316 311.92 163.608C311.708 162.9 311.402 162.36 311 161.989C310.602 161.617 310.123 161.432 309.562 161.432C308.722 161.432 308.064 161.847 307.591 162.676C307.117 163.502 306.881 164.67 306.881 166.182C306.881 167.189 306.987 168.045 307.199 168.75C307.411 169.455 307.716 169.991 308.114 170.358C308.515 170.725 308.998 170.909 309.562 170.909ZM319.858 160.364V172H318.449V161.841H318.381L315.54 163.727V162.295L318.449 160.364H319.858Z" fill="black"/>
</g>
</g>
<defs>
<filter id="filter0_d_11_158" x="47" y="114" width="488" height="742" filterUnits="userSpaceOnUse" color-interpolation-filters="sRGB">
<feFlood flood-opacity="0" result="BackgroundImageFix"/>
<feColorMatrix in="SourceAlpha" type="matrix" values="0 0 0 0 0 0 0 0 0 0 0 0 0 0 0 0 0 0 127 0" result="hardAlpha"/>
<feOffset dx="6" dy="6"/>
<feGaussianBlur stdDeviation="2"/>
<feComposite in2="hardAlpha" operator="out"/>
<feColorMatrix type="matrix" values="0 0 0 0 0.295 0 0 0 0 0.278529 0 0 0 0 0.278529 0 0 0 1 0"/>
<feBlend mode="normal" in2="BackgroundImageFix" result="effect1_dropShadow_11_158"/>
<feBlend mode="normal" in="SourceGraphic" in2="effect1_dropShadow_11_158" result="shape"/>
</filter>
<linearGradient id="paint0_linear_11_158" x1="58.6238" y1="715.37" x2="148.284" y2="718.185" gradientUnits="userSpaceOnUse">
<stop stop-color="#C5DCE4"/>
<stop offset="1" stop-color="#29363B"/>
</linearGradient>
</defs>
</svg>
