<svg width="600" height="900" viewBox="0 0 600 900" fill="none" xmlns="http://www.w3.org/2000/svg">
<g id="Floor 1">
<g id="floor" filter="url(#filter0_d_11_91)">
<path d="M55 155.5H178.5V222H234V119H357.5V222H418V155.5H523V507.5V773.5H404.5V702H357.5V841H218.5V702H161.5V773.5H55V155.5Z" fill="#CBBEAD"/>
<path d="M55 153H52.5V155.5V773.5V776H55H161.5H164V773.5V704.5H216V841V843.5H218.5H357.5H360V841V704.5H402V773.5V776H404.5H523H525.5V773.5V507.5V155.5V153H523H418H415.5V155.5V219.5H360V119V116.5H357.5H234H231.5V119V219.5H181V155.5V153H178.5H55Z" stroke="#B0ADAB" stroke-width="5"/>
</g>
<rect id="room_106" x="219.5" y="702.5" width="138" height="138" fill="#D8E4C2" stroke="#899474"/>
<rect id="room_104" x="55.5" y="471.5" width="233" height="91" fill="#D8E4C2" stroke="#899474"/>
<rect id="room_103" x="55.5" y="321.5" width="233" height="149" fill="#D8E4C2" stroke="#899474"/>
<rect id="room_105" x="404.5" y="641.5" width="118" height="131" fill="#D8E4C2" stroke="#899474"/>
<rect id="room_dining" x="55.5" y="157.5" width="122" height="163" fill="#D8E4C2" stroke="#899474"/>
<rect id="room_wardrobe" x="55.5" y="563.5" width="122" height="77" fill="#D8E4C2" stroke="#899474"/>
<path id="ladder" d="M135.495 748.565V702.5H161.5V772.5H55.5V702.5H83.5429V748.565V749.065H84.0429H108.5H134.995H135.495V748.565Z" fill="url(#paint0_linear_11_91)" stroke="#7B9199"/>
<rect id="room_dean" x="404.5" y="509.5" width="118" height="131" fill="#D8E4C2" stroke="#899474"/>
<rect id="toilet" x="419.5" y="289.5" width="103" height="107" fill="#D8E4C2" stroke="#899474"/>
<rect id="room_102" x="419.5" y="157.5" width="103" height="131" fill="#D8E4C2" stroke="#899474"/>
<rect id="room_101" x="233.5" y="119.5" width="122" height="102" fill="#D8E4C2" stroke="#899474"/>
<g id="floor_name">
<path d="M276.055 74.5455V92H272.365V78.0483H272.263L268.266 80.554V77.2812L272.587 74.5455H276.055ZM290.634 81.6193C290.224 81.6193 289.861 81.6989 289.543 81.858C289.224 82.017 288.974 82.2386 288.793 82.5227C288.616 82.8011 288.528 83.1307 288.528 83.5114H285.264C285.264 82.8011 285.401 82.1534 285.673 81.5682C285.946 80.9773 286.327 80.4687 286.815 80.0426C287.304 79.6108 287.872 79.2784 288.52 79.0455C289.173 78.8125 289.878 78.696 290.634 78.696C291.952 78.696 293.06 78.9915 293.957 79.5824C294.861 80.1676 295.543 80.9602 296.003 81.9602C296.469 82.9545 296.702 84.071 296.702 85.3097V85.625C296.702 86.8693 296.472 87.9915 296.011 88.9915C295.551 89.9915 294.869 90.7841 293.966 91.3693C293.068 91.9489 291.957 92.2386 290.634 92.2386C289.577 92.2386 288.645 92.0312 287.838 91.6165C287.031 91.196 286.401 90.6023 285.946 89.8352C285.491 89.0625 285.264 88.1449 285.264 87.0824H288.528C288.528 87.4858 288.614 87.8551 288.784 88.1903C288.955 88.5256 289.196 88.7926 289.509 88.9915C289.827 89.1903 290.202 89.2926 290.634 89.2983C291.31 89.2926 291.835 89.1023 292.21 88.7273C292.591 88.3523 292.855 87.8835 293.003 87.321C293.156 86.7528 293.233 86.1875 293.233 85.625V85.3097C293.233 84.6903 293.153 84.0994 292.994 83.5369C292.841 82.9744 292.574 82.5142 292.193 82.1562C291.818 81.7983 291.298 81.6193 290.634 81.6193ZM294.281 84.3807V86.5284H289.653V84.3807H294.281ZM297.814 81.7642V78.9091H309.678V81.7642H305.459V92H301.999V81.7642H297.814ZM315.143 92.2472C314.308 92.2472 313.563 92.1023 312.91 91.8125C312.256 91.517 311.739 91.0824 311.359 90.5085C310.984 89.929 310.796 89.2074 310.796 88.3438C310.796 87.6165 310.93 87.0057 311.197 86.5114C311.464 86.017 311.827 85.6193 312.288 85.3182C312.748 85.017 313.271 84.7898 313.856 84.6364C314.447 84.483 315.066 84.375 315.714 84.3125C316.475 84.233 317.089 84.1591 317.555 84.0909C318.021 84.017 318.359 83.9091 318.569 83.767C318.779 83.625 318.884 83.4148 318.884 83.1364V83.0852C318.884 82.5455 318.714 82.1278 318.373 81.8324C318.038 81.5369 317.56 81.3892 316.941 81.3892C316.288 81.3892 315.768 81.5341 315.381 81.8239C314.995 82.108 314.739 82.4659 314.614 82.8977L311.256 82.625C311.427 81.8295 311.762 81.142 312.262 80.5625C312.762 79.9773 313.407 79.5284 314.197 79.2159C314.992 78.8977 315.913 78.7386 316.958 78.7386C317.685 78.7386 318.381 78.8239 319.046 78.9943C319.717 79.1648 320.31 79.429 320.827 79.7869C321.35 80.1449 321.762 80.6051 322.063 81.1676C322.364 81.7244 322.515 82.392 322.515 83.1705V92H319.072V90.1847H318.969C318.759 90.5938 318.478 90.9545 318.126 91.267C317.773 91.5739 317.35 91.8153 316.856 91.9915C316.362 92.1619 315.79 92.2472 315.143 92.2472ZM316.183 89.7415C316.717 89.7415 317.188 89.6364 317.597 89.4261C318.006 89.2102 318.327 88.9205 318.56 88.5568C318.793 88.1932 318.91 87.7812 318.91 87.321V85.9318C318.796 86.0057 318.64 86.0739 318.441 86.1364C318.248 86.1932 318.029 86.2472 317.785 86.2983C317.54 86.3437 317.296 86.3864 317.052 86.4261C316.808 86.4602 316.586 86.4915 316.387 86.5199C315.961 86.5824 315.589 86.6818 315.271 86.8182C314.952 86.9545 314.705 87.1392 314.529 87.3722C314.353 87.5994 314.265 87.8835 314.265 88.2244C314.265 88.7188 314.444 89.0966 314.802 89.358C315.165 89.6136 315.626 89.7415 316.183 89.7415ZM324.479 92L329.056 85.1903L324.505 78.9091H328.647L332.048 84.0312H332.61V78.9091H336.241V84.0312H336.786L340.187 78.9091H344.329L339.786 85.1903L344.354 92H340.119L336.752 86.8864H336.241V92H332.61V86.8864H332.099L328.715 92H324.479Z" fill="black"/>
<path d="M267.047 96.7727H344.951V98.4091H267.047V96.7727Z" fill="black"/>
</g>
<path id="name" d="M26.9157 32.4545H28.6486V43.9034H28.7907L36.7452 32.4545H38.4498V47H36.6884V35.5795H36.5463L28.6202 47H26.9157V32.4545ZM49.0481 40.7784V42.3409H43.0254V40.7784H49.0481ZM43.4231 36.0909V47H41.747V36.0909H43.4231ZM50.3265 36.0909V47H48.6504V36.0909H50.3265ZM57.8194 47.2273C56.7967 47.2273 55.916 46.9858 55.1774 46.5028C54.4387 46.0199 53.8706 45.3546 53.4728 44.5071C53.0751 43.6596 52.8762 42.6913 52.8762 41.6023C52.8762 40.4943 53.0798 39.5166 53.487 38.669C53.899 37.8168 54.4719 37.1515 55.2058 36.6733C55.9444 36.1903 56.8062 35.9489 57.791 35.9489C58.5581 35.9489 59.2493 36.0909 59.8649 36.375C60.4804 36.6591 60.9847 37.0568 61.3777 37.5682C61.7707 38.0795 62.0145 38.6761 62.1092 39.358H60.4331C60.3052 38.8608 60.0211 38.4205 59.5808 38.0369C59.1452 37.6487 58.5581 37.4545 57.8194 37.4545C57.166 37.4545 56.5931 37.625 56.1007 37.9659C55.613 38.3021 55.2318 38.7779 54.9572 39.3935C54.6873 40.0043 54.5524 40.7216 54.5524 41.5455C54.5524 42.3883 54.685 43.1222 54.9501 43.7472C55.22 44.3722 55.5988 44.8575 56.0865 45.2031C56.5789 45.5488 57.1565 45.7216 57.8194 45.7216C58.255 45.7216 58.6504 45.6458 59.0055 45.4943C59.3606 45.3428 59.6613 45.125 59.9075 44.8409C60.1537 44.5568 60.3289 44.2159 60.4331 43.8182H62.1092C62.0145 44.4621 61.7801 45.0421 61.4061 45.5582C61.0368 46.0696 60.5467 46.4768 59.9359 46.7798C59.3298 47.0781 58.6243 47.2273 57.8194 47.2273ZM63.7001 37.6534V36.0909H72.5637V37.6534H68.9842V47H67.3081V37.6534H63.7001ZM76.6848 44.5284L81.9405 36.0909H83.8723V47H82.1962V38.5625L76.9689 47H75.0087V36.0909H76.6848V44.5284ZM85.4579 37.6534V36.0909H94.3216V37.6534H90.742V47H89.0659V37.6534H85.4579ZM97.8461 51.0909C97.562 51.0909 97.3087 51.0672 97.0861 51.0199C96.8636 50.9773 96.7097 50.9347 96.6245 50.892L97.0506 49.4148C97.4578 49.5189 97.8176 49.5568 98.1301 49.5284C98.4426 49.5 98.7196 49.3603 98.9611 49.1094C99.2073 48.8632 99.4322 48.4631 99.6358 47.9091L99.9483 47.0568L95.9142 36.0909H97.7324L100.744 44.7841H100.857L103.869 36.0909H105.687L101.056 48.5909C100.848 49.1544 100.59 49.6207 100.282 49.9901C99.9744 50.3641 99.6169 50.6411 99.2097 50.821C98.8072 51.0009 98.3527 51.0909 97.8461 51.0909ZM107.274 37.6534V36.0909H116.138V37.6534H112.558V47H110.882V37.6534H107.274ZM124.435 32.4545H126.537L131.481 44.5284H131.651L136.594 32.4545H138.697V47H137.049V35.9489H136.907L132.361 47H130.77L126.225 35.9489H126.083V47H124.435V32.4545ZM145.211 47.2557C144.52 47.2557 143.892 47.1255 143.329 46.8651C142.766 46.5999 142.318 46.2188 141.987 45.7216C141.655 45.2197 141.49 44.6136 141.49 43.9034C141.49 43.2784 141.613 42.7718 141.859 42.3835C142.105 41.9905 142.434 41.6828 142.846 41.4602C143.258 41.2377 143.713 41.072 144.21 40.9631C144.712 40.8494 145.216 40.7595 145.722 40.6932C146.385 40.608 146.923 40.544 147.335 40.5014C147.751 40.4541 148.054 40.3759 148.244 40.267C148.438 40.1581 148.535 39.9687 148.535 39.6989V39.642C148.535 38.9413 148.343 38.3968 147.96 38.0085C147.581 37.6203 147.006 37.4261 146.234 37.4261C145.434 37.4261 144.806 37.6013 144.352 37.9517C143.897 38.3021 143.578 38.6761 143.393 39.0739L141.802 38.5057C142.086 37.8428 142.465 37.3267 142.938 36.9574C143.417 36.5833 143.937 36.3229 144.501 36.1761C145.069 36.0246 145.628 35.9489 146.177 35.9489C146.527 35.9489 146.93 35.9915 147.384 36.0767C147.844 36.1572 148.286 36.3253 148.713 36.581C149.143 36.8366 149.501 37.2225 149.785 37.7386C150.069 38.2547 150.211 38.946 150.211 39.8125V47H148.535V45.5227H148.45C148.336 45.7595 148.147 46.0128 147.882 46.2827C147.616 46.5526 147.264 46.7822 146.823 46.9716C146.383 47.161 145.846 47.2557 145.211 47.2557ZM145.467 45.75C146.13 45.75 146.688 45.6198 147.143 45.3594C147.602 45.099 147.948 44.7628 148.18 44.3509C148.417 43.9389 148.535 43.5057 148.535 43.0511V41.517C148.464 41.6023 148.308 41.6804 148.066 41.7514C147.829 41.8177 147.555 41.8769 147.242 41.929C146.935 41.9763 146.634 42.0189 146.34 42.0568C146.052 42.09 145.817 42.1184 145.637 42.142C145.202 42.1989 144.794 42.2912 144.416 42.419C144.042 42.5421 143.739 42.7292 143.507 42.9801C143.279 43.2263 143.166 43.5625 143.166 43.9886C143.166 44.571 143.381 45.0114 143.812 45.3097C144.248 45.6032 144.799 45.75 145.467 45.75ZM151.786 37.6534V36.0909H160.65V37.6534H157.07V47H155.394V37.6534H151.786ZM167.102 47.2273C166.051 47.2273 165.144 46.9953 164.382 46.5312C163.624 46.0625 163.04 45.4091 162.628 44.571C162.22 43.7282 162.017 42.7481 162.017 41.6307C162.017 40.5133 162.22 39.5284 162.628 38.6761C163.04 37.8191 163.613 37.1515 164.346 36.6733C165.085 36.1903 165.947 35.9489 166.932 35.9489C167.5 35.9489 168.061 36.0436 168.615 36.233C169.169 36.4223 169.673 36.7301 170.128 37.1562C170.582 37.5777 170.944 38.1364 171.214 38.8324C171.484 39.5284 171.619 40.3854 171.619 41.4034V42.1136H163.21V40.6648H169.915C169.915 40.0492 169.791 39.5 169.545 39.017C169.304 38.5341 168.958 38.1529 168.508 37.8736C168.063 37.5942 167.538 37.4545 166.932 37.4545C166.264 37.4545 165.686 37.6203 165.199 37.9517C164.716 38.2784 164.344 38.7045 164.084 39.2301C163.823 39.7557 163.693 40.3191 163.693 40.9205V41.8864C163.693 42.7102 163.835 43.4086 164.119 43.9815C164.408 44.5497 164.808 44.983 165.319 45.2812C165.831 45.5748 166.425 45.7216 167.102 45.7216C167.542 45.7216 167.94 45.66 168.295 45.5369C168.655 45.4091 168.965 45.2197 169.226 44.9688C169.486 44.7131 169.687 44.3958 169.829 44.017L171.449 44.4716C171.278 45.0208 170.992 45.5038 170.589 45.9205C170.187 46.3324 169.69 46.6544 169.098 46.8864C168.506 47.1136 167.841 47.2273 167.102 47.2273ZM180.135 44.7273L183.942 36.0909H185.532L180.817 47H179.453L174.822 36.0909H176.385L180.135 44.7273ZM175.845 36.0909V47H174.169V36.0909H175.845ZM184.425 47V36.0909H186.101V47H184.425ZM192.379 47.2557C191.688 47.2557 191.06 47.1255 190.497 46.8651C189.934 46.5999 189.486 46.2188 189.155 45.7216C188.823 45.2197 188.657 44.6136 188.657 43.9034C188.657 43.2784 188.781 42.7718 189.027 42.3835C189.273 41.9905 189.602 41.6828 190.014 41.4602C190.426 41.2377 190.881 41.072 191.378 40.9631C191.88 40.8494 192.384 40.7595 192.89 40.6932C193.553 40.608 194.091 40.544 194.503 40.5014C194.919 40.4541 195.222 40.3759 195.412 40.267C195.606 40.1581 195.703 39.9687 195.703 39.6989V39.642C195.703 38.9413 195.511 38.3968 195.128 38.0085C194.749 37.6203 194.174 37.4261 193.402 37.4261C192.602 37.4261 191.974 37.6013 191.52 37.9517C191.065 38.3021 190.746 38.6761 190.561 39.0739L188.97 38.5057C189.254 37.8428 189.633 37.3267 190.106 36.9574C190.585 36.5833 191.105 36.3229 191.669 36.1761C192.237 36.0246 192.796 35.9489 193.345 35.9489C193.695 35.9489 194.098 35.9915 194.552 36.0767C195.012 36.1572 195.454 36.3253 195.881 36.581C196.311 36.8366 196.669 37.2225 196.953 37.7386C197.237 38.2547 197.379 38.946 197.379 39.8125V47H195.703V45.5227H195.618C195.504 45.7595 195.315 46.0128 195.05 46.2827C194.784 46.5526 194.432 46.7822 193.991 46.9716C193.551 47.161 193.014 47.2557 192.379 47.2557ZM192.635 45.75C193.298 45.75 193.856 45.6198 194.311 45.3594C194.77 45.099 195.116 44.7628 195.348 44.3509C195.585 43.9389 195.703 43.5057 195.703 43.0511V41.517C195.632 41.6023 195.476 41.6804 195.234 41.7514C194.997 41.8177 194.723 41.8769 194.41 41.929C194.103 41.9763 193.802 42.0189 193.508 42.0568C193.22 42.09 192.985 42.1184 192.805 42.142C192.37 42.1989 191.962 42.2912 191.584 42.419C191.21 42.5421 190.907 42.7292 190.675 42.9801C190.447 43.2263 190.334 43.5625 190.334 43.9886C190.334 44.571 190.549 45.0114 190.98 45.3097C191.416 45.6032 191.967 45.75 192.635 45.75ZM198.954 37.6534V36.0909H207.818V37.6534H204.238V47H202.562V37.6534H198.954ZM211.939 44.5284L217.194 36.0909H219.126V47H217.45V38.5625L212.223 47H210.263V36.0909H211.939V44.5284ZM222.196 47V36.0909H223.872V40.8352H224.98L228.901 36.0909H231.06L226.656 41.3466L231.117 47H228.958L225.378 42.3977H223.872V47H222.196ZM234.615 44.5284L239.87 36.0909H241.802V47H240.126V38.5625L234.899 47H232.938V36.0909H234.615V44.5284ZM247.372 45.0114L247.258 45.7784C247.178 46.3182 247.055 46.8958 246.889 47.5114C246.728 48.1269 246.56 48.7069 246.385 49.2514C246.21 49.7959 246.065 50.2292 245.952 50.5511H244.673C244.735 50.2481 244.815 49.848 244.915 49.3509C245.014 48.8537 245.113 48.2973 245.213 47.6818C245.317 47.071 245.402 46.446 245.469 45.8068L245.554 45.0114H247.372ZM256.33 32.4545H258.432L263.375 44.5284H263.546L268.489 32.4545H270.591V47H268.943V35.9489H268.801L264.256 47H262.665L258.119 35.9489H257.977V47H256.33V32.4545ZM278.469 47.2273C277.418 47.2273 276.511 46.9953 275.749 46.5312C274.992 46.0625 274.407 45.4091 273.995 44.571C273.588 43.7282 273.384 42.7481 273.384 41.6307C273.384 40.5133 273.588 39.5284 273.995 38.6761C274.407 37.8191 274.98 37.1515 275.714 36.6733C276.452 36.1903 277.314 35.9489 278.299 35.9489C278.867 35.9489 279.428 36.0436 279.982 36.233C280.536 36.4223 281.04 36.7301 281.495 37.1562C281.949 37.5777 282.312 38.1364 282.581 38.8324C282.851 39.5284 282.986 40.3854 282.986 41.4034V42.1136H274.577V40.6648H281.282C281.282 40.0492 281.159 39.5 280.912 39.017C280.671 38.5341 280.325 38.1529 279.876 37.8736C279.43 37.5942 278.905 37.4545 278.299 37.4545C277.631 37.4545 277.054 37.6203 276.566 37.9517C276.083 38.2784 275.711 38.7045 275.451 39.2301C275.19 39.7557 275.06 40.3191 275.06 40.9205V41.8864C275.06 42.7102 275.202 43.4086 275.486 43.9815C275.775 44.5497 276.175 44.983 276.687 45.2812C277.198 45.5748 277.792 45.7216 278.469 45.7216C278.91 45.7216 279.307 45.66 279.662 45.5369C280.022 45.4091 280.332 45.2197 280.593 44.9688C280.853 44.7131 281.055 44.3958 281.197 44.017L282.816 44.4716C282.645 45.0208 282.359 45.5038 281.956 45.9205C281.554 46.3324 281.057 46.6544 280.465 46.8864C279.873 47.1136 279.208 47.2273 278.469 47.2273ZM286.493 36.0909L289.107 40.5511L291.72 36.0909H293.652L290.129 41.5455L293.652 47H291.72L289.107 42.767L286.493 47H284.561L288.027 41.5455L284.561 36.0909H286.493ZM299.254 47.2557C298.563 47.2557 297.935 47.1255 297.372 46.8651C296.809 46.5999 296.361 46.2188 296.03 45.7216C295.698 45.2197 295.532 44.6136 295.532 43.9034C295.532 43.2784 295.656 42.7718 295.902 42.3835C296.148 41.9905 296.477 41.6828 296.889 41.4602C297.301 41.2377 297.756 41.072 298.253 40.9631C298.755 40.8494 299.259 40.7595 299.765 40.6932C300.428 40.608 300.966 40.544 301.378 40.5014C301.794 40.4541 302.097 40.3759 302.287 40.267C302.481 40.1581 302.578 39.9687 302.578 39.6989V39.642C302.578 38.9413 302.386 38.3968 302.003 38.0085C301.624 37.6203 301.049 37.4261 300.277 37.4261C299.477 37.4261 298.849 37.6013 298.395 37.9517C297.94 38.3021 297.621 38.6761 297.436 39.0739L295.845 38.5057C296.129 37.8428 296.508 37.3267 296.981 36.9574C297.46 36.5833 297.98 36.3229 298.544 36.1761C299.112 36.0246 299.671 35.9489 300.22 35.9489C300.57 35.9489 300.973 35.9915 301.427 36.0767C301.887 36.1572 302.329 36.3253 302.756 36.581C303.186 36.8366 303.544 37.2225 303.828 37.7386C304.112 38.2547 304.254 38.946 304.254 39.8125V47H302.578V45.5227H302.493C302.379 45.7595 302.19 46.0128 301.925 46.2827C301.659 46.5526 301.307 46.7822 300.866 46.9716C300.426 47.161 299.889 47.2557 299.254 47.2557ZM299.51 45.75C300.173 45.75 300.731 45.6198 301.186 45.3594C301.645 45.099 301.991 44.7628 302.223 44.3509C302.46 43.9389 302.578 43.5057 302.578 43.0511V41.517C302.507 41.6023 302.351 41.6804 302.109 41.7514C301.872 41.8177 301.598 41.8769 301.285 41.929C300.978 41.9763 300.677 42.0189 300.383 42.0568C300.095 42.09 299.86 42.1184 299.68 42.142C299.245 42.1989 298.837 42.2912 298.459 42.419C298.085 42.5421 297.782 42.7292 297.55 42.9801C297.322 43.2263 297.209 43.5625 297.209 43.9886C297.209 44.571 297.424 45.0114 297.855 45.3097C298.291 45.6032 298.842 45.75 299.51 45.75ZM314.615 40.7784V42.3409H308.592V40.7784H314.615ZM308.99 36.0909V47H307.313V36.0909H308.99ZM315.893 36.0909V47H314.217V36.0909H315.893ZM320.63 44.5284L325.886 36.0909H327.818V47H326.142V38.5625L320.914 47H318.954V36.0909H320.63V44.5284ZM330.888 47V36.0909H332.564V40.8352H333.672L337.592 36.0909H339.751L335.348 41.3466L339.808 47H337.649L334.069 42.3977H332.564V47H330.888ZM343.306 44.5284L348.562 36.0909H350.493V47H348.817V38.5625L343.59 47H341.63V36.0909H343.306V44.5284ZM360.865 44.5284L366.12 36.0909H368.052V47H366.376V38.5625L361.149 47H359.188V36.0909H360.865V44.5284ZM385.525 47L380.525 40.3239H378.736V47H376.974V32.4545H378.736V38.7614H379.503L385.327 32.4545H387.429L381.548 38.8466L387.628 47H385.525ZM393.308 47.2273C392.323 47.2273 391.459 46.9929 390.715 46.5241C389.977 46.0554 389.399 45.3996 388.982 44.5568C388.57 43.714 388.365 42.7292 388.365 41.6023C388.365 40.4659 388.57 39.474 388.982 38.6264C389.399 37.7789 389.977 37.1207 390.715 36.652C391.459 36.1832 392.323 35.9489 393.308 35.9489C394.293 35.9489 395.154 36.1832 395.893 36.652C396.636 37.1207 397.214 37.7789 397.626 38.6264C398.043 39.474 398.251 40.4659 398.251 41.6023C398.251 42.7292 398.043 43.714 397.626 44.5568C397.214 45.3996 396.636 46.0554 395.893 46.5241C395.154 46.9929 394.293 47.2273 393.308 47.2273ZM393.308 45.7216C394.056 45.7216 394.671 45.5298 395.154 45.1463C395.637 44.7628 395.995 44.2585 396.227 43.6335C396.459 43.0085 396.575 42.3314 396.575 41.6023C396.575 40.8731 396.459 40.1937 396.227 39.5639C395.995 38.9342 395.637 38.4252 395.154 38.0369C394.671 37.6487 394.056 37.4545 393.308 37.4545C392.56 37.4545 391.944 37.6487 391.461 38.0369C390.978 38.4252 390.621 38.9342 390.389 39.5639C390.157 40.1937 390.041 40.8731 390.041 41.6023C390.041 42.3314 390.157 43.0085 390.389 43.6335C390.621 44.2585 390.978 44.7628 391.461 45.1463C391.944 45.5298 392.56 45.7216 393.308 45.7216ZM406.775 44.7273L410.582 36.0909H412.173L407.457 47H406.094L401.463 36.0909H403.025L406.775 44.7273ZM402.486 36.0909V47H400.809V36.0909H402.486ZM411.065 47V36.0909H412.741V47H411.065ZM415.809 47V36.0909H424.389V47H422.713V37.6534H417.486V47H415.809ZM428.899 40.0398H432.024C433.302 40.0398 434.28 40.3641 434.957 41.0128C435.634 41.6615 435.973 42.483 435.973 43.4773C435.973 44.1307 435.821 44.7249 435.518 45.2599C435.215 45.7902 434.77 46.214 434.183 46.5312C433.596 46.8438 432.876 47 432.024 47H427.45V36.0909H429.126V45.4375H432.024C432.687 45.4375 433.231 45.2623 433.657 44.9119C434.084 44.5616 434.297 44.1117 434.297 43.5625C434.297 42.9848 434.084 42.5137 433.657 42.1491C433.231 41.7846 432.687 41.6023 432.024 41.6023H428.899V40.0398ZM443.752 40.8636V42.4261H437.985V40.8636H443.752ZM439.405 36.0909V47H437.729V36.0909H439.405ZM447.104 47.2273C446.119 47.2273 445.255 46.9929 444.512 46.5241C443.773 46.0554 443.195 45.3996 442.779 44.5568C442.367 43.714 442.161 42.7292 442.161 41.6023C442.161 40.4659 442.367 39.474 442.779 38.6264C443.195 37.7789 443.773 37.1207 444.512 36.652C445.255 36.1832 446.119 35.9489 447.104 35.9489C448.089 35.9489 448.95 36.1832 449.689 36.652C450.432 37.1207 451.01 37.7789 451.422 38.6264C451.839 39.474 452.047 40.4659 452.047 41.6023C452.047 42.7292 451.839 43.714 451.422 44.5568C451.01 45.3996 450.432 46.0554 449.689 46.5241C448.95 46.9929 448.089 47.2273 447.104 47.2273ZM447.104 45.7216C447.852 45.7216 448.468 45.5298 448.95 45.1463C449.433 44.7628 449.791 44.2585 450.023 43.6335C450.255 43.0085 450.371 42.3314 450.371 41.6023C450.371 40.8731 450.255 40.1937 450.023 39.5639C449.791 38.9342 449.433 38.4252 448.95 38.0369C448.468 37.6487 447.852 37.4545 447.104 37.4545C446.356 37.4545 445.74 37.6487 445.257 38.0369C444.774 38.4252 444.417 38.9342 444.185 39.5639C443.953 40.1937 443.837 40.8731 443.837 41.6023C443.837 42.3314 443.953 43.0085 444.185 43.6335C444.417 44.2585 444.774 44.7628 445.257 45.1463C445.74 45.5298 446.356 45.7216 447.104 45.7216ZM453.349 37.6534V36.0909H462.212V37.6534H458.633V47H456.956V37.6534H453.349ZM468.665 47.2273C467.613 47.2273 466.707 46.9953 465.944 46.5312C465.187 46.0625 464.602 45.4091 464.19 44.571C463.783 43.7282 463.579 42.7481 463.579 41.6307C463.579 40.5133 463.783 39.5284 464.19 38.6761C464.602 37.8191 465.175 37.1515 465.909 36.6733C466.648 36.1903 467.509 35.9489 468.494 35.9489C469.062 35.9489 469.623 36.0436 470.177 36.233C470.731 36.4223 471.236 36.7301 471.69 37.1562C472.145 37.5777 472.507 38.1364 472.777 38.8324C473.047 39.5284 473.182 40.3854 473.182 41.4034V42.1136H464.773V40.6648H471.477C471.477 40.0492 471.354 39.5 471.108 39.017C470.866 38.5341 470.521 38.1529 470.071 37.8736C469.626 37.5942 469.1 37.4545 468.494 37.4545C467.827 37.4545 467.249 37.6203 466.761 37.9517C466.278 38.2784 465.907 38.7045 465.646 39.2301C465.386 39.7557 465.256 40.3191 465.256 40.9205V41.8864C465.256 42.7102 465.398 43.4086 465.682 43.9815C465.97 44.5497 466.371 44.983 466.882 45.2812C467.393 45.5748 467.988 45.7216 468.665 45.7216C469.105 45.7216 469.503 45.66 469.858 45.5369C470.218 45.4091 470.528 45.2197 470.788 44.9688C471.049 44.7131 471.25 44.3958 471.392 44.017L473.011 44.4716C472.841 45.0208 472.554 45.5038 472.152 45.9205C471.749 46.3324 471.252 46.6544 470.66 46.8864C470.068 47.1136 469.403 47.2273 468.665 47.2273ZM475.731 51.0909V36.0909H477.351V37.8239H477.55C477.673 37.6345 477.843 37.393 478.061 37.0994C478.283 36.8011 478.601 36.536 479.013 36.304C479.429 36.0672 479.993 35.9489 480.703 35.9489C481.622 35.9489 482.431 36.1785 483.132 36.6378C483.833 37.0971 484.38 37.7481 484.773 38.5909C485.166 39.4337 485.362 40.428 485.362 41.5739C485.362 42.7292 485.166 43.7306 484.773 44.5781C484.38 45.4209 483.835 46.0743 483.139 46.5384C482.443 46.9976 481.64 47.2273 480.731 47.2273C480.031 47.2273 479.47 47.1113 479.048 46.8793C478.627 46.6425 478.302 46.375 478.075 46.0767C477.848 45.7737 477.673 45.5227 477.55 45.3239H477.407V51.0909H475.731ZM477.379 41.5455C477.379 42.3693 477.5 43.0961 477.741 43.7259C477.983 44.3509 478.336 44.8409 478.8 45.196C479.264 45.5464 479.832 45.7216 480.504 45.7216C481.205 45.7216 481.79 45.5369 482.258 45.1676C482.732 44.7936 483.087 44.2917 483.324 43.6619C483.565 43.0275 483.686 42.322 483.686 41.5455C483.686 40.7784 483.568 40.0871 483.331 39.4716C483.099 38.8513 482.746 38.3613 482.273 38.0014C481.804 37.6368 481.214 37.4545 480.504 37.4545C479.822 37.4545 479.249 37.6274 478.785 37.973C478.321 38.3139 477.971 38.7921 477.734 39.4077C477.497 40.0185 477.379 40.7311 477.379 41.5455ZM495.22 40.7784V42.3409H489.197V40.7784H495.22ZM489.595 36.0909V47H487.919V36.0909H489.595ZM496.498 36.0909V47H494.822V36.0909H496.498ZM501.008 40.0398H504.133C505.412 40.0398 506.39 40.3641 507.067 41.0128C507.744 41.6615 508.082 42.483 508.082 43.4773C508.082 44.1307 507.931 44.7249 507.628 45.2599C507.325 45.7902 506.88 46.214 506.292 46.5312C505.705 46.8438 504.986 47 504.133 47H499.559V36.0909H501.236V45.4375H504.133C504.796 45.4375 505.341 45.2623 505.767 44.9119C506.193 44.5616 506.406 44.1117 506.406 43.5625C506.406 42.9848 506.193 42.5137 505.767 42.1491C505.341 41.7846 504.796 41.6023 504.133 41.6023H501.008V40.0398ZM509.815 47V36.0909H511.491V47H509.815ZM515.809 36.0909L518.423 40.5511L521.037 36.0909H522.969L519.446 41.5455L522.969 47H521.037L518.423 42.767L515.809 47H513.878L517.344 41.5455L513.878 36.0909H515.809ZM538.286 40.7784V42.3409H532.264V40.7784H538.286ZM532.661 36.0909V47H530.985V36.0909H532.661ZM539.565 36.0909V47H537.889V36.0909H539.565ZM545.836 47.2557C545.145 47.2557 544.517 47.1255 543.954 46.8651C543.391 46.5999 542.943 46.2188 542.612 45.7216C542.28 45.2197 542.115 44.6136 542.115 43.9034C542.115 43.2784 542.238 42.7718 542.484 42.3835C542.73 41.9905 543.059 41.6828 543.471 41.4602C543.883 41.2377 544.338 41.072 544.835 40.9631C545.337 40.8494 545.841 40.7595 546.347 40.6932C547.01 40.608 547.548 40.544 547.96 40.5014C548.376 40.4541 548.679 40.3759 548.869 40.267C549.063 40.1581 549.16 39.9687 549.16 39.6989V39.642C549.16 38.9413 548.968 38.3968 548.585 38.0085C548.206 37.6203 547.631 37.4261 546.859 37.4261C546.059 37.4261 545.431 37.6013 544.977 37.9517C544.522 38.3021 544.203 38.6761 544.018 39.0739L542.427 38.5057C542.711 37.8428 543.09 37.3267 543.563 36.9574C544.042 36.5833 544.562 36.3229 545.126 36.1761C545.694 36.0246 546.253 35.9489 546.802 35.9489C547.152 35.9489 547.555 35.9915 548.009 36.0767C548.469 36.1572 548.911 36.3253 549.338 36.581C549.768 36.8366 550.126 37.2225 550.41 37.7386C550.694 38.2547 550.836 38.946 550.836 39.8125V47H549.16V45.5227H549.075C548.961 45.7595 548.772 46.0128 548.507 46.2827C548.241 46.5526 547.889 46.7822 547.448 46.9716C547.008 47.161 546.471 47.2557 545.836 47.2557ZM546.092 45.75C546.755 45.75 547.313 45.6198 547.768 45.3594C548.227 45.099 548.573 44.7628 548.805 44.3509C549.042 43.9389 549.16 43.5057 549.16 43.0511V41.517C549.089 41.6023 548.933 41.6804 548.691 41.7514C548.454 41.8177 548.18 41.8769 547.867 41.929C547.56 41.9763 547.259 42.0189 546.965 42.0568C546.677 42.09 546.442 42.1184 546.262 42.142C545.827 42.1989 545.419 42.2912 545.041 42.419C544.667 42.5421 544.364 42.7292 544.132 42.9801C543.904 43.2263 543.791 43.5625 543.791 43.9886C543.791 44.571 544.006 45.0114 544.437 45.3097C544.873 45.6032 545.424 45.75 546.092 45.75ZM554.584 51.0909C554.3 51.0909 554.047 51.0672 553.824 51.0199C553.602 50.9773 553.448 50.9347 553.363 50.892L553.789 49.4148C554.196 49.5189 554.556 49.5568 554.868 49.5284C555.181 49.5 555.458 49.3603 555.699 49.1094C555.946 48.8632 556.171 48.4631 556.374 47.9091L556.687 47.0568L552.653 36.0909H554.471L557.482 44.7841H557.596L560.607 36.0909H562.425L557.795 48.5909C557.586 49.1544 557.328 49.6207 557.02 49.9901C556.713 50.3641 556.355 50.6411 555.948 50.821C555.546 51.0009 555.091 51.0909 554.584 51.0909ZM564.638 47V36.0909H566.314V40.8352H567.422L571.342 36.0909H573.501L569.098 41.3466L573.558 47H571.399L567.819 42.3977H566.314V47H564.638Z" fill="black"/>
<g id="text">
<path id="entrance" d="M513 474.464L502.091 474.464L502.091 470.004C502.091 468.829 502.356 467.897 502.886 467.205C503.417 466.514 504.117 466.169 504.989 466.169C505.652 466.169 506.165 466.365 506.53 466.758C506.89 467.151 507.134 467.655 507.261 468.271C507.318 467.868 507.46 467.478 507.687 467.099C507.915 466.715 508.227 466.398 508.625 466.147C509.018 465.896 509.501 465.771 510.074 465.771C510.633 465.771 511.132 465.913 511.572 466.197C512.013 466.481 512.361 466.888 512.616 467.419C512.872 467.949 513 468.583 513 469.322L513 474.464ZM511.466 472.873L511.466 469.322C511.466 468.744 511.329 468.292 511.054 467.965C510.779 467.639 510.405 467.475 509.932 467.475C509.368 467.475 508.926 467.639 508.604 467.965C508.277 468.292 508.114 468.744 508.114 469.322L508.114 472.873L511.466 472.873ZM506.665 472.873L506.665 470.004C506.665 469.554 506.603 469.168 506.48 468.846C506.352 468.524 506.172 468.278 505.94 468.107C505.704 467.932 505.424 467.845 505.102 467.845C504.643 467.845 504.283 468.036 504.023 468.42C503.758 468.803 503.625 469.331 503.625 470.004L503.625 472.873L506.665 472.873ZM502.091 461.983L506.551 459.37L502.091 456.756L502.091 454.824L507.545 458.347L513 454.824L513 456.756L508.767 459.37L513 461.983L513 463.915L507.545 460.449L502.091 463.915L502.091 461.983ZM513.227 448.45C513.227 449.435 512.993 450.299 512.524 451.042C512.055 451.781 511.4 452.359 510.557 452.775C509.714 453.187 508.729 453.393 507.602 453.393C506.466 453.393 505.474 453.187 504.626 452.775C503.779 452.359 503.121 451.781 502.652 451.042C502.183 450.299 501.949 449.435 501.949 448.45C501.949 447.465 502.183 446.604 502.652 445.865C503.121 445.122 503.779 444.544 504.626 444.132C505.474 443.715 506.466 443.507 507.602 443.507C508.729 443.507 509.714 443.715 510.557 444.132C511.4 444.544 512.055 445.122 512.524 445.865C512.993 446.604 513.227 447.465 513.227 448.45ZM511.722 448.45C511.722 447.702 511.53 447.086 511.146 446.604C510.763 446.121 510.259 445.763 509.634 445.531C509.009 445.299 508.331 445.183 507.602 445.183C506.873 445.183 506.194 445.299 505.564 445.531C504.934 445.763 504.425 446.121 504.037 446.604C503.649 447.086 503.455 447.702 503.455 448.45C503.455 449.198 503.649 449.814 504.037 450.297C504.425 450.78 504.934 451.137 505.564 451.369C506.194 451.601 506.873 451.717 507.602 451.717C508.331 451.717 509.009 451.601 509.634 451.369C510.259 451.137 510.763 450.78 511.146 450.297C511.53 449.814 511.722 449.198 511.722 448.45ZM516.125 442.113L511.437 442.113L511.437 441.204C511.205 440.981 510.955 440.79 510.685 440.629C510.415 440.468 510.095 440.328 509.726 440.21C509.352 440.087 508.897 439.982 508.362 439.897C507.822 439.812 507.171 439.736 506.409 439.67L502.091 439.301L502.091 432.369L511.437 432.369L511.437 430.693L516.125 430.693L516.125 432.369L513 432.369L513 440.437L516.125 440.437L516.125 442.113ZM511.437 439.301L511.437 434.045L503.653 434.045L503.653 437.738L506.409 438.022C507.55 438.141 508.547 438.287 509.399 438.463C510.251 438.638 510.931 438.917 511.437 439.301Z" fill="black"/>
<path id="Arrow_in" d="M537.586 451.586C536.805 452.367 536.805 453.633 537.586 454.414L550.314 467.142C551.095 467.923 552.361 467.923 553.142 467.142C553.923 466.361 553.923 465.095 553.142 464.314L541.828 453L553.142 441.686C553.923 440.905 553.923 439.639 553.142 438.858C552.361 438.077 551.095 438.077 550.314 438.858L537.586 451.586ZM572 451L539 451L539 455L572 455L572 451Z" fill="#393837"/>
<path id="text_room_106" d="M260.988 778H259.511L263.783 766.364H265.238L269.511 778H268.033L264.556 768.205H264.465L260.988 778ZM261.533 773.455H267.488V774.705H261.533V773.455ZM270.911 781.273C270.684 781.273 270.481 781.254 270.303 781.216C270.125 781.182 270.002 781.148 269.934 781.114L270.275 779.932C270.601 780.015 270.888 780.045 271.138 780.023C271.388 780 271.61 779.888 271.803 779.688C272 779.491 272.18 779.17 272.343 778.727L272.593 778.045L269.366 769.273H270.82L273.229 776.227H273.32L275.729 769.273H277.184L273.479 779.273C273.313 779.723 273.106 780.097 272.86 780.392C272.614 780.691 272.328 780.913 272.002 781.057C271.68 781.201 271.317 781.273 270.911 781.273ZM277.288 780.5V776.75H278.015C278.193 776.564 278.346 776.364 278.475 776.148C278.604 775.932 278.716 775.676 278.81 775.381C278.909 775.081 278.992 774.718 279.06 774.29C279.129 773.858 279.189 773.337 279.242 772.727L279.538 769.273H285.083V776.75H286.424V780.5H285.083V778H278.629V780.5H277.288ZM279.538 776.75H283.742V770.523H280.788L280.56 772.727C280.466 773.64 280.348 774.437 280.208 775.119C280.068 775.801 279.844 776.345 279.538 776.75ZM296.772 766.364V778H295.363V767.841H295.295L292.454 769.727V768.295L295.363 766.364H296.772ZM303.914 778.159C303.058 778.159 302.329 777.926 301.727 777.46C301.124 776.991 300.664 776.311 300.346 775.42C300.028 774.527 299.869 773.447 299.869 772.182C299.869 770.924 300.028 769.85 300.346 768.96C300.668 768.066 301.13 767.384 301.732 766.915C302.338 766.441 303.066 766.205 303.914 766.205C304.763 766.205 305.488 766.441 306.09 766.915C306.696 767.384 307.158 768.066 307.477 768.96C307.799 769.85 307.96 770.924 307.96 772.182C307.96 773.447 307.8 774.527 307.482 775.42C307.164 776.311 306.704 776.991 306.102 777.46C305.499 777.926 304.77 778.159 303.914 778.159ZM303.914 776.909C304.763 776.909 305.422 776.5 305.891 775.682C306.361 774.864 306.596 773.697 306.596 772.182C306.596 771.174 306.488 770.316 306.272 769.608C306.06 768.9 305.753 768.36 305.352 767.989C304.954 767.617 304.475 767.432 303.914 767.432C303.073 767.432 302.416 767.847 301.942 768.676C301.469 769.502 301.232 770.67 301.232 772.182C301.232 773.189 301.338 774.045 301.55 774.75C301.763 775.455 302.067 775.991 302.465 776.358C302.867 776.725 303.35 776.909 303.914 776.909ZM313.982 778.159C313.505 778.152 313.028 778.061 312.55 777.886C312.073 777.712 311.638 777.419 311.244 777.006C310.85 776.589 310.533 776.027 310.295 775.318C310.056 774.606 309.937 773.712 309.937 772.636C309.937 771.606 310.033 770.693 310.227 769.898C310.42 769.098 310.7 768.426 311.067 767.881C311.435 767.331 311.878 766.915 312.397 766.631C312.92 766.347 313.509 766.205 314.164 766.205C314.816 766.205 315.395 766.335 315.903 766.597C316.414 766.854 316.831 767.214 317.153 767.676C317.475 768.138 317.683 768.67 317.778 769.273H316.391C316.263 768.75 316.013 768.316 315.641 767.972C315.27 767.627 314.778 767.455 314.164 767.455C313.263 767.455 312.552 767.847 312.033 768.631C311.518 769.415 311.259 770.515 311.255 771.932H311.346C311.558 771.61 311.81 771.335 312.102 771.108C312.397 770.877 312.723 770.699 313.079 770.574C313.435 770.449 313.812 770.386 314.21 770.386C314.876 770.386 315.486 770.553 316.039 770.886C316.592 771.216 317.035 771.672 317.369 772.256C317.702 772.835 317.869 773.5 317.869 774.25C317.869 774.97 317.708 775.629 317.386 776.227C317.064 776.822 316.611 777.295 316.028 777.648C315.448 777.996 314.766 778.167 313.982 778.159ZM313.982 776.909C314.46 776.909 314.888 776.79 315.266 776.551C315.649 776.312 315.95 775.992 316.17 775.591C316.393 775.189 316.505 774.742 316.505 774.25C316.505 773.769 316.397 773.331 316.181 772.938C315.969 772.54 315.675 772.223 315.3 771.989C314.929 771.754 314.505 771.636 314.028 771.636C313.668 771.636 313.333 771.708 313.022 771.852C312.711 771.992 312.439 772.186 312.204 772.432C311.973 772.678 311.791 772.96 311.658 773.278C311.526 773.593 311.46 773.924 311.46 774.273C311.46 774.735 311.567 775.167 311.783 775.568C312.003 775.97 312.302 776.294 312.681 776.54C313.064 776.786 313.497 776.909 313.982 776.909Z" fill="black"/>
<path id="text_room_104" d="M150.347 522H148.87L153.143 510.364H154.597L158.87 522H157.393L153.915 512.205H153.825L150.347 522ZM150.893 517.455H156.847V518.705H150.893V517.455ZM160.271 525.273C160.043 525.273 159.841 525.254 159.663 525.216C159.485 525.182 159.362 525.148 159.293 525.114L159.634 523.932C159.96 524.015 160.248 524.045 160.498 524.023C160.748 524 160.969 523.888 161.163 523.688C161.36 523.491 161.54 523.17 161.702 522.727L161.952 522.045L158.725 513.273H160.18L162.589 520.227H162.68L165.089 513.273H166.543L162.839 523.273C162.672 523.723 162.466 524.097 162.219 524.392C161.973 524.691 161.687 524.913 161.362 525.057C161.04 525.201 160.676 525.273 160.271 525.273ZM166.647 524.5V520.75H167.374C167.552 520.564 167.706 520.364 167.835 520.148C167.963 519.932 168.075 519.676 168.17 519.381C168.268 519.081 168.352 518.718 168.42 518.29C168.488 517.858 168.549 517.337 168.602 516.727L168.897 513.273H174.442V520.75H175.783V524.5H174.442V522H167.988V524.5H166.647ZM168.897 520.75H173.102V514.523H170.147L169.92 516.727C169.825 517.64 169.708 518.437 169.567 519.119C169.427 519.801 169.204 520.345 168.897 520.75ZM186.131 510.364V522H184.722V511.841H184.654L181.813 513.727V512.295L184.722 510.364H186.131ZM193.273 522.159C192.417 522.159 191.688 521.926 191.086 521.46C190.484 520.991 190.023 520.311 189.705 519.42C189.387 518.527 189.228 517.447 189.228 516.182C189.228 514.924 189.387 513.85 189.705 512.96C190.027 512.066 190.489 511.384 191.092 510.915C191.698 510.441 192.425 510.205 193.273 510.205C194.122 510.205 194.847 510.441 195.45 510.915C196.056 511.384 196.518 512.066 196.836 512.96C197.158 513.85 197.319 514.924 197.319 516.182C197.319 517.447 197.16 518.527 196.842 519.42C196.523 520.311 196.063 520.991 195.461 521.46C194.859 521.926 194.129 522.159 193.273 522.159ZM193.273 520.909C194.122 520.909 194.781 520.5 195.251 519.682C195.72 518.864 195.955 517.697 195.955 516.182C195.955 515.174 195.847 514.316 195.631 513.608C195.419 512.9 195.112 512.36 194.711 511.989C194.313 511.617 193.834 511.432 193.273 511.432C192.433 511.432 191.775 511.847 191.302 512.676C190.828 513.502 190.592 514.67 190.592 516.182C190.592 517.189 190.698 518.045 190.91 518.75C191.122 519.455 191.427 519.991 191.825 520.358C192.226 520.725 192.709 520.909 193.273 520.909ZM199.205 519.614V518.455L204.319 510.364H205.16V512.159H204.592L200.728 518.273V518.364H207.614V519.614H199.205ZM204.683 522V519.261V518.722V510.364H206.023V522H204.683Z" fill="black"/>
<path id="text_room_103" d="M143.886 401H142.409L146.682 389.364H148.136L152.409 401H150.932L147.455 391.205H147.364L143.886 401ZM144.432 396.455H150.386V397.705H144.432V396.455ZM153.81 404.273C153.582 404.273 153.38 404.254 153.202 404.216C153.024 404.182 152.901 404.148 152.832 404.114L153.173 402.932C153.499 403.015 153.787 403.045 154.037 403.023C154.287 403 154.509 402.888 154.702 402.688C154.899 402.491 155.079 402.17 155.241 401.727L155.491 401.045L152.264 392.273H153.719L156.128 399.227H156.219L158.628 392.273H160.082L156.378 402.273C156.211 402.723 156.005 403.097 155.759 403.392C155.512 403.691 155.226 403.913 154.901 404.057C154.579 404.201 154.215 404.273 153.81 404.273ZM160.186 403.5V399.75H160.913C161.091 399.564 161.245 399.364 161.374 399.148C161.502 398.932 161.614 398.676 161.709 398.381C161.807 398.081 161.891 397.718 161.959 397.29C162.027 396.858 162.088 396.337 162.141 395.727L162.436 392.273H167.982V399.75H169.322V403.5H167.982V401H161.527V403.5H160.186ZM162.436 399.75H166.641V393.523H163.686L163.459 395.727C163.364 396.64 163.247 397.437 163.107 398.119C162.966 398.801 162.743 399.345 162.436 399.75ZM179.67 389.364V401H178.261V390.841H178.193L175.352 392.727V391.295L178.261 389.364H179.67ZM186.812 401.159C185.956 401.159 185.227 400.926 184.625 400.46C184.023 399.991 183.563 399.311 183.244 398.42C182.926 397.527 182.767 396.447 182.767 395.182C182.767 393.924 182.926 392.85 183.244 391.96C183.566 391.066 184.028 390.384 184.631 389.915C185.237 389.441 185.964 389.205 186.812 389.205C187.661 389.205 188.386 389.441 188.989 389.915C189.595 390.384 190.057 391.066 190.375 391.96C190.697 392.85 190.858 393.924 190.858 395.182C190.858 396.447 190.699 397.527 190.381 398.42C190.062 399.311 189.602 399.991 189 400.46C188.398 400.926 187.669 401.159 186.812 401.159ZM186.812 399.909C187.661 399.909 188.32 399.5 188.79 398.682C189.259 397.864 189.494 396.697 189.494 395.182C189.494 394.174 189.386 393.316 189.17 392.608C188.958 391.9 188.652 391.36 188.25 390.989C187.852 390.617 187.373 390.432 186.812 390.432C185.972 390.432 185.314 390.847 184.841 391.676C184.367 392.502 184.131 393.67 184.131 395.182C184.131 396.189 184.237 397.045 184.449 397.75C184.661 398.455 184.966 398.991 185.364 399.358C185.765 399.725 186.248 399.909 186.812 399.909ZM196.949 401.159C196.199 401.159 195.53 401.03 194.943 400.773C194.36 400.515 193.896 400.157 193.551 399.699C193.21 399.237 193.025 398.701 192.994 398.091H194.426C194.456 398.466 194.585 398.79 194.812 399.062C195.04 399.331 195.337 399.54 195.705 399.688C196.072 399.835 196.479 399.909 196.926 399.909C197.426 399.909 197.869 399.822 198.256 399.648C198.642 399.473 198.945 399.231 199.165 398.92C199.384 398.61 199.494 398.25 199.494 397.841C199.494 397.413 199.388 397.036 199.176 396.71C198.964 396.381 198.653 396.123 198.244 395.938C197.835 395.752 197.335 395.659 196.744 395.659H195.812V394.409H196.744C197.206 394.409 197.612 394.326 197.96 394.159C198.313 393.992 198.587 393.758 198.784 393.455C198.985 393.152 199.085 392.795 199.085 392.386C199.085 391.992 198.998 391.65 198.824 391.358C198.65 391.066 198.403 390.839 198.085 390.676C197.771 390.513 197.4 390.432 196.972 390.432C196.57 390.432 196.191 390.506 195.835 390.653C195.483 390.797 195.195 391.008 194.972 391.284C194.748 391.557 194.627 391.886 194.608 392.273H193.244C193.267 391.663 193.451 391.129 193.795 390.67C194.14 390.208 194.591 389.848 195.148 389.591C195.708 389.333 196.324 389.205 196.994 389.205C197.714 389.205 198.331 389.35 198.847 389.642C199.362 389.93 199.758 390.311 200.034 390.784C200.311 391.258 200.449 391.769 200.449 392.318C200.449 392.973 200.277 393.532 199.932 393.994C199.591 394.456 199.127 394.777 198.54 394.955V395.045C199.275 395.167 199.848 395.479 200.261 395.983C200.674 396.483 200.881 397.102 200.881 397.841C200.881 398.473 200.708 399.042 200.364 399.545C200.023 400.045 199.557 400.439 198.966 400.727C198.375 401.015 197.703 401.159 196.949 401.159Z" fill="black"/>
<path id="text_room_105" d="M435.113 714H433.636L437.908 702.364H439.363L443.636 714H442.158L438.681 704.205H438.59L435.113 714ZM435.658 709.455H441.613V710.705H435.658V709.455ZM445.036 717.273C444.809 717.273 444.606 717.254 444.428 717.216C444.25 717.182 444.127 717.148 444.059 717.114L444.4 715.932C444.726 716.015 445.013 716.045 445.263 716.023C445.513 716 445.735 715.888 445.928 715.688C446.125 715.491 446.305 715.17 446.468 714.727L446.718 714.045L443.491 705.273H444.945L447.354 712.227H447.445L449.854 705.273H451.309L447.604 715.273C447.438 715.723 447.231 716.097 446.985 716.392C446.739 716.691 446.453 716.913 446.127 717.057C445.805 717.201 445.442 717.273 445.036 717.273ZM451.413 716.5V712.75H452.14C452.318 712.564 452.471 712.364 452.6 712.148C452.729 711.932 452.841 711.676 452.935 711.381C453.034 711.081 453.117 710.718 453.185 710.29C453.254 709.858 453.314 709.337 453.367 708.727L453.663 705.273H459.208V712.75H460.549V716.5H459.208V714H452.754V716.5H451.413ZM453.663 712.75H457.867V706.523H454.913L454.685 708.727C454.591 709.64 454.473 710.437 454.333 711.119C454.193 711.801 453.969 712.345 453.663 712.75ZM470.897 702.364V714H469.488V703.841H469.42L466.579 705.727V704.295L469.488 702.364H470.897ZM478.039 714.159C477.183 714.159 476.454 713.926 475.852 713.46C475.249 712.991 474.789 712.311 474.471 711.42C474.153 710.527 473.994 709.447 473.994 708.182C473.994 706.924 474.153 705.85 474.471 704.96C474.793 704.066 475.255 703.384 475.857 702.915C476.463 702.441 477.191 702.205 478.039 702.205C478.888 702.205 479.613 702.441 480.215 702.915C480.821 703.384 481.283 704.066 481.602 704.96C481.924 705.85 482.085 706.924 482.085 708.182C482.085 709.447 481.925 710.527 481.607 711.42C481.289 712.311 480.829 712.991 480.227 713.46C479.624 713.926 478.895 714.159 478.039 714.159ZM478.039 712.909C478.888 712.909 479.547 712.5 480.016 711.682C480.486 710.864 480.721 709.697 480.721 708.182C480.721 707.174 480.613 706.316 480.397 705.608C480.185 704.9 479.878 704.36 479.477 703.989C479.079 703.617 478.6 703.432 478.039 703.432C477.198 703.432 476.541 703.847 476.067 704.676C475.594 705.502 475.357 706.67 475.357 708.182C475.357 709.189 475.463 710.045 475.675 710.75C475.888 711.455 476.192 711.991 476.59 712.358C476.992 712.725 477.475 712.909 478.039 712.909ZM487.88 714.159C487.213 714.159 486.613 714.027 486.079 713.761C485.545 713.496 485.117 713.133 484.795 712.67C484.473 712.208 484.297 711.682 484.266 711.091H485.63C485.683 711.617 485.922 712.053 486.346 712.398C486.774 712.739 487.285 712.909 487.88 712.909C488.357 712.909 488.781 712.797 489.153 712.574C489.528 712.35 489.821 712.044 490.033 711.653C490.249 711.259 490.357 710.814 490.357 710.318C490.357 709.811 490.246 709.358 490.022 708.96C489.802 708.559 489.499 708.242 489.113 708.011C488.727 707.78 488.285 707.663 487.789 707.659C487.433 707.655 487.067 707.71 486.692 707.824C486.317 707.934 486.009 708.076 485.766 708.25L484.448 708.091L485.153 702.364H491.198V703.614H486.335L485.925 707.045H485.994C486.232 706.856 486.531 706.699 486.891 706.574C487.251 706.449 487.626 706.386 488.016 706.386C488.728 706.386 489.363 706.557 489.92 706.898C490.48 707.235 490.92 707.697 491.238 708.284C491.56 708.871 491.721 709.542 491.721 710.295C491.721 711.038 491.554 711.701 491.221 712.284C490.891 712.864 490.437 713.322 489.857 713.659C489.278 713.992 488.619 714.159 487.88 714.159Z" fill="black"/>
<path id="text_room_dining" d="M90.1477 236H88.7386C88.6553 235.595 88.5095 235.239 88.3011 234.932C88.0966 234.625 87.8466 234.367 87.5511 234.159C87.2595 233.947 86.9356 233.788 86.5795 233.682C86.2235 233.576 85.8523 233.523 85.4659 233.523C84.7614 233.523 84.1231 233.701 83.5511 234.057C82.983 234.413 82.5303 234.938 82.1932 235.631C81.8598 236.324 81.6932 237.174 81.6932 238.182C81.6932 239.189 81.8598 240.04 82.1932 240.733C82.5303 241.426 82.983 241.951 83.5511 242.307C84.1231 242.663 84.7614 242.841 85.4659 242.841C85.8523 242.841 86.2235 242.788 86.5795 242.682C86.9356 242.576 87.2595 242.419 87.5511 242.21C87.8466 241.998 88.0966 241.739 88.3011 241.432C88.5095 241.121 88.6553 240.765 88.7386 240.364H90.1477C90.0417 240.958 89.8485 241.491 89.5682 241.96C89.2879 242.43 88.9394 242.83 88.5227 243.159C88.1061 243.485 87.6383 243.733 87.1193 243.903C86.6042 244.074 86.053 244.159 85.4659 244.159C84.4735 244.159 83.5909 243.917 82.8182 243.432C82.0455 242.947 81.4375 242.258 80.9943 241.364C80.5511 240.47 80.3295 239.409 80.3295 238.182C80.3295 236.955 80.5511 235.894 80.9943 235C81.4375 234.106 82.0455 233.417 82.8182 232.932C83.5909 232.447 84.4735 232.205 85.4659 232.205C86.053 232.205 86.6042 232.29 87.1193 232.46C87.6383 232.631 88.1061 232.881 88.5227 233.21C88.9394 233.536 89.2879 233.934 89.5682 234.403C89.8485 234.869 90.0417 235.402 90.1477 236ZM91.7429 236.523V235.273H98.8338V236.523H95.9702V244H94.6293V236.523H91.7429ZM103.882 244.182C103.094 244.182 102.403 243.994 101.808 243.619C101.217 243.244 100.755 242.72 100.422 242.045C100.092 241.371 99.9276 240.583 99.9276 239.682C99.9276 238.773 100.092 237.979 100.422 237.301C100.755 236.623 101.217 236.097 101.808 235.722C102.403 235.347 103.094 235.159 103.882 235.159C104.67 235.159 105.359 235.347 105.95 235.722C106.545 236.097 107.007 236.623 107.337 237.301C107.67 237.979 107.837 238.773 107.837 239.682C107.837 240.583 107.67 241.371 107.337 242.045C107.007 242.72 106.545 243.244 105.95 243.619C105.359 243.994 104.67 244.182 103.882 244.182ZM103.882 242.977C104.481 242.977 104.973 242.824 105.359 242.517C105.746 242.21 106.032 241.807 106.217 241.307C106.403 240.807 106.496 240.265 106.496 239.682C106.496 239.098 106.403 238.555 106.217 238.051C106.032 237.547 105.746 237.14 105.359 236.83C104.973 236.519 104.481 236.364 103.882 236.364C103.284 236.364 102.791 236.519 102.405 236.83C102.018 237.14 101.732 237.547 101.547 238.051C101.361 238.555 101.268 239.098 101.268 239.682C101.268 240.265 101.361 240.807 101.547 241.307C101.732 241.807 102.018 242.21 102.405 242.517C102.791 242.824 103.284 242.977 103.882 242.977ZM109.111 244V242.75H109.429C109.69 242.75 109.908 242.699 110.082 242.597C110.257 242.491 110.397 242.307 110.503 242.045C110.613 241.78 110.696 241.413 110.753 240.943C110.813 240.47 110.857 239.867 110.884 239.136L111.043 235.273H116.861V244H115.52V236.523H112.315L112.179 239.636C112.149 240.352 112.084 240.983 111.986 241.528C111.891 242.07 111.745 242.525 111.548 242.892C111.355 243.259 111.098 243.536 110.776 243.722C110.454 243.907 110.05 244 109.565 244H109.111ZM122.866 244.182C122.079 244.182 121.387 243.994 120.793 243.619C120.202 243.244 119.74 242.72 119.406 242.045C119.077 241.371 118.912 240.583 118.912 239.682C118.912 238.773 119.077 237.979 119.406 237.301C119.74 236.623 120.202 236.097 120.793 235.722C121.387 235.347 122.079 235.159 122.866 235.159C123.654 235.159 124.344 235.347 124.935 235.722C125.529 236.097 125.991 236.623 126.321 237.301C126.654 237.979 126.821 238.773 126.821 239.682C126.821 240.583 126.654 241.371 126.321 242.045C125.991 242.72 125.529 243.244 124.935 243.619C124.344 243.994 123.654 244.182 122.866 244.182ZM122.866 242.977C123.465 242.977 123.957 242.824 124.344 242.517C124.73 242.21 125.016 241.807 125.202 241.307C125.387 240.807 125.48 240.265 125.48 239.682C125.48 239.098 125.387 238.555 125.202 238.051C125.016 237.547 124.73 237.14 124.344 236.83C123.957 236.519 123.465 236.364 122.866 236.364C122.268 236.364 121.776 236.519 121.389 236.83C121.003 237.14 120.717 237.547 120.531 238.051C120.346 238.555 120.253 239.098 120.253 239.682C120.253 240.265 120.346 240.807 120.531 241.307C120.717 241.807 121.003 242.21 121.389 242.517C121.776 242.824 122.268 242.977 122.866 242.977ZM128.868 244V235.273H132.436C133.375 235.273 134.122 235.485 134.675 235.909C135.228 236.333 135.504 236.894 135.504 237.591C135.504 238.121 135.347 238.532 135.033 238.824C134.718 239.112 134.315 239.307 133.822 239.409C134.144 239.455 134.457 239.568 134.76 239.75C135.067 239.932 135.321 240.182 135.521 240.5C135.722 240.814 135.822 241.201 135.822 241.659C135.822 242.106 135.709 242.506 135.482 242.858C135.254 243.21 134.929 243.489 134.504 243.693C134.08 243.898 133.572 244 132.982 244H128.868ZM130.141 242.773H132.982C133.444 242.773 133.805 242.663 134.067 242.443C134.328 242.223 134.459 241.924 134.459 241.545C134.459 241.095 134.328 240.741 134.067 240.483C133.805 240.222 133.444 240.091 132.982 240.091H130.141V242.773ZM130.141 238.932H132.436C132.796 238.932 133.105 238.883 133.362 238.784C133.62 238.682 133.817 238.538 133.953 238.352C134.093 238.163 134.163 237.939 134.163 237.682C134.163 237.314 134.01 237.027 133.703 236.818C133.396 236.606 132.974 236.5 132.436 236.5H130.141V238.932ZM140.42 244.205C139.867 244.205 139.366 244.1 138.915 243.892C138.464 243.68 138.106 243.375 137.841 242.977C137.576 242.576 137.443 242.091 137.443 241.523C137.443 241.023 137.542 240.617 137.739 240.307C137.936 239.992 138.199 239.746 138.528 239.568C138.858 239.39 139.222 239.258 139.619 239.17C140.021 239.08 140.424 239.008 140.83 238.955C141.36 238.886 141.79 238.835 142.119 238.801C142.453 238.763 142.695 238.701 142.847 238.614C143.002 238.527 143.08 238.375 143.08 238.159V238.114C143.08 237.553 142.926 237.117 142.619 236.807C142.316 236.496 141.856 236.341 141.239 236.341C140.598 236.341 140.097 236.481 139.733 236.761C139.369 237.042 139.114 237.341 138.966 237.659L137.693 237.205C137.92 236.674 138.223 236.261 138.602 235.966C138.985 235.667 139.402 235.458 139.852 235.341C140.307 235.22 140.754 235.159 141.193 235.159C141.473 235.159 141.795 235.193 142.159 235.261C142.527 235.326 142.881 235.46 143.222 235.665C143.566 235.869 143.852 236.178 144.08 236.591C144.307 237.004 144.42 237.557 144.42 238.25V244H143.08V242.818H143.011C142.92 243.008 142.769 243.21 142.557 243.426C142.345 243.642 142.063 243.826 141.71 243.977C141.358 244.129 140.928 244.205 140.42 244.205ZM140.625 243C141.155 243 141.602 242.896 141.966 242.688C142.333 242.479 142.61 242.21 142.795 241.881C142.985 241.551 143.08 241.205 143.08 240.841V239.614C143.023 239.682 142.898 239.744 142.705 239.801C142.515 239.854 142.295 239.902 142.045 239.943C141.799 239.981 141.559 240.015 141.324 240.045C141.093 240.072 140.905 240.095 140.761 240.114C140.413 240.159 140.087 240.233 139.784 240.335C139.485 240.434 139.242 240.583 139.057 240.784C138.875 240.981 138.784 241.25 138.784 241.591C138.784 242.057 138.956 242.409 139.301 242.648C139.65 242.883 140.091 243 140.625 243ZM152.118 244V236.5H149.8C149.277 236.5 148.866 236.621 148.567 236.864C148.268 237.106 148.118 237.439 148.118 237.864C148.118 238.28 148.252 238.608 148.521 238.847C148.794 239.085 149.167 239.205 149.641 239.205H152.459V240.455H149.641C149.05 240.455 148.54 240.35 148.112 240.142C147.684 239.934 147.355 239.636 147.124 239.25C146.893 238.86 146.777 238.398 146.777 237.864C146.777 237.326 146.898 236.864 147.141 236.477C147.383 236.091 147.73 235.794 148.18 235.585C148.635 235.377 149.175 235.273 149.8 235.273H153.391V244H152.118ZM146.3 244L148.777 239.659H150.232L147.754 244H146.3Z" fill="black"/>
<path id="text_room_wardrobe" d="M88.5256 595.364V596.614H82.9119V607H81.5028V595.364H88.5256ZM91.9048 607.205C91.3518 607.205 90.8499 607.1 90.3991 606.892C89.9484 606.68 89.5904 606.375 89.3253 605.977C89.0601 605.576 88.9276 605.091 88.9276 604.523C88.9276 604.023 89.026 603.617 89.223 603.307C89.42 602.992 89.6832 602.746 90.0128 602.568C90.3423 602.39 90.706 602.258 91.1037 602.17C91.5052 602.08 91.9086 602.008 92.3139 601.955C92.8442 601.886 93.2741 601.835 93.6037 601.801C93.937 601.763 94.1795 601.701 94.331 601.614C94.4863 601.527 94.5639 601.375 94.5639 601.159V601.114C94.5639 600.553 94.4105 600.117 94.1037 599.807C93.8007 599.496 93.3404 599.341 92.723 599.341C92.0829 599.341 91.581 599.481 91.2173 599.761C90.8537 600.042 90.598 600.341 90.4503 600.659L89.1776 600.205C89.4048 599.674 89.7079 599.261 90.0866 598.966C90.4692 598.667 90.8859 598.458 91.3366 598.341C91.7912 598.22 92.2382 598.159 92.6776 598.159C92.9579 598.159 93.2798 598.193 93.6435 598.261C94.0109 598.326 94.3651 598.46 94.706 598.665C95.0507 598.869 95.3366 599.178 95.5639 599.591C95.7912 600.004 95.9048 600.557 95.9048 601.25V607H94.5639V605.818H94.4957C94.4048 606.008 94.2533 606.21 94.0412 606.426C93.8291 606.642 93.5469 606.826 93.1946 606.977C92.8423 607.129 92.4124 607.205 91.9048 607.205ZM92.1094 606C92.6397 606 93.0866 605.896 93.4503 605.688C93.8177 605.479 94.0942 605.21 94.2798 604.881C94.4692 604.551 94.5639 604.205 94.5639 603.841V602.614C94.5071 602.682 94.3821 602.744 94.1889 602.801C93.9995 602.854 93.7798 602.902 93.5298 602.943C93.2836 602.981 93.0431 603.015 92.8082 603.045C92.5772 603.072 92.3897 603.095 92.2457 603.114C91.8973 603.159 91.5715 603.233 91.2685 603.335C90.9692 603.434 90.7268 603.583 90.5412 603.784C90.3594 603.981 90.2685 604.25 90.2685 604.591C90.2685 605.057 90.4408 605.409 90.7855 605.648C91.134 605.883 91.5753 606 92.1094 606ZM98.3523 610.273V598.273H99.6477V599.659H99.8068C99.9053 599.508 100.042 599.314 100.216 599.08C100.394 598.841 100.648 598.629 100.977 598.443C101.311 598.254 101.761 598.159 102.33 598.159C103.064 598.159 103.712 598.343 104.273 598.71C104.833 599.078 105.271 599.598 105.585 600.273C105.9 600.947 106.057 601.742 106.057 602.659C106.057 603.583 105.9 604.384 105.585 605.062C105.271 605.737 104.835 606.259 104.278 606.631C103.722 606.998 103.08 607.182 102.352 607.182C101.792 607.182 101.343 607.089 101.006 606.903C100.669 606.714 100.409 606.5 100.227 606.261C100.045 606.019 99.9053 605.818 99.8068 605.659H99.6932V610.273H98.3523ZM99.6705 602.636C99.6705 603.295 99.767 603.877 99.9602 604.381C100.153 604.881 100.436 605.273 100.807 605.557C101.178 605.837 101.633 605.977 102.17 605.977C102.731 605.977 103.199 605.83 103.574 605.534C103.953 605.235 104.237 604.833 104.426 604.33C104.619 603.822 104.716 603.258 104.716 602.636C104.716 602.023 104.621 601.47 104.432 600.977C104.246 600.481 103.964 600.089 103.585 599.801C103.21 599.509 102.739 599.364 102.17 599.364C101.625 599.364 101.167 599.502 100.795 599.778C100.424 600.051 100.144 600.434 99.9545 600.926C99.7652 601.415 99.6705 601.985 99.6705 602.636ZM107.17 609.5V605.75H107.898C108.076 605.564 108.229 605.364 108.358 605.148C108.487 604.932 108.598 604.676 108.693 604.381C108.792 604.081 108.875 603.718 108.943 603.29C109.011 602.858 109.072 602.337 109.125 601.727L109.42 598.273H114.966V605.75H116.307V609.5H114.966V607H108.511V609.5H107.17ZM109.42 605.75H113.625V599.523H110.67L110.443 601.727C110.348 602.64 110.231 603.437 110.091 604.119C109.951 604.801 109.727 605.345 109.42 605.75ZM121.746 607.182C120.905 607.182 120.179 606.996 119.57 606.625C118.964 606.25 118.496 605.727 118.166 605.057C117.84 604.383 117.678 603.598 117.678 602.705C117.678 601.811 117.84 601.023 118.166 600.341C118.496 599.655 118.954 599.121 119.541 598.739C120.132 598.352 120.821 598.159 121.609 598.159C122.064 598.159 122.513 598.235 122.956 598.386C123.399 598.538 123.803 598.784 124.166 599.125C124.53 599.462 124.82 599.909 125.036 600.466C125.251 601.023 125.359 601.708 125.359 602.523V603.091H118.632V601.932H123.996C123.996 601.439 123.897 601 123.7 600.614C123.507 600.227 123.231 599.922 122.871 599.699C122.515 599.475 122.094 599.364 121.609 599.364C121.075 599.364 120.613 599.496 120.223 599.761C119.837 600.023 119.539 600.364 119.331 600.784C119.123 601.205 119.018 601.655 119.018 602.136V602.909C119.018 603.568 119.132 604.127 119.359 604.585C119.59 605.04 119.911 605.386 120.32 605.625C120.729 605.86 121.204 605.977 121.746 605.977C122.098 605.977 122.416 605.928 122.7 605.83C122.988 605.727 123.236 605.576 123.445 605.375C123.653 605.17 123.814 604.917 123.928 604.614L125.223 604.977C125.087 605.417 124.857 605.803 124.536 606.136C124.214 606.466 123.816 606.723 123.342 606.909C122.869 607.091 122.337 607.182 121.746 607.182ZM127.399 610.273V598.273H128.695V599.659H128.854C128.952 599.508 129.089 599.314 129.263 599.08C129.441 598.841 129.695 598.629 130.024 598.443C130.357 598.254 130.808 598.159 131.376 598.159C132.111 598.159 132.759 598.343 133.32 598.71C133.88 599.078 134.318 599.598 134.632 600.273C134.946 600.947 135.104 601.742 135.104 602.659C135.104 603.583 134.946 604.384 134.632 605.062C134.318 605.737 133.882 606.259 133.325 606.631C132.768 606.998 132.126 607.182 131.399 607.182C130.839 607.182 130.39 607.089 130.053 606.903C129.715 606.714 129.456 606.5 129.274 606.261C129.092 606.019 128.952 605.818 128.854 605.659H128.74V610.273H127.399ZM128.717 602.636C128.717 603.295 128.814 603.877 129.007 604.381C129.2 604.881 129.482 605.273 129.854 605.557C130.225 605.837 130.679 605.977 131.217 605.977C131.778 605.977 132.246 605.83 132.621 605.534C133 605.235 133.284 604.833 133.473 604.33C133.666 603.822 133.763 603.258 133.763 602.636C133.763 602.023 133.668 601.47 133.479 600.977C133.293 600.481 133.011 600.089 132.632 599.801C132.257 599.509 131.786 599.364 131.217 599.364C130.672 599.364 130.214 599.502 129.842 599.778C129.471 600.051 129.191 600.434 129.001 600.926C128.812 601.415 128.717 601.985 128.717 602.636ZM140.695 607.182C139.907 607.182 139.215 606.994 138.621 606.619C138.03 606.244 137.568 605.72 137.234 605.045C136.905 604.371 136.74 603.583 136.74 602.682C136.74 601.773 136.905 600.979 137.234 600.301C137.568 599.623 138.03 599.097 138.621 598.722C139.215 598.347 139.907 598.159 140.695 598.159C141.482 598.159 142.172 598.347 142.763 598.722C143.357 599.097 143.82 599.623 144.149 600.301C144.482 600.979 144.649 601.773 144.649 602.682C144.649 603.583 144.482 604.371 144.149 605.045C143.82 605.72 143.357 606.244 142.763 606.619C142.172 606.994 141.482 607.182 140.695 607.182ZM140.695 605.977C141.293 605.977 141.786 605.824 142.172 605.517C142.558 605.21 142.844 604.807 143.03 604.307C143.215 603.807 143.308 603.265 143.308 602.682C143.308 602.098 143.215 601.555 143.03 601.051C142.844 600.547 142.558 600.14 142.172 599.83C141.786 599.519 141.293 599.364 140.695 599.364C140.096 599.364 139.604 599.519 139.217 599.83C138.831 600.14 138.545 600.547 138.359 601.051C138.174 601.555 138.081 602.098 138.081 602.682C138.081 603.265 138.174 603.807 138.359 604.307C138.545 604.807 138.831 605.21 139.217 605.517C139.604 605.824 140.096 605.977 140.695 605.977ZM153.173 595L153.855 595.818C153.59 596.076 153.283 596.256 152.935 596.358C152.586 596.46 152.192 596.523 151.753 596.545C151.313 596.568 150.825 596.591 150.287 596.614C149.681 596.636 149.179 596.784 148.781 597.057C148.384 597.33 148.077 597.723 147.861 598.239C147.645 598.754 147.507 599.386 147.446 600.136H147.56C147.855 599.591 148.264 599.189 148.787 598.932C149.31 598.674 149.87 598.545 150.469 598.545C151.151 598.545 151.764 598.705 152.31 599.023C152.855 599.341 153.287 599.812 153.605 600.438C153.923 601.062 154.082 601.833 154.082 602.75C154.082 603.663 153.92 604.451 153.594 605.114C153.272 605.777 152.819 606.288 152.236 606.648C151.656 607.004 150.976 607.182 150.196 607.182C149.416 607.182 148.732 606.998 148.145 606.631C147.558 606.259 147.101 605.71 146.776 604.983C146.45 604.252 146.287 603.348 146.287 602.273V601.341C146.287 599.398 146.616 597.924 147.276 596.92C147.938 595.917 148.935 595.398 150.264 595.364C150.734 595.348 151.152 595.345 151.52 595.352C151.887 595.36 152.207 595.343 152.48 595.301C152.753 595.259 152.984 595.159 153.173 595ZM150.196 605.977C150.723 605.977 151.175 605.845 151.554 605.58C151.937 605.314 152.23 604.941 152.435 604.46C152.639 603.975 152.741 603.405 152.741 602.75C152.741 602.114 152.637 601.572 152.429 601.125C152.224 600.678 151.931 600.337 151.548 600.102C151.166 599.867 150.707 599.75 150.173 599.75C149.783 599.75 149.433 599.816 149.122 599.949C148.812 600.081 148.546 600.277 148.327 600.534C148.107 600.792 147.937 601.106 147.815 601.477C147.698 601.848 147.635 602.273 147.628 602.75C147.628 603.727 147.857 604.509 148.315 605.097C148.774 605.684 149.401 605.977 150.196 605.977Z" fill="black"/>
<path id="text_ladder" d="M70.9155 768V766.75H71.2337C71.495 766.75 71.7128 766.699 71.8871 766.597C72.0613 766.491 72.2015 766.307 72.3075 766.045C72.4174 765.78 72.5007 765.413 72.5575 764.943C72.6181 764.47 72.6617 763.867 72.6882 763.136L72.8473 759.273H78.6655V768H77.3246V760.523H74.12L73.9837 763.636C73.9534 764.352 73.889 764.983 73.7905 765.528C73.6958 766.07 73.55 766.525 73.353 766.892C73.1598 767.259 72.9022 767.536 72.5803 767.722C72.2583 767.907 71.8549 768 71.37 768H70.9155ZM84.7848 768.182C83.9439 768.182 83.2185 767.996 82.6087 767.625C82.0026 767.25 81.5348 766.727 81.2053 766.057C80.8795 765.383 80.7166 764.598 80.7166 763.705C80.7166 762.811 80.8795 762.023 81.2053 761.341C81.5348 760.655 81.9931 760.121 82.5803 759.739C83.1712 759.352 83.8606 759.159 84.6484 759.159C85.103 759.159 85.5518 759.235 85.995 759.386C86.4382 759.538 86.8416 759.784 87.2053 760.125C87.5689 760.462 87.8587 760.909 88.0746 761.466C88.2905 762.023 88.3984 762.708 88.3984 763.523V764.091H81.6712V762.932H87.0348C87.0348 762.439 86.9363 762 86.7393 761.614C86.5462 761.227 86.2696 760.922 85.9098 760.699C85.5537 760.475 85.1333 760.364 84.6484 760.364C84.1143 760.364 83.6522 760.496 83.2621 760.761C82.8757 761.023 82.5784 761.364 82.37 761.784C82.1617 762.205 82.0575 762.655 82.0575 763.136V763.909C82.0575 764.568 82.1712 765.127 82.3984 765.585C82.6295 766.04 82.9496 766.386 83.3587 766.625C83.7678 766.86 84.2431 766.977 84.7848 766.977C85.1371 766.977 85.4553 766.928 85.7393 766.83C86.0272 766.727 86.2753 766.576 86.4837 766.375C86.692 766.17 86.853 765.917 86.9666 765.614L88.2621 765.977C88.1257 766.417 87.8965 766.803 87.5746 767.136C87.2526 767.466 86.8549 767.723 86.3814 767.909C85.9079 768.091 85.3757 768.182 84.7848 768.182ZM93.9837 768.182C93.1655 768.182 92.4609 767.989 91.87 767.602C91.2791 767.216 90.8246 766.684 90.5064 766.006C90.1882 765.328 90.0291 764.553 90.0291 763.682C90.0291 762.795 90.192 762.013 90.5178 761.335C90.8473 760.653 91.3056 760.121 91.8928 759.739C92.4837 759.352 93.1731 759.159 93.9609 759.159C94.5746 759.159 95.1276 759.273 95.62 759.5C96.1125 759.727 96.5159 760.045 96.8303 760.455C97.1446 760.864 97.3397 761.341 97.4155 761.886H96.0746C95.9723 761.489 95.745 761.136 95.3928 760.83C95.0443 760.519 94.5746 760.364 93.9837 760.364C93.4609 760.364 93.0026 760.5 92.6087 760.773C92.2185 761.042 91.9136 761.422 91.6939 761.915C91.478 762.403 91.37 762.977 91.37 763.636C91.37 764.311 91.4761 764.898 91.6882 765.398C91.9041 765.898 92.2071 766.286 92.5973 766.562C92.9912 766.839 93.4534 766.977 93.9837 766.977C94.3321 766.977 94.6484 766.917 94.9325 766.795C95.2166 766.674 95.4571 766.5 95.6541 766.273C95.8511 766.045 95.9912 765.773 96.0746 765.455H97.4155C97.3397 765.97 97.1522 766.434 96.853 766.847C96.5575 767.256 96.1655 767.581 95.6768 767.824C95.192 768.062 94.6276 768.182 93.9837 768.182ZM98.6882 760.523V759.273H105.779V760.523H102.915V768H101.575V760.523H98.6882ZM113.576 763.023V764.273H108.758V763.023H113.576ZM109.076 759.273V768H107.735V759.273H109.076ZM114.599 759.273V768H113.258V759.273H114.599ZM118.388 766.023L122.593 759.273H124.138V768H122.798V761.25L118.616 768H117.048V759.273H118.388V766.023ZM133.458 759.273V766.75H134.685V770.818H133.344V768H126.594V759.273H127.935V766.75H132.117V759.273H133.458ZM139.319 768.205C138.766 768.205 138.264 768.1 137.813 767.892C137.362 767.68 137.004 767.375 136.739 766.977C136.474 766.576 136.342 766.091 136.342 765.523C136.342 765.023 136.44 764.617 136.637 764.307C136.834 763.992 137.097 763.746 137.427 763.568C137.756 763.39 138.12 763.258 138.518 763.17C138.919 763.08 139.323 763.008 139.728 762.955C140.258 762.886 140.688 762.835 141.018 762.801C141.351 762.763 141.594 762.701 141.745 762.614C141.9 762.527 141.978 762.375 141.978 762.159V762.114C141.978 761.553 141.825 761.117 141.518 760.807C141.215 760.496 140.754 760.341 140.137 760.341C139.497 760.341 138.995 760.481 138.631 760.761C138.268 761.042 138.012 761.341 137.864 761.659L136.592 761.205C136.819 760.674 137.122 760.261 137.501 759.966C137.883 759.667 138.3 759.458 138.751 759.341C139.205 759.22 139.652 759.159 140.092 759.159C140.372 759.159 140.694 759.193 141.058 759.261C141.425 759.326 141.779 759.46 142.12 759.665C142.465 759.869 142.751 760.178 142.978 760.591C143.205 761.004 143.319 761.557 143.319 762.25V768H141.978V766.818H141.91C141.819 767.008 141.667 767.21 141.455 767.426C141.243 767.642 140.961 767.826 140.609 767.977C140.256 768.129 139.826 768.205 139.319 768.205ZM139.523 767C140.054 767 140.501 766.896 140.864 766.688C141.232 766.479 141.508 766.21 141.694 765.881C141.883 765.551 141.978 765.205 141.978 764.841V763.614C141.921 763.682 141.796 763.744 141.603 763.801C141.414 763.854 141.194 763.902 140.944 763.943C140.698 763.981 140.457 764.015 140.222 764.045C139.991 764.072 139.804 764.095 139.66 764.114C139.311 764.159 138.986 764.233 138.683 764.335C138.383 764.434 138.141 764.583 137.955 764.784C137.773 764.981 137.683 765.25 137.683 765.591C137.683 766.057 137.855 766.409 138.2 766.648C138.548 766.883 138.989 767 139.523 767Z" fill="white"/>
<path id="text_room_dean" d="M430.847 582.818V578.75H431.597C431.854 578.515 432.097 578.184 432.324 577.756C432.555 577.324 432.75 576.748 432.909 576.028C433.072 575.305 433.18 574.386 433.233 573.273L433.483 568.364H440.392V578.75H441.733V582.795H440.392V580H432.188V582.818H430.847ZM433.278 578.75H439.051V569.614H434.756L434.574 573.273C434.528 574.121 434.449 574.89 434.335 575.58C434.222 576.265 434.076 576.873 433.898 577.403C433.72 577.93 433.513 578.379 433.278 578.75ZM447.339 580.182C446.499 580.182 445.773 579.996 445.163 579.625C444.557 579.25 444.089 578.727 443.76 578.057C443.434 577.383 443.271 576.598 443.271 575.705C443.271 574.811 443.434 574.023 443.76 573.341C444.089 572.655 444.548 572.121 445.135 571.739C445.726 571.352 446.415 571.159 447.203 571.159C447.658 571.159 448.107 571.235 448.55 571.386C448.993 571.538 449.396 571.784 449.76 572.125C450.124 572.462 450.413 572.909 450.629 573.466C450.845 574.023 450.953 574.708 450.953 575.523V576.091H444.226V574.932H449.589C449.589 574.439 449.491 574 449.294 573.614C449.101 573.227 448.824 572.922 448.464 572.699C448.108 572.475 447.688 572.364 447.203 572.364C446.669 572.364 446.207 572.496 445.817 572.761C445.43 573.023 445.133 573.364 444.925 573.784C444.716 574.205 444.612 574.655 444.612 575.136V575.909C444.612 576.568 444.726 577.127 444.953 577.585C445.184 578.04 445.504 578.386 445.913 578.625C446.322 578.86 446.798 578.977 447.339 578.977C447.692 578.977 448.01 578.928 448.294 578.83C448.582 578.727 448.83 578.576 449.038 578.375C449.247 578.17 449.408 577.917 449.521 577.614L450.817 577.977C450.68 578.417 450.451 578.803 450.129 579.136C449.807 579.466 449.41 579.723 448.936 579.909C448.463 580.091 447.93 580.182 447.339 580.182ZM452.993 580V571.273H454.334V575.068H455.22L458.357 571.273H460.084L456.561 575.477L460.129 580H458.402L455.538 576.318H454.334V580H452.993ZM464.155 580.205C463.602 580.205 463.1 580.1 462.649 579.892C462.198 579.68 461.84 579.375 461.575 578.977C461.31 578.576 461.178 578.091 461.178 577.523C461.178 577.023 461.276 576.617 461.473 576.307C461.67 575.992 461.933 575.746 462.263 575.568C462.592 575.39 462.956 575.258 463.354 575.17C463.755 575.08 464.159 575.008 464.564 574.955C465.094 574.886 465.524 574.835 465.854 574.801C466.187 574.763 466.429 574.701 466.581 574.614C466.736 574.527 466.814 574.375 466.814 574.159V574.114C466.814 573.553 466.661 573.117 466.354 572.807C466.051 572.496 465.59 572.341 464.973 572.341C464.333 572.341 463.831 572.481 463.467 572.761C463.104 573.042 462.848 573.341 462.7 573.659L461.428 573.205C461.655 572.674 461.958 572.261 462.337 571.966C462.719 571.667 463.136 571.458 463.587 571.341C464.041 571.22 464.488 571.159 464.928 571.159C465.208 571.159 465.53 571.193 465.893 571.261C466.261 571.326 466.615 571.46 466.956 571.665C467.301 571.869 467.587 572.178 467.814 572.591C468.041 573.004 468.155 573.557 468.155 574.25V580H466.814V578.818H466.746C466.655 579.008 466.503 579.21 466.291 579.426C466.079 579.642 465.797 579.826 465.445 579.977C465.092 580.129 464.662 580.205 464.155 580.205ZM464.359 579C464.89 579 465.337 578.896 465.7 578.688C466.068 578.479 466.344 578.21 466.53 577.881C466.719 577.551 466.814 577.205 466.814 576.841V575.614C466.757 575.682 466.632 575.744 466.439 575.801C466.25 575.854 466.03 575.902 465.78 575.943C465.534 575.981 465.293 576.015 465.058 576.045C464.827 576.072 464.64 576.095 464.496 576.114C464.147 576.159 463.821 576.233 463.518 576.335C463.219 576.434 462.977 576.583 462.791 576.784C462.609 576.981 462.518 577.25 462.518 577.591C462.518 578.057 462.691 578.409 463.036 578.648C463.384 578.883 463.825 579 464.359 579ZM476.443 575.023V576.273H471.625V575.023H476.443ZM471.943 571.273V580H470.602V571.273H471.943ZM477.466 571.273V580H476.125V571.273H477.466ZM482.483 580.205C481.93 580.205 481.428 580.1 480.977 579.892C480.527 579.68 480.169 579.375 479.903 578.977C479.638 578.576 479.506 578.091 479.506 577.523C479.506 577.023 479.604 576.617 479.801 576.307C479.998 575.992 480.261 575.746 480.591 575.568C480.92 575.39 481.284 575.258 481.682 575.17C482.083 575.08 482.487 575.008 482.892 574.955C483.422 574.886 483.852 574.835 484.182 574.801C484.515 574.763 484.758 574.701 484.909 574.614C485.064 574.527 485.142 574.375 485.142 574.159V574.114C485.142 573.553 484.989 573.117 484.682 572.807C484.379 572.496 483.919 572.341 483.301 572.341C482.661 572.341 482.159 572.481 481.795 572.761C481.432 573.042 481.176 573.341 481.028 573.659L479.756 573.205C479.983 572.674 480.286 572.261 480.665 571.966C481.047 571.667 481.464 571.458 481.915 571.341C482.369 571.22 482.816 571.159 483.256 571.159C483.536 571.159 483.858 571.193 484.222 571.261C484.589 571.326 484.943 571.46 485.284 571.665C485.629 571.869 485.915 572.178 486.142 572.591C486.369 573.004 486.483 573.557 486.483 574.25V580H485.142V578.818H485.074C484.983 579.008 484.831 579.21 484.619 579.426C484.407 579.642 484.125 579.826 483.773 579.977C483.42 580.129 482.991 580.205 482.483 580.205ZM482.688 579C483.218 579 483.665 578.896 484.028 578.688C484.396 578.479 484.672 578.21 484.858 577.881C485.047 577.551 485.142 577.205 485.142 576.841V575.614C485.085 575.682 484.96 575.744 484.767 575.801C484.578 575.854 484.358 575.902 484.108 575.943C483.862 575.981 483.621 576.015 483.386 576.045C483.155 576.072 482.968 576.095 482.824 576.114C482.475 576.159 482.15 576.233 481.847 576.335C481.547 576.434 481.305 576.583 481.119 576.784C480.938 576.981 480.847 577.25 480.847 577.591C480.847 578.057 481.019 578.409 481.364 578.648C481.712 578.883 482.153 579 482.688 579ZM487.743 572.523V571.273H494.834V572.523H491.97V580H490.629V572.523H487.743Z" fill="black"/>
<path id="text_room_toilet" d="M444.82 337.614V336.364H453.547V337.614H449.888V348H448.479V337.614H444.82ZM455.403 351.273C455.176 351.273 454.973 351.254 454.795 351.216C454.617 351.182 454.494 351.148 454.426 351.114L454.767 349.932C455.093 350.015 455.381 350.045 455.631 350.023C455.881 350 456.102 349.888 456.295 349.688C456.492 349.491 456.672 349.17 456.835 348.727L457.085 348.045L453.858 339.273H455.312L457.722 346.227H457.812L460.222 339.273H461.676L457.972 349.273C457.805 349.723 457.598 350.097 457.352 350.392C457.106 350.691 456.82 350.913 456.494 351.057C456.172 351.201 455.809 351.273 455.403 351.273ZM465.749 348.205C465.196 348.205 464.694 348.1 464.243 347.892C463.792 347.68 463.434 347.375 463.169 346.977C462.904 346.576 462.771 346.091 462.771 345.523C462.771 345.023 462.87 344.617 463.067 344.307C463.264 343.992 463.527 343.746 463.857 343.568C464.186 343.39 464.55 343.258 464.947 343.17C465.349 343.08 465.752 343.008 466.158 342.955C466.688 342.886 467.118 342.835 467.447 342.801C467.781 342.763 468.023 342.701 468.175 342.614C468.33 342.527 468.408 342.375 468.408 342.159V342.114C468.408 341.553 468.254 341.117 467.947 340.807C467.644 340.496 467.184 340.341 466.567 340.341C465.927 340.341 465.425 340.481 465.061 340.761C464.697 341.042 464.442 341.341 464.294 341.659L463.021 341.205C463.249 340.674 463.552 340.261 463.93 339.966C464.313 339.667 464.73 339.458 465.18 339.341C465.635 339.22 466.082 339.159 466.521 339.159C466.802 339.159 467.124 339.193 467.487 339.261C467.855 339.326 468.209 339.46 468.55 339.665C468.894 339.869 469.18 340.178 469.408 340.591C469.635 341.004 469.749 341.557 469.749 342.25V348H468.408V346.818H468.339C468.249 347.008 468.097 347.21 467.885 347.426C467.673 347.642 467.391 347.826 467.038 347.977C466.686 348.129 466.256 348.205 465.749 348.205ZM465.953 347C466.483 347 466.93 346.896 467.294 346.688C467.661 346.479 467.938 346.21 468.124 345.881C468.313 345.551 468.408 345.205 468.408 344.841V343.614C468.351 343.682 468.226 343.744 468.033 343.801C467.843 343.854 467.624 343.902 467.374 343.943C467.127 343.981 466.887 344.015 466.652 344.045C466.421 344.072 466.233 344.095 466.089 344.114C465.741 344.159 465.415 344.233 465.112 344.335C464.813 344.434 464.571 344.583 464.385 344.784C464.203 344.981 464.112 345.25 464.112 345.591C464.112 346.057 464.285 346.409 464.629 346.648C464.978 346.883 465.419 347 465.953 347ZM471.423 348V346.75H471.741C472.003 346.75 472.221 346.699 472.395 346.597C472.569 346.491 472.709 346.307 472.815 346.045C472.925 345.78 473.009 345.413 473.065 344.943C473.126 344.47 473.17 343.867 473.196 343.136L473.355 339.273H479.173V348H477.832V340.523H474.628L474.491 343.636C474.461 344.352 474.397 344.983 474.298 345.528C474.204 346.07 474.058 346.525 473.861 346.892C473.668 347.259 473.41 347.536 473.088 347.722C472.766 347.907 472.363 348 471.878 348H471.423ZM485.293 348.182C484.452 348.182 483.726 347.996 483.116 347.625C482.51 347.25 482.043 346.727 481.713 346.057C481.387 345.383 481.224 344.598 481.224 343.705C481.224 342.811 481.387 342.023 481.713 341.341C482.043 340.655 482.501 340.121 483.088 339.739C483.679 339.352 484.368 339.159 485.156 339.159C485.611 339.159 486.06 339.235 486.503 339.386C486.946 339.538 487.349 339.784 487.713 340.125C488.077 340.462 488.366 340.909 488.582 341.466C488.798 342.023 488.906 342.708 488.906 343.523V344.091H482.179V342.932H487.543C487.543 342.439 487.444 342 487.247 341.614C487.054 341.227 486.777 340.922 486.418 340.699C486.062 340.475 485.641 340.364 485.156 340.364C484.622 340.364 484.16 340.496 483.77 340.761C483.384 341.023 483.086 341.364 482.878 341.784C482.67 342.205 482.565 342.655 482.565 343.136V343.909C482.565 344.568 482.679 345.127 482.906 345.585C483.137 346.04 483.457 346.386 483.866 346.625C484.276 346.86 484.751 346.977 485.293 346.977C485.645 346.977 485.963 346.928 486.247 346.83C486.535 346.727 486.783 346.576 486.991 346.375C487.2 346.17 487.361 345.917 487.474 345.614L488.77 345.977C488.634 346.417 488.404 346.803 488.082 347.136C487.76 347.466 487.363 347.723 486.889 347.909C486.416 348.091 485.884 348.182 485.293 348.182ZM490.134 340.523V339.273H497.224V340.523H494.361V348H493.02V340.523H490.134Z" fill="black"/>
<path id="text_room_102" d="M443.136 228H441.659L445.932 216.364H447.386L451.659 228H450.182L446.705 218.205H446.614L443.136 228ZM443.682 223.455H449.636V224.705H443.682V223.455ZM453.06 231.273C452.832 231.273 452.63 231.254 452.452 231.216C452.274 231.182 452.151 231.148 452.082 231.114L452.423 229.932C452.749 230.015 453.037 230.045 453.287 230.023C453.537 230 453.759 229.888 453.952 229.688C454.149 229.491 454.329 229.17 454.491 228.727L454.741 228.045L451.514 219.273H452.969L455.378 226.227H455.469L457.878 219.273H459.332L455.628 229.273C455.461 229.723 455.255 230.097 455.009 230.392C454.762 230.691 454.476 230.913 454.151 231.057C453.829 231.201 453.465 231.273 453.06 231.273ZM459.436 230.5V226.75H460.163C460.341 226.564 460.495 226.364 460.624 226.148C460.752 225.932 460.864 225.676 460.959 225.381C461.057 225.081 461.141 224.718 461.209 224.29C461.277 223.858 461.338 223.337 461.391 222.727L461.686 219.273H467.232V226.75H468.572V230.5H467.232V228H460.777V230.5H459.436ZM461.686 226.75H465.891V220.523H462.936L462.709 222.727C462.614 223.64 462.497 224.437 462.357 225.119C462.216 225.801 461.993 226.345 461.686 226.75ZM478.92 216.364V228H477.511V217.841H477.443L474.602 219.727V218.295L477.511 216.364H478.92ZM486.062 228.159C485.206 228.159 484.477 227.926 483.875 227.46C483.273 226.991 482.813 226.311 482.494 225.42C482.176 224.527 482.017 223.447 482.017 222.182C482.017 220.924 482.176 219.85 482.494 218.96C482.816 218.066 483.278 217.384 483.881 216.915C484.487 216.441 485.214 216.205 486.062 216.205C486.911 216.205 487.636 216.441 488.239 216.915C488.845 217.384 489.307 218.066 489.625 218.96C489.947 219.85 490.108 220.924 490.108 222.182C490.108 223.447 489.949 224.527 489.631 225.42C489.312 226.311 488.852 226.991 488.25 227.46C487.648 227.926 486.919 228.159 486.062 228.159ZM486.062 226.909C486.911 226.909 487.57 226.5 488.04 225.682C488.509 224.864 488.744 223.697 488.744 222.182C488.744 221.174 488.636 220.316 488.42 219.608C488.208 218.9 487.902 218.36 487.5 217.989C487.102 217.617 486.623 217.432 486.062 217.432C485.222 217.432 484.564 217.847 484.091 218.676C483.617 219.502 483.381 220.67 483.381 222.182C483.381 223.189 483.487 224.045 483.699 224.75C483.911 225.455 484.216 225.991 484.614 226.358C485.015 226.725 485.498 226.909 486.062 226.909ZM492.267 228V226.977L496.108 222.773C496.559 222.28 496.93 221.852 497.222 221.489C497.513 221.121 497.729 220.777 497.869 220.455C498.013 220.129 498.085 219.788 498.085 219.432C498.085 219.023 497.987 218.669 497.79 218.369C497.597 218.07 497.331 217.839 496.994 217.676C496.657 217.513 496.278 217.432 495.858 217.432C495.411 217.432 495.021 217.525 494.688 217.71C494.358 217.892 494.102 218.148 493.92 218.477C493.742 218.807 493.653 219.193 493.653 219.636H492.312C492.312 218.955 492.47 218.356 492.784 217.841C493.098 217.326 493.527 216.924 494.068 216.636C494.614 216.348 495.225 216.205 495.903 216.205C496.585 216.205 497.189 216.348 497.716 216.636C498.242 216.924 498.655 217.312 498.955 217.801C499.254 218.29 499.403 218.833 499.403 219.432C499.403 219.86 499.326 220.278 499.17 220.688C499.019 221.093 498.754 221.545 498.375 222.045C498 222.542 497.479 223.148 496.812 223.864L494.199 226.659V226.75H499.608V228H492.267Z" fill="black"/>
<path id="text_room_101" d="M268.261 172H266.784L271.057 160.364H272.511L276.784 172H275.307L271.83 162.205H271.739L268.261 172ZM268.807 167.455H274.761V168.705H268.807V167.455ZM278.185 175.273C277.957 175.273 277.755 175.254 277.577 175.216C277.399 175.182 277.276 175.148 277.207 175.114L277.548 173.932C277.874 174.015 278.162 174.045 278.412 174.023C278.662 174 278.884 173.888 279.077 173.688C279.274 173.491 279.454 173.17 279.616 172.727L279.866 172.045L276.639 163.273H278.094L280.503 170.227H280.594L283.003 163.273H284.457L280.753 173.273C280.586 173.723 280.38 174.097 280.134 174.392C279.887 174.691 279.601 174.913 279.276 175.057C278.954 175.201 278.59 175.273 278.185 175.273ZM284.561 174.5V170.75H285.288C285.466 170.564 285.62 170.364 285.749 170.148C285.877 169.932 285.989 169.676 286.084 169.381C286.182 169.081 286.266 168.718 286.334 168.29C286.402 167.858 286.463 167.337 286.516 166.727L286.811 163.273H292.357V170.75H293.697V174.5H292.357V172H285.902V174.5H284.561ZM286.811 170.75H291.016V164.523H288.061L287.834 166.727C287.739 167.64 287.622 168.437 287.482 169.119C287.341 169.801 287.118 170.345 286.811 170.75ZM304.045 160.364V172H302.636V161.841H302.568L299.727 163.727V162.295L302.636 160.364H304.045ZM311.188 172.159C310.331 172.159 309.602 171.926 309 171.46C308.398 170.991 307.938 170.311 307.619 169.42C307.301 168.527 307.142 167.447 307.142 166.182C307.142 164.924 307.301 163.85 307.619 162.96C307.941 162.066 308.403 161.384 309.006 160.915C309.612 160.441 310.339 160.205 311.188 160.205C312.036 160.205 312.761 160.441 313.364 160.915C313.97 161.384 314.432 162.066 314.75 162.96C315.072 163.85 315.233 164.924 315.233 166.182C315.233 167.447 315.074 168.527 314.756 169.42C314.438 170.311 313.977 170.991 313.375 171.46C312.773 171.926 312.044 172.159 311.188 172.159ZM311.188 170.909C312.036 170.909 312.695 170.5 313.165 169.682C313.634 168.864 313.869 167.697 313.869 166.182C313.869 165.174 313.761 164.316 313.545 163.608C313.333 162.9 313.027 162.36 312.625 161.989C312.227 161.617 311.748 161.432 311.188 161.432C310.347 161.432 309.689 161.847 309.216 162.676C308.742 163.502 308.506 164.67 308.506 166.182C308.506 167.189 308.612 168.045 308.824 168.75C309.036 169.455 309.341 169.991 309.739 170.358C310.14 170.725 310.623 170.909 311.188 170.909ZM321.483 160.364V172H320.074V161.841H320.006L317.165 163.727V162.295L320.074 160.364H321.483Z" fill="black"/>
</g>
</g>
<defs>
<filter id="filter0_d_11_91" x="50" y="114" width="488" height="742" filterUnits="userSpaceOnUse" color-interpolation-filters="sRGB">
<feFlood flood-opacity="0" result="BackgroundImageFix"/>
<feColorMatrix in="SourceAlpha" type="matrix" values="0 0 0 0 0 0 0 0 0 0 0 0 0 0 0 0 0 0 127 0" result="hardAlpha"/>
<feOffset dx="6" dy="6"/>
<feGaussianBlur stdDeviation="2"/>
<feComposite in2="hardAlpha" operator="out"/>
<feColorMatrix type="matrix" values="0 0 0 0 0.825833 0 0 0 0 0.825833 0 0 0 0 0.825833 0 0 0 1 0"/>
<feBlend mode="normal" in2="BackgroundImageFix" result="effect1_dropShadow_11_91"/>
<feBlend mode="normal" in="SourceGraphic" in2="effect1_dropShadow_11_91" result="shape"/>
</filter>
<linearGradient id="paint0_linear_11_91" x1="61.6238" y1="715.37" x2="151.284" y2="718.185" gradientUnits="userSpaceOnUse">
<stop stop-color="#C5DCE4"/>
<stop offset="1" stop-color="#29363B"/>
</linearGradient>
</defs>
</svg>
