<svg width="600" height="900" viewBox="0 0 600 900" fill="none" xmlns="http://www.w3.org/2000/svg">
<g id="Floor 1">
<path id="Rectangle 3" d="M224 202.5H221.5V205V858V860.5H224H383H385.5V858V205V202.5H383H338V162V159.5H335.5H275.5H273V162V202.5H224Z" fill="#CBBEAD" stroke="#B0ADAB" stroke-width="5"/>
<path id="ladder" d="M245.682 653.795L286.5 653.795L286.5 674.5L224.5 674.5L224.5 589.5L286.5 589.5L286.5 611.843L245.682 611.843L245.182 611.843L245.182 612.343L245.182 632L245.182 653.295L245.182 653.795L245.682 653.795Z" fill="url(#paint0_linear_13_304)" stroke="#7B9199"/>
<path id="ladder_2" d="M297 176.799L297 204.5L275.5 204.5L275.5 162.5L334.5 162.5L334.5 204.5L314 204.5L314 176.799L314 176.299L313.5 176.299L306 176.299L297.5 176.299L297 176.299L297 176.799Z" fill="url(#paint1_linear_13_304)" stroke="#7B9199"/>
<path id="ladder_3" d="M382.5 666.5L345.5 666.5L345.5 597.5L382.5 597.5L382.5 616L382.5 621.684L382.5 640.105L382.5 649.333L382.5 666.5Z" fill="#DBDDDE" stroke="#7B9199"/>
<path id="name" d="M71.1539 37.4545H72.8869V48.9034H73.0289L80.9835 37.4545H82.688V52H80.9267V40.5795H80.7846L72.8585 52H71.1539V37.4545ZM93.2864 45.7784V47.3409H87.2637V45.7784H93.2864ZM87.6614 41.0909V52H85.9853V41.0909H87.6614ZM94.5648 41.0909V52H92.8887V41.0909H94.5648ZM102.058 52.2273C101.035 52.2273 100.154 51.9858 99.4157 51.5028C98.677 51.0199 98.1088 50.3546 97.7111 49.5071C97.3134 48.6596 97.1145 47.6913 97.1145 46.6023C97.1145 45.4943 97.3181 44.5166 97.7253 43.669C98.1373 42.8168 98.7102 42.1515 99.4441 41.6733C100.183 41.1903 101.044 40.9489 102.029 40.9489C102.796 40.9489 103.488 41.0909 104.103 41.375C104.719 41.6591 105.223 42.0568 105.616 42.5682C106.009 43.0795 106.253 43.6761 106.347 44.358H104.671C104.544 43.8608 104.259 43.4205 103.819 43.0369C103.383 42.6487 102.796 42.4545 102.058 42.4545C101.404 42.4545 100.831 42.625 100.339 42.9659C99.8513 43.3021 99.4701 43.7779 99.1955 44.3935C98.9256 45.0043 98.7907 45.7216 98.7907 46.5455C98.7907 47.3883 98.9232 48.1222 99.1884 48.7472C99.4583 49.3722 99.8371 49.8575 100.325 50.2031C100.817 50.5488 101.395 50.7216 102.058 50.7216C102.493 50.7216 102.889 50.6458 103.244 50.4943C103.599 50.3428 103.9 50.125 104.146 49.8409C104.392 49.5568 104.567 49.2159 104.671 48.8182H106.347C106.253 49.4621 106.018 50.0421 105.644 50.5582C105.275 51.0696 104.785 51.4768 104.174 51.7798C103.568 52.0781 102.863 52.2273 102.058 52.2273ZM107.938 42.6534V41.0909H116.802V42.6534H113.222V52H111.546V42.6534H107.938ZM120.923 49.5284L126.179 41.0909H128.111V52H126.434V43.5625L121.207 52H119.247V41.0909H120.923V49.5284ZM129.696 42.6534V41.0909H138.56V42.6534H134.98V52H133.304V42.6534H129.696ZM142.084 56.0909C141.8 56.0909 141.547 56.0672 141.324 56.0199C141.102 55.9773 140.948 55.9347 140.863 55.892L141.289 54.4148C141.696 54.5189 142.056 54.5568 142.368 54.5284C142.681 54.5 142.958 54.3603 143.199 54.1094C143.446 53.8632 143.671 53.4631 143.874 52.9091L144.187 52.0568L140.153 41.0909H141.971L144.982 49.7841H145.096L148.107 41.0909H149.925L145.295 53.5909C145.086 54.1544 144.828 54.6207 144.52 54.9901C144.213 55.3641 143.855 55.6411 143.448 55.821C143.046 56.0009 142.591 56.0909 142.084 56.0909ZM151.513 42.6534V41.0909H160.376V42.6534H156.797V52H155.121V42.6534H151.513ZM168.673 52V37.4545H173.759C174.772 37.4545 175.608 37.6297 176.266 37.9801C176.924 38.3258 177.414 38.7921 177.736 39.3793C178.058 39.9616 178.219 40.608 178.219 41.3182C178.219 41.9432 178.108 42.4593 177.885 42.8665C177.667 43.2737 177.378 43.5956 177.019 43.8324C176.664 44.0691 176.278 44.2443 175.861 44.358V44.5C176.306 44.5284 176.753 44.6847 177.203 44.9688C177.653 45.2528 178.03 45.66 178.333 46.1903C178.636 46.7206 178.787 47.3693 178.787 48.1364C178.787 48.8655 178.621 49.5213 178.29 50.1037C177.959 50.6861 177.435 51.1477 176.72 51.4886C176.005 51.8295 175.075 52 173.929 52H168.673ZM170.435 50.4375H173.929C175.08 50.4375 175.896 50.215 176.379 49.7699C176.867 49.3201 177.111 48.7756 177.111 48.1364C177.111 47.6439 176.985 47.1894 176.735 46.7727C176.484 46.3513 176.126 46.0152 175.662 45.7642C175.198 45.5085 174.649 45.3807 174.014 45.3807H170.435V50.4375ZM170.435 43.8466H173.702C174.232 43.8466 174.71 43.7424 175.137 43.5341C175.567 43.3258 175.908 43.0322 176.159 42.6534C176.415 42.2746 176.543 41.8295 176.543 41.3182C176.543 40.679 176.32 40.1368 175.875 39.6918C175.43 39.242 174.725 39.017 173.759 39.017H170.435V43.8466ZM182.903 45.0398H186.028C187.306 45.0398 188.284 45.3641 188.961 46.0128C189.638 46.6615 189.977 47.483 189.977 48.4773C189.977 49.1307 189.825 49.7249 189.522 50.2599C189.219 50.7902 188.774 51.214 188.187 51.5312C187.6 51.8438 186.88 52 186.028 52H181.454V41.0909H183.13V50.4375H186.028C186.691 50.4375 187.235 50.2623 187.661 49.9119C188.088 49.5616 188.301 49.1117 188.301 48.5625C188.301 47.9848 188.088 47.5137 187.661 47.1491C187.235 46.7846 186.691 46.6023 186.028 46.6023H182.903V45.0398ZM191.71 52V41.0909H193.386V52H191.71ZM200.886 52.2273C199.863 52.2273 198.982 51.9858 198.244 51.5028C197.505 51.0199 196.937 50.3546 196.539 49.5071C196.142 48.6596 195.943 47.6913 195.943 46.6023C195.943 45.4943 196.146 44.5166 196.553 43.669C196.965 42.8168 197.538 42.1515 198.272 41.6733C199.011 41.1903 199.873 40.9489 200.857 40.9489C201.624 40.9489 202.316 41.0909 202.931 41.375C203.547 41.6591 204.051 42.0568 204.444 42.5682C204.837 43.0795 205.081 43.6761 205.176 44.358H203.499C203.372 43.8608 203.088 43.4205 202.647 43.0369C202.212 42.6487 201.624 42.4545 200.886 42.4545C200.232 42.4545 199.66 42.625 199.167 42.9659C198.679 43.3021 198.298 43.7779 198.024 44.3935C197.754 45.0043 197.619 45.7216 197.619 46.5455C197.619 47.3883 197.751 48.1222 198.017 48.7472C198.286 49.3722 198.665 49.8575 199.153 50.2031C199.645 50.5488 200.223 50.7216 200.886 50.7216C201.321 50.7216 201.717 50.6458 202.072 50.4943C202.427 50.3428 202.728 50.125 202.974 49.8409C203.22 49.5568 203.395 49.2159 203.499 48.8182H205.176C205.081 49.4621 204.847 50.0421 204.472 50.5582C204.103 51.0696 203.613 51.4768 203.002 51.7798C202.396 52.0781 201.691 52.2273 200.886 52.2273ZM212.058 52.2273C211.073 52.2273 210.209 51.9929 209.465 51.5241C208.727 51.0554 208.149 50.3996 207.732 49.5568C207.32 48.714 207.115 47.7292 207.115 46.6023C207.115 45.4659 207.32 44.474 207.732 43.6264C208.149 42.7789 208.727 42.1207 209.465 41.652C210.209 41.1832 211.073 40.9489 212.058 40.9489C213.043 40.9489 213.904 41.1832 214.643 41.652C215.386 42.1207 215.964 42.7789 216.376 43.6264C216.793 44.474 217.001 45.4659 217.001 46.6023C217.001 47.7292 216.793 48.714 216.376 49.5568C215.964 50.3996 215.386 51.0554 214.643 51.5241C213.904 51.9929 213.043 52.2273 212.058 52.2273ZM212.058 50.7216C212.806 50.7216 213.421 50.5298 213.904 50.1463C214.387 49.7628 214.745 49.2585 214.977 48.6335C215.209 48.0085 215.325 47.3314 215.325 46.6023C215.325 45.8731 215.209 45.1937 214.977 44.5639C214.745 43.9342 214.387 43.4252 213.904 43.0369C213.421 42.6487 212.806 42.4545 212.058 42.4545C211.31 42.4545 210.694 42.6487 210.211 43.0369C209.728 43.4252 209.371 43.9342 209.139 44.5639C208.907 45.1937 208.791 45.8731 208.791 46.6023C208.791 47.3314 208.907 48.0085 209.139 48.6335C209.371 49.2585 209.728 49.7628 210.211 50.1463C210.694 50.5298 211.31 50.7216 212.058 50.7216ZM219.559 52V41.0909H221.236V45.8352H222.344L226.264 41.0909H228.423L224.02 46.3466L228.48 52H226.321L222.741 47.3977H221.236V52H219.559ZM231.978 49.5284L237.233 41.0909H239.165V52H237.489V43.5625L232.262 52H230.302V41.0909H231.978V49.5284ZM243.485 41.0909L246.099 45.5511L248.713 41.0909H250.644L247.122 46.5455L250.644 52H248.713L246.099 47.767L243.485 52H241.553L245.019 46.5455L241.553 41.0909H243.485ZM258.036 42.6534V41.0909H266.9V42.6534H263.32V52H261.644V42.6534H258.036ZM273.352 52.2273C272.301 52.2273 271.394 51.9953 270.632 51.5312C269.874 51.0625 269.29 50.4091 268.878 49.571C268.47 48.7282 268.267 47.7481 268.267 46.6307C268.267 45.5133 268.47 44.5284 268.878 43.6761C269.29 42.8191 269.863 42.1515 270.596 41.6733C271.335 41.1903 272.197 40.9489 273.182 40.9489C273.75 40.9489 274.311 41.0436 274.865 41.233C275.419 41.4223 275.923 41.7301 276.378 42.1562C276.832 42.5777 277.194 43.1364 277.464 43.8324C277.734 44.5284 277.869 45.3854 277.869 46.4034V47.1136H269.46V45.6648H276.165C276.165 45.0492 276.041 44.5 275.795 44.017C275.554 43.5341 275.208 43.1529 274.758 42.8736C274.313 42.5942 273.788 42.4545 273.182 42.4545C272.514 42.4545 271.936 42.6203 271.449 42.9517C270.966 43.2784 270.594 43.7045 270.334 44.2301C270.073 44.7557 269.943 45.3191 269.943 45.9205V46.8864C269.943 47.7102 270.085 48.4086 270.369 48.9815C270.658 49.5497 271.058 49.983 271.569 50.2812C272.081 50.5748 272.675 50.7216 273.352 50.7216C273.792 50.7216 274.19 50.66 274.545 50.5369C274.905 50.4091 275.215 50.2197 275.476 49.9688C275.736 49.7131 275.937 49.3958 276.079 49.017L277.699 49.4716C277.528 50.0208 277.242 50.5038 276.839 50.9205C276.437 51.3324 275.94 51.6544 275.348 51.8864C274.756 52.1136 274.091 52.2273 273.352 52.2273ZM281.376 41.0909L283.99 45.5511L286.603 41.0909H288.535L285.012 46.5455L288.535 52H286.603L283.99 47.767L281.376 52H279.444L282.91 46.5455L279.444 41.0909H281.376ZM298.228 45.7784V47.3409H292.205V45.7784H298.228ZM292.603 41.0909V52H290.927V41.0909H292.603ZM299.506 41.0909V52H297.83V41.0909H299.506ZM306.999 52.2273C306.014 52.2273 305.15 51.9929 304.407 51.5241C303.668 51.0554 303.09 50.3996 302.674 49.5568C302.262 48.714 302.056 47.7292 302.056 46.6023C302.056 45.4659 302.262 44.474 302.674 43.6264C303.09 42.7789 303.668 42.1207 304.407 41.652C305.15 41.1832 306.014 40.9489 306.999 40.9489C307.984 40.9489 308.846 41.1832 309.584 41.652C310.328 42.1207 310.905 42.7789 311.317 43.6264C311.734 44.474 311.942 45.4659 311.942 46.6023C311.942 47.7292 311.734 48.714 311.317 49.5568C310.905 50.3996 310.328 51.0554 309.584 51.5241C308.846 51.9929 307.984 52.2273 306.999 52.2273ZM306.999 50.7216C307.747 50.7216 308.363 50.5298 308.846 50.1463C309.329 49.7628 309.686 49.2585 309.918 48.6335C310.15 48.0085 310.266 47.3314 310.266 46.6023C310.266 45.8731 310.15 45.1937 309.918 44.5639C309.686 43.9342 309.329 43.4252 308.846 43.0369C308.363 42.6487 307.747 42.4545 306.999 42.4545C306.251 42.4545 305.635 42.6487 305.153 43.0369C304.67 43.4252 304.312 43.9342 304.08 44.5639C303.848 45.1937 303.732 45.8731 303.732 46.6023C303.732 47.3314 303.848 48.0085 304.08 48.6335C304.312 49.2585 304.67 49.7628 305.153 50.1463C305.635 50.5298 306.251 50.7216 306.999 50.7216ZM313.535 52V50.4375H313.933C314.259 50.4375 314.532 50.3736 314.749 50.2457C314.967 50.1132 315.142 49.8835 315.275 49.5568C315.412 49.2254 315.517 48.7661 315.588 48.179C315.663 47.5871 315.718 46.8343 315.751 45.9205L315.95 41.0909H323.222V52H321.546V42.6534H317.541L317.37 46.5455C317.332 47.4403 317.252 48.2287 317.129 48.9105C317.01 49.5876 316.828 50.1558 316.582 50.6151C316.34 51.0743 316.018 51.42 315.616 51.652C315.213 51.884 314.709 52 314.103 52H313.535ZM330.73 52.2273C329.745 52.2273 328.881 51.9929 328.137 51.5241C327.399 51.0554 326.821 50.3996 326.404 49.5568C325.992 48.714 325.786 47.7292 325.786 46.6023C325.786 45.4659 325.992 44.474 326.404 43.6264C326.821 42.7789 327.399 42.1207 328.137 41.652C328.881 41.1832 329.745 40.9489 330.73 40.9489C331.714 40.9489 332.576 41.1832 333.315 41.652C334.058 42.1207 334.636 42.7789 335.048 43.6264C335.464 44.474 335.673 45.4659 335.673 46.6023C335.673 47.7292 335.464 48.714 335.048 49.5568C334.636 50.3996 334.058 51.0554 333.315 51.5241C332.576 51.9929 331.714 52.2273 330.73 52.2273ZM330.73 50.7216C331.478 50.7216 332.093 50.5298 332.576 50.1463C333.059 49.7628 333.417 49.2585 333.649 48.6335C333.881 48.0085 333.997 47.3314 333.997 46.6023C333.997 45.8731 333.881 45.1937 333.649 44.5639C333.417 43.9342 333.059 43.4252 332.576 43.0369C332.093 42.6487 331.478 42.4545 330.73 42.4545C329.981 42.4545 329.366 42.6487 328.883 43.0369C328.4 43.4252 328.043 43.9342 327.811 44.5639C327.579 45.1937 327.463 45.8731 327.463 46.6023C327.463 47.3314 327.579 48.0085 327.811 48.6335C328.043 49.2585 328.4 49.7628 328.883 50.1463C329.366 50.5298 329.981 50.7216 330.73 50.7216ZM344.964 41.0909V42.6534H339.907V52H338.231V41.0909H344.964ZM349.087 49.5284L354.343 41.0909H356.275V52H354.599V43.5625L349.371 52H347.411V41.0909H349.087V49.5284ZM361.021 49.5284L366.276 41.0909H368.208V52H366.532V43.5625L361.305 52H359.345V41.0909H361.021V49.5284ZM365.169 37.4545H366.731C366.731 38.2216 366.466 38.849 365.936 39.3366C365.405 39.8243 364.686 40.0682 363.776 40.0682C362.882 40.0682 362.169 39.8243 361.639 39.3366C361.113 38.849 360.85 38.2216 360.85 37.4545H362.413C362.413 37.8239 362.515 38.1482 362.718 38.4276C362.927 38.7069 363.279 38.8466 363.776 38.8466C364.274 38.8466 364.629 38.7069 364.842 38.4276C365.06 38.1482 365.169 37.8239 365.169 37.4545ZM378.579 49.5284L383.835 41.0909H385.767V52H384.091V43.5625L378.863 52H376.903V41.0909H378.579V49.5284ZM405.57 37.4545V52H403.808V39.017H396.479V52H394.718V37.4545H405.57ZM410.344 45.0398H413.469C414.748 45.0398 415.725 45.3641 416.403 46.0128C417.08 46.6615 417.418 47.483 417.418 48.4773C417.418 49.1307 417.267 49.7249 416.964 50.2599C416.661 50.7902 416.215 51.214 415.628 51.5312C415.041 51.8438 414.322 52 413.469 52H408.895V41.0909H410.572V50.4375H413.469C414.132 50.4375 414.677 50.2623 415.103 49.9119C415.529 49.5616 415.742 49.1117 415.742 48.5625C415.742 47.9848 415.529 47.5137 415.103 47.1491C414.677 46.7846 414.132 46.6023 413.469 46.6023H410.344V45.0398ZM424.544 52.2273C423.492 52.2273 422.586 51.9953 421.823 51.5312C421.066 51.0625 420.481 50.4091 420.069 49.571C419.662 48.7282 419.458 47.7481 419.458 46.6307C419.458 45.5133 419.662 44.5284 420.069 43.6761C420.481 42.8191 421.054 42.1515 421.788 41.6733C422.526 41.1903 423.388 40.9489 424.373 40.9489C424.941 40.9489 425.502 41.0436 426.056 41.233C426.61 41.4223 427.115 41.7301 427.569 42.1562C428.024 42.5777 428.386 43.1364 428.656 43.8324C428.926 44.5284 429.061 45.3854 429.061 46.4034V47.1136H420.651V45.6648H427.356C427.356 45.0492 427.233 44.5 426.987 44.017C426.745 43.5341 426.4 43.1529 425.95 42.8736C425.505 42.5942 424.979 42.4545 424.373 42.4545C423.705 42.4545 423.128 42.6203 422.64 42.9517C422.157 43.2784 421.785 43.7045 421.525 44.2301C421.265 44.7557 421.134 45.3191 421.134 45.9205V46.8864C421.134 47.7102 421.276 48.4086 421.561 48.9815C421.849 49.5497 422.249 49.983 422.761 50.2812C423.272 50.5748 423.866 50.7216 424.544 50.7216C424.984 50.7216 425.382 50.66 425.737 50.5369C426.097 50.4091 426.407 50.2197 426.667 49.9688C426.927 49.7131 427.129 49.3958 427.271 49.017L428.89 49.4716C428.72 50.0208 428.433 50.5038 428.031 50.9205C427.628 51.3324 427.131 51.6544 426.539 51.8864C425.947 52.1136 425.282 52.2273 424.544 52.2273ZM430.928 49.2159H432.718C432.756 49.7083 432.979 50.0824 433.386 50.3381C433.798 50.5938 434.333 50.7216 434.991 50.7216C435.663 50.7216 436.239 50.5843 436.717 50.3097C437.195 50.0303 437.434 49.5805 437.434 48.9602C437.434 48.5956 437.344 48.2784 437.164 48.0085C436.984 47.7339 436.731 47.5208 436.404 47.3693C436.078 47.2178 435.692 47.142 435.247 47.142H433.372V45.6364H435.247C435.914 45.6364 436.407 45.4848 436.724 45.1818C437.046 44.8788 437.207 44.5 437.207 44.0455C437.207 43.5578 437.034 43.1671 436.688 42.8736C436.343 42.5753 435.853 42.4261 435.218 42.4261C434.579 42.4261 434.046 42.5705 433.62 42.8594C433.194 43.1435 432.969 43.5104 432.945 43.9602H431.184C431.203 43.3731 431.383 42.8546 431.724 42.4048C432.065 41.9503 432.529 41.5952 433.116 41.3395C433.703 41.0791 434.375 40.9489 435.133 40.9489C435.9 40.9489 436.565 41.0838 437.129 41.3537C437.697 41.6188 438.135 41.9811 438.443 42.4403C438.755 42.8949 438.911 43.411 438.911 43.9886C438.911 44.6042 438.739 45.1013 438.393 45.4801C438.047 45.8589 437.614 46.1288 437.093 46.2898V46.4034C437.505 46.4318 437.863 46.5644 438.166 46.8011C438.473 47.0331 438.713 47.3385 438.883 47.7173C439.053 48.0914 439.139 48.5057 439.139 48.9602C439.139 49.6231 438.961 50.2008 438.606 50.6932C438.251 51.1809 437.763 51.5597 437.143 51.8295C436.523 52.0947 435.815 52.2273 435.019 52.2273C434.248 52.2273 433.556 52.1018 432.945 51.8509C432.335 51.5952 431.849 51.2424 431.49 50.7926C431.134 50.3381 430.947 49.8125 430.928 49.2159ZM445.925 52.2273C444.94 52.2273 444.076 51.9929 443.333 51.5241C442.594 51.0554 442.016 50.3996 441.6 49.5568C441.188 48.714 440.982 47.7292 440.982 46.6023C440.982 45.4659 441.188 44.474 441.6 43.6264C442.016 42.7789 442.594 42.1207 443.333 41.652C444.076 41.1832 444.94 40.9489 445.925 40.9489C446.91 40.9489 447.771 41.1832 448.51 41.652C449.253 42.1207 449.831 42.7789 450.243 43.6264C450.66 44.474 450.868 45.4659 450.868 46.6023C450.868 47.7292 450.66 48.714 450.243 49.5568C449.831 50.3996 449.253 51.0554 448.51 51.5241C447.771 51.9929 446.91 52.2273 445.925 52.2273ZM445.925 50.7216C446.673 50.7216 447.289 50.5298 447.771 50.1463C448.254 49.7628 448.612 49.2585 448.844 48.6335C449.076 48.0085 449.192 47.3314 449.192 46.6023C449.192 45.8731 449.076 45.1937 448.844 44.5639C448.612 43.9342 448.254 43.4252 447.771 43.0369C447.289 42.6487 446.673 42.4545 445.925 42.4545C445.177 42.4545 444.561 42.6487 444.078 43.0369C443.595 43.4252 443.238 43.9342 443.006 44.5639C442.774 45.1937 442.658 45.8731 442.658 46.6023C442.658 47.3314 442.774 48.0085 443.006 48.6335C443.238 49.2585 443.595 49.7628 444.078 50.1463C444.561 50.5298 445.177 50.7216 445.925 50.7216ZM452.001 42.6534V41.0909H460.865V42.6534H457.285V52H455.609V42.6534H452.001ZM467.317 52.2273C466.266 52.2273 465.359 51.9953 464.597 51.5312C463.839 51.0625 463.254 50.4091 462.843 49.571C462.435 48.7282 462.232 47.7481 462.232 46.6307C462.232 45.5133 462.435 44.5284 462.843 43.6761C463.254 42.8191 463.827 42.1515 464.561 41.6733C465.3 41.1903 466.162 40.9489 467.146 40.9489C467.715 40.9489 468.276 41.0436 468.83 41.233C469.384 41.4223 469.888 41.7301 470.343 42.1562C470.797 42.5777 471.159 43.1364 471.429 43.8324C471.699 44.5284 471.834 45.3854 471.834 46.4034V47.1136H463.425V45.6648H470.129C470.129 45.0492 470.006 44.5 469.76 44.017C469.519 43.5341 469.173 43.1529 468.723 42.8736C468.278 42.5942 467.753 42.4545 467.146 42.4545C466.479 42.4545 465.901 42.6203 465.414 42.9517C464.931 43.2784 464.559 43.7045 464.298 44.2301C464.038 44.7557 463.908 45.3191 463.908 45.9205V46.8864C463.908 47.7102 464.05 48.4086 464.334 48.9815C464.623 49.5497 465.023 49.983 465.534 50.2812C466.046 50.5748 466.64 50.7216 467.317 50.7216C467.757 50.7216 468.155 50.66 468.51 50.5369C468.87 50.4091 469.18 50.2197 469.441 49.9688C469.701 49.7131 469.902 49.3958 470.044 49.017L471.664 49.4716C471.493 50.0208 471.207 50.5038 470.804 50.9205C470.402 51.3324 469.905 51.6544 469.313 51.8864C468.721 52.1136 468.056 52.2273 467.317 52.2273ZM475.341 41.0909L477.954 45.5511L480.568 41.0909H482.5L478.977 46.5455L482.5 52H480.568L477.954 47.767L475.341 52H473.409L476.875 46.5455L473.409 41.0909H475.341ZM492.193 45.7784V47.3409H486.17V45.7784H492.193ZM486.568 41.0909V52H484.892V41.0909H486.568ZM493.471 41.0909V52H491.795V41.0909H493.471ZM498.208 49.5284L503.464 41.0909H505.396V52H503.72V43.5625L498.492 52H496.532V41.0909H498.208V49.5284ZM508.466 52V41.0909H510.142V45.8352H511.25L515.17 41.0909H517.329L512.926 46.3466L517.386 52H515.227L511.648 47.3977H510.142V52H508.466ZM520.884 49.5284L526.14 41.0909H528.072V52H526.395V43.5625L521.168 52H519.208V41.0909H520.884V49.5284Z" fill="black"/>
<g id="floor_name">
<path d="M276.055 74.5455V92H272.365V78.0483H272.263L268.266 80.554V77.2812L272.587 74.5455H276.055ZM290.634 81.6193C290.224 81.6193 289.861 81.6989 289.543 81.858C289.224 82.017 288.974 82.2386 288.793 82.5227C288.616 82.8011 288.528 83.1307 288.528 83.5114H285.264C285.264 82.8011 285.401 82.1534 285.673 81.5682C285.946 80.9773 286.327 80.4687 286.815 80.0426C287.304 79.6108 287.872 79.2784 288.52 79.0455C289.173 78.8125 289.878 78.696 290.634 78.696C291.952 78.696 293.06 78.9915 293.957 79.5824C294.861 80.1676 295.543 80.9602 296.003 81.9602C296.469 82.9545 296.702 84.071 296.702 85.3097V85.625C296.702 86.8693 296.472 87.9915 296.011 88.9915C295.551 89.9915 294.869 90.7841 293.966 91.3693C293.068 91.9489 291.957 92.2386 290.634 92.2386C289.577 92.2386 288.645 92.0312 287.838 91.6165C287.031 91.196 286.401 90.6023 285.946 89.8352C285.491 89.0625 285.264 88.1449 285.264 87.0824H288.528C288.528 87.4858 288.614 87.8551 288.784 88.1903C288.955 88.5256 289.196 88.7926 289.509 88.9915C289.827 89.1903 290.202 89.2926 290.634 89.2983C291.31 89.2926 291.835 89.1023 292.21 88.7273C292.591 88.3523 292.855 87.8835 293.003 87.321C293.156 86.7528 293.233 86.1875 293.233 85.625V85.3097C293.233 84.6903 293.153 84.0994 292.994 83.5369C292.841 82.9744 292.574 82.5142 292.193 82.1562C291.818 81.7983 291.298 81.6193 290.634 81.6193ZM294.281 84.3807V86.5284H289.653V84.3807H294.281ZM297.814 81.7642V78.9091H309.678V81.7642H305.459V92H301.999V81.7642H297.814ZM315.143 92.2472C314.308 92.2472 313.563 92.1023 312.91 91.8125C312.256 91.517 311.739 91.0824 311.359 90.5085C310.984 89.929 310.796 89.2074 310.796 88.3438C310.796 87.6165 310.93 87.0057 311.197 86.5114C311.464 86.017 311.827 85.6193 312.288 85.3182C312.748 85.017 313.271 84.7898 313.856 84.6364C314.447 84.483 315.066 84.375 315.714 84.3125C316.475 84.233 317.089 84.1591 317.555 84.0909C318.021 84.017 318.359 83.9091 318.569 83.767C318.779 83.625 318.884 83.4148 318.884 83.1364V83.0852C318.884 82.5455 318.714 82.1278 318.373 81.8324C318.038 81.5369 317.56 81.3892 316.941 81.3892C316.288 81.3892 315.768 81.5341 315.381 81.8239C314.995 82.108 314.739 82.4659 314.614 82.8977L311.256 82.625C311.427 81.8295 311.762 81.142 312.262 80.5625C312.762 79.9773 313.407 79.5284 314.197 79.2159C314.992 78.8977 315.913 78.7386 316.958 78.7386C317.685 78.7386 318.381 78.8239 319.046 78.9943C319.717 79.1648 320.31 79.429 320.827 79.7869C321.35 80.1449 321.762 80.6051 322.063 81.1676C322.364 81.7244 322.515 82.392 322.515 83.1705V92H319.072V90.1847H318.969C318.759 90.5938 318.478 90.9545 318.126 91.267C317.773 91.5739 317.35 91.8153 316.856 91.9915C316.362 92.1619 315.79 92.2472 315.143 92.2472ZM316.183 89.7415C316.717 89.7415 317.188 89.6364 317.597 89.4261C318.006 89.2102 318.327 88.9205 318.56 88.5568C318.793 88.1932 318.91 87.7812 318.91 87.321V85.9318C318.796 86.0057 318.64 86.0739 318.441 86.1364C318.248 86.1932 318.029 86.2472 317.785 86.2983C317.54 86.3437 317.296 86.3864 317.052 86.4261C316.808 86.4602 316.586 86.4915 316.387 86.5199C315.961 86.5824 315.589 86.6818 315.271 86.8182C314.952 86.9545 314.705 87.1392 314.529 87.3722C314.353 87.5994 314.265 87.8835 314.265 88.2244C314.265 88.7188 314.444 89.0966 314.802 89.358C315.165 89.6136 315.626 89.7415 316.183 89.7415ZM324.479 92L329.056 85.1903L324.505 78.9091H328.647L332.048 84.0312H332.61V78.9091H336.241V84.0312H336.786L340.187 78.9091H344.329L339.786 85.1903L344.354 92H340.119L336.752 86.8864H336.241V92H332.61V86.8864H332.099L328.715 92H324.479Z" fill="black"/>
<path d="M267.047 96.7727H344.951V98.4091H267.047V96.7727Z" fill="black"/>
</g>
<rect id="toilet" x="224.5" y="487.5" width="62" height="96" fill="#D8E4C2" stroke="#899474"/>
<path id="text_room_toilet" d="M233.092 530.912V529.818H240.729V530.912H237.527V540H236.294V530.912H233.092ZM242.353 542.864C242.154 542.864 241.977 542.847 241.821 542.814C241.665 542.784 241.558 542.754 241.498 542.724L241.796 541.69C242.081 541.763 242.333 541.79 242.552 541.77C242.771 541.75 242.964 541.652 243.134 541.477C243.306 541.304 243.463 541.024 243.606 540.636L243.825 540.04L241.001 532.364H242.273L244.381 538.449H244.461L246.569 532.364H247.842L244.6 541.114C244.454 541.508 244.274 541.835 244.058 542.093C243.843 542.355 243.593 542.549 243.308 542.675C243.026 542.801 242.708 542.864 242.353 542.864ZM251.405 540.179C250.921 540.179 250.482 540.088 250.088 539.906C249.693 539.72 249.38 539.453 249.148 539.105C248.916 538.754 248.8 538.33 248.8 537.832C248.8 537.395 248.886 537.04 249.058 536.768C249.231 536.493 249.461 536.278 249.749 536.122C250.038 535.966 250.356 535.85 250.704 535.774C251.055 535.695 251.408 535.632 251.763 535.585C252.227 535.526 252.603 535.481 252.892 535.451C253.183 535.418 253.395 535.363 253.528 535.287C253.664 535.211 253.732 535.078 253.732 534.889V534.849C253.732 534.359 253.597 533.978 253.329 533.706C253.064 533.434 252.661 533.298 252.121 533.298C251.561 533.298 251.122 533.421 250.803 533.666C250.485 533.911 250.262 534.173 250.132 534.452L249.019 534.054C249.218 533.59 249.483 533.229 249.814 532.97C250.149 532.708 250.513 532.526 250.908 532.423C251.306 532.317 251.697 532.264 252.081 532.264C252.326 532.264 252.608 532.294 252.926 532.354C253.248 532.41 253.558 532.528 253.856 532.707C254.158 532.886 254.408 533.156 254.607 533.517C254.806 533.878 254.905 534.362 254.905 534.969V540H253.732V538.966H253.672C253.593 539.132 253.46 539.309 253.274 539.498C253.089 539.687 252.842 539.848 252.534 539.98C252.225 540.113 251.849 540.179 251.405 540.179ZM251.584 539.125C252.048 539.125 252.439 539.034 252.757 538.852C253.079 538.669 253.321 538.434 253.483 538.146C253.649 537.857 253.732 537.554 253.732 537.236V536.162C253.682 536.222 253.573 536.276 253.404 536.326C253.238 536.372 253.046 536.414 252.827 536.45C252.611 536.483 252.401 536.513 252.195 536.54C251.993 536.563 251.829 536.583 251.703 536.599C251.398 536.639 251.113 536.704 250.848 536.793C250.586 536.879 250.374 537.01 250.212 537.186C250.053 537.358 249.973 537.594 249.973 537.892C249.973 538.3 250.124 538.608 250.426 538.817C250.731 539.022 251.117 539.125 251.584 539.125ZM256.37 540V538.906H256.649C256.877 538.906 257.068 538.862 257.221 538.772C257.373 538.679 257.496 538.518 257.588 538.29C257.685 538.058 257.757 537.736 257.807 537.325C257.86 536.911 257.898 536.384 257.922 535.744L258.061 532.364H263.152V540H261.978V533.457H259.174L259.055 536.182C259.029 536.808 258.972 537.36 258.886 537.837C258.803 538.311 258.676 538.709 258.503 539.031C258.334 539.352 258.109 539.594 257.827 539.756C257.545 539.919 257.192 540 256.768 540H256.37ZM268.506 540.159C267.77 540.159 267.136 539.997 266.602 539.672C266.072 539.344 265.662 538.886 265.374 538.3C265.089 537.71 264.946 537.024 264.946 536.241C264.946 535.459 265.089 534.77 265.374 534.173C265.662 533.573 266.063 533.106 266.577 532.771C267.094 532.433 267.697 532.264 268.387 532.264C268.784 532.264 269.177 532.33 269.565 532.463C269.953 532.596 270.306 532.811 270.624 533.109C270.942 533.404 271.196 533.795 271.385 534.283C271.574 534.77 271.668 535.37 271.668 536.082V536.58H265.782V535.565H270.475C270.475 535.134 270.389 534.75 270.216 534.412C270.047 534.074 269.805 533.807 269.49 533.612C269.179 533.416 268.811 533.318 268.387 533.318C267.919 533.318 267.515 533.434 267.174 533.666C266.836 533.895 266.575 534.193 266.393 534.561C266.211 534.929 266.12 535.323 266.12 535.744V536.42C266.12 536.997 266.219 537.486 266.418 537.887C266.62 538.285 266.9 538.588 267.258 538.797C267.616 539.002 268.032 539.105 268.506 539.105C268.814 539.105 269.093 539.062 269.341 538.976C269.593 538.886 269.81 538.754 269.993 538.578C270.175 538.399 270.316 538.177 270.415 537.912L271.549 538.23C271.429 538.615 271.229 538.953 270.947 539.244C270.665 539.533 270.317 539.758 269.903 539.92C269.489 540.08 269.023 540.159 268.506 540.159ZM272.742 533.457V532.364H278.946V533.457H276.441V540H275.267V533.457H272.742Z" fill="black"/>
<rect id="room_109" x="224.5" y="389.5" width="62" height="97" fill="#D8E4C2" stroke="#899474"/>
<rect id="room_108" x="224.5" y="292.5" width="62" height="96" fill="#D8E4C2" stroke="#899474"/>
<rect id="room_107" x="224.5" y="205.5" width="62" height="86" fill="#D8E4C2" stroke="#899474"/>
<rect id="room_106" x="329.5" y="524.5" width="53" height="59" fill="#D8E4C2" stroke="#899474"/>
<rect id="room_105" x="329.5" y="463.5" width="53" height="60" fill="#D8E4C2" stroke="#899474"/>
<rect id="room_104" x="329.5" y="403.5" width="53" height="59" fill="#D8E4C2" stroke="#899474"/>
<rect id="room_103" x="329.5" y="342.5" width="53" height="60" fill="#D8E4C2" stroke="#899474"/>
<rect id="room_102" x="329.5" y="282.5" width="53" height="59" fill="#D8E4C2" stroke="#899474"/>
<rect id="room_101" x="329.5" y="205.5" width="53" height="76" fill="#D8E4C2" stroke="#899474"/>
<line id="Line 1" x1="383" y1="586.5" x2="224" y2="586.5" stroke="#B0ADAB" stroke-width="5"/>
<path id="text_room_109" d="M234.491 440H233.383L236.588 431.273H237.678L240.883 440H239.775L237.167 432.653H237.099L234.491 440ZM234.9 436.591H239.366V437.528H234.9V436.591ZM241.933 442.455C241.763 442.455 241.611 442.44 241.477 442.412C241.344 442.386 241.252 442.361 241.2 442.335L241.456 441.449C241.7 441.511 241.916 441.534 242.104 441.517C242.291 441.5 242.458 441.416 242.602 441.266C242.75 441.118 242.885 440.878 243.007 440.545L243.195 440.034L240.774 433.455H241.865L243.672 438.67H243.74L245.547 433.455H246.638L243.86 440.955C243.735 441.293 243.58 441.572 243.395 441.794C243.21 442.018 242.996 442.185 242.752 442.293C242.51 442.401 242.237 442.455 241.933 442.455ZM246.716 441.875V439.062H247.261C247.395 438.923 247.51 438.773 247.606 438.611C247.703 438.449 247.787 438.257 247.858 438.036C247.932 437.811 247.994 437.538 248.045 437.217C248.096 436.893 248.142 436.503 248.182 436.045L248.403 433.455H252.562V439.062H253.568V441.875H252.562V440H247.721V441.875H246.716ZM248.403 439.062H251.557V434.392H249.341L249.17 436.045C249.099 436.73 249.011 437.328 248.906 437.839C248.801 438.351 248.633 438.759 248.403 439.062ZM261.329 431.273V440H260.272V432.381H260.221L258.09 433.795V432.722L260.272 431.273H261.329ZM266.686 440.119C266.044 440.119 265.497 439.945 265.045 439.595C264.593 439.243 264.248 438.733 264.009 438.065C263.771 437.395 263.651 436.585 263.651 435.636C263.651 434.693 263.771 433.888 264.009 433.22C264.251 432.55 264.597 432.038 265.049 431.686C265.504 431.331 266.049 431.153 266.686 431.153C267.322 431.153 267.866 431.331 268.318 431.686C268.772 432.038 269.119 432.55 269.357 433.22C269.599 433.888 269.72 434.693 269.72 435.636C269.72 436.585 269.6 437.395 269.362 438.065C269.123 438.733 268.778 439.243 268.326 439.595C267.874 439.945 267.328 440.119 266.686 440.119ZM266.686 439.182C267.322 439.182 267.816 438.875 268.169 438.261C268.521 437.648 268.697 436.773 268.697 435.636C268.697 434.881 268.616 434.237 268.454 433.706C268.295 433.175 268.065 432.77 267.764 432.491C267.465 432.213 267.106 432.074 266.686 432.074C266.055 432.074 265.562 432.385 265.207 433.007C264.852 433.626 264.674 434.503 264.674 435.636C264.674 436.392 264.754 437.034 264.913 437.562C265.072 438.091 265.301 438.493 265.599 438.768C265.9 439.044 266.262 439.182 266.686 439.182ZM274.117 431.153C274.475 431.156 274.833 431.224 275.191 431.358C275.549 431.491 275.876 431.713 276.171 432.023C276.467 432.33 276.704 432.749 276.883 433.28C277.062 433.811 277.151 434.477 277.151 435.278C277.151 436.054 277.078 436.743 276.93 437.345C276.785 437.945 276.575 438.45 276.299 438.862C276.026 439.274 275.694 439.587 275.302 439.8C274.913 440.013 274.472 440.119 273.981 440.119C273.492 440.119 273.056 440.023 272.673 439.83C272.292 439.634 271.98 439.362 271.735 439.016C271.494 438.666 271.339 438.261 271.271 437.801H272.311C272.404 438.202 272.59 438.533 272.869 438.794C273.15 439.053 273.521 439.182 273.981 439.182C274.654 439.182 275.186 438.888 275.575 438.3C275.967 437.712 276.163 436.881 276.163 435.807H276.095C275.936 436.045 275.747 436.251 275.528 436.425C275.309 436.598 275.066 436.732 274.799 436.825C274.532 436.919 274.248 436.966 273.947 436.966C273.447 436.966 272.988 436.842 272.57 436.595C272.156 436.345 271.823 436.003 271.573 435.568C271.326 435.131 271.203 434.631 271.203 434.068C271.203 433.534 271.322 433.045 271.561 432.602C271.802 432.156 272.14 431.801 272.575 431.537C273.012 431.273 273.526 431.145 274.117 431.153ZM274.117 432.091C273.759 432.091 273.437 432.18 273.15 432.359C272.866 432.536 272.64 432.774 272.472 433.075C272.308 433.374 272.225 433.705 272.225 434.068C272.225 434.432 272.305 434.763 272.464 435.061C272.626 435.357 272.846 435.592 273.124 435.768C273.406 435.942 273.725 436.028 274.083 436.028C274.353 436.028 274.605 435.976 274.838 435.871C275.07 435.763 275.274 435.616 275.447 435.432C275.623 435.244 275.761 435.033 275.86 434.797C275.96 434.558 276.009 434.31 276.009 434.051C276.009 433.71 275.927 433.391 275.762 433.092C275.6 432.794 275.376 432.553 275.089 432.368C274.805 432.183 274.481 432.091 274.117 432.091Z" fill="black"/>
<path id="text_room_108" d="M234.538 344H233.43L236.634 335.273H237.725L240.93 344H239.822L237.214 336.653H237.146L234.538 344ZM234.947 340.591H239.413V341.528H234.947V340.591ZM241.98 346.455C241.81 346.455 241.658 346.44 241.524 346.412C241.391 346.386 241.298 346.361 241.247 346.335L241.503 345.449C241.747 345.511 241.963 345.534 242.151 345.517C242.338 345.5 242.504 345.416 242.649 345.266C242.797 345.118 242.932 344.878 243.054 344.545L243.242 344.034L240.821 337.455H241.912L243.719 342.67H243.787L245.594 337.455H246.685L243.906 344.955C243.781 345.293 243.627 345.572 243.442 345.794C243.257 346.018 243.043 346.185 242.798 346.293C242.557 346.401 242.284 346.455 241.98 346.455ZM246.763 345.875V343.062H247.308C247.442 342.923 247.557 342.773 247.653 342.611C247.75 342.449 247.834 342.257 247.905 342.036C247.979 341.811 248.041 341.538 248.092 341.217C248.143 340.893 248.189 340.503 248.229 340.045L248.45 337.455H252.609V343.062H253.615V345.875H252.609V344H247.768V345.875H246.763ZM248.45 343.062H251.604V338.392H249.388L249.217 340.045C249.146 340.73 249.058 341.328 248.953 341.839C248.848 342.351 248.68 342.759 248.45 343.062ZM261.376 335.273V344H260.319V336.381H260.268L258.137 337.795V336.722L260.319 335.273H261.376ZM266.732 344.119C266.09 344.119 265.544 343.945 265.092 343.595C264.64 343.243 264.295 342.733 264.056 342.065C263.818 341.395 263.698 340.585 263.698 339.636C263.698 338.693 263.818 337.888 264.056 337.22C264.298 336.55 264.644 336.038 265.096 335.686C265.551 335.331 266.096 335.153 266.732 335.153C267.369 335.153 267.913 335.331 268.365 335.686C268.819 336.038 269.166 336.55 269.404 337.22C269.646 337.888 269.767 338.693 269.767 339.636C269.767 340.585 269.647 341.395 269.409 342.065C269.17 342.733 268.825 343.243 268.373 343.595C267.921 343.945 267.374 344.119 266.732 344.119ZM266.732 343.182C267.369 343.182 267.863 342.875 268.215 342.261C268.568 341.648 268.744 340.773 268.744 339.636C268.744 338.881 268.663 338.237 268.501 337.706C268.342 337.175 268.112 336.77 267.811 336.491C267.512 336.213 267.153 336.074 266.732 336.074C266.102 336.074 265.609 336.385 265.254 337.007C264.899 337.626 264.721 338.503 264.721 339.636C264.721 340.392 264.801 341.034 264.96 341.562C265.119 342.091 265.347 342.493 265.646 342.768C265.947 343.044 266.309 343.182 266.732 343.182ZM274.181 344.119C273.596 344.119 273.079 344.016 272.63 343.808C272.184 343.598 271.836 343.31 271.586 342.943C271.336 342.574 271.213 342.153 271.215 341.682C271.213 341.312 271.285 340.972 271.433 340.659C271.58 340.344 271.782 340.081 272.038 339.871C272.296 339.658 272.585 339.523 272.903 339.466V339.415C272.485 339.307 272.153 339.072 271.906 338.712C271.659 338.348 271.536 337.935 271.539 337.472C271.536 337.028 271.649 336.632 271.876 336.283C272.103 335.933 272.416 335.658 272.813 335.456C273.214 335.254 273.67 335.153 274.181 335.153C274.687 335.153 275.139 335.254 275.536 335.456C275.934 335.658 276.247 335.933 276.474 336.283C276.704 336.632 276.82 337.028 276.823 337.472C276.82 337.935 276.694 338.348 276.444 338.712C276.197 339.072 275.869 339.307 275.46 339.415V339.466C275.775 339.523 276.059 339.658 276.312 339.871C276.565 340.081 276.767 340.344 276.917 340.659C277.068 340.972 277.144 341.312 277.147 341.682C277.144 342.153 277.017 342.574 276.764 342.943C276.514 343.31 276.166 343.598 275.72 343.808C275.276 344.016 274.764 344.119 274.181 344.119ZM274.181 343.182C274.576 343.182 274.917 343.118 275.204 342.99C275.491 342.862 275.713 342.682 275.869 342.449C276.025 342.216 276.105 341.943 276.107 341.631C276.105 341.301 276.019 341.01 275.852 340.757C275.684 340.504 275.455 340.305 275.166 340.161C274.879 340.016 274.551 339.943 274.181 339.943C273.809 339.943 273.477 340.016 273.184 340.161C272.894 340.305 272.666 340.504 272.498 340.757C272.333 341.01 272.252 341.301 272.255 341.631C272.252 341.943 272.328 342.216 272.481 342.449C272.637 342.682 272.86 342.862 273.15 342.99C273.44 343.118 273.784 343.182 274.181 343.182ZM274.181 339.04C274.494 339.04 274.771 338.977 275.012 338.852C275.257 338.727 275.448 338.553 275.588 338.328C275.727 338.104 275.798 337.841 275.801 337.54C275.798 337.244 275.728 336.987 275.592 336.768C275.455 336.547 275.267 336.376 275.025 336.257C274.784 336.135 274.502 336.074 274.181 336.074C273.855 336.074 273.569 336.135 273.325 336.257C273.08 336.376 272.892 336.547 272.758 336.768C272.624 336.987 272.559 337.244 272.562 337.54C272.559 337.841 272.626 338.104 272.762 338.328C272.901 338.553 273.093 338.727 273.338 338.852C273.582 338.977 273.863 339.04 274.181 339.04Z" fill="black"/>
<path id="text_room_107" d="M233.425 252H232.317L235.521 243.273H236.612L239.817 252H238.709L236.101 244.653H236.032L233.425 252ZM233.834 248.591H238.3V249.528H233.834V248.591ZM240.867 254.455C240.697 254.455 240.545 254.44 240.411 254.412C240.278 254.386 240.185 254.361 240.134 254.335L240.39 253.449C240.634 253.511 240.85 253.534 241.037 253.517C241.225 253.5 241.391 253.416 241.536 253.266C241.684 253.118 241.819 252.878 241.941 252.545L242.128 252.034L239.708 245.455H240.799L242.606 250.67H242.674L244.481 245.455H245.572L242.793 252.955C242.668 253.293 242.513 253.572 242.329 253.794C242.144 254.018 241.93 254.185 241.685 254.293C241.444 254.401 241.171 254.455 240.867 254.455ZM245.649 253.875V251.062H246.195C246.328 250.923 246.443 250.773 246.54 250.611C246.637 250.449 246.72 250.257 246.791 250.036C246.865 249.811 246.928 249.538 246.979 249.217C247.03 248.893 247.075 248.503 247.115 248.045L247.337 245.455H251.496V251.062H252.502V253.875H251.496V252H246.655V253.875H245.649ZM247.337 251.062H250.49V246.392H248.274L248.104 248.045C248.033 248.73 247.945 249.328 247.84 249.839C247.735 250.351 247.567 250.759 247.337 251.062ZM260.263 243.273V252H259.206V244.381H259.155L257.024 245.795V244.722L259.206 243.273H260.263ZM265.619 252.119C264.977 252.119 264.43 251.945 263.979 251.595C263.527 251.243 263.182 250.733 262.943 250.065C262.704 249.395 262.585 248.585 262.585 247.636C262.585 246.693 262.704 245.888 262.943 245.22C263.184 244.55 263.531 244.038 263.983 243.686C264.437 243.331 264.983 243.153 265.619 243.153C266.256 243.153 266.8 243.331 267.251 243.686C267.706 244.038 268.052 244.55 268.291 245.22C268.532 245.888 268.653 246.693 268.653 247.636C268.653 248.585 268.534 249.395 268.295 250.065C268.057 250.733 267.711 251.243 267.26 251.595C266.808 251.945 266.261 252.119 265.619 252.119ZM265.619 251.182C266.256 251.182 266.75 250.875 267.102 250.261C267.454 249.648 267.631 248.773 267.631 247.636C267.631 246.881 267.55 246.237 267.388 245.706C267.229 245.175 266.998 244.77 266.697 244.491C266.399 244.213 266.04 244.074 265.619 244.074C264.988 244.074 264.496 244.385 264.14 245.007C263.785 245.626 263.608 246.503 263.608 247.636C263.608 248.392 263.687 249.034 263.846 249.562C264.006 250.091 264.234 250.493 264.532 250.768C264.834 251.044 265.196 251.182 265.619 251.182ZM270.311 252L274.214 244.278V244.21H269.714V243.273H275.305V244.261L271.419 252H270.311Z" fill="black"/>
<path id="text_room_106" d="M334.491 557H333.383L336.588 548.273H337.678L340.883 557H339.775L337.167 549.653H337.099L334.491 557ZM334.9 553.591H339.366V554.528H334.9V553.591ZM341.933 559.455C341.763 559.455 341.611 559.44 341.477 559.412C341.344 559.386 341.252 559.361 341.2 559.335L341.456 558.449C341.7 558.511 341.916 558.534 342.104 558.517C342.291 558.5 342.458 558.416 342.602 558.266C342.75 558.118 342.885 557.878 343.007 557.545L343.195 557.034L340.774 550.455H341.865L343.672 555.67H343.74L345.547 550.455H346.638L343.86 557.955C343.735 558.293 343.58 558.572 343.395 558.794C343.21 559.018 342.996 559.185 342.752 559.293C342.51 559.401 342.237 559.455 341.933 559.455ZM346.716 558.875V556.062H347.261C347.395 555.923 347.51 555.773 347.606 555.611C347.703 555.449 347.787 555.257 347.858 555.036C347.932 554.811 347.994 554.538 348.045 554.217C348.096 553.893 348.142 553.503 348.182 553.045L348.403 550.455H352.562V556.062H353.568V558.875H352.562V557H347.721V558.875H346.716ZM348.403 556.062H351.557V551.392H349.341L349.17 553.045C349.099 553.73 349.011 554.328 348.906 554.839C348.801 555.351 348.633 555.759 348.403 556.062ZM361.329 548.273V557H360.272V549.381H360.221L358.09 550.795V549.722L360.272 548.273H361.329ZM366.686 557.119C366.044 557.119 365.497 556.945 365.045 556.595C364.593 556.243 364.248 555.733 364.009 555.065C363.771 554.395 363.651 553.585 363.651 552.636C363.651 551.693 363.771 550.888 364.009 550.22C364.251 549.55 364.597 549.038 365.049 548.686C365.504 548.331 366.049 548.153 366.686 548.153C367.322 548.153 367.866 548.331 368.318 548.686C368.772 549.038 369.119 549.55 369.357 550.22C369.599 550.888 369.72 551.693 369.72 552.636C369.72 553.585 369.6 554.395 369.362 555.065C369.123 555.733 368.778 556.243 368.326 556.595C367.874 556.945 367.328 557.119 366.686 557.119ZM366.686 556.182C367.322 556.182 367.816 555.875 368.169 555.261C368.521 554.648 368.697 553.773 368.697 552.636C368.697 551.881 368.616 551.237 368.454 550.706C368.295 550.175 368.065 549.77 367.764 549.491C367.465 549.213 367.106 549.074 366.686 549.074C366.055 549.074 365.562 549.385 365.207 550.007C364.852 550.626 364.674 551.503 364.674 552.636C364.674 553.392 364.754 554.034 364.913 554.562C365.072 555.091 365.301 555.493 365.599 555.768C365.9 556.044 366.262 556.182 366.686 556.182ZM374.237 557.119C373.879 557.114 373.521 557.045 373.163 556.915C372.805 556.784 372.478 556.564 372.183 556.254C371.887 555.942 371.65 555.52 371.471 554.989C371.292 554.455 371.203 553.784 371.203 552.977C371.203 552.205 371.275 551.52 371.42 550.923C371.565 550.324 371.775 549.82 372.051 549.411C372.326 548.999 372.659 548.686 373.048 548.473C373.44 548.26 373.882 548.153 374.373 548.153C374.862 548.153 375.296 548.251 375.677 548.447C376.061 548.641 376.373 548.911 376.615 549.257C376.856 549.604 377.012 550.003 377.083 550.455H376.044C375.947 550.062 375.759 549.737 375.481 549.479C375.203 549.22 374.833 549.091 374.373 549.091C373.697 549.091 373.164 549.385 372.775 549.973C372.389 550.561 372.194 551.386 372.191 552.449H372.259C372.419 552.207 372.607 552.001 372.826 551.831C373.048 551.658 373.292 551.524 373.559 551.43C373.826 551.337 374.109 551.29 374.407 551.29C374.907 551.29 375.365 551.415 375.779 551.665C376.194 551.912 376.526 552.254 376.776 552.692C377.026 553.126 377.151 553.625 377.151 554.188C377.151 554.727 377.031 555.222 376.789 555.67C376.548 556.116 376.208 556.472 375.771 556.736C375.336 556.997 374.825 557.125 374.237 557.119ZM374.237 556.182C374.595 556.182 374.916 556.092 375.2 555.913C375.487 555.734 375.713 555.494 375.877 555.193C376.045 554.892 376.129 554.557 376.129 554.188C376.129 553.827 376.048 553.499 375.886 553.203C375.727 552.905 375.507 552.668 375.225 552.491C374.947 552.315 374.629 552.227 374.271 552.227C374.001 552.227 373.749 552.281 373.517 552.389C373.284 552.494 373.079 552.639 372.903 552.824C372.73 553.009 372.593 553.22 372.494 553.459C372.394 553.695 372.345 553.943 372.345 554.205C372.345 554.551 372.426 554.875 372.588 555.176C372.752 555.477 372.977 555.72 373.261 555.905C373.548 556.089 373.873 556.182 374.237 556.182Z" fill="black"/>
<path id="text_room_105" d="M334.585 497H333.477L336.681 488.273H337.772L340.977 497H339.869L337.261 489.653H337.193L334.585 497ZM334.994 493.591H339.46V494.528H334.994V493.591ZM342.027 499.455C341.857 499.455 341.705 499.44 341.571 499.412C341.438 499.386 341.345 499.361 341.294 499.335L341.55 498.449C341.794 498.511 342.01 498.534 342.198 498.517C342.385 498.5 342.551 498.416 342.696 498.266C342.844 498.118 342.979 497.878 343.101 497.545L343.289 497.034L340.868 490.455H341.959L343.766 495.67H343.834L345.641 490.455H346.732L343.953 497.955C343.828 498.293 343.673 498.572 343.489 498.794C343.304 499.018 343.09 499.185 342.845 499.293C342.604 499.401 342.331 499.455 342.027 499.455ZM346.809 498.875V496.062H347.355C347.488 495.923 347.604 495.773 347.7 495.611C347.797 495.449 347.881 495.257 347.952 495.036C348.025 494.811 348.088 494.538 348.139 494.217C348.19 493.893 348.236 493.503 348.275 493.045L348.497 490.455H352.656V496.062H353.662V498.875H352.656V497H347.815V498.875H346.809ZM348.497 496.062H351.65V491.392H349.434L349.264 493.045C349.193 493.73 349.105 494.328 349 494.839C348.895 495.351 348.727 495.759 348.497 496.062ZM361.423 488.273V497H360.366V489.381H360.315L358.184 490.795V489.722L360.366 488.273H361.423ZM366.779 497.119C366.137 497.119 365.59 496.945 365.139 496.595C364.687 496.243 364.342 495.733 364.103 495.065C363.865 494.395 363.745 493.585 363.745 492.636C363.745 491.693 363.865 490.888 364.103 490.22C364.345 489.55 364.691 489.038 365.143 488.686C365.597 488.331 366.143 488.153 366.779 488.153C367.416 488.153 367.96 488.331 368.411 488.686C368.866 489.038 369.213 489.55 369.451 490.22C369.693 490.888 369.813 491.693 369.813 492.636C369.813 493.585 369.694 494.395 369.455 495.065C369.217 495.733 368.872 496.243 368.42 496.595C367.968 496.945 367.421 497.119 366.779 497.119ZM366.779 496.182C367.416 496.182 367.91 495.875 368.262 495.261C368.615 494.648 368.791 493.773 368.791 492.636C368.791 491.881 368.71 491.237 368.548 490.706C368.389 490.175 368.159 489.77 367.857 489.491C367.559 489.213 367.2 489.074 366.779 489.074C366.149 489.074 365.656 489.385 365.301 490.007C364.945 490.626 364.768 491.503 364.768 492.636C364.768 493.392 364.847 494.034 365.007 494.562C365.166 495.091 365.394 495.493 365.693 495.768C365.994 496.044 366.356 496.182 366.779 496.182ZM374.16 497.119C373.66 497.119 373.21 497.02 372.809 496.821C372.409 496.622 372.088 496.349 371.846 496.003C371.605 495.656 371.472 495.261 371.45 494.818H372.472C372.512 495.213 372.691 495.54 373.009 495.798C373.33 496.054 373.714 496.182 374.16 496.182C374.518 496.182 374.836 496.098 375.115 495.93C375.396 495.763 375.616 495.533 375.775 495.24C375.937 494.945 376.018 494.611 376.018 494.239C376.018 493.858 375.934 493.518 375.767 493.22C375.602 492.919 375.374 492.682 375.085 492.509C374.795 492.335 374.464 492.247 374.092 492.244C373.825 492.241 373.551 492.283 373.269 492.368C372.988 492.45 372.757 492.557 372.575 492.688L371.586 492.568L372.115 488.273H376.649V489.21H373.001L372.694 491.784H372.745C372.924 491.642 373.149 491.524 373.419 491.43C373.688 491.337 373.97 491.29 374.262 491.29C374.796 491.29 375.272 491.418 375.69 491.673C376.11 491.926 376.44 492.273 376.678 492.713C376.92 493.153 377.041 493.656 377.041 494.222C377.041 494.778 376.916 495.276 376.666 495.713C376.419 496.148 376.078 496.491 375.643 496.744C375.208 496.994 374.714 497.119 374.16 497.119Z" fill="black"/>
<path id="text_room_104" d="M333.885 436H332.778L335.982 427.273H337.073L340.278 436H339.17L336.562 428.653H336.493L333.885 436ZM334.295 432.591H338.76V433.528H334.295V432.591ZM341.328 438.455C341.157 438.455 341.006 438.44 340.872 438.412C340.738 438.386 340.646 438.361 340.595 438.335L340.851 437.449C341.095 437.511 341.311 437.534 341.498 437.517C341.686 437.5 341.852 437.416 341.997 437.266C342.145 437.118 342.28 436.878 342.402 436.545L342.589 436.034L340.169 429.455H341.26L343.067 434.67H343.135L344.942 429.455H346.032L343.254 436.955C343.129 437.293 342.974 437.572 342.79 437.794C342.605 438.018 342.39 438.185 342.146 438.293C341.905 438.401 341.632 438.455 341.328 438.455ZM346.11 437.875V435.062H346.656C346.789 434.923 346.904 434.773 347.001 434.611C347.097 434.449 347.181 434.257 347.252 434.036C347.326 433.811 347.389 433.538 347.44 433.217C347.491 432.893 347.536 432.503 347.576 432.045L347.798 429.455H351.957V435.062H352.963V437.875H351.957V436H347.116V437.875H346.11ZM347.798 435.062H350.951V430.392H348.735L348.565 432.045C348.494 432.73 348.406 433.328 348.301 433.839C348.195 434.351 348.028 434.759 347.798 435.062ZM360.724 427.273V436H359.667V428.381H359.616L357.485 429.795V428.722L359.667 427.273H360.724ZM366.08 436.119C365.438 436.119 364.891 435.945 364.439 435.595C363.988 435.243 363.643 434.733 363.404 434.065C363.165 433.395 363.046 432.585 363.046 431.636C363.046 430.693 363.165 429.888 363.404 429.22C363.645 428.55 363.992 428.038 364.444 427.686C364.898 427.331 365.444 427.153 366.08 427.153C366.716 427.153 367.26 427.331 367.712 427.686C368.167 428.038 368.513 428.55 368.752 429.22C368.993 429.888 369.114 430.693 369.114 431.636C369.114 432.585 368.995 433.395 368.756 434.065C368.518 434.733 368.172 435.243 367.721 435.595C367.269 435.945 366.722 436.119 366.08 436.119ZM366.08 435.182C366.716 435.182 367.211 434.875 367.563 434.261C367.915 433.648 368.091 432.773 368.091 431.636C368.091 430.881 368.01 430.237 367.849 429.706C367.689 429.175 367.459 428.77 367.158 428.491C366.86 428.213 366.501 428.074 366.08 428.074C365.449 428.074 364.956 428.385 364.601 429.007C364.246 429.626 364.069 430.503 364.069 431.636C364.069 432.392 364.148 433.034 364.307 433.562C364.466 434.091 364.695 434.493 364.993 434.768C365.295 435.044 365.657 435.182 366.08 435.182ZM370.529 434.21V433.341L374.364 427.273H374.995V428.619H374.569L371.671 433.205V433.273H376.836V434.21H370.529ZM374.637 436V433.946V433.541V427.273H375.643V436H374.637Z" fill="black"/>
<path id="text_room_103" d="M334.415 376H333.307L336.511 367.273H337.602L340.807 376H339.699L337.091 368.653H337.023L334.415 376ZM334.824 372.591H339.29V373.528H334.824V372.591ZM341.857 378.455C341.687 378.455 341.535 378.44 341.401 378.412C341.268 378.386 341.175 378.361 341.124 378.335L341.38 377.449C341.624 377.511 341.84 377.534 342.028 377.517C342.215 377.5 342.381 377.416 342.526 377.266C342.674 377.118 342.809 376.878 342.931 376.545L343.119 376.034L340.698 369.455H341.789L343.596 374.67H343.664L345.471 369.455H346.562L343.783 376.955C343.658 377.293 343.504 377.572 343.319 377.794C343.134 378.018 342.92 378.185 342.675 378.293C342.434 378.401 342.161 378.455 341.857 378.455ZM346.64 377.875V375.062H347.185C347.319 374.923 347.434 374.773 347.53 374.611C347.627 374.449 347.711 374.257 347.782 374.036C347.855 373.811 347.918 373.538 347.969 373.217C348.02 372.893 348.066 372.503 348.105 372.045L348.327 369.455H352.486V375.062H353.492V377.875H352.486V376H347.645V377.875H346.64ZM348.327 375.062H351.48V370.392H349.265L349.094 372.045C349.023 372.73 348.935 373.328 348.83 373.839C348.725 374.351 348.557 374.759 348.327 375.062ZM361.253 367.273V376H360.196V368.381H360.145L358.014 369.795V368.722L360.196 367.273H361.253ZM366.609 376.119C365.967 376.119 365.42 375.945 364.969 375.595C364.517 375.243 364.172 374.733 363.933 374.065C363.695 373.395 363.575 372.585 363.575 371.636C363.575 370.693 363.695 369.888 363.933 369.22C364.175 368.55 364.521 368.038 364.973 367.686C365.428 367.331 365.973 367.153 366.609 367.153C367.246 367.153 367.79 367.331 368.241 367.686C368.696 368.038 369.043 368.55 369.281 369.22C369.523 369.888 369.643 370.693 369.643 371.636C369.643 372.585 369.524 373.395 369.286 374.065C369.047 374.733 368.702 375.243 368.25 375.595C367.798 375.945 367.251 376.119 366.609 376.119ZM366.609 375.182C367.246 375.182 367.74 374.875 368.092 374.261C368.445 373.648 368.621 372.773 368.621 371.636C368.621 370.881 368.54 370.237 368.378 369.706C368.219 369.175 367.989 368.77 367.688 368.491C367.389 368.213 367.03 368.074 366.609 368.074C365.979 368.074 365.486 368.385 365.131 369.007C364.776 369.626 364.598 370.503 364.598 371.636C364.598 372.392 364.678 373.034 364.837 373.562C364.996 374.091 365.224 374.493 365.523 374.768C365.824 375.044 366.186 375.182 366.609 375.182ZM374.212 376.119C373.649 376.119 373.148 376.023 372.707 375.83C372.27 375.636 371.922 375.368 371.663 375.024C371.408 374.678 371.268 374.276 371.246 373.818H372.32C372.342 374.099 372.439 374.342 372.609 374.547C372.78 374.749 373.003 374.905 373.278 375.016C373.554 375.126 373.859 375.182 374.195 375.182C374.57 375.182 374.902 375.116 375.192 374.986C375.482 374.855 375.709 374.673 375.874 374.44C376.038 374.207 376.121 373.938 376.121 373.631C376.121 373.31 376.041 373.027 375.882 372.783C375.723 372.536 375.49 372.342 375.183 372.203C374.876 372.064 374.501 371.994 374.058 371.994H373.359V371.057H374.058C374.405 371.057 374.709 370.994 374.97 370.869C375.234 370.744 375.44 370.568 375.588 370.341C375.739 370.114 375.814 369.847 375.814 369.54C375.814 369.244 375.749 368.987 375.618 368.768C375.487 368.55 375.303 368.379 375.064 368.257C374.828 368.135 374.55 368.074 374.229 368.074C373.928 368.074 373.643 368.129 373.376 368.24C373.112 368.348 372.896 368.506 372.729 368.713C372.561 368.918 372.47 369.165 372.456 369.455H371.433C371.45 368.997 371.588 368.597 371.847 368.253C372.105 367.906 372.443 367.636 372.861 367.443C373.281 367.25 373.743 367.153 374.246 367.153C374.786 367.153 375.249 367.263 375.635 367.482C376.021 367.697 376.318 367.983 376.526 368.338C376.733 368.693 376.837 369.077 376.837 369.489C376.837 369.98 376.707 370.399 376.449 370.746C376.193 371.092 375.845 371.332 375.405 371.466V371.534C375.956 371.625 376.386 371.859 376.696 372.237C377.006 372.612 377.161 373.077 377.161 373.631C377.161 374.105 377.031 374.531 376.773 374.909C376.517 375.284 376.168 375.58 375.724 375.795C375.281 376.011 374.777 376.119 374.212 376.119Z" fill="black"/>
<path id="text_room_102" d="M334.602 315H333.494L336.699 306.273H337.79L340.994 315H339.886L337.278 307.653H337.21L334.602 315ZM335.011 311.591H339.477V312.528H335.011V311.591ZM342.045 317.455C341.874 317.455 341.722 317.44 341.589 317.412C341.455 317.386 341.363 317.361 341.312 317.335L341.567 316.449C341.812 316.511 342.028 316.534 342.215 316.517C342.403 316.5 342.569 316.416 342.714 316.266C342.862 316.118 342.996 315.878 343.119 315.545L343.306 315.034L340.886 308.455H341.977L343.783 313.67H343.852L345.658 308.455H346.749L343.971 315.955C343.846 316.293 343.691 316.572 343.506 316.794C343.322 317.018 343.107 317.185 342.863 317.293C342.621 317.401 342.349 317.455 342.045 317.455ZM346.827 316.875V314.062H347.373C347.506 313.923 347.621 313.773 347.718 313.611C347.814 313.449 347.898 313.257 347.969 313.036C348.043 312.811 348.105 312.538 348.157 312.217C348.208 311.893 348.253 311.503 348.293 311.045L348.515 308.455H352.674V314.062H353.679V316.875H352.674V315H347.833V316.875H346.827ZM348.515 314.062H351.668V309.392H349.452L349.282 311.045C349.211 311.73 349.123 312.328 349.017 312.839C348.912 313.351 348.745 313.759 348.515 314.062ZM361.44 306.273V315H360.384V307.381H360.332L358.202 308.795V307.722L360.384 306.273H361.44ZM366.797 315.119C366.155 315.119 365.608 314.945 365.156 314.595C364.705 314.243 364.359 313.733 364.121 313.065C363.882 312.395 363.763 311.585 363.763 310.636C363.763 309.693 363.882 308.888 364.121 308.22C364.362 307.55 364.709 307.038 365.161 306.686C365.615 306.331 366.161 306.153 366.797 306.153C367.433 306.153 367.977 306.331 368.429 306.686C368.884 307.038 369.23 307.55 369.469 308.22C369.71 308.888 369.831 309.693 369.831 310.636C369.831 311.585 369.712 312.395 369.473 313.065C369.234 313.733 368.889 314.243 368.438 314.595C367.986 314.945 367.439 315.119 366.797 315.119ZM366.797 314.182C367.433 314.182 367.928 313.875 368.28 313.261C368.632 312.648 368.808 311.773 368.808 310.636C368.808 309.881 368.727 309.237 368.565 308.706C368.406 308.175 368.176 307.77 367.875 307.491C367.577 307.213 367.217 307.074 366.797 307.074C366.166 307.074 365.673 307.385 365.318 308.007C364.963 308.626 364.786 309.503 364.786 310.636C364.786 311.392 364.865 312.034 365.024 312.562C365.183 313.091 365.412 313.493 365.71 313.768C366.011 314.044 366.374 314.182 366.797 314.182ZM371.45 315V314.233L374.331 311.08C374.669 310.71 374.947 310.389 375.166 310.116C375.385 309.841 375.547 309.582 375.652 309.341C375.76 309.097 375.814 308.841 375.814 308.574C375.814 308.267 375.74 308.001 375.592 307.777C375.447 307.553 375.249 307.379 374.996 307.257C374.743 307.135 374.459 307.074 374.143 307.074C373.808 307.074 373.516 307.143 373.266 307.283C373.018 307.419 372.827 307.611 372.69 307.858C372.557 308.105 372.49 308.395 372.49 308.727H371.484C371.484 308.216 371.602 307.767 371.838 307.381C372.074 306.994 372.395 306.693 372.801 306.477C373.21 306.261 373.669 306.153 374.178 306.153C374.689 306.153 375.142 306.261 375.537 306.477C375.932 306.693 376.241 306.984 376.466 307.351C376.69 307.717 376.803 308.125 376.803 308.574C376.803 308.895 376.744 309.209 376.628 309.516C376.514 309.82 376.315 310.159 376.031 310.534C375.75 310.906 375.359 311.361 374.859 311.898L372.899 313.994V314.062H376.956V315H371.45Z" fill="black"/>
<path id="text_room_101" d="M335.446 247H334.338L337.543 238.273H338.634L341.838 247H340.73L338.122 239.653H338.054L335.446 247ZM335.855 243.591H340.321V244.528H335.855V243.591ZM342.888 249.455C342.718 249.455 342.566 249.44 342.433 249.412C342.299 249.386 342.207 249.361 342.156 249.335L342.411 248.449C342.656 248.511 342.871 248.534 343.059 248.517C343.246 248.5 343.413 248.416 343.558 248.266C343.705 248.118 343.84 247.878 343.962 247.545L344.15 247.034L341.729 240.455H342.82L344.627 245.67H344.695L346.502 240.455H347.593L344.815 247.955C344.69 248.293 344.535 248.572 344.35 248.794C344.165 249.018 343.951 249.185 343.707 249.293C343.465 249.401 343.192 249.455 342.888 249.455ZM347.671 248.875V246.062H348.216C348.35 245.923 348.465 245.773 348.561 245.611C348.658 245.449 348.742 245.257 348.813 245.036C348.887 244.811 348.949 244.538 349 244.217C349.051 243.893 349.097 243.503 349.137 243.045L349.358 240.455H353.517V246.062H354.523V248.875H353.517V247H348.676V248.875H347.671ZM349.358 246.062H352.512V241.392H350.296L350.125 243.045C350.054 243.73 349.966 244.328 349.861 244.839C349.756 245.351 349.588 245.759 349.358 246.062ZM362.284 238.273V247H361.227V239.381H361.176L359.045 240.795V239.722L361.227 238.273H362.284ZM367.641 247.119C366.999 247.119 366.452 246.945 366 246.595C365.548 246.243 365.203 245.733 364.964 245.065C364.726 244.395 364.607 243.585 364.607 242.636C364.607 241.693 364.726 240.888 364.964 240.22C365.206 239.55 365.553 239.038 366.004 238.686C366.459 238.331 367.004 238.153 367.641 238.153C368.277 238.153 368.821 238.331 369.273 238.686C369.727 239.038 370.074 239.55 370.312 240.22C370.554 240.888 370.675 241.693 370.675 242.636C370.675 243.585 370.555 244.395 370.317 245.065C370.078 245.733 369.733 246.243 369.281 246.595C368.83 246.945 368.283 247.119 367.641 247.119ZM367.641 246.182C368.277 246.182 368.771 245.875 369.124 245.261C369.476 244.648 369.652 243.773 369.652 242.636C369.652 241.881 369.571 241.237 369.409 240.706C369.25 240.175 369.02 239.77 368.719 239.491C368.42 239.213 368.061 239.074 367.641 239.074C367.01 239.074 366.517 239.385 366.162 240.007C365.807 240.626 365.629 241.503 365.629 242.636C365.629 243.392 365.709 244.034 365.868 244.562C366.027 245.091 366.256 245.493 366.554 245.768C366.855 246.044 367.217 246.182 367.641 246.182ZM375.362 238.273V247H374.305V239.381H374.254L372.124 240.795V239.722L374.305 238.273H375.362Z" fill="black"/>
<path id="entrance" d="M236 722.536L246.909 722.536L246.909 726.996C246.909 728.171 246.644 729.103 246.114 729.795C245.583 730.486 244.883 730.831 244.011 730.831C243.348 730.831 242.835 730.635 242.47 730.242C242.11 729.849 241.866 729.345 241.739 728.729C241.682 729.132 241.54 729.522 241.312 729.901C241.085 730.285 240.773 730.602 240.375 730.853C239.982 731.104 239.499 731.229 238.926 731.229C238.367 731.229 237.868 731.087 237.428 730.803C236.987 730.519 236.639 730.112 236.384 729.581C236.128 729.051 236 728.417 236 727.678L236 722.536ZM237.534 724.127L237.534 727.678C237.534 728.256 237.671 728.708 237.946 729.035C238.221 729.361 238.595 729.525 239.068 729.525C239.632 729.525 240.074 729.361 240.396 729.035C240.723 728.708 240.886 728.256 240.886 727.678L240.886 724.127L237.534 724.127ZM242.335 724.127L242.335 726.996C242.335 727.446 242.397 727.832 242.52 728.154C242.648 728.476 242.828 728.722 243.06 728.893C243.296 729.068 243.576 729.155 243.898 729.155C244.357 729.155 244.717 728.964 244.977 728.58C245.242 728.197 245.375 727.669 245.375 726.996L245.375 724.127L242.335 724.127ZM246.909 735.017L242.449 737.63L246.909 740.244L246.909 742.176L241.455 738.653L236 742.176L236 740.244L240.233 737.63L236 735.017L236 733.085L241.455 736.551L246.909 733.085L246.909 735.017ZM235.773 748.55C235.773 747.565 236.007 746.701 236.476 745.958C236.945 745.219 237.6 744.641 238.443 744.225C239.286 743.813 240.271 743.607 241.398 743.607C242.534 743.607 243.526 743.813 244.374 744.225C245.221 744.641 245.879 745.219 246.348 745.958C246.817 746.701 247.051 747.565 247.051 748.55C247.051 749.535 246.817 750.396 246.348 751.135C245.879 751.878 245.221 752.456 244.374 752.868C243.526 753.285 242.534 753.493 241.398 753.493C240.271 753.493 239.286 753.285 238.443 752.868C237.6 752.456 236.945 751.878 236.476 751.135C236.007 750.396 235.773 749.535 235.773 748.55ZM237.278 748.55C237.278 749.298 237.47 749.914 237.854 750.396C238.237 750.879 238.741 751.237 239.366 751.469C239.991 751.701 240.669 751.817 241.398 751.817C242.127 751.817 242.806 751.701 243.436 751.469C244.066 751.237 244.575 750.879 244.963 750.396C245.351 749.914 245.545 749.298 245.545 748.55C245.545 747.802 245.351 747.186 244.963 746.703C244.575 746.22 244.066 745.863 243.436 745.631C242.806 745.399 242.127 745.283 241.398 745.283C240.669 745.283 239.991 745.399 239.366 745.631C238.741 745.863 238.237 746.22 237.854 746.703C237.47 747.186 237.278 747.802 237.278 748.55ZM232.875 754.887L237.562 754.887L237.562 755.796C237.795 756.019 238.045 756.21 238.315 756.371C238.585 756.532 238.905 756.672 239.274 756.79C239.648 756.913 240.103 757.018 240.638 757.103C241.178 757.188 241.829 757.264 242.591 757.33L246.909 757.699L246.909 764.631L237.562 764.631L237.562 766.307L232.875 766.307L232.875 764.631L236 764.631L236 756.563L232.875 756.563L232.875 754.887ZM237.562 757.699L237.562 762.955L245.347 762.955L245.347 759.262L242.591 758.978C241.45 758.859 240.453 758.713 239.601 758.537C238.749 758.362 238.069 758.083 237.562 757.699Z" fill="black"/>
<path id="Arrow_in" d="M211.414 745.414C212.195 744.633 212.195 743.367 211.414 742.586L198.686 729.858C197.905 729.077 196.639 729.077 195.858 729.858C195.077 730.639 195.077 731.905 195.858 732.686L207.172 744L195.858 755.314C195.077 756.095 195.077 757.361 195.858 758.142C196.639 758.923 197.905 758.923 198.686 758.142L211.414 745.414ZM177 746L210 746V742L177 742V746Z" fill="#393837"/>
</g>
<defs>
<linearGradient id="paint0_linear_13_304" x1="275.136" y1="594.324" x2="273.087" y2="666.4" gradientUnits="userSpaceOnUse">
<stop stop-color="#C5DCE4"/>
<stop offset="1" stop-color="#29363B"/>
</linearGradient>
<linearGradient id="paint1_linear_13_304" x1="331.41" y1="196.903" x2="282.799" y2="195.537" gradientUnits="userSpaceOnUse">
<stop stop-color="#C5DCE4"/>
<stop offset="1" stop-color="#29363B"/>
</linearGradient>
</defs>
</svg>
