<svg width="600" height="900" viewBox="0 0 600 900" fill="none" xmlns="http://www.w3.org/2000/svg">
<g id="Floor 5">
<path id="Rectangle 5" d="M250 212.289H301.5V178H361.5V212.289H409V733H250V212.289Z" fill="#696560" fill-opacity="0.54"/>
<path id="Rectangle 3" d="M240 200.042H291.5V166H351.5V200.042H399V717H240V200.042Z" fill="#696560"/>
<path id="Rectangle 4" d="M224 192.182H221.5V194.682V691V693.5H224H383H385.5V691V194.682V192.182H383H338V153V150.5H335.5H275.5H273V153V192.182H224Z" fill="#CBBEAD" stroke="#B0ADAB" stroke-width="5"/>
<path id="ladder" d="M245.682 653.795L286.5 653.795L286.5 674.5L224.5 674.5L224.5 589.5L286.5 589.5L286.5 611.843L245.682 611.843L245.182 611.843L245.182 612.343L245.182 632L245.182 653.295L245.182 653.795L245.682 653.795Z" fill="url(#paint0_linear_14_362)" stroke="#7B9199"/>
<path id="ladder_2" d="M298 166.799L298 194.5L276.5 194.5L276.5 152.5L335.5 152.5L335.5 194.5L315 194.5L315 166.799L315 166.299L314.5 166.299L307 166.299L298.5 166.299L298 166.299L298 166.799Z" fill="url(#paint1_linear_14_362)" stroke="#7B9199"/>
<path id="ladder_3" d="M382.5 666.5L345.5 666.5L345.5 597.5L382.5 597.5L382.5 616L382.5 621.684L382.5 640.105L382.5 649.333L382.5 666.5Z" fill="#DBDDDE" stroke="#7B9199"/>
<path id="name" d="M71.1539 37.4545H72.8869V48.9034H73.0289L80.9835 37.4545H82.688V52H80.9267V40.5795H80.7846L72.8585 52H71.1539V37.4545ZM93.2864 45.7784V47.3409H87.2637V45.7784H93.2864ZM87.6614 41.0909V52H85.9853V41.0909H87.6614ZM94.5648 41.0909V52H92.8887V41.0909H94.5648ZM102.058 52.2273C101.035 52.2273 100.154 51.9858 99.4157 51.5028C98.677 51.0199 98.1088 50.3546 97.7111 49.5071C97.3134 48.6596 97.1145 47.6913 97.1145 46.6023C97.1145 45.4943 97.3181 44.5166 97.7253 43.669C98.1373 42.8168 98.7102 42.1515 99.4441 41.6733C100.183 41.1903 101.044 40.9489 102.029 40.9489C102.796 40.9489 103.488 41.0909 104.103 41.375C104.719 41.6591 105.223 42.0568 105.616 42.5682C106.009 43.0795 106.253 43.6761 106.347 44.358H104.671C104.544 43.8608 104.259 43.4205 103.819 43.0369C103.383 42.6487 102.796 42.4545 102.058 42.4545C101.404 42.4545 100.831 42.625 100.339 42.9659C99.8513 43.3021 99.4701 43.7779 99.1955 44.3935C98.9256 45.0043 98.7907 45.7216 98.7907 46.5455C98.7907 47.3883 98.9232 48.1222 99.1884 48.7472C99.4583 49.3722 99.8371 49.8575 100.325 50.2031C100.817 50.5488 101.395 50.7216 102.058 50.7216C102.493 50.7216 102.889 50.6458 103.244 50.4943C103.599 50.3428 103.9 50.125 104.146 49.8409C104.392 49.5568 104.567 49.2159 104.671 48.8182H106.347C106.253 49.4621 106.018 50.0421 105.644 50.5582C105.275 51.0696 104.785 51.4768 104.174 51.7798C103.568 52.0781 102.863 52.2273 102.058 52.2273ZM107.938 42.6534V41.0909H116.802V42.6534H113.222V52H111.546V42.6534H107.938ZM120.923 49.5284L126.179 41.0909H128.111V52H126.434V43.5625L121.207 52H119.247V41.0909H120.923V49.5284ZM129.696 42.6534V41.0909H138.56V42.6534H134.98V52H133.304V42.6534H129.696ZM142.084 56.0909C141.8 56.0909 141.547 56.0672 141.324 56.0199C141.102 55.9773 140.948 55.9347 140.863 55.892L141.289 54.4148C141.696 54.5189 142.056 54.5568 142.368 54.5284C142.681 54.5 142.958 54.3603 143.199 54.1094C143.446 53.8632 143.671 53.4631 143.874 52.9091L144.187 52.0568L140.153 41.0909H141.971L144.982 49.7841H145.096L148.107 41.0909H149.925L145.295 53.5909C145.086 54.1544 144.828 54.6207 144.52 54.9901C144.213 55.3641 143.855 55.6411 143.448 55.821C143.046 56.0009 142.591 56.0909 142.084 56.0909ZM151.513 42.6534V41.0909H160.376V42.6534H156.797V52H155.121V42.6534H151.513ZM168.673 52V37.4545H173.759C174.772 37.4545 175.608 37.6297 176.266 37.9801C176.924 38.3258 177.414 38.7921 177.736 39.3793C178.058 39.9616 178.219 40.608 178.219 41.3182C178.219 41.9432 178.108 42.4593 177.885 42.8665C177.667 43.2737 177.378 43.5956 177.019 43.8324C176.664 44.0691 176.278 44.2443 175.861 44.358V44.5C176.306 44.5284 176.753 44.6847 177.203 44.9688C177.653 45.2528 178.03 45.66 178.333 46.1903C178.636 46.7206 178.787 47.3693 178.787 48.1364C178.787 48.8655 178.621 49.5213 178.29 50.1037C177.959 50.6861 177.435 51.1477 176.72 51.4886C176.005 51.8295 175.075 52 173.929 52H168.673ZM170.435 50.4375H173.929C175.08 50.4375 175.896 50.215 176.379 49.7699C176.867 49.3201 177.111 48.7756 177.111 48.1364C177.111 47.6439 176.985 47.1894 176.735 46.7727C176.484 46.3513 176.126 46.0152 175.662 45.7642C175.198 45.5085 174.649 45.3807 174.014 45.3807H170.435V50.4375ZM170.435 43.8466H173.702C174.232 43.8466 174.71 43.7424 175.137 43.5341C175.567 43.3258 175.908 43.0322 176.159 42.6534C176.415 42.2746 176.543 41.8295 176.543 41.3182C176.543 40.679 176.32 40.1368 175.875 39.6918C175.43 39.242 174.725 39.017 173.759 39.017H170.435V43.8466ZM182.903 45.0398H186.028C187.306 45.0398 188.284 45.3641 188.961 46.0128C189.638 46.6615 189.977 47.483 189.977 48.4773C189.977 49.1307 189.825 49.7249 189.522 50.2599C189.219 50.7902 188.774 51.214 188.187 51.5312C187.6 51.8438 186.88 52 186.028 52H181.454V41.0909H183.13V50.4375H186.028C186.691 50.4375 187.235 50.2623 187.661 49.9119C188.088 49.5616 188.301 49.1117 188.301 48.5625C188.301 47.9848 188.088 47.5137 187.661 47.1491C187.235 46.7846 186.691 46.6023 186.028 46.6023H182.903V45.0398ZM191.71 52V41.0909H193.386V52H191.71ZM200.886 52.2273C199.863 52.2273 198.982 51.9858 198.244 51.5028C197.505 51.0199 196.937 50.3546 196.539 49.5071C196.142 48.6596 195.943 47.6913 195.943 46.6023C195.943 45.4943 196.146 44.5166 196.553 43.669C196.965 42.8168 197.538 42.1515 198.272 41.6733C199.011 41.1903 199.873 40.9489 200.857 40.9489C201.624 40.9489 202.316 41.0909 202.931 41.375C203.547 41.6591 204.051 42.0568 204.444 42.5682C204.837 43.0795 205.081 43.6761 205.176 44.358H203.499C203.372 43.8608 203.088 43.4205 202.647 43.0369C202.212 42.6487 201.624 42.4545 200.886 42.4545C200.232 42.4545 199.66 42.625 199.167 42.9659C198.679 43.3021 198.298 43.7779 198.024 44.3935C197.754 45.0043 197.619 45.7216 197.619 46.5455C197.619 47.3883 197.751 48.1222 198.017 48.7472C198.286 49.3722 198.665 49.8575 199.153 50.2031C199.645 50.5488 200.223 50.7216 200.886 50.7216C201.321 50.7216 201.717 50.6458 202.072 50.4943C202.427 50.3428 202.728 50.125 202.974 49.8409C203.22 49.5568 203.395 49.2159 203.499 48.8182H205.176C205.081 49.4621 204.847 50.0421 204.472 50.5582C204.103 51.0696 203.613 51.4768 203.002 51.7798C202.396 52.0781 201.691 52.2273 200.886 52.2273ZM212.058 52.2273C211.073 52.2273 210.209 51.9929 209.465 51.5241C208.727 51.0554 208.149 50.3996 207.732 49.5568C207.32 48.714 207.115 47.7292 207.115 46.6023C207.115 45.4659 207.32 44.474 207.732 43.6264C208.149 42.7789 208.727 42.1207 209.465 41.652C210.209 41.1832 211.073 40.9489 212.058 40.9489C213.043 40.9489 213.904 41.1832 214.643 41.652C215.386 42.1207 215.964 42.7789 216.376 43.6264C216.793 44.474 217.001 45.4659 217.001 46.6023C217.001 47.7292 216.793 48.714 216.376 49.5568C215.964 50.3996 215.386 51.0554 214.643 51.5241C213.904 51.9929 213.043 52.2273 212.058 52.2273ZM212.058 50.7216C212.806 50.7216 213.421 50.5298 213.904 50.1463C214.387 49.7628 214.745 49.2585 214.977 48.6335C215.209 48.0085 215.325 47.3314 215.325 46.6023C215.325 45.8731 215.209 45.1937 214.977 44.5639C214.745 43.9342 214.387 43.4252 213.904 43.0369C213.421 42.6487 212.806 42.4545 212.058 42.4545C211.31 42.4545 210.694 42.6487 210.211 43.0369C209.728 43.4252 209.371 43.9342 209.139 44.5639C208.907 45.1937 208.791 45.8731 208.791 46.6023C208.791 47.3314 208.907 48.0085 209.139 48.6335C209.371 49.2585 209.728 49.7628 210.211 50.1463C210.694 50.5298 211.31 50.7216 212.058 50.7216ZM219.559 52V41.0909H221.236V45.8352H222.344L226.264 41.0909H228.423L224.02 46.3466L228.48 52H226.321L222.741 47.3977H221.236V52H219.559ZM231.978 49.5284L237.233 41.0909H239.165V52H237.489V43.5625L232.262 52H230.302V41.0909H231.978V49.5284ZM243.485 41.0909L246.099 45.5511L248.713 41.0909H250.644L247.122 46.5455L250.644 52H248.713L246.099 47.767L243.485 52H241.553L245.019 46.5455L241.553 41.0909H243.485ZM258.036 42.6534V41.0909H266.9V42.6534H263.32V52H261.644V42.6534H258.036ZM273.352 52.2273C272.301 52.2273 271.394 51.9953 270.632 51.5312C269.874 51.0625 269.29 50.4091 268.878 49.571C268.47 48.7282 268.267 47.7481 268.267 46.6307C268.267 45.5133 268.47 44.5284 268.878 43.6761C269.29 42.8191 269.863 42.1515 270.596 41.6733C271.335 41.1903 272.197 40.9489 273.182 40.9489C273.75 40.9489 274.311 41.0436 274.865 41.233C275.419 41.4223 275.923 41.7301 276.378 42.1562C276.832 42.5777 277.194 43.1364 277.464 43.8324C277.734 44.5284 277.869 45.3854 277.869 46.4034V47.1136H269.46V45.6648H276.165C276.165 45.0492 276.041 44.5 275.795 44.017C275.554 43.5341 275.208 43.1529 274.758 42.8736C274.313 42.5942 273.788 42.4545 273.182 42.4545C272.514 42.4545 271.936 42.6203 271.449 42.9517C270.966 43.2784 270.594 43.7045 270.334 44.2301C270.073 44.7557 269.943 45.3191 269.943 45.9205V46.8864C269.943 47.7102 270.085 48.4086 270.369 48.9815C270.658 49.5497 271.058 49.983 271.569 50.2812C272.081 50.5748 272.675 50.7216 273.352 50.7216C273.792 50.7216 274.19 50.66 274.545 50.5369C274.905 50.4091 275.215 50.2197 275.476 49.9688C275.736 49.7131 275.937 49.3958 276.079 49.017L277.699 49.4716C277.528 50.0208 277.242 50.5038 276.839 50.9205C276.437 51.3324 275.94 51.6544 275.348 51.8864C274.756 52.1136 274.091 52.2273 273.352 52.2273ZM281.376 41.0909L283.99 45.5511L286.603 41.0909H288.535L285.012 46.5455L288.535 52H286.603L283.99 47.767L281.376 52H279.444L282.91 46.5455L279.444 41.0909H281.376ZM298.228 45.7784V47.3409H292.205V45.7784H298.228ZM292.603 41.0909V52H290.927V41.0909H292.603ZM299.506 41.0909V52H297.83V41.0909H299.506ZM306.999 52.2273C306.014 52.2273 305.15 51.9929 304.407 51.5241C303.668 51.0554 303.09 50.3996 302.674 49.5568C302.262 48.714 302.056 47.7292 302.056 46.6023C302.056 45.4659 302.262 44.474 302.674 43.6264C303.09 42.7789 303.668 42.1207 304.407 41.652C305.15 41.1832 306.014 40.9489 306.999 40.9489C307.984 40.9489 308.846 41.1832 309.584 41.652C310.328 42.1207 310.905 42.7789 311.317 43.6264C311.734 44.474 311.942 45.4659 311.942 46.6023C311.942 47.7292 311.734 48.714 311.317 49.5568C310.905 50.3996 310.328 51.0554 309.584 51.5241C308.846 51.9929 307.984 52.2273 306.999 52.2273ZM306.999 50.7216C307.747 50.7216 308.363 50.5298 308.846 50.1463C309.329 49.7628 309.686 49.2585 309.918 48.6335C310.15 48.0085 310.266 47.3314 310.266 46.6023C310.266 45.8731 310.15 45.1937 309.918 44.5639C309.686 43.9342 309.329 43.4252 308.846 43.0369C308.363 42.6487 307.747 42.4545 306.999 42.4545C306.251 42.4545 305.635 42.6487 305.153 43.0369C304.67 43.4252 304.312 43.9342 304.08 44.5639C303.848 45.1937 303.732 45.8731 303.732 46.6023C303.732 47.3314 303.848 48.0085 304.08 48.6335C304.312 49.2585 304.67 49.7628 305.153 50.1463C305.635 50.5298 306.251 50.7216 306.999 50.7216ZM313.535 52V50.4375H313.933C314.259 50.4375 314.532 50.3736 314.749 50.2457C314.967 50.1132 315.142 49.8835 315.275 49.5568C315.412 49.2254 315.517 48.7661 315.588 48.179C315.663 47.5871 315.718 46.8343 315.751 45.9205L315.95 41.0909H323.222V52H321.546V42.6534H317.541L317.37 46.5455C317.332 47.4403 317.252 48.2287 317.129 48.9105C317.01 49.5876 316.828 50.1558 316.582 50.6151C316.34 51.0743 316.018 51.42 315.616 51.652C315.213 51.884 314.709 52 314.103 52H313.535ZM330.73 52.2273C329.745 52.2273 328.881 51.9929 328.137 51.5241C327.399 51.0554 326.821 50.3996 326.404 49.5568C325.992 48.714 325.786 47.7292 325.786 46.6023C325.786 45.4659 325.992 44.474 326.404 43.6264C326.821 42.7789 327.399 42.1207 328.137 41.652C328.881 41.1832 329.745 40.9489 330.73 40.9489C331.714 40.9489 332.576 41.1832 333.315 41.652C334.058 42.1207 334.636 42.7789 335.048 43.6264C335.464 44.474 335.673 45.4659 335.673 46.6023C335.673 47.7292 335.464 48.714 335.048 49.5568C334.636 50.3996 334.058 51.0554 333.315 51.5241C332.576 51.9929 331.714 52.2273 330.73 52.2273ZM330.73 50.7216C331.478 50.7216 332.093 50.5298 332.576 50.1463C333.059 49.7628 333.417 49.2585 333.649 48.6335C333.881 48.0085 333.997 47.3314 333.997 46.6023C333.997 45.8731 333.881 45.1937 333.649 44.5639C333.417 43.9342 333.059 43.4252 332.576 43.0369C332.093 42.6487 331.478 42.4545 330.73 42.4545C329.981 42.4545 329.366 42.6487 328.883 43.0369C328.4 43.4252 328.043 43.9342 327.811 44.5639C327.579 45.1937 327.463 45.8731 327.463 46.6023C327.463 47.3314 327.579 48.0085 327.811 48.6335C328.043 49.2585 328.4 49.7628 328.883 50.1463C329.366 50.5298 329.981 50.7216 330.73 50.7216ZM344.964 41.0909V42.6534H339.907V52H338.231V41.0909H344.964ZM349.087 49.5284L354.343 41.0909H356.275V52H354.599V43.5625L349.371 52H347.411V41.0909H349.087V49.5284ZM361.021 49.5284L366.276 41.0909H368.208V52H366.532V43.5625L361.305 52H359.345V41.0909H361.021V49.5284ZM365.169 37.4545H366.731C366.731 38.2216 366.466 38.849 365.936 39.3366C365.405 39.8243 364.686 40.0682 363.776 40.0682C362.882 40.0682 362.169 39.8243 361.639 39.3366C361.113 38.849 360.85 38.2216 360.85 37.4545H362.413C362.413 37.8239 362.515 38.1482 362.718 38.4276C362.927 38.7069 363.279 38.8466 363.776 38.8466C364.274 38.8466 364.629 38.7069 364.842 38.4276C365.06 38.1482 365.169 37.8239 365.169 37.4545ZM378.579 49.5284L383.835 41.0909H385.767V52H384.091V43.5625L378.863 52H376.903V41.0909H378.579V49.5284ZM405.57 37.4545V52H403.808V39.017H396.479V52H394.718V37.4545H405.57ZM410.344 45.0398H413.469C414.748 45.0398 415.725 45.3641 416.403 46.0128C417.08 46.6615 417.418 47.483 417.418 48.4773C417.418 49.1307 417.267 49.7249 416.964 50.2599C416.661 50.7902 416.215 51.214 415.628 51.5312C415.041 51.8438 414.322 52 413.469 52H408.895V41.0909H410.572V50.4375H413.469C414.132 50.4375 414.677 50.2623 415.103 49.9119C415.529 49.5616 415.742 49.1117 415.742 48.5625C415.742 47.9848 415.529 47.5137 415.103 47.1491C414.677 46.7846 414.132 46.6023 413.469 46.6023H410.344V45.0398ZM424.544 52.2273C423.492 52.2273 422.586 51.9953 421.823 51.5312C421.066 51.0625 420.481 50.4091 420.069 49.571C419.662 48.7282 419.458 47.7481 419.458 46.6307C419.458 45.5133 419.662 44.5284 420.069 43.6761C420.481 42.8191 421.054 42.1515 421.788 41.6733C422.526 41.1903 423.388 40.9489 424.373 40.9489C424.941 40.9489 425.502 41.0436 426.056 41.233C426.61 41.4223 427.115 41.7301 427.569 42.1562C428.024 42.5777 428.386 43.1364 428.656 43.8324C428.926 44.5284 429.061 45.3854 429.061 46.4034V47.1136H420.651V45.6648H427.356C427.356 45.0492 427.233 44.5 426.987 44.017C426.745 43.5341 426.4 43.1529 425.95 42.8736C425.505 42.5942 424.979 42.4545 424.373 42.4545C423.705 42.4545 423.128 42.6203 422.64 42.9517C422.157 43.2784 421.785 43.7045 421.525 44.2301C421.265 44.7557 421.134 45.3191 421.134 45.9205V46.8864C421.134 47.7102 421.276 48.4086 421.561 48.9815C421.849 49.5497 422.249 49.983 422.761 50.2812C423.272 50.5748 423.866 50.7216 424.544 50.7216C424.984 50.7216 425.382 50.66 425.737 50.5369C426.097 50.4091 426.407 50.2197 426.667 49.9688C426.927 49.7131 427.129 49.3958 427.271 49.017L428.89 49.4716C428.72 50.0208 428.433 50.5038 428.031 50.9205C427.628 51.3324 427.131 51.6544 426.539 51.8864C425.947 52.1136 425.282 52.2273 424.544 52.2273ZM430.928 49.2159H432.718C432.756 49.7083 432.979 50.0824 433.386 50.3381C433.798 50.5938 434.333 50.7216 434.991 50.7216C435.663 50.7216 436.239 50.5843 436.717 50.3097C437.195 50.0303 437.434 49.5805 437.434 48.9602C437.434 48.5956 437.344 48.2784 437.164 48.0085C436.984 47.7339 436.731 47.5208 436.404 47.3693C436.078 47.2178 435.692 47.142 435.247 47.142H433.372V45.6364H435.247C435.914 45.6364 436.407 45.4848 436.724 45.1818C437.046 44.8788 437.207 44.5 437.207 44.0455C437.207 43.5578 437.034 43.1671 436.688 42.8736C436.343 42.5753 435.853 42.4261 435.218 42.4261C434.579 42.4261 434.046 42.5705 433.62 42.8594C433.194 43.1435 432.969 43.5104 432.945 43.9602H431.184C431.203 43.3731 431.383 42.8546 431.724 42.4048C432.065 41.9503 432.529 41.5952 433.116 41.3395C433.703 41.0791 434.375 40.9489 435.133 40.9489C435.9 40.9489 436.565 41.0838 437.129 41.3537C437.697 41.6188 438.135 41.9811 438.443 42.4403C438.755 42.8949 438.911 43.411 438.911 43.9886C438.911 44.6042 438.739 45.1013 438.393 45.4801C438.047 45.8589 437.614 46.1288 437.093 46.2898V46.4034C437.505 46.4318 437.863 46.5644 438.166 46.8011C438.473 47.0331 438.713 47.3385 438.883 47.7173C439.053 48.0914 439.139 48.5057 439.139 48.9602C439.139 49.6231 438.961 50.2008 438.606 50.6932C438.251 51.1809 437.763 51.5597 437.143 51.8295C436.523 52.0947 435.815 52.2273 435.019 52.2273C434.248 52.2273 433.556 52.1018 432.945 51.8509C432.335 51.5952 431.849 51.2424 431.49 50.7926C431.134 50.3381 430.947 49.8125 430.928 49.2159ZM445.925 52.2273C444.94 52.2273 444.076 51.9929 443.333 51.5241C442.594 51.0554 442.016 50.3996 441.6 49.5568C441.188 48.714 440.982 47.7292 440.982 46.6023C440.982 45.4659 441.188 44.474 441.6 43.6264C442.016 42.7789 442.594 42.1207 443.333 41.652C444.076 41.1832 444.94 40.9489 445.925 40.9489C446.91 40.9489 447.771 41.1832 448.51 41.652C449.253 42.1207 449.831 42.7789 450.243 43.6264C450.66 44.474 450.868 45.4659 450.868 46.6023C450.868 47.7292 450.66 48.714 450.243 49.5568C449.831 50.3996 449.253 51.0554 448.51 51.5241C447.771 51.9929 446.91 52.2273 445.925 52.2273ZM445.925 50.7216C446.673 50.7216 447.289 50.5298 447.771 50.1463C448.254 49.7628 448.612 49.2585 448.844 48.6335C449.076 48.0085 449.192 47.3314 449.192 46.6023C449.192 45.8731 449.076 45.1937 448.844 44.5639C448.612 43.9342 448.254 43.4252 447.771 43.0369C447.289 42.6487 446.673 42.4545 445.925 42.4545C445.177 42.4545 444.561 42.6487 444.078 43.0369C443.595 43.4252 443.238 43.9342 443.006 44.5639C442.774 45.1937 442.658 45.8731 442.658 46.6023C442.658 47.3314 442.774 48.0085 443.006 48.6335C443.238 49.2585 443.595 49.7628 444.078 50.1463C444.561 50.5298 445.177 50.7216 445.925 50.7216ZM452.001 42.6534V41.0909H460.865V42.6534H457.285V52H455.609V42.6534H452.001ZM467.317 52.2273C466.266 52.2273 465.359 51.9953 464.597 51.5312C463.839 51.0625 463.254 50.4091 462.843 49.571C462.435 48.7282 462.232 47.7481 462.232 46.6307C462.232 45.5133 462.435 44.5284 462.843 43.6761C463.254 42.8191 463.827 42.1515 464.561 41.6733C465.3 41.1903 466.162 40.9489 467.146 40.9489C467.715 40.9489 468.276 41.0436 468.83 41.233C469.384 41.4223 469.888 41.7301 470.343 42.1562C470.797 42.5777 471.159 43.1364 471.429 43.8324C471.699 44.5284 471.834 45.3854 471.834 46.4034V47.1136H463.425V45.6648H470.129C470.129 45.0492 470.006 44.5 469.76 44.017C469.519 43.5341 469.173 43.1529 468.723 42.8736C468.278 42.5942 467.753 42.4545 467.146 42.4545C466.479 42.4545 465.901 42.6203 465.414 42.9517C464.931 43.2784 464.559 43.7045 464.298 44.2301C464.038 44.7557 463.908 45.3191 463.908 45.9205V46.8864C463.908 47.7102 464.05 48.4086 464.334 48.9815C464.623 49.5497 465.023 49.983 465.534 50.2812C466.046 50.5748 466.64 50.7216 467.317 50.7216C467.757 50.7216 468.155 50.66 468.51 50.5369C468.87 50.4091 469.18 50.2197 469.441 49.9688C469.701 49.7131 469.902 49.3958 470.044 49.017L471.664 49.4716C471.493 50.0208 471.207 50.5038 470.804 50.9205C470.402 51.3324 469.905 51.6544 469.313 51.8864C468.721 52.1136 468.056 52.2273 467.317 52.2273ZM475.341 41.0909L477.954 45.5511L480.568 41.0909H482.5L478.977 46.5455L482.5 52H480.568L477.954 47.767L475.341 52H473.409L476.875 46.5455L473.409 41.0909H475.341ZM492.193 45.7784V47.3409H486.17V45.7784H492.193ZM486.568 41.0909V52H484.892V41.0909H486.568ZM493.471 41.0909V52H491.795V41.0909H493.471ZM498.208 49.5284L503.464 41.0909H505.396V52H503.72V43.5625L498.492 52H496.532V41.0909H498.208V49.5284ZM508.466 52V41.0909H510.142V45.8352H511.25L515.17 41.0909H517.329L512.926 46.3466L517.386 52H515.227L511.648 47.3977H510.142V52H508.466ZM520.884 49.5284L526.14 41.0909H528.072V52H526.395V43.5625L521.168 52H519.208V41.0909H520.884V49.5284Z" fill="black"/>
<g id="floor_name">
<path d="M272.973 92.2386C271.769 92.2386 270.695 92.017 269.752 91.5739C268.814 91.1307 268.07 90.5199 267.519 89.7415C266.968 88.9631 266.681 88.071 266.658 87.0653H270.238C270.277 87.7415 270.561 88.2898 271.09 88.7102C271.618 89.1307 272.246 89.3409 272.973 89.3409C273.553 89.3409 274.064 89.2131 274.507 88.9574C274.956 88.696 275.306 88.3352 275.556 87.875C275.811 87.4091 275.939 86.875 275.939 86.2727C275.939 85.6591 275.809 85.1193 275.547 84.6534C275.292 84.1875 274.936 83.8239 274.482 83.5625C274.027 83.3011 273.507 83.1676 272.922 83.1619C272.411 83.1619 271.914 83.267 271.431 83.4773C270.953 83.6875 270.581 83.9744 270.314 84.3381L267.033 83.75L267.86 74.5455H278.53V77.5625H270.902L270.451 81.9347H270.553C270.86 81.5028 271.323 81.1449 271.942 80.8608C272.561 80.5767 273.255 80.4347 274.022 80.4347C275.073 80.4347 276.01 80.6818 276.834 81.1761C277.658 81.6705 278.309 82.3494 278.786 83.2131C279.263 84.071 279.499 85.0597 279.493 86.179C279.499 87.3551 279.226 88.4006 278.675 89.3153C278.13 90.2244 277.365 90.9403 276.382 91.4631C275.405 91.9801 274.269 92.2386 272.973 92.2386ZM292.497 81.6193C292.088 81.6193 291.724 81.6989 291.406 81.858C291.088 82.017 290.838 82.2386 290.656 82.5227C290.48 82.8011 290.392 83.1307 290.392 83.5114H287.127C287.127 82.8011 287.264 82.1534 287.537 81.5682C287.809 80.9773 288.19 80.4687 288.679 80.0426C289.167 79.6108 289.735 79.2784 290.383 79.0455C291.037 78.8125 291.741 78.696 292.497 78.696C293.815 78.696 294.923 78.9915 295.821 79.5824C296.724 80.1676 297.406 80.9602 297.866 81.9602C298.332 82.9545 298.565 84.071 298.565 85.3097V85.625C298.565 86.8693 298.335 87.9915 297.875 88.9915C297.414 89.9915 296.733 90.7841 295.829 91.3693C294.931 91.9489 293.821 92.2386 292.497 92.2386C291.44 92.2386 290.508 92.0312 289.701 91.6165C288.895 91.196 288.264 90.6023 287.809 89.8352C287.355 89.0625 287.127 88.1449 287.127 87.0824H290.392C290.392 87.4858 290.477 87.8551 290.647 88.1903C290.818 88.5256 291.059 88.7926 291.372 88.9915C291.69 89.1903 292.065 89.2926 292.497 89.2983C293.173 89.2926 293.699 89.1023 294.074 88.7273C294.454 88.3523 294.718 87.8835 294.866 87.321C295.02 86.7528 295.096 86.1875 295.096 85.625V85.3097C295.096 84.6903 295.017 84.0994 294.858 83.5369C294.704 82.9744 294.437 82.5142 294.056 82.1562C293.681 81.7983 293.162 81.6193 292.497 81.6193ZM296.145 84.3807V86.5284H291.517V84.3807H296.145ZM299.677 81.7642V78.9091H311.541V81.7642H307.322V92H303.862V81.7642H299.677ZM317.006 92.2472C316.171 92.2472 315.426 92.1023 314.773 91.8125C314.12 91.517 313.603 91.0824 313.222 90.5085C312.847 89.929 312.659 89.2074 312.659 88.3438C312.659 87.6165 312.793 87.0057 313.06 86.5114C313.327 86.017 313.691 85.6193 314.151 85.3182C314.611 85.017 315.134 84.7898 315.719 84.6364C316.31 84.483 316.929 84.375 317.577 84.3125C318.338 84.233 318.952 84.1591 319.418 84.0909C319.884 84.017 320.222 83.9091 320.432 83.767C320.642 83.625 320.748 83.4148 320.748 83.1364V83.0852C320.748 82.5455 320.577 82.1278 320.236 81.8324C319.901 81.5369 319.424 81.3892 318.804 81.3892C318.151 81.3892 317.631 81.5341 317.245 81.8239C316.858 82.108 316.603 82.4659 316.478 82.8977L313.12 82.625C313.29 81.8295 313.625 81.142 314.125 80.5625C314.625 79.9773 315.27 79.5284 316.06 79.2159C316.855 78.8977 317.776 78.7386 318.821 78.7386C319.549 78.7386 320.245 78.8239 320.909 78.9943C321.58 79.1648 322.174 79.429 322.691 79.7869C323.213 80.1449 323.625 80.6051 323.926 81.1676C324.228 81.7244 324.378 82.392 324.378 83.1705V92H320.935V90.1847H320.833C320.623 90.5938 320.341 90.9545 319.989 91.267C319.637 91.5739 319.213 91.8153 318.719 91.9915C318.225 92.1619 317.654 92.2472 317.006 92.2472ZM318.046 89.7415C318.58 89.7415 319.051 89.6364 319.461 89.4261C319.87 89.2102 320.191 88.9205 320.424 88.5568C320.657 88.1932 320.773 87.7812 320.773 87.321V85.9318C320.659 86.0057 320.503 86.0739 320.304 86.1364C320.111 86.1932 319.892 86.2472 319.648 86.2983C319.404 86.3437 319.159 86.3864 318.915 86.4261C318.671 86.4602 318.449 86.4915 318.25 86.5199C317.824 86.5824 317.452 86.6818 317.134 86.8182C316.816 86.9545 316.569 87.1392 316.392 87.3722C316.216 87.5994 316.128 87.8835 316.128 88.2244C316.128 88.7188 316.307 89.0966 316.665 89.358C317.029 89.6136 317.489 89.7415 318.046 89.7415ZM326.343 92L330.919 85.1903L326.368 78.9091H330.51L333.911 84.0312H334.473V78.9091H338.104V84.0312H338.65L342.05 78.9091H346.192L341.65 85.1903L346.218 92H341.982L338.615 86.8864H338.104V92H334.473V86.8864H333.962L330.578 92H326.343Z" fill="black"/>
<path d="M265.184 96.7727H346.814V98.4091H265.184V96.7727Z" fill="black"/>
</g>
<rect id="toilet" x="224.5" y="487.5" width="62" height="96" fill="#D8E4C2" stroke="#899474"/>
<path id="text_room_toilet" d="M233.092 530.912V529.818H240.729V530.912H237.527V540H236.294V530.912H233.092ZM242.353 542.864C242.154 542.864 241.977 542.847 241.821 542.814C241.665 542.784 241.558 542.754 241.498 542.724L241.796 541.69C242.081 541.763 242.333 541.79 242.552 541.77C242.771 541.75 242.964 541.652 243.134 541.477C243.306 541.304 243.463 541.024 243.606 540.636L243.825 540.04L241.001 532.364H242.273L244.381 538.449H244.461L246.569 532.364H247.842L244.6 541.114C244.454 541.508 244.274 541.835 244.058 542.093C243.843 542.355 243.593 542.549 243.308 542.675C243.026 542.801 242.708 542.864 242.353 542.864ZM251.405 540.179C250.921 540.179 250.482 540.088 250.088 539.906C249.693 539.72 249.38 539.453 249.148 539.105C248.916 538.754 248.8 538.33 248.8 537.832C248.8 537.395 248.886 537.04 249.058 536.768C249.231 536.493 249.461 536.278 249.749 536.122C250.038 535.966 250.356 535.85 250.704 535.774C251.055 535.695 251.408 535.632 251.763 535.585C252.227 535.526 252.603 535.481 252.892 535.451C253.183 535.418 253.395 535.363 253.528 535.287C253.664 535.211 253.732 535.078 253.732 534.889V534.849C253.732 534.359 253.597 533.978 253.329 533.706C253.064 533.434 252.661 533.298 252.121 533.298C251.561 533.298 251.122 533.421 250.803 533.666C250.485 533.911 250.262 534.173 250.132 534.452L249.019 534.054C249.218 533.59 249.483 533.229 249.814 532.97C250.149 532.708 250.513 532.526 250.908 532.423C251.306 532.317 251.697 532.264 252.081 532.264C252.326 532.264 252.608 532.294 252.926 532.354C253.248 532.41 253.558 532.528 253.856 532.707C254.158 532.886 254.408 533.156 254.607 533.517C254.806 533.878 254.905 534.362 254.905 534.969V540H253.732V538.966H253.672C253.593 539.132 253.46 539.309 253.274 539.498C253.089 539.687 252.842 539.848 252.534 539.98C252.225 540.113 251.849 540.179 251.405 540.179ZM251.584 539.125C252.048 539.125 252.439 539.034 252.757 538.852C253.079 538.669 253.321 538.434 253.483 538.146C253.649 537.857 253.732 537.554 253.732 537.236V536.162C253.682 536.222 253.573 536.276 253.404 536.326C253.238 536.372 253.046 536.414 252.827 536.45C252.611 536.483 252.401 536.513 252.195 536.54C251.993 536.563 251.829 536.583 251.703 536.599C251.398 536.639 251.113 536.704 250.848 536.793C250.586 536.879 250.374 537.01 250.212 537.186C250.053 537.358 249.973 537.594 249.973 537.892C249.973 538.3 250.124 538.608 250.426 538.817C250.731 539.022 251.117 539.125 251.584 539.125ZM256.37 540V538.906H256.649C256.877 538.906 257.068 538.862 257.221 538.772C257.373 538.679 257.496 538.518 257.588 538.29C257.685 538.058 257.757 537.736 257.807 537.325C257.86 536.911 257.898 536.384 257.922 535.744L258.061 532.364H263.152V540H261.978V533.457H259.174L259.055 536.182C259.029 536.808 258.972 537.36 258.886 537.837C258.803 538.311 258.676 538.709 258.503 539.031C258.334 539.352 258.109 539.594 257.827 539.756C257.545 539.919 257.192 540 256.768 540H256.37ZM268.506 540.159C267.77 540.159 267.136 539.997 266.602 539.672C266.072 539.344 265.662 538.886 265.374 538.3C265.089 537.71 264.946 537.024 264.946 536.241C264.946 535.459 265.089 534.77 265.374 534.173C265.662 533.573 266.063 533.106 266.577 532.771C267.094 532.433 267.697 532.264 268.387 532.264C268.784 532.264 269.177 532.33 269.565 532.463C269.953 532.596 270.306 532.811 270.624 533.109C270.942 533.404 271.196 533.795 271.385 534.283C271.574 534.77 271.668 535.37 271.668 536.082V536.58H265.782V535.565H270.475C270.475 535.134 270.389 534.75 270.216 534.412C270.047 534.074 269.805 533.807 269.49 533.612C269.179 533.416 268.811 533.318 268.387 533.318C267.919 533.318 267.515 533.434 267.174 533.666C266.836 533.895 266.575 534.193 266.393 534.561C266.211 534.929 266.12 535.323 266.12 535.744V536.42C266.12 536.997 266.219 537.486 266.418 537.887C266.62 538.285 266.9 538.588 267.258 538.797C267.616 539.002 268.032 539.105 268.506 539.105C268.814 539.105 269.093 539.062 269.341 538.976C269.593 538.886 269.81 538.754 269.993 538.578C270.175 538.399 270.316 538.177 270.415 537.912L271.549 538.23C271.429 538.615 271.229 538.953 270.947 539.244C270.665 539.533 270.317 539.758 269.903 539.92C269.489 540.08 269.023 540.159 268.506 540.159ZM272.742 533.457V532.364H278.946V533.457H276.441V540H275.267V533.457H272.742Z" fill="black"/>
<rect id="room_509" x="224.5" y="389.5" width="62" height="97" fill="#D8E4C2" stroke="#899474"/>
<rect id="room_508" x="224.5" y="292.5" width="62" height="96" fill="#D8E4C2" stroke="#899474"/>
<rect id="room_507" x="224.5" y="195.5" width="62" height="96" fill="#D8E4C2" stroke="#899474"/>
<rect id="room_506" x="329.5" y="524.5" width="53" height="59" fill="#D8E4C2" stroke="#899474"/>
<rect id="room_505" x="329.5" y="463.5" width="53" height="60" fill="#D8E4C2" stroke="#899474"/>
<rect id="room_504" x="329.5" y="403.5" width="53" height="59" fill="#D8E4C2" stroke="#899474"/>
<rect id="room_503" x="329.5" y="342.5" width="53" height="60" fill="#D8E4C2" stroke="#899474"/>
<rect id="room_502" x="329.5" y="282.5" width="53" height="59" fill="#D8E4C2" stroke="#899474"/>
<rect id="room_501" x="329.5" y="195.5" width="53" height="86" fill="#D8E4C2" stroke="#899474"/>
<line id="Line 1" x1="383" y1="586.5" x2="224" y2="586.5" stroke="#B0ADAB" stroke-width="5"/>
<path id="text_room_101" d="M233.63 440H232.522L235.726 431.273H236.817L240.022 440H238.914L236.306 432.653H236.238L233.63 440ZM234.039 436.591H238.505V437.528H234.039V436.591ZM241.072 442.455C240.902 442.455 240.75 442.44 240.616 442.412C240.483 442.386 240.39 442.361 240.339 442.335L240.595 441.449C240.839 441.511 241.055 441.534 241.243 441.517C241.43 441.5 241.596 441.416 241.741 441.266C241.889 441.118 242.024 440.878 242.146 440.545L242.333 440.034L239.913 433.455H241.004L242.811 438.67H242.879L244.686 433.455H245.777L242.998 440.955C242.873 441.293 242.718 441.572 242.534 441.794C242.349 442.018 242.135 442.185 241.89 442.293C241.649 442.401 241.376 442.455 241.072 442.455ZM245.854 441.875V439.062H246.4C246.533 438.923 246.648 438.773 246.745 438.611C246.842 438.449 246.925 438.257 246.996 438.036C247.07 437.811 247.133 437.538 247.184 437.217C247.235 436.893 247.281 436.503 247.32 436.045L247.542 433.455H251.701V439.062H252.707V441.875H251.701V440H246.86V441.875H245.854ZM247.542 439.062H250.695V434.392H248.479L248.309 436.045C248.238 436.73 248.15 437.328 248.045 437.839C247.94 438.351 247.772 438.759 247.542 439.062ZM260.127 440.119C259.627 440.119 259.176 440.02 258.776 439.821C258.375 439.622 258.054 439.349 257.813 439.003C257.571 438.656 257.439 438.261 257.417 437.818H258.439C258.479 438.213 258.658 438.54 258.976 438.798C259.297 439.054 259.681 439.182 260.127 439.182C260.485 439.182 260.803 439.098 261.081 438.93C261.363 438.763 261.583 438.533 261.742 438.24C261.904 437.945 261.985 437.611 261.985 437.239C261.985 436.858 261.901 436.518 261.733 436.22C261.569 435.919 261.341 435.682 261.051 435.509C260.762 435.335 260.431 435.247 260.059 435.244C259.792 435.241 259.517 435.283 259.236 435.368C258.955 435.45 258.723 435.557 258.542 435.688L257.553 435.568L258.081 431.273H262.615V432.21H258.968L258.661 434.784H258.712C258.891 434.642 259.115 434.524 259.385 434.43C259.655 434.337 259.936 434.29 260.229 434.29C260.763 434.29 261.239 434.418 261.657 434.673C262.077 434.926 262.407 435.273 262.645 435.713C262.887 436.153 263.007 436.656 263.007 437.222C263.007 437.778 262.882 438.276 262.632 438.713C262.385 439.148 262.044 439.491 261.61 439.744C261.175 439.994 260.681 440.119 260.127 440.119ZM267.547 440.119C266.905 440.119 266.358 439.945 265.906 439.595C265.455 439.243 265.109 438.733 264.871 438.065C264.632 437.395 264.513 436.585 264.513 435.636C264.513 434.693 264.632 433.888 264.871 433.22C265.112 432.55 265.459 432.038 265.911 431.686C266.365 431.331 266.911 431.153 267.547 431.153C268.183 431.153 268.727 431.331 269.179 431.686C269.634 432.038 269.98 432.55 270.219 433.22C270.46 433.888 270.581 434.693 270.581 435.636C270.581 436.585 270.462 437.395 270.223 438.065C269.984 438.733 269.639 439.243 269.188 439.595C268.736 439.945 268.189 440.119 267.547 440.119ZM267.547 439.182C268.183 439.182 268.678 438.875 269.03 438.261C269.382 437.648 269.558 436.773 269.558 435.636C269.558 434.881 269.477 434.237 269.315 433.706C269.156 433.175 268.926 432.77 268.625 432.491C268.327 432.213 267.967 432.074 267.547 432.074C266.916 432.074 266.423 432.385 266.068 433.007C265.713 433.626 265.536 434.503 265.536 435.636C265.536 436.392 265.615 437.034 265.774 437.562C265.933 438.091 266.162 438.493 266.46 438.768C266.761 439.044 267.124 439.182 267.547 439.182ZM274.979 431.153C275.337 431.156 275.695 431.224 276.053 431.358C276.411 431.491 276.737 431.713 277.033 432.023C277.328 432.33 277.565 432.749 277.744 433.28C277.923 433.811 278.013 434.477 278.013 435.278C278.013 436.054 277.939 436.743 277.791 437.345C277.646 437.945 277.436 438.45 277.161 438.862C276.888 439.274 276.555 439.587 276.163 439.8C275.774 440.013 275.334 440.119 274.842 440.119C274.354 440.119 273.918 440.023 273.534 439.83C273.153 439.634 272.841 439.362 272.597 439.016C272.355 438.666 272.2 438.261 272.132 437.801H273.172C273.266 438.202 273.452 438.533 273.73 438.794C274.011 439.053 274.382 439.182 274.842 439.182C275.516 439.182 276.047 438.888 276.436 438.3C276.828 437.712 277.024 436.881 277.024 435.807H276.956C276.797 436.045 276.608 436.251 276.389 436.425C276.17 436.598 275.928 436.732 275.661 436.825C275.393 436.919 275.109 436.966 274.808 436.966C274.308 436.966 273.849 436.842 273.432 436.595C273.017 436.345 272.685 436.003 272.435 435.568C272.188 435.131 272.064 434.631 272.064 434.068C272.064 433.534 272.183 433.045 272.422 432.602C272.663 432.156 273.001 431.801 273.436 431.537C273.874 431.273 274.388 431.145 274.979 431.153ZM274.979 432.091C274.621 432.091 274.298 432.18 274.011 432.359C273.727 432.536 273.501 432.774 273.334 433.075C273.169 433.374 273.087 433.705 273.087 434.068C273.087 434.432 273.166 434.763 273.325 435.061C273.487 435.357 273.707 435.592 273.986 435.768C274.267 435.942 274.587 436.028 274.945 436.028C275.214 436.028 275.466 435.976 275.699 435.871C275.932 435.763 276.135 435.616 276.308 435.432C276.484 435.244 276.622 435.033 276.722 434.797C276.821 434.558 276.871 434.31 276.871 434.051C276.871 433.71 276.788 433.391 276.624 433.092C276.462 432.794 276.237 432.553 275.95 432.368C275.666 432.183 275.342 432.091 274.979 432.091Z" fill="black"/>
<path id="text_room_101_2" d="M233.676 344H232.569L235.773 335.273H236.864L240.069 344H238.961L236.353 336.653H236.284L233.676 344ZM234.086 340.591H238.551V341.528H234.086V340.591ZM241.119 346.455C240.949 346.455 240.797 346.44 240.663 346.412C240.529 346.386 240.437 346.361 240.386 346.335L240.642 345.449C240.886 345.511 241.102 345.534 241.289 345.517C241.477 345.5 241.643 345.416 241.788 345.266C241.936 345.118 242.071 344.878 242.193 344.545L242.38 344.034L239.96 337.455H241.051L242.858 342.67H242.926L244.733 337.455H245.824L243.045 344.955C242.92 345.293 242.765 345.572 242.581 345.794C242.396 346.018 242.181 346.185 241.937 346.293C241.696 346.401 241.423 346.455 241.119 346.455ZM245.901 345.875V343.062H246.447C246.58 342.923 246.695 342.773 246.792 342.611C246.888 342.449 246.972 342.257 247.043 342.036C247.117 341.811 247.18 341.538 247.231 341.217C247.282 340.893 247.327 340.503 247.367 340.045L247.589 337.455H251.748V343.062H252.754V345.875H251.748V344H246.907V345.875H245.901ZM247.589 343.062H250.742V338.392H248.526L248.356 340.045C248.285 340.73 248.197 341.328 248.092 341.839C247.987 342.351 247.819 342.759 247.589 343.062ZM260.174 344.119C259.674 344.119 259.223 344.02 258.823 343.821C258.422 343.622 258.101 343.349 257.86 343.003C257.618 342.656 257.486 342.261 257.463 341.818H258.486C258.526 342.213 258.705 342.54 259.023 342.798C259.344 343.054 259.728 343.182 260.174 343.182C260.532 343.182 260.85 343.098 261.128 342.93C261.409 342.763 261.63 342.533 261.789 342.24C261.951 341.945 262.032 341.611 262.032 341.239C262.032 340.858 261.948 340.518 261.78 340.22C261.615 339.919 261.388 339.682 261.098 339.509C260.809 339.335 260.478 339.247 260.105 339.244C259.838 339.241 259.564 339.283 259.283 339.368C259.002 339.45 258.77 339.557 258.588 339.688L257.6 339.568L258.128 335.273H262.662V336.21H259.015L258.708 338.784H258.759C258.938 338.642 259.162 338.524 259.432 338.43C259.702 338.337 259.983 338.29 260.276 338.29C260.81 338.29 261.286 338.418 261.703 338.673C262.124 338.926 262.453 339.273 262.692 339.713C262.934 340.153 263.054 340.656 263.054 341.222C263.054 341.778 262.929 342.276 262.679 342.713C262.432 343.148 262.091 343.491 261.657 343.744C261.222 343.994 260.728 344.119 260.174 344.119ZM267.594 344.119C266.952 344.119 266.405 343.945 265.953 343.595C265.501 343.243 265.156 342.733 264.918 342.065C264.679 341.395 264.56 340.585 264.56 339.636C264.56 338.693 264.679 337.888 264.918 337.22C265.159 336.55 265.506 336.038 265.957 335.686C266.412 335.331 266.957 335.153 267.594 335.153C268.23 335.153 268.774 335.331 269.226 335.686C269.68 336.038 270.027 336.55 270.266 337.22C270.507 337.888 270.628 338.693 270.628 339.636C270.628 340.585 270.509 341.395 270.27 342.065C270.031 342.733 269.686 343.243 269.234 343.595C268.783 343.945 268.236 344.119 267.594 344.119ZM267.594 343.182C268.23 343.182 268.724 342.875 269.077 342.261C269.429 341.648 269.605 340.773 269.605 339.636C269.605 338.881 269.524 338.237 269.362 337.706C269.203 337.175 268.973 336.77 268.672 336.491C268.374 336.213 268.014 336.074 267.594 336.074C266.963 336.074 266.47 336.385 266.115 337.007C265.76 337.626 265.582 338.503 265.582 339.636C265.582 340.392 265.662 341.034 265.821 341.562C265.98 342.091 266.209 342.493 266.507 342.768C266.808 343.044 267.17 343.182 267.594 343.182ZM275.043 344.119C274.457 344.119 273.94 344.016 273.491 343.808C273.045 343.598 272.697 343.31 272.447 342.943C272.197 342.574 272.074 342.153 272.077 341.682C272.074 341.312 272.146 340.972 272.294 340.659C272.442 340.344 272.643 340.081 272.899 339.871C273.158 339.658 273.446 339.523 273.764 339.466V339.415C273.347 339.307 273.014 339.072 272.767 338.712C272.52 338.348 272.398 337.935 272.401 337.472C272.398 337.028 272.51 336.632 272.737 336.283C272.964 335.933 273.277 335.658 273.675 335.456C274.075 335.254 274.531 335.153 275.043 335.153C275.548 335.153 276 335.254 276.398 335.456C276.795 335.658 277.108 335.933 277.335 336.283C277.565 336.632 277.682 337.028 277.685 337.472C277.682 337.935 277.555 338.348 277.305 338.712C277.058 339.072 276.73 339.307 276.321 339.415V339.466C276.636 339.523 276.92 339.658 277.173 339.871C277.426 340.081 277.628 340.344 277.778 340.659C277.929 340.972 278.006 341.312 278.009 341.682C278.006 342.153 277.878 342.574 277.625 342.943C277.375 343.31 277.027 343.598 276.581 343.808C276.138 344.016 275.625 344.119 275.043 344.119ZM275.043 343.182C275.438 343.182 275.778 343.118 276.065 342.99C276.352 342.862 276.574 342.682 276.73 342.449C276.886 342.216 276.966 341.943 276.969 341.631C276.966 341.301 276.881 341.01 276.713 340.757C276.545 340.504 276.317 340.305 276.027 340.161C275.74 340.016 275.412 339.943 275.043 339.943C274.67 339.943 274.338 340.016 274.045 340.161C273.756 340.305 273.527 340.504 273.359 340.757C273.195 341.01 273.114 341.301 273.116 341.631C273.114 341.943 273.189 342.216 273.342 342.449C273.499 342.682 273.722 342.862 274.011 342.99C274.301 343.118 274.645 343.182 275.043 343.182ZM275.043 339.04C275.355 339.04 275.632 338.977 275.874 338.852C276.118 338.727 276.31 338.553 276.449 338.328C276.588 338.104 276.659 337.841 276.662 337.54C276.659 337.244 276.589 336.987 276.453 336.768C276.317 336.547 276.128 336.376 275.886 336.257C275.645 336.135 275.364 336.074 275.043 336.074C274.716 336.074 274.43 336.135 274.186 336.257C273.942 336.376 273.753 336.547 273.619 336.768C273.486 336.987 273.42 337.244 273.423 337.54C273.42 337.841 273.487 338.104 273.624 338.328C273.763 338.553 273.955 338.727 274.199 338.852C274.443 338.977 274.724 339.04 275.043 339.04Z" fill="black"/>
<path id="text_room_101_3" d="M232.563 252H231.455L234.66 243.273H235.751L238.955 252H237.847L235.239 244.653H235.171L232.563 252ZM232.972 248.591H237.438V249.528H232.972V248.591ZM240.006 254.455C239.835 254.455 239.683 254.44 239.55 254.412C239.416 254.386 239.324 254.361 239.273 254.335L239.528 253.449C239.773 253.511 239.989 253.534 240.176 253.517C240.364 253.5 240.53 253.416 240.675 253.266C240.822 253.118 240.957 252.878 241.08 252.545L241.267 252.034L238.847 245.455H239.938L241.744 250.67H241.812L243.619 245.455H244.71L241.932 252.955C241.807 253.293 241.652 253.572 241.467 253.794C241.283 254.018 241.068 254.185 240.824 254.293C240.582 254.401 240.31 254.455 240.006 254.455ZM244.788 253.875V251.062H245.333C245.467 250.923 245.582 250.773 245.679 250.611C245.775 250.449 245.859 250.257 245.93 250.036C246.004 249.811 246.066 249.538 246.118 249.217C246.169 248.893 246.214 248.503 246.254 248.045L246.475 245.455H250.635V251.062H251.64V253.875H250.635V252H245.794V253.875H244.788ZM246.475 251.062H249.629V246.392H247.413L247.243 248.045C247.172 248.73 247.083 249.328 246.978 249.839C246.873 250.351 246.706 250.759 246.475 251.062ZM259.06 252.119C258.56 252.119 258.11 252.02 257.71 251.821C257.309 251.622 256.988 251.349 256.746 251.003C256.505 250.656 256.373 250.261 256.35 249.818H257.373C257.413 250.213 257.592 250.54 257.91 250.798C258.231 251.054 258.614 251.182 259.06 251.182C259.418 251.182 259.737 251.098 260.015 250.93C260.296 250.763 260.516 250.533 260.675 250.24C260.837 249.945 260.918 249.611 260.918 249.239C260.918 248.858 260.835 248.518 260.667 248.22C260.502 247.919 260.275 247.682 259.985 247.509C259.695 247.335 259.364 247.247 258.992 247.244C258.725 247.241 258.451 247.283 258.17 247.368C257.888 247.45 257.657 247.557 257.475 247.688L256.487 247.568L257.015 243.273H261.549V244.21H257.901L257.594 246.784H257.646C257.825 246.642 258.049 246.524 258.319 246.43C258.589 246.337 258.87 246.29 259.163 246.29C259.697 246.29 260.173 246.418 260.59 246.673C261.011 246.926 261.34 247.273 261.579 247.713C261.82 248.153 261.941 248.656 261.941 249.222C261.941 249.778 261.816 250.276 261.566 250.713C261.319 251.148 260.978 251.491 260.543 251.744C260.109 251.994 259.614 252.119 259.06 252.119ZM266.48 252.119C265.838 252.119 265.292 251.945 264.84 251.595C264.388 251.243 264.043 250.733 263.804 250.065C263.566 249.395 263.446 248.585 263.446 247.636C263.446 246.693 263.566 245.888 263.804 245.22C264.046 244.55 264.392 244.038 264.844 243.686C265.299 243.331 265.844 243.153 266.48 243.153C267.117 243.153 267.661 243.331 268.113 243.686C268.567 244.038 268.914 244.55 269.152 245.22C269.394 245.888 269.515 246.693 269.515 247.636C269.515 248.585 269.395 249.395 269.157 250.065C268.918 250.733 268.573 251.243 268.121 251.595C267.669 251.945 267.123 252.119 266.48 252.119ZM266.48 251.182C267.117 251.182 267.611 250.875 267.963 250.261C268.316 249.648 268.492 248.773 268.492 247.636C268.492 246.881 268.411 246.237 268.249 245.706C268.09 245.175 267.86 244.77 267.559 244.491C267.26 244.213 266.901 244.074 266.48 244.074C265.85 244.074 265.357 244.385 265.002 245.007C264.647 245.626 264.469 246.503 264.469 247.636C264.469 248.392 264.549 249.034 264.708 249.562C264.867 250.091 265.096 250.493 265.394 250.768C265.695 251.044 266.057 251.182 266.48 251.182ZM271.172 252L275.076 244.278V244.21H270.576V243.273H276.167V244.261L272.28 252H271.172Z" fill="black"/>
<path id="text_room_101_4" d="M333.63 557H332.522L335.726 548.273H336.817L340.022 557H338.914L336.306 549.653H336.238L333.63 557ZM334.039 553.591H338.505V554.528H334.039V553.591ZM341.072 559.455C340.902 559.455 340.75 559.44 340.616 559.412C340.483 559.386 340.39 559.361 340.339 559.335L340.595 558.449C340.839 558.511 341.055 558.534 341.243 558.517C341.43 558.5 341.596 558.416 341.741 558.266C341.889 558.118 342.024 557.878 342.146 557.545L342.333 557.034L339.913 550.455H341.004L342.811 555.67H342.879L344.686 550.455H345.777L342.998 557.955C342.873 558.293 342.718 558.572 342.534 558.794C342.349 559.018 342.135 559.185 341.89 559.293C341.649 559.401 341.376 559.455 341.072 559.455ZM345.854 558.875V556.062H346.4C346.533 555.923 346.648 555.773 346.745 555.611C346.842 555.449 346.925 555.257 346.996 555.036C347.07 554.811 347.133 554.538 347.184 554.217C347.235 553.893 347.281 553.503 347.32 553.045L347.542 550.455H351.701V556.062H352.707V558.875H351.701V557H346.86V558.875H345.854ZM347.542 556.062H350.695V551.392H348.479L348.309 553.045C348.238 553.73 348.15 554.328 348.045 554.839C347.94 555.351 347.772 555.759 347.542 556.062ZM360.127 557.119C359.627 557.119 359.176 557.02 358.776 556.821C358.375 556.622 358.054 556.349 357.813 556.003C357.571 555.656 357.439 555.261 357.417 554.818H358.439C358.479 555.213 358.658 555.54 358.976 555.798C359.297 556.054 359.681 556.182 360.127 556.182C360.485 556.182 360.803 556.098 361.081 555.93C361.363 555.763 361.583 555.533 361.742 555.24C361.904 554.945 361.985 554.611 361.985 554.239C361.985 553.858 361.901 553.518 361.733 553.22C361.569 552.919 361.341 552.682 361.051 552.509C360.762 552.335 360.431 552.247 360.059 552.244C359.792 552.241 359.517 552.283 359.236 552.368C358.955 552.45 358.723 552.557 358.542 552.688L357.553 552.568L358.081 548.273H362.615V549.21H358.968L358.661 551.784H358.712C358.891 551.642 359.115 551.524 359.385 551.43C359.655 551.337 359.936 551.29 360.229 551.29C360.763 551.29 361.239 551.418 361.657 551.673C362.077 551.926 362.407 552.273 362.645 552.713C362.887 553.153 363.007 553.656 363.007 554.222C363.007 554.778 362.882 555.276 362.632 555.713C362.385 556.148 362.044 556.491 361.61 556.744C361.175 556.994 360.681 557.119 360.127 557.119ZM367.547 557.119C366.905 557.119 366.358 556.945 365.906 556.595C365.455 556.243 365.109 555.733 364.871 555.065C364.632 554.395 364.513 553.585 364.513 552.636C364.513 551.693 364.632 550.888 364.871 550.22C365.112 549.55 365.459 549.038 365.911 548.686C366.365 548.331 366.911 548.153 367.547 548.153C368.183 548.153 368.727 548.331 369.179 548.686C369.634 549.038 369.98 549.55 370.219 550.22C370.46 550.888 370.581 551.693 370.581 552.636C370.581 553.585 370.462 554.395 370.223 555.065C369.984 555.733 369.639 556.243 369.188 556.595C368.736 556.945 368.189 557.119 367.547 557.119ZM367.547 556.182C368.183 556.182 368.678 555.875 369.03 555.261C369.382 554.648 369.558 553.773 369.558 552.636C369.558 551.881 369.477 551.237 369.315 550.706C369.156 550.175 368.926 549.77 368.625 549.491C368.327 549.213 367.967 549.074 367.547 549.074C366.916 549.074 366.423 549.385 366.068 550.007C365.713 550.626 365.536 551.503 365.536 552.636C365.536 553.392 365.615 554.034 365.774 554.562C365.933 555.091 366.162 555.493 366.46 555.768C366.761 556.044 367.124 556.182 367.547 556.182ZM375.098 557.119C374.74 557.114 374.382 557.045 374.024 556.915C373.666 556.784 373.339 556.564 373.044 556.254C372.749 555.942 372.511 555.52 372.332 554.989C372.153 554.455 372.064 553.784 372.064 552.977C372.064 552.205 372.136 551.52 372.281 550.923C372.426 550.324 372.636 549.82 372.912 549.411C373.188 548.999 373.52 548.686 373.909 548.473C374.301 548.26 374.743 548.153 375.234 548.153C375.723 548.153 376.158 548.251 376.538 548.447C376.922 548.641 377.234 548.911 377.476 549.257C377.717 549.604 377.874 550.003 377.945 550.455H376.905C376.808 550.062 376.621 549.737 376.342 549.479C376.064 549.22 375.695 549.091 375.234 549.091C374.558 549.091 374.026 549.385 373.636 549.973C373.25 550.561 373.055 551.386 373.053 552.449H373.121C373.28 552.207 373.469 552.001 373.688 551.831C373.909 551.658 374.153 551.524 374.42 551.43C374.688 551.337 374.97 551.29 375.268 551.29C375.768 551.29 376.226 551.415 376.641 551.665C377.055 551.912 377.388 552.254 377.638 552.692C377.888 553.126 378.013 553.625 378.013 554.188C378.013 554.727 377.892 555.222 377.651 555.67C377.409 556.116 377.07 556.472 376.632 556.736C376.197 556.997 375.686 557.125 375.098 557.119ZM375.098 556.182C375.456 556.182 375.777 556.092 376.061 555.913C376.348 555.734 376.574 555.494 376.739 555.193C376.906 554.892 376.99 554.557 376.99 554.188C376.99 553.827 376.909 553.499 376.747 553.203C376.588 552.905 376.368 552.668 376.087 552.491C375.808 552.315 375.49 552.227 375.132 552.227C374.862 552.227 374.611 552.281 374.378 552.389C374.145 552.494 373.94 552.639 373.764 552.824C373.591 553.009 373.455 553.22 373.355 553.459C373.256 553.695 373.206 553.943 373.206 554.205C373.206 554.551 373.287 554.875 373.449 555.176C373.614 555.477 373.838 555.72 374.122 555.905C374.409 556.089 374.734 556.182 375.098 556.182Z" fill="black"/>
<path id="text_room_101_5" d="M333.723 497H332.615L335.82 488.273H336.911L340.115 497H339.007L336.4 489.653H336.331L333.723 497ZM334.132 493.591H338.598V494.528H334.132V493.591ZM341.166 499.455C340.995 499.455 340.843 499.44 340.71 499.412C340.576 499.386 340.484 499.361 340.433 499.335L340.689 498.449C340.933 498.511 341.149 498.534 341.336 498.517C341.524 498.5 341.69 498.416 341.835 498.266C341.983 498.118 342.118 497.878 342.24 497.545L342.427 497.034L340.007 490.455H341.098L342.904 495.67H342.973L344.779 490.455H345.87L343.092 497.955C342.967 498.293 342.812 498.572 342.627 498.794C342.443 499.018 342.228 499.185 341.984 499.293C341.743 499.401 341.47 499.455 341.166 499.455ZM345.948 498.875V496.062H346.494C346.627 495.923 346.742 495.773 346.839 495.611C346.935 495.449 347.019 495.257 347.09 495.036C347.164 494.811 347.227 494.538 347.278 494.217C347.329 493.893 347.374 493.503 347.414 493.045L347.636 490.455H351.795V496.062H352.8V498.875H351.795V497H346.954V498.875H345.948ZM347.636 496.062H350.789V491.392H348.573L348.403 493.045C348.332 493.73 348.244 494.328 348.138 494.839C348.033 495.351 347.866 495.759 347.636 496.062ZM360.221 497.119C359.721 497.119 359.27 497.02 358.87 496.821C358.469 496.622 358.148 496.349 357.907 496.003C357.665 495.656 357.533 495.261 357.51 494.818H358.533C358.573 495.213 358.752 495.54 359.07 495.798C359.391 496.054 359.775 496.182 360.221 496.182C360.578 496.182 360.897 496.098 361.175 495.93C361.456 495.763 361.676 495.533 361.836 495.24C361.998 494.945 362.078 494.611 362.078 494.239C362.078 493.858 361.995 493.518 361.827 493.22C361.662 492.919 361.435 492.682 361.145 492.509C360.855 492.335 360.525 492.247 360.152 492.244C359.885 492.241 359.611 492.283 359.33 492.368C359.049 492.45 358.817 492.557 358.635 492.688L357.647 492.568L358.175 488.273H362.709V489.21H359.061L358.755 491.784H358.806C358.985 491.642 359.209 491.524 359.479 491.43C359.749 491.337 360.03 491.29 360.323 491.29C360.857 491.29 361.333 491.418 361.75 491.673C362.171 491.926 362.5 492.273 362.739 492.713C362.98 493.153 363.101 493.656 363.101 494.222C363.101 494.778 362.976 495.276 362.726 495.713C362.479 496.148 362.138 496.491 361.703 496.744C361.269 496.994 360.775 497.119 360.221 497.119ZM367.641 497.119C366.999 497.119 366.452 496.945 366 496.595C365.548 496.243 365.203 495.733 364.964 495.065C364.726 494.395 364.607 493.585 364.607 492.636C364.607 491.693 364.726 490.888 364.964 490.22C365.206 489.55 365.553 489.038 366.004 488.686C366.459 488.331 367.004 488.153 367.641 488.153C368.277 488.153 368.821 488.331 369.273 488.686C369.727 489.038 370.074 489.55 370.312 490.22C370.554 490.888 370.675 491.693 370.675 492.636C370.675 493.585 370.555 494.395 370.317 495.065C370.078 495.733 369.733 496.243 369.281 496.595C368.83 496.945 368.283 497.119 367.641 497.119ZM367.641 496.182C368.277 496.182 368.771 495.875 369.124 495.261C369.476 494.648 369.652 493.773 369.652 492.636C369.652 491.881 369.571 491.237 369.409 490.706C369.25 490.175 369.02 489.77 368.719 489.491C368.42 489.213 368.061 489.074 367.641 489.074C367.01 489.074 366.517 489.385 366.162 490.007C365.807 490.626 365.629 491.503 365.629 492.636C365.629 493.392 365.709 494.034 365.868 494.562C366.027 495.091 366.256 495.493 366.554 495.768C366.855 496.044 367.217 496.182 367.641 496.182ZM375.021 497.119C374.521 497.119 374.071 497.02 373.67 496.821C373.27 496.622 372.949 496.349 372.707 496.003C372.466 495.656 372.334 495.261 372.311 494.818H373.334C373.374 495.213 373.553 495.54 373.871 495.798C374.192 496.054 374.575 496.182 375.021 496.182C375.379 496.182 375.697 496.098 375.976 495.93C376.257 495.763 376.477 495.533 376.636 495.24C376.798 494.945 376.879 494.611 376.879 494.239C376.879 493.858 376.795 493.518 376.628 493.22C376.463 492.919 376.236 492.682 375.946 492.509C375.656 492.335 375.325 492.247 374.953 492.244C374.686 492.241 374.412 492.283 374.131 492.368C373.849 492.45 373.618 492.557 373.436 492.688L372.447 492.568L372.976 488.273H377.51V489.21H373.862L373.555 491.784H373.607C373.786 491.642 374.01 491.524 374.28 491.43C374.55 491.337 374.831 491.29 375.124 491.29C375.658 491.29 376.134 491.418 376.551 491.673C376.972 491.926 377.301 492.273 377.54 492.713C377.781 493.153 377.902 493.656 377.902 494.222C377.902 494.778 377.777 495.276 377.527 495.713C377.28 496.148 376.939 496.491 376.504 496.744C376.07 496.994 375.575 497.119 375.021 497.119Z" fill="black"/>
<path id="text_room_101_6" d="M333.524 436H332.416L335.621 427.273H336.712L339.916 436H338.808L336.2 428.653H336.132L333.524 436ZM333.933 432.591H338.399V433.528H333.933V432.591ZM340.967 438.455C340.796 438.455 340.644 438.44 340.511 438.412C340.377 438.386 340.285 438.361 340.234 438.335L340.489 437.449C340.734 437.511 340.95 437.534 341.137 437.517C341.325 437.5 341.491 437.416 341.636 437.266C341.783 437.118 341.918 436.878 342.04 436.545L342.228 436.034L339.808 429.455H340.898L342.705 434.67H342.773L344.58 429.455H345.671L342.893 436.955C342.768 437.293 342.613 437.572 342.428 437.794C342.244 438.018 342.029 438.185 341.785 438.293C341.543 438.401 341.271 438.455 340.967 438.455ZM345.749 437.875V435.062H346.294C346.428 434.923 346.543 434.773 346.64 434.611C346.736 434.449 346.82 434.257 346.891 434.036C346.965 433.811 347.027 433.538 347.078 433.217C347.13 432.893 347.175 432.503 347.215 432.045L347.436 429.455H351.596V435.062H352.601V437.875H351.596V436H346.755V437.875H345.749ZM347.436 435.062H350.59V430.392H348.374L348.203 432.045C348.132 432.73 348.044 433.328 347.939 433.839C347.834 434.351 347.667 434.759 347.436 435.062ZM360.021 436.119C359.521 436.119 359.071 436.02 358.67 435.821C358.27 435.622 357.949 435.349 357.707 435.003C357.466 434.656 357.334 434.261 357.311 433.818H358.334C358.374 434.213 358.553 434.54 358.871 434.798C359.192 435.054 359.575 435.182 360.021 435.182C360.379 435.182 360.697 435.098 360.976 434.93C361.257 434.763 361.477 434.533 361.636 434.24C361.798 433.945 361.879 433.611 361.879 433.239C361.879 432.858 361.795 432.518 361.628 432.22C361.463 431.919 361.236 431.682 360.946 431.509C360.656 431.335 360.325 431.247 359.953 431.244C359.686 431.241 359.412 431.283 359.131 431.368C358.849 431.45 358.618 431.557 358.436 431.688L357.447 431.568L357.976 427.273H362.51V428.21H358.862L358.555 430.784H358.607C358.786 430.642 359.01 430.524 359.28 430.43C359.55 430.337 359.831 430.29 360.124 430.29C360.658 430.29 361.134 430.418 361.551 430.673C361.972 430.926 362.301 431.273 362.54 431.713C362.781 432.153 362.902 432.656 362.902 433.222C362.902 433.778 362.777 434.276 362.527 434.713C362.28 435.148 361.939 435.491 361.504 435.744C361.07 435.994 360.575 436.119 360.021 436.119ZM367.441 436.119C366.799 436.119 366.252 435.945 365.801 435.595C365.349 435.243 365.004 434.733 364.765 434.065C364.527 433.395 364.407 432.585 364.407 431.636C364.407 430.693 364.527 429.888 364.765 429.22C365.007 428.55 365.353 428.038 365.805 427.686C366.26 427.331 366.805 427.153 367.441 427.153C368.078 427.153 368.622 427.331 369.074 427.686C369.528 428.038 369.875 428.55 370.113 429.22C370.355 429.888 370.475 430.693 370.475 431.636C370.475 432.585 370.356 433.395 370.118 434.065C369.879 434.733 369.534 435.243 369.082 435.595C368.63 435.945 368.083 436.119 367.441 436.119ZM367.441 435.182C368.078 435.182 368.572 434.875 368.924 434.261C369.277 433.648 369.453 432.773 369.453 431.636C369.453 430.881 369.372 430.237 369.21 429.706C369.051 429.175 368.821 428.77 368.52 428.491C368.221 428.213 367.862 428.074 367.441 428.074C366.811 428.074 366.318 428.385 365.963 429.007C365.608 429.626 365.43 430.503 365.43 431.636C365.43 432.392 365.51 433.034 365.669 433.562C365.828 434.091 366.056 434.493 366.355 434.768C366.656 435.044 367.018 435.182 367.441 435.182ZM371.89 434.21V433.341L375.725 427.273H376.356V428.619H375.93L373.032 433.205V433.273H378.197V434.21H371.89ZM375.998 436V433.946V433.541V427.273H377.004V436H375.998Z" fill="black"/>
<path id="text_room_101_7" d="M333.553 376H332.445L335.65 367.273H336.741L339.945 376H338.838L336.23 368.653H336.161L333.553 376ZM333.963 372.591H338.428V373.528H333.963V372.591ZM340.996 378.455C340.825 378.455 340.673 378.44 340.54 378.412C340.406 378.386 340.314 378.361 340.263 378.335L340.519 377.449C340.763 377.511 340.979 377.534 341.166 377.517C341.354 377.5 341.52 377.416 341.665 377.266C341.813 377.118 341.948 376.878 342.07 376.545L342.257 376.034L339.837 369.455H340.928L342.735 374.67H342.803L344.61 369.455H345.7L342.922 376.955C342.797 377.293 342.642 377.572 342.458 377.794C342.273 378.018 342.058 378.185 341.814 378.293C341.573 378.401 341.3 378.455 340.996 378.455ZM345.778 377.875V375.062H346.324C346.457 374.923 346.572 374.773 346.669 374.611C346.765 374.449 346.849 374.257 346.92 374.036C346.994 373.811 347.057 373.538 347.108 373.217C347.159 372.893 347.204 372.503 347.244 372.045L347.466 369.455H351.625V375.062H352.631V377.875H351.625V376H346.784V377.875H345.778ZM347.466 375.062H350.619V370.392H348.403L348.233 372.045C348.162 372.73 348.074 373.328 347.969 373.839C347.863 374.351 347.696 374.759 347.466 375.062ZM360.051 376.119C359.551 376.119 359.1 376.02 358.7 375.821C358.299 375.622 357.978 375.349 357.737 375.003C357.495 374.656 357.363 374.261 357.34 373.818H358.363C358.403 374.213 358.582 374.54 358.9 374.798C359.221 375.054 359.605 375.182 360.051 375.182C360.409 375.182 360.727 375.098 361.005 374.93C361.286 374.763 361.507 374.533 361.666 374.24C361.828 373.945 361.909 373.611 361.909 373.239C361.909 372.858 361.825 372.518 361.657 372.22C361.492 371.919 361.265 371.682 360.975 371.509C360.686 371.335 360.355 371.247 359.982 371.244C359.715 371.241 359.441 371.283 359.16 371.368C358.879 371.45 358.647 371.557 358.465 371.688L357.477 371.568L358.005 367.273H362.539V368.21H358.892L358.585 370.784H358.636C358.815 370.642 359.039 370.524 359.309 370.43C359.579 370.337 359.86 370.29 360.153 370.29C360.687 370.29 361.163 370.418 361.58 370.673C362.001 370.926 362.33 371.273 362.569 371.713C362.811 372.153 362.931 372.656 362.931 373.222C362.931 373.778 362.806 374.276 362.556 374.713C362.309 375.148 361.968 375.491 361.534 375.744C361.099 375.994 360.605 376.119 360.051 376.119ZM367.471 376.119C366.829 376.119 366.282 375.945 365.83 375.595C365.378 375.243 365.033 374.733 364.795 374.065C364.556 373.395 364.437 372.585 364.437 371.636C364.437 370.693 364.556 369.888 364.795 369.22C365.036 368.55 365.383 368.038 365.834 367.686C366.289 367.331 366.834 367.153 367.471 367.153C368.107 367.153 368.651 367.331 369.103 367.686C369.557 368.038 369.904 368.55 370.143 369.22C370.384 369.888 370.505 370.693 370.505 371.636C370.505 372.585 370.385 373.395 370.147 374.065C369.908 374.733 369.563 375.243 369.111 375.595C368.66 375.945 368.113 376.119 367.471 376.119ZM367.471 375.182C368.107 375.182 368.601 374.875 368.954 374.261C369.306 373.648 369.482 372.773 369.482 371.636C369.482 370.881 369.401 370.237 369.239 369.706C369.08 369.175 368.85 368.77 368.549 368.491C368.251 368.213 367.891 368.074 367.471 368.074C366.84 368.074 366.347 368.385 365.992 369.007C365.637 369.626 365.459 370.503 365.459 371.636C365.459 372.392 365.539 373.034 365.698 373.562C365.857 374.091 366.086 374.493 366.384 374.768C366.685 375.044 367.047 375.182 367.471 375.182ZM375.073 376.119C374.51 376.119 374.009 376.023 373.569 375.83C373.131 375.636 372.783 375.368 372.525 375.024C372.269 374.678 372.13 374.276 372.107 373.818H373.181C373.204 374.099 373.3 374.342 373.471 374.547C373.641 374.749 373.864 374.905 374.14 375.016C374.415 375.126 374.721 375.182 375.056 375.182C375.431 375.182 375.763 375.116 376.053 374.986C376.343 374.855 376.57 374.673 376.735 374.44C376.9 374.207 376.982 373.938 376.982 373.631C376.982 373.31 376.903 373.027 376.743 372.783C376.584 372.536 376.351 372.342 376.045 372.203C375.738 372.064 375.363 371.994 374.92 371.994H374.221V371.057H374.92C375.266 371.057 375.57 370.994 375.831 370.869C376.096 370.744 376.302 370.568 376.449 370.341C376.6 370.114 376.675 369.847 376.675 369.54C376.675 369.244 376.61 368.987 376.479 368.768C376.349 368.55 376.164 368.379 375.925 368.257C375.689 368.135 375.411 368.074 375.09 368.074C374.789 368.074 374.505 368.129 374.238 368.24C373.974 368.348 373.758 368.506 373.59 368.713C373.422 368.918 373.331 369.165 373.317 369.455H372.295C372.312 368.997 372.449 368.597 372.708 368.253C372.966 367.906 373.305 367.636 373.722 367.443C374.143 367.25 374.604 367.153 375.107 367.153C375.647 367.153 376.11 367.263 376.496 367.482C376.883 367.697 377.18 367.983 377.387 368.338C377.594 368.693 377.698 369.077 377.698 369.489C377.698 369.98 377.569 370.399 377.31 370.746C377.055 371.092 376.706 371.332 376.266 371.466V371.534C376.817 371.625 377.248 371.859 377.557 372.237C377.867 372.612 378.022 373.077 378.022 373.631C378.022 374.105 377.893 374.531 377.634 374.909C377.378 375.284 377.029 375.58 376.586 375.795C376.143 376.011 375.638 376.119 375.073 376.119Z" fill="black"/>
<path id="text_room_101_8" d="M333.741 315H332.633L335.838 306.273H336.928L340.133 315H339.025L336.417 307.653H336.349L333.741 315ZM334.15 311.591H338.616V312.528H334.15V311.591ZM341.183 317.455C341.013 317.455 340.861 317.44 340.727 317.412C340.594 317.386 340.502 317.361 340.45 317.335L340.706 316.449C340.95 316.511 341.166 316.534 341.354 316.517C341.541 316.5 341.708 316.416 341.852 316.266C342 316.118 342.135 315.878 342.257 315.545L342.445 315.034L340.024 308.455H341.115L342.922 313.67H342.99L344.797 308.455H345.888L343.11 315.955C342.985 316.293 342.83 316.572 342.645 316.794C342.46 317.018 342.246 317.185 342.002 317.293C341.76 317.401 341.487 317.455 341.183 317.455ZM345.966 316.875V314.062H346.511C346.645 313.923 346.76 313.773 346.856 313.611C346.953 313.449 347.037 313.257 347.108 313.036C347.182 312.811 347.244 312.538 347.295 312.217C347.346 311.893 347.392 311.503 347.432 311.045L347.653 308.455H351.812V314.062H352.818V316.875H351.812V315H346.971V316.875H345.966ZM347.653 314.062H350.807V309.392H348.591L348.42 311.045C348.349 311.73 348.261 312.328 348.156 312.839C348.051 313.351 347.883 313.759 347.653 314.062ZM360.238 315.119C359.738 315.119 359.288 315.02 358.887 314.821C358.487 314.622 358.166 314.349 357.924 314.003C357.683 313.656 357.551 313.261 357.528 312.818H358.551C358.59 313.213 358.769 313.54 359.088 313.798C359.409 314.054 359.792 314.182 360.238 314.182C360.596 314.182 360.914 314.098 361.193 313.93C361.474 313.763 361.694 313.533 361.853 313.24C362.015 312.945 362.096 312.611 362.096 312.239C362.096 311.858 362.012 311.518 361.845 311.22C361.68 310.919 361.453 310.682 361.163 310.509C360.873 310.335 360.542 310.247 360.17 310.244C359.903 310.241 359.629 310.283 359.347 310.368C359.066 310.45 358.835 310.557 358.653 310.688L357.664 310.568L358.193 306.273H362.727V307.21H359.079L358.772 309.784H358.823C359.002 309.642 359.227 309.524 359.497 309.43C359.767 309.337 360.048 309.29 360.34 309.29C360.874 309.29 361.35 309.418 361.768 309.673C362.188 309.926 362.518 310.273 362.757 310.713C362.998 311.153 363.119 311.656 363.119 312.222C363.119 312.778 362.994 313.276 362.744 313.713C362.497 314.148 362.156 314.491 361.721 314.744C361.286 314.994 360.792 315.119 360.238 315.119ZM367.658 315.119C367.016 315.119 366.469 314.945 366.018 314.595C365.566 314.243 365.221 313.733 364.982 313.065C364.743 312.395 364.624 311.585 364.624 310.636C364.624 309.693 364.743 308.888 364.982 308.22C365.224 307.55 365.57 307.038 366.022 306.686C366.476 306.331 367.022 306.153 367.658 306.153C368.295 306.153 368.839 306.331 369.29 306.686C369.745 307.038 370.091 307.55 370.33 308.22C370.572 308.888 370.692 309.693 370.692 310.636C370.692 311.585 370.573 312.395 370.334 313.065C370.096 313.733 369.751 314.243 369.299 314.595C368.847 314.945 368.3 315.119 367.658 315.119ZM367.658 314.182C368.295 314.182 368.789 313.875 369.141 313.261C369.493 312.648 369.67 311.773 369.67 310.636C369.67 309.881 369.589 309.237 369.427 308.706C369.268 308.175 369.037 307.77 368.736 307.491C368.438 307.213 368.079 307.074 367.658 307.074C367.028 307.074 366.535 307.385 366.18 308.007C365.824 308.626 365.647 309.503 365.647 310.636C365.647 311.392 365.726 312.034 365.885 312.562C366.045 313.091 366.273 313.493 366.572 313.768C366.873 314.044 367.235 314.182 367.658 314.182ZM372.312 315V314.233L375.192 311.08C375.53 310.71 375.809 310.389 376.028 310.116C376.246 309.841 376.408 309.582 376.513 309.341C376.621 309.097 376.675 308.841 376.675 308.574C376.675 308.267 376.601 308.001 376.454 307.777C376.309 307.553 376.11 307.379 375.857 307.257C375.604 307.135 375.32 307.074 375.005 307.074C374.67 307.074 374.377 307.143 374.127 307.283C373.88 307.419 373.688 307.611 373.552 307.858C373.418 308.105 373.351 308.395 373.351 308.727H372.346C372.346 308.216 372.464 307.767 372.699 307.381C372.935 306.994 373.256 306.693 373.662 306.477C374.072 306.261 374.53 306.153 375.039 306.153C375.55 306.153 376.003 306.261 376.398 306.477C376.793 306.693 377.103 306.984 377.327 307.351C377.552 307.717 377.664 308.125 377.664 308.574C377.664 308.895 377.606 309.209 377.489 309.516C377.376 309.82 377.177 310.159 376.893 310.534C376.611 310.906 376.221 311.361 375.721 311.898L373.76 313.994V314.062H377.817V315H372.312Z" fill="black"/>
<path id="text_room_101_9" d="M334.585 247H333.477L336.681 238.273H337.772L340.977 247H339.869L337.261 239.653H337.193L334.585 247ZM334.994 243.591H339.46V244.528H334.994V243.591ZM342.027 249.455C341.857 249.455 341.705 249.44 341.571 249.412C341.438 249.386 341.345 249.361 341.294 249.335L341.55 248.449C341.794 248.511 342.01 248.534 342.198 248.517C342.385 248.5 342.551 248.416 342.696 248.266C342.844 248.118 342.979 247.878 343.101 247.545L343.289 247.034L340.868 240.455H341.959L343.766 245.67H343.834L345.641 240.455H346.732L343.953 247.955C343.828 248.293 343.673 248.572 343.489 248.794C343.304 249.018 343.09 249.185 342.845 249.293C342.604 249.401 342.331 249.455 342.027 249.455ZM346.809 248.875V246.062H347.355C347.488 245.923 347.604 245.773 347.7 245.611C347.797 245.449 347.881 245.257 347.952 245.036C348.025 244.811 348.088 244.538 348.139 244.217C348.19 243.893 348.236 243.503 348.275 243.045L348.497 240.455H352.656V246.062H353.662V248.875H352.656V247H347.815V248.875H346.809ZM348.497 246.062H351.65V241.392H349.434L349.264 243.045C349.193 243.73 349.105 244.328 349 244.839C348.895 245.351 348.727 245.759 348.497 246.062ZM361.082 247.119C360.582 247.119 360.132 247.02 359.731 246.821C359.33 246.622 359.009 246.349 358.768 246.003C358.526 245.656 358.394 245.261 358.372 244.818H359.394C359.434 245.213 359.613 245.54 359.931 245.798C360.252 246.054 360.636 246.182 361.082 246.182C361.44 246.182 361.758 246.098 362.036 245.93C362.318 245.763 362.538 245.533 362.697 245.24C362.859 244.945 362.94 244.611 362.94 244.239C362.94 243.858 362.856 243.518 362.688 243.22C362.524 242.919 362.296 242.682 362.007 242.509C361.717 242.335 361.386 242.247 361.014 242.244C360.747 242.241 360.472 242.283 360.191 242.368C359.91 242.45 359.678 242.557 359.497 242.688L358.508 242.568L359.036 238.273H363.57V239.21H359.923L359.616 241.784H359.667C359.846 241.642 360.07 241.524 360.34 241.43C360.61 241.337 360.892 241.29 361.184 241.29C361.718 241.29 362.194 241.418 362.612 241.673C363.032 241.926 363.362 242.273 363.6 242.713C363.842 243.153 363.963 243.656 363.963 244.222C363.963 244.778 363.838 245.276 363.588 245.713C363.34 246.148 362.999 246.491 362.565 246.744C362.13 246.994 361.636 247.119 361.082 247.119ZM368.502 247.119C367.86 247.119 367.313 246.945 366.861 246.595C366.41 246.243 366.064 245.733 365.826 245.065C365.587 244.395 365.468 243.585 365.468 242.636C365.468 241.693 365.587 240.888 365.826 240.22C366.067 239.55 366.414 239.038 366.866 238.686C367.32 238.331 367.866 238.153 368.502 238.153C369.138 238.153 369.682 238.331 370.134 238.686C370.589 239.038 370.935 239.55 371.174 240.22C371.415 240.888 371.536 241.693 371.536 242.636C371.536 243.585 371.417 244.395 371.178 245.065C370.939 245.733 370.594 246.243 370.143 246.595C369.691 246.945 369.144 247.119 368.502 247.119ZM368.502 246.182C369.138 246.182 369.633 245.875 369.985 245.261C370.337 244.648 370.513 243.773 370.513 242.636C370.513 241.881 370.432 241.237 370.27 240.706C370.111 240.175 369.881 239.77 369.58 239.491C369.282 239.213 368.922 239.074 368.502 239.074C367.871 239.074 367.378 239.385 367.023 240.007C366.668 240.626 366.491 241.503 366.491 242.636C366.491 243.392 366.57 244.034 366.729 244.562C366.888 245.091 367.117 245.493 367.415 245.768C367.716 246.044 368.079 246.182 368.502 246.182ZM376.224 238.273V247H375.167V239.381H375.116L372.985 240.795V239.722L375.167 238.273H376.224Z" fill="black"/>
</g>
<defs>
<linearGradient id="paint0_linear_14_362" x1="275.136" y1="594.324" x2="273.087" y2="666.4" gradientUnits="userSpaceOnUse">
<stop stop-color="#C5DCE4"/>
<stop offset="1" stop-color="#29363B"/>
</linearGradient>
<linearGradient id="paint1_linear_14_362" x1="332.41" y1="186.903" x2="283.799" y2="185.537" gradientUnits="userSpaceOnUse">
<stop stop-color="#C5DCE4"/>
<stop offset="1" stop-color="#29363B"/>
</linearGradient>
</defs>
</svg>
